<?xml version="1.0" encoding="UTF-8"?>
<svg version="1.1" viewBox="0 0 24 24" xmlns="http://www.w3.org/2000/svg" xmlns:xlink="http://www.w3.org/1999/xlink">
    <!--Generated by IJSVG (https://github.com/iconjar/IJSVG)-->
    <path d="M19.5818,12.2734c-0.0439,-0.6194 -0.2509,-1.0886 -0.6229,-1.4088c-0.3698,-0.3216 -0.8313,-0.483 -1.3817,-0.483c-0.5994,0 -1.0617,0.1727 -1.3908,0.5114c-0.3307,0.3382 -0.5369,0.7983 -0.6211,1.3804m6.3579,-0.2321c0.0607,0.4072 0.0876,0.9979 0.0768,1.77h-6.4907c0.036,0.8963 0.3451,1.5226 0.9319,1.8811c0.3534,0.2249 0.7822,0.3347 1.2849,0.3347c0.5291,0 0.9611,-0.134 1.2936,-0.4092c0.181,-0.1457 0.3407,-0.3518 0.4787,-0.6113h2.3792c-0.0625,0.5289 -0.349,1.0659 -0.8634,1.6112c-0.7978,0.8666 -1.9164,1.3015 -3.3528,1.3015c-1.1867,0 -2.2328,-0.3667 -3.1405,-1.0972c-0.9051,-0.733 -1.3595,-1.922 -1.3595,-3.5713c0,-1.5466 0.408,-2.7301 1.2267,-3.55415c0.8217,-0.82566 1.8821,-1.23635 3.1891,-1.23635c0.7748,0 1.4733,0.13822 2.0962,0.41692c0.6215,0.27871 1.1346,0.7174 1.5392,1.32018c0.3655,0.5307 0.6012,1.1445 0.7106,1.8439Zm-12.3451,2.0245c0,-0.6468 -0.26434,-1.0935 -0.79175,-1.3333c-0.29472,-0.1362 -0.71101,-0.2058 -1.24449,-0.2109h-2.67129v3.3166h2.63006c0.54,0 0.95844,-0.0704 1.26012,-0.2182c0.54432,-0.2714 0.81735,-0.7877 0.81735,-1.5542Zm-4.70753,-3.6046h2.63353c0.54086,0 0.97884,-0.1032 1.31568,-0.3085c0.33641,-0.20537 0.50441,-0.57029 0.50441,-1.09436c0,-0.57894 -0.22225,-0.96321 -0.6685,-1.14812c-0.38328,-0.12846 -0.87378,-0.19469 -1.46889,-0.19469h-2.31623m6.84496,4.70517c0.3234,0.5005 0.4848,1.109 0.4848,1.8227c0,0.7385 -0.1823,1.4008 -0.553,1.9859c-0.2357,0.3874 -0.5287,0.7146 -0.8803,0.9777c-0.3963,0.3045 -0.86554,0.5132 -1.40466,0.625c-0.54086,0.1117 -1.12641,0.168 -1.75713,0.168h-5.60521v-12.4458h6.01064c1.51536,0.02491 2.58926,0.46359 3.22346,1.32569c0.3807,0.52873 0.5691,1.16324 0.5691,1.90044c0,0.76096 -0.191,1.36968 -0.5752,1.83238c-0.2136,0.2592 -0.5296,0.4952 -0.9476,0.7081c0.6333,0.232 1.1138,0.597 1.4351,1.0999Zm8.3485,-5.10498h-5.0122v-1.24503h5.0122v1.24503Z" fill="#000"></path>
</svg>