<svg width="56" height="56" viewBox="0 0 56 56" fill="none" xmlns="http://www.w3.org/2000/svg">
<g clip-path="url(#clip0)">
<path d="M28.5528 0C15.5618 0 5 10.6262 5 23.6964C5 35.5977 13.7663 45.4801 25.2787 47.074C25.173 47.074 25.173 47.1803 25.0674 47.1803C22.6382 48.0304 20.7371 49.6243 19.364 51.2182L19.2584 51.3245C19.1528 51.4307 19.0472 51.537 19.0472 51.6433C18.9416 51.7495 18.836 51.8558 18.7303 51.9621C18.6247 52.0683 18.6247 52.1746 18.5191 52.2808L18.4135 52.3871C18.0966 52.8121 17.8854 53.2372 17.7798 53.556C17.7798 53.6622 17.6742 53.6622 17.6742 53.7685V53.8748C17.5685 54.0873 17.5685 54.1936 17.4629 54.4061C17.2517 55.0436 17.2517 55.2562 17.3573 55.575C17.4629 55.7875 17.6742 55.8937 17.8854 55.8937C18.0966 55.8937 18.3079 55.7875 18.4135 55.575C18.836 55.2562 19.7865 54.2998 22.427 54.2998C24.2225 54.2998 26.3348 54.7249 28.8697 55.575C29.8202 55.8937 30.6652 56 31.5101 56C34.573 56 36.6854 54.1935 37.8472 52.5996C39.2202 50.8994 39.9595 49.093 39.9595 48.4554C39.9595 48.0304 39.6427 47.7116 39.3258 47.7116C39.009 47.7116 38.9034 47.8178 38.4809 48.1366C37.636 48.8805 35.6292 50.5806 32.5663 50.5806C31.1933 50.5806 29.7146 50.2619 28.236 49.518C26.9685 48.8805 25.8067 48.5617 24.6449 48.5617C26.1236 47.9241 28.0247 47.3928 30.7708 47.074C31.2989 47.074 31.827 46.9677 32.3551 46.8615C32.5663 46.8615 32.6719 46.7552 32.8831 46.7552C33.2 46.7552 33.4112 46.649 33.7281 46.5427C44.1843 44.2049 52 34.7476 52 23.4839C52 10.6262 41.5438 0 28.5528 0ZM39.6427 15.0892C39.6427 15.5142 39.3258 15.833 38.9034 15.833C38.4809 15.833 38.164 15.5142 38.164 15.0892V14.5579H33.0944V23.9089C33.0944 24.8653 33.0944 25.9279 34.1506 26.0342C33.2 26.0342 33.0944 27.203 33.0944 28.1594V36.6603H33.5169C33.9393 36.6603 34.2562 36.9791 34.2562 37.4042C34.2562 37.8292 33.9393 38.148 33.5169 38.148H23.4831C23.0607 38.148 22.7438 37.8292 22.7438 37.4042C22.7438 36.9791 23.0607 36.6603 23.4831 36.6603H24.0112V28.1594C24.0112 27.203 24.0112 26.1404 22.9551 26.0342C23.9056 26.0342 24.0112 24.8653 24.0112 23.9089V14.5579H18.9416V15.0892C18.9416 15.5142 18.6247 15.833 18.2022 15.833C17.7798 15.833 17.4629 15.5142 17.4629 15.0892V11.2638C17.4629 10.8387 17.7798 10.5199 18.2022 10.5199H38.9034C39.3258 10.5199 39.6427 10.8387 39.6427 11.2638V15.0892Z" fill="#A22442"/>
</g>
<defs>
<clipPath id="clip0">
<rect width="56" height="56" fill="white"/>
</clipPath>
</defs>
</svg>
