<svg width="80" height="80" viewBox="0 0 80 80" fill="none" xmlns="http://www.w3.org/2000/svg">
<path d="M28.5 58.2235C22.7787 59.5633 19 61.8741 19 64.5C19 68.6421 28.402 72 40 72C51.598 72 61 68.6421 61 64.5C61 61.8741 57.2213 59.5633 51.5 58.2235" stroke="#DE9095" stroke-width="3" stroke-linecap="round" stroke-linejoin="round"/>
<path d="M60 28.8704C60 16.2444 48.3063 6.57767 35.2252 9.53688C28.2883 11.1151 22.7387 16.4417 20.7567 23.3465C19.1711 29.265 20.1621 34.9861 22.9369 39.5236L37.8018 61.8163C38.7928 63.3946 41.1711 63.3946 42.1621 61.8163L57.027 39.5236C58.8108 36.1698 60 32.6187 60 28.8704Z" stroke="#A22442" stroke-width="3" stroke-linecap="round" stroke-linejoin="round"/>
<path d="M40 38C44.9706 38 49 33.9706 49 29C49 24.0294 44.9706 20 40 20C35.0294 20 31 24.0294 31 29C31 33.9706 35.0294 38 40 38Z" stroke="#DE9095" stroke-width="3" stroke-linecap="round" stroke-linejoin="round"/>
</svg>
