<svg width="80" height="80" viewBox="0 0 80 80" fill="none" xmlns="http://www.w3.org/2000/svg">
<path d="M33.5 23L31.3764 19.2628L34.0622 18.8071C34.2325 18.7782 34.3411 18.609 34.2964 18.4421V18.4421C33.5686 15.724 34.461 12.8291 36.5929 10.9925L38.1168 9.67965C38.2211 9.58981 38.3748 9.58792 38.4813 9.67515V9.67515C40.0169 10.9335 41.0032 12.7395 41.2316 14.7117L41.2467 14.842C41.2767 15.1011 41.6032 15.1969 41.7685 14.9952L42.4303 14.1875C44.3684 11.8222 47.318 10.5227 50.3713 10.6887L53.7649 10.8733L54.373 13.2331C55.2869 16.7796 54.4552 20.5493 52.134 23.3821V23.3821C51.9032 23.6638 52.0417 24.0899 52.3941 24.182L54.3696 24.6985C56.0789 25.1453 57.6713 25.9564 59.0379 27.0762V27.0762C59.2823 27.2765 59.2523 27.6592 58.9796 27.8189L56.9638 29" stroke="#DE9095" stroke-width="3" stroke-linecap="round" stroke-linejoin="round"/>
<circle cx="21.6711" cy="26.1147" r="5.80884" transform="rotate(14.0199 21.6711 26.1147)" stroke="#A22442" stroke-width="3"/>
<circle cx="32.9428" cy="28.9291" r="5.80884" transform="rotate(14.0199 32.9428 28.9291)" stroke="#A22442" stroke-width="3"/>
<circle cx="23.7949" cy="37.72" r="5.80884" transform="rotate(14.0199 23.7949 37.72)" stroke="#A22442" stroke-width="3"/>
<circle cx="44.2143" cy="31.7436" r="5.80884" transform="rotate(14.0199 44.2143 31.7436)" stroke="#A22442" stroke-width="3"/>
<circle cx="35.0666" cy="40.5345" r="5.80884" transform="rotate(14.0199 35.0666 40.5345)" stroke="#A22442" stroke-width="3"/>
<circle cx="27.1013" cy="49.6205" r="5.80884" transform="rotate(14.0199 27.1013 49.6205)" stroke="#A22442" stroke-width="3"/>
<circle cx="55.486" cy="34.558" r="5.80884" transform="rotate(14.0199 55.486 34.558)" stroke="#A22442" stroke-width="3"/>
<circle cx="46.3381" cy="43.3489" r="5.80884" transform="rotate(14.0199 46.3381 43.3489)" stroke="#A22442" stroke-width="3"/>
<circle cx="38.3727" cy="52.4351" r="5.80884" transform="rotate(14.0199 38.3727 52.4351)" stroke="#A22442" stroke-width="3"/>
<circle cx="30.1962" cy="61.4684" r="5.80884" transform="rotate(14.0199 30.1962 61.4684)" stroke="#A22442" stroke-width="3"/>
</svg>
