<svg width="80" height="80" viewBox="0 0 80 80" fill="none" xmlns="http://www.w3.org/2000/svg">
<path d="M16.3138 18.2426C18.6569 15.8995 22.4559 15.8995 24.799 18.2426L31.8701 25.3137C34.2133 27.6569 34.2133 31.4558 31.8701 33.799L30.4559 35.2132C28.8938 36.7753 28.8938 39.308 30.4559 40.8701L41.7696 52.1838C43.3317 53.7459 45.8644 53.7459 47.4265 52.1838L48.8407 50.7696C51.1838 48.4264 54.9828 48.4264 57.3259 50.7696L64.397 57.8406C66.7402 60.1838 66.7402 63.9828 64.397 66.3259L63.6899 67.033C57.832 72.8909 48.3346 72.8909 42.4767 67.033L15.6066 40.163C9.74879 34.3051 9.74879 24.8076 15.6066 18.9497L16.3138 18.2426Z" stroke="#A22442" stroke-width="3" stroke-linecap="round" stroke-linejoin="round"/>
<path d="M20.2874 22.7543L27.3584 29.8253" stroke="#DE9095" stroke-width="3" stroke-linecap="round" stroke-linejoin="round"/>
<path d="M52.8142 55.2812L59.8853 62.3523" stroke="#DE9095" stroke-width="3" stroke-linecap="round" stroke-linejoin="round"/>
<path d="M47.2425 24.2635L47.8887 24.3132C52.8065 24.6915 56.714 28.599 57.0923 33.5168L57.142 34.163" stroke="#DE9095" stroke-width="3" stroke-linecap="round" stroke-linejoin="round"/>
<path d="M47.9497 15.0711L48.195 15.1031C57.6384 16.3348 65.0707 23.7671 66.3025 33.2106L66.3345 33.4558" stroke="#DE9095" stroke-width="3" stroke-linecap="round" stroke-linejoin="round"/>
</svg>
