<svg width="80" height="80" viewBox="0 0 80 80" fill="none" xmlns="http://www.w3.org/2000/svg">
<rect x="8" y="16" width="64" height="48" rx="5" stroke="#DE9095" stroke-width="3" stroke-linecap="round" stroke-linejoin="round"/>
<path d="M40 31V49" stroke="#DE9095" stroke-width="3" stroke-linecap="round" stroke-linejoin="round"/>
<path d="M40 22V24" stroke="#DE9095" stroke-width="3" stroke-linecap="round" stroke-linejoin="round"/>
<path d="M40 56V58" stroke="#DE9095" stroke-width="3" stroke-linecap="round" stroke-linejoin="round"/>
<path d="M64 36H48" stroke="#A22442" stroke-width="3" stroke-linecap="round" stroke-linejoin="round"/>
<path d="M56 28H48" stroke="#A22442" stroke-width="3" stroke-linecap="round" stroke-linejoin="round"/>
<path d="M32 57H16" stroke="#A22442" stroke-width="3" stroke-linecap="round" stroke-linejoin="round"/>
<path d="M24 50H16" stroke="#A22442" stroke-width="3" stroke-linecap="round" stroke-linejoin="round"/>
<path d="M64 44H48" stroke="#A22442" stroke-width="3" stroke-linecap="round" stroke-linejoin="round"/>
<path d="M64 52H48" stroke="#A22442" stroke-width="3" stroke-linecap="round" stroke-linejoin="round"/>
<path d="M26 42L20 42" stroke="#A22442" stroke-width="3" stroke-linecap="round" stroke-linejoin="round"/>
<path d="M23 42L23 35" stroke="#A22442" stroke-width="3" stroke-linecap="round" stroke-linejoin="round"/>
<path d="M17.8571 23H28.1429L28.5725 29.0153C28.8035 32.2492 26.2422 35 23 35V35C19.7578 35 17.1965 32.2492 17.4275 29.0152L17.8571 23Z" stroke="#A22442" stroke-width="3" stroke-linecap="round" stroke-linejoin="round"/>
</svg>
