<svg width="80" height="80" viewBox="0 0 80 80" fill="none" xmlns="http://www.w3.org/2000/svg">
<path d="M49.0001 57C61.7026 57 72.0001 46.7025 72.0001 34C72.0001 21.2975 61.7026 11 49.0001 11C38.5549 11 29.736 17.9627 26.9314 27.5" stroke="#DE9095" stroke-width="3"/>
<path d="M49 20L49 34" stroke="#DE9095" stroke-width="3" stroke-linecap="round" stroke-linejoin="round"/>
<path d="M56.0713 27L49.0002 34.0711" stroke="#DE9095" stroke-width="3" stroke-linecap="round" stroke-linejoin="round"/>
<path d="M13.6708 10.8392C13.8527 10.7342 14.0853 10.7965 14.1904 10.9785L21.9821 24.4742C22.9012 26.066 24.5126 27.1355 26.3364 27.3642C30.1583 27.8434 33.5353 30.0848 35.4612 33.4206L52.846 63.5319C53.5883 64.8177 53.1478 66.4618 51.862 67.2042L38.3317 75.0159C37.0459 75.7582 35.4018 75.3177 34.6595 74.0319L17.2747 43.9206C15.3487 40.5848 15.0961 36.5396 16.5921 32.9901L15.2098 32.4075L16.5921 32.9901C17.3059 31.2963 17.1854 29.366 16.2664 27.7742L8.47462 14.2785C8.36957 14.0965 8.43191 13.8639 8.61385 13.7588L13.6708 10.8392Z" stroke="#A22442" stroke-width="3"/>
<path d="M11.6389 20.358L17.8743 16.758" stroke="#A22442" stroke-width="3"/>
<path d="M29.0551 40.3247C28.9171 40.0856 28.999 39.7798 29.2382 39.6417L36.5994 35.3917L47.6448 54.523L40.2836 58.773C40.0445 58.911 39.7387 58.8291 39.6006 58.59L29.0551 40.3247Z" stroke="#A22442" stroke-width="3" stroke-linecap="round" stroke-linejoin="round"/>
</svg>
