<svg width="748" height="767" viewBox="0 0 748 767" fill="none" xmlns="http://www.w3.org/2000/svg">
<g clip-path="url(#clip0)">
<path opacity="0.6" d="M109.1 334.5C118.1 349.8 124.9 366.3 132.3 382.5L137.8 394.6L143.4 406.7C147.1 414.8 150.1 423.2 152.6 431.8C153.8 436.1 154.8 440.4 155.6 444.9C156 447.1 156.3 449.3 156.5 451.6C156.7 453.9 156.6 456.1 156.5 458.4C156.2 467.3 154.5 476.2 151.8 484.7C146.3 501.7 137.7 517.4 128.6 532.6C132.8 524.8 137 517 140.7 508.9C144.5 500.9 147.9 492.7 150.4 484.2C152.9 475.7 154.5 467 154.8 458.2C154.9 456 154.9 453.8 154.8 451.6C154.6 449.4 154.3 447.3 153.9 445.1C153.1 440.8 152 436.5 150.8 432.2C148.4 423.7 145.5 415.3 141.9 407.3C138.2 399.2 134.5 391.2 131 383C127.5 374.8 124.1 366.7 120.5 358.5C117 350.4 113.3 342.4 109.1 334.5Z" fill="#504B4B"/>
<path opacity="0.6" d="M100 347.3C105.4 354.4 110.7 361.6 115.7 369C120.7 376.4 125.4 384 129.7 391.8C138.3 407.4 144.9 424.3 148.5 441.9C149.5 446.3 150.1 450.8 150.1 455.3C150.2 459.8 149.9 464.3 149.2 468.8C147.8 477.7 145.2 486.3 141.8 494.6C138.4 502.9 134.3 510.9 130 518.7C125.6 526.5 121 534.1 116.6 541.8C124.7 525.9 134 510.7 140.4 494.1C143.6 485.8 146.2 477.3 147.5 468.6C148.1 464.2 148.4 459.8 148.3 455.4C148.2 451 147.6 446.7 146.6 442.3C144.9 433.6 142.4 425.1 139.3 416.8C136.2 408.5 132.5 400.4 128.4 392.6C124.3 384.7 119.7 377.1 114.9 369.6C112.5 365.8 110.1 362.1 107.6 358.4L100 347.3Z" fill="#504B4B"/>
<path opacity="0.6" d="M96.7998 351.8L111.7 374C114.2 377.7 116.6 381.5 119 385.2C120.2 387.1 121.4 389 122.5 390.9C123.1 391.9 123.6 392.9 124.1 393.9L125.7 396.8C130 404.6 133.5 413 136.1 421.6C138.7 430.2 140.4 439.1 141.3 448C141.4 450.2 141.6 452.5 141.7 454.7C141.7 455.8 141.8 457 141.7 458.1L141.6 459.8L141.4 461.5C140.9 466 140 470.4 138.9 474.8C136.5 483.5 133.4 491.9 129.8 500.1C122.7 516.5 114.5 532.5 104.9 547.5C109.4 539.8 113.5 531.9 117.4 523.9C121.3 515.9 125 507.8 128.4 499.5C131.7 491.2 134.9 482.9 137.2 474.4C138.3 470.1 139.2 465.8 139.6 461.4L139.7 459.8L139.8 458.2C139.9 457.1 139.8 456 139.8 454.9C139.7 452.7 139.5 450.5 139.3 448.3C138.5 439.5 136.8 430.7 134.3 422.2C133 418 131.5 413.8 129.9 409.7C128.2 405.6 126.3 401.6 124.3 397.6L122.8 394.6C122.3 393.6 121.8 392.6 121.3 391.6C120.2 389.7 119.1 387.7 117.9 385.8C115.6 382 113.2 378.2 110.9 374.4L103.8 363.1C101.5 359.4 99.0998 355.6 96.7998 351.8Z" fill="#504B4B"/>
<path opacity="0.6" d="M92.6001 357.7C95.1001 360.5 97.3001 363.6 99.5001 366.7C101.7 369.8 103.8 372.9 105.8 376.1C109.9 382.5 113.8 388.9 117.6 395.5C119.4 398.8 121.3 402.1 123 405.5C124.6 409 126.1 412.5 127.3 416.1C129.8 423.3 131.6 430.7 132.8 438.1C130.8 430.8 128.6 423.6 125.9 416.6C124.5 413.1 123.1 409.7 121.4 406.3C119.7 403 117.9 399.7 116 396.4C112.3 389.8 108.5 383.3 104.6 376.8C102.7 373.6 100.7 370.3 98.8001 367.1C96.8001 364 94.8001 360.8 92.6001 357.7Z" fill="#504B4B"/>
<path opacity="0.6" d="M89 362.8C91.2 366.5 93.6 370.2 95.9 373.9C98.2 377.6 100.5 381.3 102.7 385C103.8 386.9 104.9 388.7 106 390.6C106.5 391.5 107.1 392.5 107.6 393.5C108.1 394.4 108.7 395.3 109.2 396.2C111.5 399.8 113.8 403.6 116 407.4C118.1 411.2 120 415.2 121.9 419.1C123.7 423.1 125.4 427.1 126.9 431.2C130 439.4 132.5 447.7 134.7 456.1C131.8 447.9 128.8 439.7 125.5 431.7C122.2 423.7 118.6 415.8 114.4 408.2C112.3 404.4 110.1 400.7 107.8 397C107.2 396.1 106.7 395.1 106.1 394.1C105.6 393.1 105.1 392.2 104.6 391.2L101.5 385.5C97.2 378.1 92.9 370.6 89 362.8Z" fill="#504B4B"/>
<path opacity="0.6" d="M86.1001 369C89.6001 374 92.9001 379.2 96.1001 384.4C99.3001 389.6 102.3 395 105.2 400.4C106.6 403.1 108 405.8 109.4 408.6C110.7 411.4 112.1 414.1 113.3 416.9C115.8 422.5 118.1 428.2 119.7 434.1C117.3 428.4 114.6 423 111.9 417.5C109.2 412 106.3 406.6 103.4 401.3C100.5 395.9 97.6001 390.5 94.7001 385.2C91.8001 379.9 89.0001 374.5 86.1001 369Z" fill="#504B4B"/>
<path opacity="0.6" d="M82.2998 374.3C83.8998 376.3 85.2998 378.3 86.5998 380.4C87.8998 382.5 89.1998 384.6 90.3998 386.8C91.5998 389 92.7998 391.1 93.8998 393.4C94.9998 395.6 95.9998 397.9 96.8998 400.2C95.2998 398.2 93.8998 396.2 92.5998 394.1C91.2998 392 89.9998 389.9 88.7998 387.8C87.5998 385.6 86.3998 383.5 85.2998 381.3C84.1998 378.9 83.1998 376.6 82.2998 374.3Z" fill="#504B4B"/>
<path opacity="0.6" d="M77.5 381.1C82.8 388.6 88.1 396.1 93.2 403.7L101 415C101.7 415.9 102.3 416.9 103 417.8L105.1 420.6C106.5 422.4 107.8 424.3 109.1 426.2C114.3 433.8 119.1 441.7 123.1 450C127.1 458.3 130.3 467 131.8 476.1C129.6 467.2 126 458.7 121.8 450.7C119.7 446.7 117.4 442.7 115 438.8C112.6 434.9 110.1 431.1 107.5 427.3C106.2 425.4 104.9 423.6 103.5 421.7L101.5 418.9C100.8 417.9 100.2 417 99.5 416C97 412.2 94.4 408.3 92 404.5C87 396.8 82.2 389 77.5 381.1Z" fill="#504B4B"/>
<path opacity="0.6" d="M72.3999 388.3C73.5999 389.4 74.5999 390.6 75.5999 391.8C76.5999 393 77.5999 394.2 78.4999 395.5C79.3999 396.7 80.2999 398 81.1999 399.3C82.0999 400.6 82.8999 401.9 83.6999 403.3C82.2999 402.5 81.0999 401.4 79.9999 400.3C78.8999 399.2 77.8999 398 76.8999 396.7C75.9999 395.4 75.0999 394.1 74.2999 392.7C73.5999 391.2 72.8999 389.8 72.3999 388.3Z" fill="#504B4B"/>
<path opacity="0.6" d="M67.6001 395C72.4001 401.4 78.1001 406.9 83.9001 412.3C86.8001 415 89.8001 417.5 92.8001 420.3C95.7001 423 98.5001 425.9 101.2 428.9C103.9 431.9 106.4 435 108.6 438.3C109.7 439.9 110.8 441.6 111.9 443.3C112.9 445 113.9 446.8 114.9 448.5C115.9 450.1 117.1 451.8 118.1 453.5C119.1 455.2 120.1 457 120.9 458.8C122.6 462.5 123.9 466.3 124.8 470.3C125.7 474.2 125.9 478.3 126 482.3L125.9 485.3C125.9 485.8 125.9 486.3 125.8 486.8L125.6 488.3L125.2 491.3C125.1 492.3 124.8 493.3 124.6 494.3L124 497.3C123.7 498.3 123.4 499.2 123.2 500.2L122.4 503.1C122.1 504 121.7 505 121.4 505.9C120.7 507.8 120.1 509.7 119.4 511.5C118.7 513.4 118 515.2 117.2 517C114.1 524.3 110.6 531.5 106.8 538.5C102.9 545.4 98.6001 552.1 94.0001 558.6C102.5 545.2 110 531.2 115.8 516.4C118.6 509 121.5 501.6 123 493.9C123.2 492.9 123.4 492 123.5 491L123.8 488.1L124 486.6C124 486.1 124 485.6 124.1 485.1L124.2 482.2C124.1 478.3 123.9 474.4 123 470.6C122.2 466.8 121 463.1 119.4 459.5C118.6 457.7 117.7 456 116.7 454.3C115.7 452.6 114.6 451 113.6 449.2C112.6 447.4 111.7 445.7 110.7 444C109.7 442.3 108.6 440.6 107.5 439C105.3 435.7 102.9 432.6 100.3 429.6C97.7001 426.6 95.1001 423.7 92.2001 421C89.4001 418.2 86.4001 415.6 83.5001 412.8C80.7001 410 77.9001 407.2 75.2001 404.2C72.3001 401.3 69.8001 398.3 67.6001 395Z" fill="#504B4B"/>
<path opacity="0.6" d="M63.6001 400.5L79.7001 417.7C85.1001 423.4 90.4001 429.2 96.0001 434.7C98.9001 437.4 101.5 440.4 103.8 443.6C106.2 446.8 108.4 450.1 110.3 453.5C112.3 456.9 114.1 460.5 115.5 464.2C116.9 467.9 118.1 471.8 118.6 475.7C118.7 476.7 118.8 477.7 118.9 478.7C118.9 479.7 118.9 480.7 118.9 481.7L118.7 484.7L118.3 487.7C117.7 491.6 116.7 495.5 115.5 499.3C113.2 506.9 110.2 514.2 106.8 521.2C99.9001 535.3 92.6001 549.2 85.3001 563.1C88.6001 556 92.0001 548.9 95.3001 541.8C98.7001 534.7 102.2 527.7 105.4 520.6C108.6 513.5 111.6 506.2 113.8 498.8C114.9 495.1 115.8 491.3 116.4 487.5L116.8 484.6L117 481.7C117 480.7 117 479.8 117 478.8C117 477.9 116.8 476.9 116.7 476C116.2 472.2 115.1 468.5 113.8 464.9C112.4 461.3 110.7 457.8 108.8 454.4C104.9 447.7 100.3 441.3 94.9001 435.8C84.0001 424.3 73.8001 412.5 63.6001 400.5Z" fill="#504B4B"/>
<path opacity="0.6" d="M59.7002 406C65.2002 411.6 70.6002 417.4 76.1002 423L92.3002 440.2C93.6002 441.6 95.0002 443.1 96.4002 444.5C97.0002 445.3 97.7002 446 98.3002 446.8C98.9002 447.6 99.5002 448.4 100.1 449.2C102.4 452.5 104.4 455.9 106.1 459.5C107 461.3 107.7 463.1 108.4 465C108.7 465.9 109 466.9 109.4 467.8C109.6 468.3 109.7 468.7 109.9 469.2L110.3 470.7C111.4 474.6 111.9 478.6 112 482.6V485.6C112 486.6 111.8 487.6 111.7 488.6C111.6 490.6 111 492.6 110.6 494.5C110.5 494.7 110.5 495 110.4 495.2L110.2 495.9L109.7 497.3C109.4 498.2 109.1 499.2 108.7 500.1C107.9 501.9 107.2 503.8 106.4 505.6C103.3 512.8 100 520 96.6002 527.1C93.2002 534.2 89.7002 541.3 86.2002 548.3L80.7002 559L78.1002 564.3C77.3002 566.1 76.3002 567.8 75.7002 569.7C77.0002 566 78.7002 562.4 80.3002 558.8L85.2002 548.1C88.5002 541 91.9002 533.8 95.1002 526.7C98.3002 519.5 101.6 512.4 104.7 505.1C105.5 503.3 106.2 501.5 106.9 499.7C107.3 498.8 107.5 497.9 107.8 497L108.3 495.6L108.5 494.9C108.6 494.7 108.6 494.4 108.7 494.2C109.1 492.3 109.6 490.4 109.7 488.5C109.8 487.5 110 486.6 109.9 485.6V482.7C109.8 478.9 109.3 475 108.3 471.3L108 469.9C107.9 469.4 107.7 469 107.6 468.5C107.3 467.6 107 466.7 106.7 465.7C106 463.9 105.3 462.1 104.5 460.3C102.9 456.8 100.9 453.4 98.7002 450.2C98.1002 449.4 97.6002 448.6 97.0002 447.8C96.4002 447 95.8002 446.3 95.2002 445.5C93.9002 444.1 92.6002 442.6 91.3002 441.1L75.5002 423.6C70.1002 417.8 64.9002 412 59.7002 406Z" fill="#504B4B"/>
<path opacity="0.6" d="M56.6001 410.4C61.8001 416 66.9001 421.7 72.0001 427.4L79.6001 436C82.2001 438.8 84.9001 441.6 87.3001 444.6C92.2001 450.5 96.4001 457.1 99.4001 464.3C102.5 471.4 104.2 479.2 103.8 487C103.6 490.9 102.8 494.8 101.6 498.5C101 500.4 100.2 502.2 99.4001 503.9L97.0001 509L87.2001 529.7C83.9001 536.6 80.8001 543.6 77.8001 550.6C74.8001 557.6 72.0001 564.7 69.6001 572C73.5001 557.2 79.7001 543 85.8001 529C88.9001 522 92.2001 515.1 95.4001 508.1L97.8001 502.9C98.6001 501.2 99.3001 499.5 99.9001 497.7C101.1 494.1 101.8 490.4 102 486.7C102.4 479.2 100.8 471.7 97.9001 464.7C95.0001 457.7 90.9001 451.3 86.2001 445.3C83.9001 442.3 81.3001 439.5 78.8001 436.6L71.3001 427.9C66.4001 422.1 61.4001 416.3 56.6001 410.4Z" fill="#504B4B"/>
<path opacity="0.6" d="M53.3999 414.9C58.4999 420.8 63.4999 426.7 68.3999 432.7C73.2999 438.7 78.1999 444.7 82.9999 450.9C87.4999 457.4 90.8999 464.5 93.0999 472.1C93.2999 473.1 93.5999 474 93.7999 475L94.3999 477.9C94.6999 479.8 94.8999 481.8 94.9999 483.8C95.0999 487.7 94.5999 491.7 93.1999 495.3C94.0999 491.5 94.3999 487.6 93.9999 483.8C93.6999 480 92.7999 476.2 91.5999 472.6C90.3999 469 88.9999 465.4 87.1999 462C85.4999 458.6 83.5999 455.2 81.3999 452.1L74.2999 443C71.8999 439.9 69.4999 436.9 67.1999 433.8C62.4999 427.5 57.8999 421.2 53.3999 414.9Z" fill="#504B4B"/>
<path opacity="0.6" d="M49.8999 419.7C59.7999 429.9 68.7999 441.2 76.2999 453.4C77.1999 454.9 78.0999 456.5 78.9999 458C79.7999 459.6 80.6999 461.2 81.4999 462.8C83.0999 466 84.5999 469.3 85.5999 472.8C87.6999 479.7 88.3999 487.1 87.6999 494.3C87.0999 501.5 84.8999 508.5 82.4999 515.2L82.2999 515.8L82.1999 516.4L81.8999 517.8C81.5999 518.7 81.2999 519.5 80.9999 520.4C80.3999 522.1 79.7999 523.8 79.0999 525.4C77.8999 528.7 76.5999 532.1 75.2999 535.4C72.6999 542 70.1999 548.7 67.8999 555.4C65.4999 562.1 63.1999 568.9 61.9999 575.9C62.2999 572.3 63.1999 568.9 63.9999 565.4C64.8999 561.9 65.8999 558.5 66.9999 555.1C69.1999 548.3 71.4999 541.6 73.8999 534.8C75.0999 531.4 76.2999 528.1 77.5999 524.7C78.1999 523 78.7999 521.4 79.3999 519.7C79.6999 518.9 79.9999 518 80.1999 517.2L80.2999 516.6L80.3999 516.3L80.4999 515.9C80.5999 515.7 80.5999 515.4 80.6999 515.2L80.8999 514.5C81.9999 511.1 83.1999 507.8 83.9999 504.3C84.8999 500.9 85.4999 497.4 85.7999 493.9C86.5999 486.9 85.9999 479.8 83.9999 473.1C82.9999 469.7 81.5999 466.5 80.0999 463.3C79.2999 461.7 78.4999 460.2 77.6999 458.6C76.8999 457 75.9999 455.5 75.0999 453.9C71.4999 447.8 67.4999 441.9 63.2999 436.1C59.0999 430.6 54.5999 425.1 49.8999 419.7Z" fill="#504B4B"/>
<path opacity="0.6" d="M46.2998 424.8C54.0998 436.4 61.5998 448.2 68.0998 460.6C68.8998 462.2 69.6998 463.7 70.3998 465.4C71.0998 467 71.6998 468.6 72.3998 470.2C73.6998 473.4 74.9998 476.7 75.9998 480.1C77.9998 486.9 78.2998 494.3 76.5998 501.3C76.3998 502.2 76.1998 503 75.8998 503.9C75.5998 504.7 75.3998 505.6 75.0998 506.4C74.4998 508.1 73.8998 509.7 73.1998 511.3C71.8998 514.5 70.6998 517.8 69.5998 521.1C67.1998 527.7 65.0998 534.3 62.7998 540.9C60.5998 547.5 58.4998 554.2 56.3998 560.8C55.3998 564.1 54.3998 567.5 53.3998 570.8C52.8998 572.5 52.4998 574.2 52.0998 575.9C51.6998 577.6 51.2998 579.3 51.0998 581C51.3998 577.5 52.1998 574.1 52.9998 570.7C53.7998 567.3 54.6998 563.9 55.5998 560.5C57.3998 553.8 59.3998 547.1 61.4998 540.4C63.4998 533.7 65.6998 527.1 67.9998 520.5C69.1998 517.2 70.2998 513.9 71.5998 510.6C72.1998 509 72.7998 507.3 73.3998 505.7C73.6998 504.9 73.8998 504.1 74.1998 503.2C74.3998 502.4 74.6998 501.6 74.8998 500.7C76.5998 494.1 76.3998 487.1 74.4998 480.5C73.5998 477.2 72.2998 474 70.9998 470.7L68.9998 465.8C68.3998 464.2 67.5998 462.6 66.8998 461.1C63.8998 454.9 60.3998 448.8 56.9998 442.7C53.4998 436.8 49.8998 430.8 46.2998 424.8Z" fill="#504B4B"/>
<path opacity="0.6" d="M69 479.5C69.5 481 69.8 482.5 70 484.1C70.2 485.6 70.4 487.2 70.5 488.7C70.6 490.2 70.6 491.8 70.6 493.3C70.6 494.8 70.5 496.4 70.2 498C69.7 496.5 69.4 495 69.1 493.4C68.9 491.9 68.7 490.3 68.6 488.8C68.5 487.3 68.5 485.7 68.5 484.2C68.6 482.6 68.8 481 69 479.5Z" fill="#504B4B"/>
<path opacity="0.6" d="M62.5998 465.4C63.0998 469.3 63.4998 473.2 63.7998 477.1C64.0998 481 64.2998 484.9 64.3998 488.8C64.4998 492.7 64.5998 496.6 64.5998 500.5C64.5998 504.4 64.4998 508.3 64.0998 512.2C63.6998 508.3 63.2998 504.4 63.0998 500.5C62.7998 496.6 62.5998 492.7 62.4998 488.8C62.3998 484.9 62.2998 481 62.2998 477.1C62.2998 473.3 62.2998 469.3 62.5998 465.4Z" fill="#504B4B"/>
<path opacity="0.6" d="M55.5999 453C56.8999 465.2 57.5999 477.5 58.1999 489.7C58.4999 495.8 58.6999 501.9 58.8999 508.1L59.0999 517.3C59.1999 520.4 59.1999 523.4 59.3999 526.5C58.3999 520.4 57.8999 514.3 57.3999 508.2C56.8999 502.1 56.5999 496 56.2999 489.8C55.9999 483.7 55.7999 477.5 55.6999 471.4C55.4999 465.3 55.4999 459.1 55.5999 453Z" fill="#504B4B"/>
<path opacity="0.6" d="M48.7998 444.2C50.3998 460.7 51.2998 477.2 52.1998 493.8C52.5998 502.1 52.8998 510.3 53.1998 518.6C53.4998 526.9 53.5998 535.2 53.6998 543.4C52.8998 535.1 52.2998 526.9 51.7998 518.6C51.1998 510.3 50.7998 502.1 50.3998 493.8C49.3998 477.3 48.7998 460.7 48.7998 444.2Z" fill="#504B4B"/>
<path opacity="0.6" d="M41.7998 428.9C43.5998 450.6 44.8998 472.2 45.9998 493.9C46.4998 504.7 47.0998 515.6 47.4998 526.4L48.1998 542.7C48.3998 548.1 48.5998 553.6 48.9998 559C48.4998 556.3 48.2998 553.6 47.9998 550.9L47.2998 542.8C46.8998 537.4 46.3998 532 46.0998 526.6C45.2998 515.8 44.6998 504.9 44.1998 494.1C43.6998 483.3 43.0998 472.4 42.7998 461.5C42.2998 450.6 41.9998 439.8 41.7998 428.9Z" fill="#504B4B"/>
<path opacity="0.6" d="M34.6001 434.1C36.9001 458.6 38.7001 483.1 40.4001 507.6C41.2001 519.9 42.0001 532.1 42.8001 544.4L43.9001 562.8C44.3001 568.9 44.6001 575.1 45.1001 581.2C44.1001 575.1 43.6001 569 42.9001 562.9C42.3001 556.8 41.8001 550.7 41.2001 544.5C40.2001 532.3 39.3001 520 38.4001 507.8C37.6001 495.5 36.8001 483.3 36.1001 471C35.6001 458.6 35.1001 446.4 34.6001 434.1Z" fill="#504B4B"/>
<path opacity="0.6" d="M29.2002 441.7C31.2002 462.7 32.7002 483.7 34.0002 504.8C34.6002 515.3 35.2002 525.8 35.8002 536.4L36.5002 552.2C36.7002 557.5 36.9002 562.7 37.2002 568C36.0002 557.5 35.1002 547 34.3002 536.5C33.5002 526 32.8002 515.5 32.1002 504.9C31.5002 494.4 30.9002 483.8 30.4002 473.3C29.9002 462.7 29.5002 452.2 29.2002 441.7Z" fill="#504B4B"/>
<path opacity="0.6" d="M23.2002 450.1C24.0002 458.3 24.7002 466.5 25.3002 474.7C25.9002 482.9 26.4002 491.1 26.8002 499.4C27.2002 507.6 27.6002 515.9 27.9002 524.1C28.1002 532.3 28.4002 540.6 28.2002 548.8C28.0002 544.7 27.6002 540.6 27.3002 536.5L26.4002 524.2C25.8002 516 25.4002 507.8 24.9002 499.5C24.1002 483 23.4002 466.6 23.2002 450.1Z" fill="#504B4B"/>
<path opacity="0.6" d="M16.7998 459.1C17.7998 465.8 18.5998 472.6 19.2998 479.3C19.9998 486.1 20.6998 492.8 21.1998 499.6C21.6998 506.4 22.2998 513.2 22.5998 519.9C22.7998 523.3 22.8998 526.7 22.9998 530.1L23.0998 535.2C23.0998 536.9 23.0998 538.6 22.8998 540.3C22.9998 539.5 22.8998 538.6 22.7998 537.8L22.5998 535.3L22.0998 530.2L21.0998 520.1C20.3998 513.3 19.8998 506.6 19.2998 499.8C18.2998 486.3 17.2998 472.7 16.7998 459.1Z" fill="#504B4B"/>
<path opacity="0.6" d="M11.1001 467.1C12.0001 472.6 12.7001 478.1 13.3001 483.7C13.9001 489.2 14.4001 494.8 14.9001 500.3C15.3001 505.9 15.7001 511.4 15.9001 517C16.0001 519.8 16.1001 522.6 16.2001 525.4C16.2001 528.2 16.3001 531 15.9001 533.8C15.8001 531 15.5001 528.2 15.2001 525.5L14.4001 517.2C13.9001 511.7 13.4001 506.1 12.9001 500.6C12.0001 489.4 11.3001 478.3 11.1001 467.1Z" fill="#504B4B"/>
<path opacity="0.6" d="M4.7998 472.8C5.6998 476.8 6.3998 480.9 6.9998 484.9C7.5998 489 8.0998 493 8.5998 497.1C8.9998 501.2 9.3998 505.3 9.6998 509.4C9.7998 511.5 9.8998 513.5 9.9998 515.6C9.9998 517.7 10.0998 519.7 9.7998 521.8C9.6998 519.7 9.2998 517.7 9.0998 515.7L8.2998 509.6C7.6998 505.5 7.2998 501.5 6.7998 497.4C6.3998 493.3 5.8998 489.2 5.5998 485.1C5.1998 481 4.8998 476.9 4.7998 472.8Z" fill="#504B4B"/>
<path opacity="0.6" d="M0.4 484.3C0.9 486.4 1.3 488.5 1.5 490.6C1.8 492.7 2 494.8 2.1 497C2.2 499.1 2.3 501.3 2.3 503.4C2.3 505.5 2.2 507.7 1.9 509.8C1.4 507.7 1 505.6 0.8 503.5C0.5 501.4 0.3 499.3 0.2 497.1C0.1 495 0 492.9 0 490.7C0 488.6 0.1 486.5 0.4 484.3Z" fill="#504B4B"/>
<path opacity="0.6" d="M114 327.8L125.5 351.9L136.9 376.1L139.8 382.1L140.5 383.5L141.3 385L142.9 387.9C145 391.8 147 395.8 149 399.9C152.8 408 156.3 416.2 159.2 424.7C162 433.2 164.2 442 164.9 451C165 452.1 165 453.3 165 454.4V457.8L164.7 461.2C164.6 462.3 164.6 463.5 164.4 464.6C163.8 469.1 162.9 473.5 161.8 477.8C159.5 486.5 156.5 494.9 153.1 503.1C152.3 505.2 151.3 507.2 150.4 509.2C149.4 511.2 148.5 513.2 147.5 515.2C145.5 519.2 143.5 523.2 141 526.9C142.2 525.1 143.2 523 144.2 521.1C145.2 519.1 146.2 517.1 147.1 515.1C148 513.1 148.9 511 149.8 509C150.6 506.9 151.5 504.9 152.3 502.8C155.5 494.5 158.4 486.1 160.4 477.5C161.4 473.2 162.2 468.8 162.8 464.5C163 463.4 163 462.3 163.1 461.2L163.3 457.9V454.6C163.3 453.5 163.3 452.4 163.1 451.3C162.3 442.5 160.1 433.9 157.3 425.5C154.5 417.1 151.1 408.9 147.3 400.8C145.4 396.8 143.4 392.8 141.4 388.9L139.8 386C139.3 385 138.7 384.1 138.2 383L135.4 376.9L124.5 352.5C121.1 344.1 117.5 336 114 327.8Z" fill="#504B4B"/>
<path opacity="0.6" d="M118.6 320.8C123.2 330.4 127.6 340 132.1 349.6L138.8 364C139.9 366.4 141 368.8 142.2 371.1L144.1 374.6C144.7 375.8 145.3 377 145.9 378.2C150.6 387.7 154.9 397.4 158.9 407.3C160.9 412.2 162.8 417.2 164.5 422.2C165.3 424.7 166.1 427.3 166.8 429.8C167.5 432.4 168.1 435 168.4 437.6C167.4 432.4 165.5 427.4 163.6 422.5C161.7 417.6 159.6 412.7 157.5 407.9C153.2 398.2 148.8 388.6 144.2 379.1C143.6 377.9 143 376.7 142.4 375.6L140.5 372.1C139.3 369.7 138.2 367.3 137.1 364.9C134.9 360.1 132.8 355.2 130.7 350.3C126.5 340.5 122.5 330.7 118.6 320.8Z" fill="#504B4B"/>
<path opacity="0.6" d="M122.9 314.7C127.9 324.2 132.8 333.7 137.5 343.4C139.9 348.2 142.2 353 144.5 357.9C145.6 360.3 146.8 362.8 147.9 365.2C148.5 366.4 149 367.7 149.5 368.9C149.8 369.5 150 370.2 150.3 370.8C150.5 371.4 150.7 372 151 372.6C153.2 377.4 155.6 382.2 157.8 387.2C160 392.1 162 397.1 163.8 402.2C165.6 407.3 167.2 412.4 168.5 417.6L169.4 421.5C169.7 422.8 169.9 424.1 170.2 425.4C170.8 428 171.1 430.7 171.5 433.3C169.3 422.8 166.2 412.6 162.3 402.6C160.4 397.6 158.3 392.7 156 387.9C154.9 385.5 153.8 383.1 152.6 380.6C151.4 378.2 150.2 375.8 149.1 373.3C148.8 372.7 148.6 372 148.3 371.4C148.1 370.8 147.9 370.2 147.6 369.6C147.1 368.4 146.6 367.2 146 365.9C144.9 363.5 143.8 361 142.7 358.6L136 344C131.7 334.3 127.3 324.5 122.9 314.7Z" fill="#504B4B"/>
<path opacity="0.6" d="M128.4 307.1C132.6 315.5 136.7 324 140.8 332.5L152.9 358C154.9 362.3 156.9 366.5 158.9 370.8C160.9 375.1 162.8 379.3 164.6 383.8C167.7 392.7 171 401.5 173.7 410.6C175.1 415.1 176.3 419.7 177.2 424.4C178.1 429 178.9 433.8 179.1 438.5C179.3 443.2 179.2 448 178.3 452.8C177.5 457.5 176.1 462.1 174.6 466.5C168.7 484.4 161.1 501.7 152.8 518.6C156.6 510 160.3 501.3 163.7 492.6C167.2 483.9 170.4 475 173.1 466.1C174.5 461.6 175.8 457.1 176.6 452.5C177.4 447.9 177.5 443.3 177.3 438.6C177.1 434 176.3 429.3 175.4 424.8C174.5 420.2 173.2 415.7 171.8 411.2C169.1 402.2 165.9 393.3 162.9 384.5C161.2 380.2 159.2 375.9 157.3 371.6L151.5 358.7L140 332.8L128.4 307.1Z" fill="#504B4B"/>
<path opacity="0.6" d="M133.1 300.5C137.3 308.9 141.4 317.3 145.5 325.7L157.7 351C159.7 355.2 161.9 359.4 163.7 363.8C165.6 368.1 167.4 372.4 169.2 376.7C172.8 385.3 176.4 394 179.8 402.8C180.6 405 181.4 407.2 182.2 409.5C183 411.7 183.6 414.1 184.1 416.4C185.2 421 185.9 425.7 186.3 430.4C186.9 439.8 186.3 449.4 184.3 458.6C182.4 467.8 179.6 476.8 176.3 485.6C172.9 494.3 168.9 502.9 164.7 511.2C168.6 502.7 172.3 494.1 175.4 485.2C178.5 476.4 181.2 467.4 182.8 458.2C183 457.1 183.2 455.9 183.4 454.8L183.9 451.3C184.1 450.1 184.1 449 184.3 447.8C184.4 446.6 184.6 445.5 184.6 444.3C184.9 439.7 184.9 435 184.5 430.4C184.1 425.8 183.4 421.2 182.3 416.7C181.8 414.4 181.2 412.2 180.4 410C179.7 407.8 178.8 405.6 178 403.4C174.7 394.6 171.2 386 167.6 377.3C165.8 373 164 368.7 162.1 364.3C161.2 362.1 160.2 360 159.2 357.9L156.3 351.5L144.5 326C140.8 317.6 136.9 309.1 133.1 300.5Z" fill="#504B4B"/>
<path opacity="0.6" d="M135.4 290.3C137.9 294.7 140.4 299.1 142.7 303.6C145 308.1 147.2 312.6 149.4 317.2C151.5 321.8 153.7 326.4 155.7 331C157.7 335.6 159.6 340.3 161.2 345.2C158.9 340.7 156.6 336.2 154.3 331.7C152 327.2 149.8 322.6 147.7 318.1C143.3 308.9 139.1 299.7 135.4 290.3Z" fill="#504B4B"/>
<path opacity="0.6" d="M139.3 284.8C140.8 287.3 142.1 289.9 143.3 292.5C144.5 295.1 145.7 297.7 146.8 300.4C147.9 303.1 149 305.7 150 308.4C151 311.1 152 313.8 152.9 316.6C151.3 314.2 149.9 311.6 148.7 309C147.4 306.4 146.3 303.8 145.1 301.1C144 298.4 142.9 295.8 142 293C140.9 290.4 140 287.7 139.3 284.8Z" fill="#504B4B"/>
<path opacity="0.6" d="M144.7 274.9C148 284.2 151.2 293.6 154.4 303C157.6 312.4 160.7 321.8 163.8 331.2C165.4 335.9 166.9 340.6 168.3 345.4C169 347.8 169.8 350.1 170.4 352.5L171.4 356L172.5 359.5L181.9 387.7C184.9 397.1 187.9 406.6 190.3 416.2C191.5 421 192.6 425.9 193.2 430.9C193.3 432.2 193.4 433.4 193.5 434.7C193.5 436 193.5 437.2 193.4 438.5C193.4 439.8 193.2 441 193.1 442.2C193 443.4 192.8 444.7 192.7 445.9C192.4 448.4 191.9 450.8 191.5 453.3C191 455.7 190.5 458.2 189.9 460.6C188.7 465.4 187.3 470.2 185.8 474.9C184.3 479.6 182.6 484.3 180.7 488.9C178.8 493.5 176.9 498 174.5 502.4C176.7 497.9 178.5 493.3 180.2 488.7C181.9 484.1 183.5 479.4 184.9 474.6C186.3 469.9 187.6 465.1 188.7 460.3C189.3 457.9 189.7 455.5 190.2 453.1C190.6 450.7 191 448.2 191.3 445.8C191.5 444.6 191.6 443.4 191.7 442.1C191.8 440.9 191.9 439.7 191.9 438.4C191.9 437.2 192 436 191.9 434.7C191.8 433.5 191.7 432.3 191.6 431.1C191 426.3 189.8 421.5 188.6 416.7C186.1 407.2 183.1 397.7 180 388.3L171 360L169.9 356.4L168.9 352.8C168.3 350.4 167.5 348.1 166.8 345.7L162.4 331.5L144.7 274.9Z" fill="#504B4B"/>
<path opacity="0.6" d="M149.1 244.4C151.5 255.1 154.3 265.6 157.3 276.1C160.2 286.6 163.4 297.1 166.8 307.4C170.2 317.8 173.6 328.2 177.1 338.5L182.3 354C184 359.2 185.8 364.3 187.5 369.6C190.6 380.1 193.4 390.7 195.9 401.3C197.2 406.6 198.3 412 199.3 417.4C200.3 422.8 201.2 428.2 201.4 433.8C201.5 439.3 201 444.8 200.3 450.2C199.5 455.6 198.4 461 197.1 466.3C194.3 476.9 190.5 487.2 185.3 496.9C190 487.1 193.7 476.7 196.2 466.1C197.5 460.8 198.5 455.4 199.1 450.1C199.7 444.7 200.2 439.3 200 433.9C199.7 428.5 198.8 423.1 197.8 417.8C196.8 412.5 195.6 407.1 194.3 401.8C191.7 391.2 188.9 380.7 185.7 370.2C179.1 349.5 171.9 328.8 165.5 307.9C162.3 297.5 159.3 286.9 156.5 276.4C155.1 271.1 153.8 265.8 152.6 260.5C151.2 255.1 150 249.7 149.1 244.4Z" fill="#504B4B"/>
<path opacity="0.6" d="M156.1 220.1C156.6 231.6 157.6 243.1 159.7 254.4L160.5 258.6C160.8 260 161.1 261.4 161.4 262.8C162.1 265.6 162.8 268.3 163.6 271.1L168.3 287.7L173.1 304.3C173.9 307.1 174.8 309.8 175.6 312.5C176 313.9 176.5 315.2 177 316.5L177.7 318.6L178.4 320.7C181.9 331.7 185.3 342.7 188.6 353.7C191.9 364.7 195.1 375.8 198.2 386.9C199.7 392.4 201.3 398 202.7 403.6C204 409.3 204.9 414.9 205.6 420.7C206.9 432.2 207.2 443.8 205.7 455.3C205 461 203.6 466.7 201.9 472.2C200.2 477.7 197.7 482.9 194.9 488L196.8 484.1C197.1 483.5 197.4 482.8 197.7 482.2L198.5 480.2C199 478.9 199.6 477.5 200.1 476.2L201.4 472.1C203 466.6 204.2 461 204.8 455.3C206.2 443.9 205.7 432.4 204.2 421C203.8 418.2 203.4 415.3 202.9 412.5C202.4 409.7 201.9 406.8 201.2 404.1C199.8 398.6 198.2 393 196.7 387.5C193.5 376.4 190.3 365.4 186.9 354.4C183.6 343.4 180.4 332.3 176.9 321.4L176.2 319.4L175.5 317.4C175 316 174.5 314.6 174.1 313.3C173.2 310.5 172.4 307.8 171.6 305C170 299.5 168.5 293.9 167 288.4L162.6 271.7C161.9 268.9 161.2 266.1 160.5 263.3C160.2 261.9 159.9 260.5 159.6 259.1L158.9 254.8C158 249.1 157.4 243.4 157 237.6C156.4 231.6 156.2 225.8 156.1 220.1Z" fill="#504B4B"/>
<path opacity="0.6" d="M158.9 208.3C161.2 220 163.5 231.8 165.8 243.5L169.1 261.1L169.5 263.3L170 265.4L171.2 269.7C172 272.6 172.9 275.4 173.8 278.3C181 301.1 188.5 323.8 196.2 346.5C198.2 352.1 200.1 357.8 201.9 363.5C203.7 369.2 205.5 374.9 207.1 380.7C210.4 392.2 213.5 403.8 215.6 415.7C216.2 418.6 216.5 421.6 216.9 424.6L217.2 429.1C217.3 429.8 217.2 430.6 217.2 431.4V433.7C216.9 439.7 216 445.7 214.8 451.6C213.6 457.5 212.1 463.3 210.3 469C208.5 474.7 206.6 480.4 204.1 485.9C205.3 483.2 206.3 480.3 207.2 477.5C208.1 474.7 209 471.8 209.8 468.9C211.4 463.1 212.8 457.3 213.8 451.4C214.9 445.5 215.7 439.6 215.9 433.7V431.5C215.9 430.8 215.9 430 215.8 429.3L215.4 424.9C215 422 214.6 419 214 416.1C211.7 404.4 208.7 392.8 205.3 381.4C203.6 375.7 201.8 370 200 364.3C198.2 358.6 196.3 353 194.2 347.3C190.4 336 186.6 324.6 182.9 313.2C179.2 301.8 175.5 290.4 172.1 278.9C171.2 276 170.4 273.2 169.6 270.3L168.4 265.9L167.9 263.7L167.5 261.5L164.4 243.8C162.9 231.9 160.8 220.1 158.9 208.3Z" fill="#504B4B"/>
<path opacity="0.6" d="M164.9 191.9C166.5 202 168.1 212.1 169.8 222.2C171.5 232.3 173.2 242.4 175.1 252.4C176.1 257.4 177.1 262.4 178.3 267.4C178.9 269.9 179.6 272.3 180.3 274.7C181.1 277.1 181.8 279.6 182.6 282C185.5 291.8 188.3 301.6 191.2 311.5C194 321.3 196.7 331.2 199.8 340.9C200.2 342.1 200.6 343.3 201 344.5L202.4 348.1C203.3 350.5 204.1 352.9 205 355.4C206.7 360.2 208.3 365.1 209.8 370C212.9 379.7 216 389.5 219 399.3L223.3 414C224.7 418.9 226.2 423.8 227.2 428.8C227.1 428.2 226.9 427.6 226.8 426.9L226.3 425.1C226 423.9 225.6 422.7 225.2 421.4L222.9 414.1L218.2 399.5C215 389.8 211.8 380.1 208.5 370.4L203.5 355.9C202.7 353.5 201.8 351.1 200.9 348.7L199.5 345.1C199 343.9 198.6 342.7 198.2 341.4C195 331.6 192.3 321.8 189.4 312C186.6 302.2 183.9 292.3 181 282.5C180.3 280.1 179.5 277.6 178.8 275.2C178.1 272.7 177.3 270.2 176.8 267.7C176.2 265.2 175.7 262.7 175.2 260.2C174.7 257.7 174.2 255.2 173.8 252.6C170.1 232.5 167.3 212.3 164.9 191.9Z" fill="#504B4B"/>
<path opacity="0.6" d="M170.9 174.3C172.6 184.9 174.3 195.4 176.1 206C177.9 216.5 179.7 227.1 181.8 237.6C182.8 242.8 183.9 248.1 185.1 253.3C186.3 258.5 187.9 263.6 189.3 268.7C192.3 279 195.6 289.1 199 299.3L204 314.5C205.7 319.6 207.2 324.7 208.7 329.9C211.7 340.2 214.8 350.4 217.6 360.7C220.5 371 223.3 381.3 226.1 391.7C227.4 396.9 228.8 402.1 230 407.3L230.9 411.2L231.8 415.1C232.1 416.4 232.3 417.7 232.6 419C232.9 420.3 233 421.7 233.1 423C232.9 421.7 232.8 420.3 232.5 419C232.2 417.7 231.9 416.4 231.6 415.1L230.6 411.2L229.6 407.3C228.2 402.1 226.8 397 225.3 391.8C222.4 381.5 219.4 371.2 216.3 361L207.1 330.3C205.5 325.2 204 320.1 202.3 315L197.2 299.8C193.8 289.6 190.6 279.4 187.7 269.1C186.2 263.9 184.8 258.8 183.5 253.6C182.3 248.4 181.3 243.1 180.3 237.8C176.6 216.7 173.6 195.5 170.9 174.3Z" fill="#504B4B"/>
<path opacity="0.6" d="M177 152.9C178.1 164.5 179.2 176.2 180.5 187.8C181.1 193.6 181.7 199.4 182.4 205.2C183.1 211 183.8 216.8 184.8 222.5C185.3 225.3 186 228.2 186.6 231L188.6 239.5C190 245.2 191.4 250.8 192.9 256.5C194.4 262.1 195.9 267.8 197.5 273.4C199.1 279 201 284.5 202.7 290.1L213 323.6L215.6 332L216.9 336.2L218.1 340.4C219.7 346 221.3 351.6 222.8 357.3C225.9 368.6 228.9 379.9 231.8 391.2C233.2 396.9 234.6 402.5 236 408.2C237.3 413.9 238.7 419.6 239.4 425.4C238.9 422.5 238.3 419.7 237.6 416.8L236.6 412.5L235.5 408.3C234 402.6 232.5 397 230.9 391.4C227.8 380.1 224.6 368.9 221.3 357.7L216.4 340.9L215.2 336.7L213.9 332.5L211.3 324.1L200.8 290.7C199.1 285.1 197.3 279.6 195.7 273.9C194.1 268.3 192.6 262.6 191.2 256.9C189.8 251.2 188.3 245.6 187 239.9C185.7 234.2 184.3 228.5 183.3 222.7C182.3 216.9 181.7 211.1 181.1 205.3C180.5 199.5 180 193.7 179.5 187.8C178.5 176.2 177.6 164.5 177 152.9Z" fill="#504B4B"/>
<path opacity="0.6" d="M179.5 140.6C184.2 164.4 188.9 188.2 193 212.2C193.5 215.1 194.2 218.1 194.9 221L197 229.9L201.4 247.6L210.3 282.9C217 306.2 224.4 329.4 231.2 352.7C232 355.6 232.9 358.5 233.7 361.5L234.3 363.7L234.8 365.9C235.1 367.4 235.5 368.8 235.8 370.3C237.2 376.2 238.8 382.1 240.3 387.9L244.8 405.5C246.3 411.4 247.8 417.3 249.1 423.2C246 411.5 242.6 399.8 239.4 388.1C237.8 382.2 236.2 376.4 234.6 370.5C234.2 369 233.8 367.6 233.5 366.1L233 363.9L232.4 361.7C231.6 358.8 230.7 355.9 229.8 353L219 318.3C215.4 306.7 211.8 295.1 208.4 283.4L199.7 248L195.4 230.3C194 224.4 192.6 218.5 191.6 212.4C190.7 206.4 189.7 200.4 188.7 194.5L185.6 176.6L179.5 140.6Z" fill="#504B4B"/>
<path opacity="0.6" d="M170.2 0.800049C170.2 5.50005 170.2 10.1 170 14.8L169.7 28.7001C169.6 33.3 169.5 38 169.4 42.6L169.2 56.5C168.5 51.9001 168.1 47.2 167.9 42.6C167.7 37.9 167.7 33.3 167.7 28.6C167.8 23.9001 168 19.3 168.4 14.6C168.9 10 169.4 5.40005 170.2 0.800049Z" fill="#504B4B"/>
<path opacity="0.6" d="M177 0C177.1 5.5 177 11 176.7 16.5C176.5 22 176.2 27.5 175.7 33C175.6 34.4 175.5 35.7 175.3 37.1L175.1 39.1C175 39.8 175 40.4 175 41.1C174.8 43.8 174.9 46.5 174.9 49.3C175 54.8 175.2 60.3 175.3 65.8C174.5 60.4 173.8 54.9 173.4 49.4C173.2 46.6 173.1 43.9 173.2 41.1C173.2 40.4 173.3 39.7 173.3 39L173.5 36.9C173.6 35.6 173.8 34.2 173.9 32.8L175.3 16.4C175.7 10.9 176.3 5.5 177 0Z" fill="#504B4B"/>
<path opacity="0.6" d="M186.5 5.09998C184.7 9.29998 183.3 13.7 182.3 18.1C181.3 22.5 180.7 27.1 180.6 31.6C180.6 40.7 180.9 49.9 181.1 59L181.5 72.7C181.6 75 181.7 77.3 181.9 79.5L182.7 86.3L185.8 113.6L188.8 140.9C189.3 145.4 189.8 150 190.4 154.5C191 159 191.7 163.5 192.3 168.1C194.9 186.2 197.9 204.3 199.8 222.5C199.6 220.2 199.2 218 198.8 215.7L197.7 208.9L195.4 195.4L190.8 168.3C189.2 159.3 188.1 150.2 187 141.1L183.8 113.8L181 86.6L180.3 79.8C180.1 77.5 180 75.2 179.9 72.9C179.7 68.3 179.7 63.7 179.7 59.2C179.7 50 179.6 40.9 179.7 31.7C179.9 27.1 180.6 22.5 181.8 18.1C183 13.6 184.5 9.29998 186.5 5.09998Z" fill="#504B4B"/>
<path opacity="0.6" d="M188.9 10.1V25.5L189 40.9C189.1 46 189.1 51.1 189.4 56.2C189.7 61.3 190 66.4 190.2 71.6C190.7 81.8 191.2 92.1 191.9 102.3C192.3 107.4 192.6 112.5 193.1 117.6C193.6 122.7 194.1 127.8 195.1 132.7V132.8C195.5 138.3 196 143.7 196.3 149.2L197.4 165.6C197.8 171.1 198.1 176.5 198.4 182C198.7 187.5 199.1 193 199.2 198.4C198.8 192.9 198.2 187.5 197.7 182C197.2 176.5 196.7 171.1 196.2 165.6L194.7 149.2C194.2 143.7 193.8 138.3 193.3 132.8V132.9C192.3 127.8 191.7 122.7 191.1 117.6C190.6 112.5 190.2 107.4 189.8 102.3C189.2 92.1 188.7 81.8 188.4 71.6L188 56.3C187.8 51.2 187.9 46 187.9 40.9C188 35.8 188.1 30.6 188.3 25.5C188.4 20.4 188.6 15.2 188.9 10.1Z" fill="#504B4B"/>
<path opacity="0.6" d="M194 2.90002L195 56.5C195.1 61 195.1 65.4 195.2 69.9C195.4 74.3 195.8 78.8 196.2 83.2C197 92.1 197.8 101 198.6 109.9L201.2 136.6L202.5 149.9C202.7 152.1 203 154.3 203.1 156.6C203.3 158.8 203.4 161.1 203.5 163.3C204.3 181.2 204.7 199 205.8 216.8C206.7 234.6 209.6 252.2 213.2 269.7C214.1 274.1 215 278.4 216 282.8C216.5 285 217 287.1 217.5 289.3C218.1 291.4 218.7 293.6 219.3 295.7L226.5 321.5C236 355.9 245.7 390.3 254.6 424.9C252.3 416.3 249.8 407.7 247.3 399.1L239.8 373.4L225 321.9L217.6 296.1C217 293.9 216.4 291.8 215.8 289.6C215.2 287.4 214.7 285.2 214.2 283.1C213.2 278.7 212.2 274.4 211.3 270C207.7 252.5 204.6 234.8 203.7 216.9C202.6 199 202.3 181.2 201.5 163.3C201.4 161.1 201.3 158.8 201.1 156.6C200.9 154.4 200.7 152.2 200.5 149.9L199.3 136.6C198.5 127.7 197.7 118.8 196.9 109.9C196.1 101 195.4 92.1 194.7 83.2C194.4 78.7 194 74.3 193.8 69.8C193.7 65.3 193.7 60.9 193.7 56.4L194 2.90002Z" fill="#504B4B"/>
<path opacity="0.6" d="M203.8 52.9L210.6 143.4C210.9 147.2 211.3 150.9 211.7 154.7L213 166L215.5 188.6L217.9 211.2C218.3 215 218.7 218.7 219 222.5L219.2 225.3L219.3 228.1C219.4 229.9 219.6 231.8 219.8 233.7C221.5 248.7 223.7 263.7 226.2 278.6C226.9 282.3 227.5 286.1 228.3 289.7C229.2 293.4 230.2 297 231.2 300.6C233.3 307.9 235.5 315.1 237.8 322.3C240.1 329.5 242.4 336.7 244.7 343.9L248.2 354.7C249.4 358.3 250.3 362 251.2 365.7C253 373.1 254.7 380.4 256.3 387.8C257.1 391.5 257.9 395.2 258.6 398.9C259 400.8 259.3 402.6 259.7 404.5C260 406.4 260.4 408.2 260.4 410.1C260.3 408.2 259.9 406.4 259.6 404.5C259.2 402.6 258.8 400.8 258.4 398.9C257.6 395.2 256.7 391.5 255.8 387.8C254 380.4 252.2 373.1 250.3 365.8C249.3 362.1 248.4 358.5 247.2 354.9L243.6 344.1C241.2 336.9 238.8 329.8 236.4 322.6C234.1 315.4 231.8 308.2 229.6 300.9C228.5 297.3 227.5 293.6 226.6 289.9C225.7 286.2 225.1 282.4 224.4 278.7C221.9 263.8 219.6 248.8 217.8 233.7C217.6 231.8 217.4 229.9 217.3 228L217.2 225.2L217 222.4C216.7 218.6 216.3 214.9 215.9 211.1L213.5 188.5L211.1 165.9C210.3 158.4 209.4 150.9 208.9 143.3C207.9 128.2 207 113.1 206 98L203.8 52.9Z" fill="#504B4B"/>
<path opacity="0.6" d="M211.7 75.2L215.2 122.2L216.8 145.7L217.6 157.4C217.8 161.3 218.2 165.2 218.6 169.1C220.2 184.7 222 200.3 223.9 215.9C224.7 223.7 226 231.5 227.1 239.2L230.5 262.5L232.1 274.1C232.7 278 233.1 281.9 234 285.7C235.7 293.3 238 300.8 240.2 308.4C242.4 315.9 244.8 323.4 247.1 330.9C248.2 334.6 249.4 338.5 250.4 342.2L253.5 353.6C257.7 368.7 261.9 383.8 266.2 398.9C268.3 406.5 270.4 414 272.7 421.5C273.3 423.4 273.8 425.3 274.7 427C275.5 428.8 276.6 430.4 277.7 432C280 435.2 282.8 438 286.1 440.2C282.8 438.1 279.9 435.3 277.6 432.2C276.4 430.6 275.3 429 274.4 427.2C273.5 425.5 272.9 423.5 272.3 421.7C269.9 414.2 267.6 406.7 265.3 399.2C260.8 384.2 256.4 369.1 252.1 354L248.9 342.7C248.4 340.8 247.9 338.9 247.3 337L245.6 331.4C243.3 323.9 240.9 316.4 238.6 308.9C236.4 301.4 234.1 293.8 232.3 286.1C231.4 282.2 231 278.3 230.4 274.4L228.7 262.7L225.4 239.4C224.3 231.6 223.1 223.9 222.3 216.1C220.5 200.5 218.7 184.9 217.3 169.3C214.9 137.9 213.4 106.5 211.7 75.2Z" fill="#504B4B"/>
<path opacity="0.6" d="M224.7 124L228.2 163.2L230 182.8L231 192.6C231.3 195.8 231.8 199.1 232.2 202.3C233.8 215.3 235.3 228.3 237.1 241.3C238 247.8 238.9 254.3 240 260.7L240.8 265.5L241.7 270.3C242.4 273.5 243.1 276.7 243.9 279.9L252.5 318.3L254.7 327.9L255.8 332.7L256.4 335.1C256.5 335.5 256.6 335.9 256.7 336.3C256.8 336.7 256.9 337 257.1 337.5C259 343.8 260.7 350.1 262.6 356.4C266.2 369 270 381.6 274 394C276 400.2 278.1 406.4 280.4 412.6C281.6 415.7 282.8 418.7 284.1 421.7C285.4 424.7 286.8 427.7 288.7 430.4C286.8 427.8 285.3 424.8 283.8 421.9C282.4 418.9 281.1 415.9 279.9 412.9C277.5 406.8 275.2 400.6 273.1 394.4C268.8 382 264.9 369.5 261.1 356.9L255.5 338.1C255.4 337.8 255.3 337.3 255.1 336.9C255 336.5 254.9 336.1 254.8 335.7L254 333L252.8 328.2L250.6 318.6L241.9 280.3C241.2 277.1 240.4 273.9 239.8 270.7L238.9 265.8L238.1 260.9C237.1 254.4 236.2 247.9 235.3 241.4C233.6 228.4 232.1 215.4 230.7 202.3C230.4 199 229.9 195.8 229.7 192.5L228.9 182.7L227.4 163.1C226.4 150.1 225.5 137.1 224.7 124Z" fill="#504B4B"/>
<path opacity="0.6" d="M231.8 145.9L235.9 181.7C237.3 193.6 238.6 205.6 240.1 217.5C240.5 220.5 240.9 223.5 241.4 226.4L242.2 230.8L243 235.3L245.8 253.1C247.6 265 249.5 276.9 251.4 288.7C252.3 294.6 253.3 300.6 254.4 306.5C254.9 309.5 255.5 312.3 256.3 315.2L258.6 323.9L268.2 358.6L273 376C274.6 381.8 276.2 387.6 278 393.3C279.9 399 282.3 404.5 284.6 410C285.8 412.8 287 415.5 288.2 418.2C288.8 419.6 289.5 420.9 290.1 422.3C290.4 423 290.8 423.6 291.1 424.3C291.5 424.9 291.8 425.6 292.3 426.2C291.8 425.7 291.4 425 291 424.4C290.6 423.7 290.3 423.1 289.9 422.4C289.2 421.1 288.5 419.7 287.9 418.4C286.6 415.7 285.3 413 284.1 410.2C281.6 404.7 279.2 399.2 277.1 393.6C275.2 387.9 273.5 382.1 271.8 376.3L266.7 359C263.3 347.5 260.1 335.9 256.8 324.3L254.4 315.6C253.6 312.7 252.9 309.7 252.4 306.7C251.3 300.8 250.3 294.8 249.4 288.9C247.5 277 245.8 265.1 244 253.2L241.3 235.4L240.6 231C240.3 229.5 240.1 228.1 239.8 226.6C239.3 223.6 239 220.6 238.6 217.6C237.2 205.6 236 193.7 234.9 181.7C233.9 169.8 232.8 157.8 231.8 145.9Z" fill="#504B4B"/>
<path opacity="0.6" d="M247.6 200.9C249 209.9 250.2 219 251.5 228C252.7 237 253.9 246.1 255.1 255.2C255.7 259.7 256.2 264.3 256.7 268.8C257 273.3 257.9 277.8 258.7 282.3C260.3 291.3 262.2 300.2 264.1 309.1C266 318 267.9 326.9 270 335.8C272.1 344.7 274.6 353.4 277 362.2C279.4 371 282 379.8 284.6 388.5C285.9 392.9 287.2 397.2 288.6 401.6C289.3 403.8 290 405.9 290.7 408.1C291.1 409.2 291.4 410.3 291.8 411.3L292.4 412.9L293.1 414.5L292.3 413L291.6 411.4C291.1 410.4 290.8 409.3 290.3 408.2C289.5 406.1 288.7 403.9 288 401.8C286.5 397.5 285 393.2 283.6 388.8C280.8 380.1 278.1 371.4 275.5 362.6C274.2 358.2 272.9 353.8 271.7 349.4C270.5 345 269.3 340.6 268.2 336.1C266 327.2 264.1 318.3 262.1 309.4C260.2 300.5 258.5 291.5 256.9 282.5C256.1 278 255.3 273.5 255 268.9C254.6 264.4 254.1 259.8 253.6 255.3L247.6 200.9Z" fill="#504B4B"/>
<path opacity="0.6" d="M251.3 199C252.8 208.2 254.2 217.4 255.7 226.6C257.1 235.8 258.5 245 259.8 254.3L260.8 261.2C261.1 263.6 261.3 265.8 261.7 268.1C262.5 272.7 263.4 277.3 264.3 281.8C266.1 290.9 268 300.1 269.9 309.2L271.3 316.1C271.8 318.4 272.2 320.7 272.7 322.9C273.8 327.4 275 331.9 276.3 336.4L283.8 363.3L291.4 390.2C293.9 399.2 296.4 408.2 299.1 417.1C293.1 399.4 287.7 381.6 282.3 363.7C279.6 354.8 277.1 345.8 274.5 336.8C273.2 332.3 272 327.8 270.8 323.3C270.2 321 269.8 318.7 269.3 316.4L267.9 309.5C266.1 300.4 264.2 291.2 262.5 282C261.6 277.4 260.8 272.8 260 268.2C259.6 265.9 259.3 263.5 259.1 261.2L258.3 254.3L254.7 226.6L251.3 199Z" fill="#504B4B"/>
<path opacity="0.6" d="M104.4 341.2C105.5 342.1 106.4 343.1 107.3 344.1C108.1 345.2 108.9 346.3 109.6 347.4C110.3 348.6 110.9 349.8 111.4 351C111.9 352.2 112.4 353.5 112.6 354.9C111.6 353.9 110.9 352.8 110.1 351.7C109.3 350.6 108.6 349.5 107.9 348.4C107.2 347.3 106.6 346.1 106 344.9C105.4 343.8 104.8 342.5 104.4 341.2Z" fill="#504B4B"/>
<path opacity="0.6" d="M60.7998 597.3C66.1998 593.3 71.7998 589.3 77.2998 585.4L93.8998 573.7C105 565.9 116.2 558.3 127.3 550.6C138.5 543 149.8 535.5 161.2 528.1C166.9 524.4 172.6 520.8 178.4 517.2C181.3 515.5 184.2 513.7 187.1 512L191.5 509.5C193 508.7 194.5 508 196 507.2C190.1 510.4 184.5 514.3 178.8 518.1C173.2 521.9 167.5 525.6 162 529.5L128.4 552.4L94.6998 575.2L77.7998 586.5C72.0998 589.9 66.4998 593.7 60.7998 597.3Z" fill="#504B4B"/>
<path opacity="0.6" d="M63.3999 601.1L87.4999 584.7L111.7 568.4L160.1 536L208.6 503.7C216.7 498.3 224.8 492.9 232.8 487.5C236.8 484.8 240.9 482.1 244.9 479.3C246.9 477.9 248.9 476.5 250.9 475.1C251.9 474.4 252.9 473.7 253.8 473L255.3 471.9C255.8 471.5 256.2 471.1 256.7 470.7C256.3 471.1 255.8 471.5 255.4 471.9L254 473.1C253.1 473.9 252.1 474.6 251.1 475.4C249.2 476.9 247.2 478.3 245.3 479.8C241.4 482.7 237.4 485.5 233.5 488.3C225.6 493.9 217.6 499.4 209.6 504.9C193.6 515.9 177.4 526.7 161.3 537.5C145.1 548.2 128.9 558.9 112.6 569.5L87.9999 585.5C79.7999 590.7 71.5999 596 63.3999 601.1Z" fill="#504B4B"/>
<path opacity="0.6" d="M66.2002 607.5L93.5002 589L120.9 570.6L175.6 533.9L203 515.6L230.3 497.2C239.4 491.1 248.5 484.9 257.5 478.6L264.3 473.9L267.7 471.5L271 469.1L277.7 464.3L284.2 459.2L277.9 464.5L271.4 469.5L268.1 472L264.8 474.4L258.2 479.3C249.3 485.7 240.3 492.1 231.3 498.4C213.3 511 195.1 523.2 176.9 535.5C158.6 547.7 140.3 559.8 121.9 571.8L94.0002 589.8C84.8002 595.7 75.5002 601.6 66.2002 607.5Z" fill="#504B4B"/>
<path opacity="0.6" d="M293.8 460.9C284.6 467.5 275.3 473.9 266.1 480.5L238.2 499.9C219.6 512.8 200.9 525.6 182.3 538.4C163.6 551.1 144.9 563.8 126.1 576.4C107.3 588.9 88.5998 601.7 69.2998 613.6C78.6998 607.4 87.9998 600.9 97.2998 594.4L125.2 575.1L181.2 536.7L237.4 498.6L265.6 479.7C274.9 473.5 284.3 467.1 293.8 460.9Z" fill="#504B4B"/>
<path opacity="0.6" d="M73.7998 616.8L102 597.5L130.3 578.3L187 540.1L243.9 502.1L272.3 483.1C277 479.9 281.8 476.8 286.5 473.6L293.6 468.8L300.6 463.9C282.3 477.5 263.5 490.4 244.7 503.3C226 516.3 207 529 188.1 541.7C169.1 554.3 150.2 567 131.1 579.5L102.5 598.2C92.9998 604.5 83.4998 610.7 73.7998 616.8Z" fill="#504B4B"/>
<path opacity="0.6" d="M79.3999 620.8C88.8999 614.2 98.3999 607.7 107.9 601.2L136.5 581.8L193.9 543.2L251.5 505L280.4 486L309.3 467.1C304.6 470.4 299.9 473.7 295.1 477L280.9 486.8L252.3 506.2C233.2 519.1 214.1 531.9 194.9 544.8C175.7 557.5 156.5 570.3 137.3 583L108.4 602C98.7999 608.3 89.0999 614.6 79.3999 620.8Z" fill="#504B4B"/>
<path opacity="0.6" d="M315.2 470.5C305.8 477.2 296.2 483.8 286.8 490.4L258.2 510C239.1 523.1 220 536 200.8 549C181.6 561.8 162.4 574.7 143 587.4C133.3 593.7 123.6 600 113.9 606.3C109 609.4 104.1 612.5 99.2001 615.5C96.7001 617 94.3001 618.5 91.8001 620C90.6001 620.7 89.3001 621.5 88.0001 622.2C86.7001 622.9 85.5001 623.7 84.1001 624.1C85.5001 623.6 86.7001 622.8 87.9001 622.1C89.1001 621.3 90.4001 620.6 91.6001 619.8C94.0001 618.3 96.5001 616.7 98.9001 615.1C103.7 611.9 108.5 608.7 113.3 605.5C122.9 599.1 132.5 592.6 142.1 586.2L199.6 547.4L257.2 508.8L286.1 489.6L315.2 470.5Z" fill="#504B4B"/>
<path opacity="0.6" d="M89.6001 630.8L118.7 610.8L147.9 590.9L206.4 551.2L265 511.7C274.8 505.1 284.5 498.5 294.2 491.9C299.1 488.6 303.9 485.3 308.8 481.9C311.2 480.2 313.6 478.5 316 476.8C318.4 475 320.8 473.4 323 471.4C320.9 473.5 318.5 475.2 316.2 477C313.8 478.8 311.5 480.5 309.1 482.3C304.3 485.8 299.6 489.2 294.8 492.7C285.2 499.5 275.5 506.3 265.8 513C246.4 526.4 226.9 539.6 207.4 552.9C187.8 566 168.3 579.2 148.6 592.2L119.1 611.7C109.4 618 99.6001 624.5 89.6001 630.8Z" fill="#504B4B"/>
<path opacity="0.6" d="M328.6 477.5C319 484.3 309.4 491 299.8 497.7L270.8 517.7C251.5 531 232 544.2 212.6 557.4C193.1 570.5 173.7 583.6 154.1 596.6L124.7 615.9L109.9 625.4C104.9 628.5 99.9999 631.7 94.8999 634.6C104.8 628.4 114.5 621.7 124.2 615.1L153.3 595.3L211.5 555.8L269.9 516.5L299.2 496.9L328.6 477.5Z" fill="#504B4B"/>
<path opacity="0.6" d="M98.2002 639.7L127.1 619.7L156.1 599.8L214.3 560.3L272.7 521.1L301.9 501.6L316.5 491.9L323.8 487L327.4 484.5L331 482C312.1 496 292.7 509.1 273.4 522.4C254.1 535.7 234.6 548.8 215.2 562C196 575 176.6 588.1 157 601L127.7 620.4C117.9 626.9 108.1 633.3 98.2002 639.7Z" fill="#504B4B"/>
<path opacity="0.6" d="M336.6 486.5C327.1 493.2 317.4 499.9 307.9 506.6L279 526.5C259.8 539.8 240.4 552.9 221.1 566.1C201.7 579.2 182.4 592.3 163 605.3L133.8 624.8C124 631.2 114.3 637.7 104.5 644.1C114 637.3 123.7 630.7 133.2 624L162.1 604.1C181.3 590.8 200.7 577.7 220 564.5C239.4 551.4 258.7 538.3 278.1 525.3L307.3 505.8C317.1 499.4 326.8 492.9 336.6 486.5Z" fill="#504B4B"/>
<path opacity="0.6" d="M339.8 491.9C330.3 498.6 320.7 505.3 311.2 511.9L282.5 531.8L225 571.3L167.2 610.5L138.3 630C128.6 636.5 119 642.9 109.4 649.5C128.2 635.8 147.4 622.6 166.4 609.3C185.5 596 204.7 582.9 223.9 569.7C243.2 556.6 262.4 543.5 281.7 530.5L310.7 511.1C320.4 504.7 330.1 498.2 339.8 491.9Z" fill="#504B4B"/>
<path opacity="0.6" d="M112.5 653.7L141.4 633.9L170.4 614.3L228.5 575.2L286.8 536.4L316 517L330.6 507.3L337.9 502.4L341.5 499.9C342.7 499 343.9 498.3 345 497.3C343.9 498.3 342.7 499.1 341.6 500L338.1 502.6L331 507.7L316.7 517.8L287.8 537.6C268.5 550.8 249.1 563.8 229.8 576.8C210.3 589.7 190.9 602.7 171.4 615.5L142.1 634.7C132.1 641.1 122.3 647.5 112.5 653.7Z" fill="#504B4B"/>
<path opacity="0.6" d="M348 502.9C338.6 509.7 329.1 516.4 319.6 523.1L291 543C271.9 556.3 252.8 569.4 233.6 582.5L204.7 602C195.1 608.5 185.4 615 175.7 621.3C166 627.7 156.3 634 146.5 640.3C141.6 643.4 136.7 646.5 131.7 649.5C126.7 652.5 121.8 655.6 116.5 658.1C117.8 657.4 119.1 656.8 120.3 656C121.6 655.3 122.8 654.5 124 653.7C126.5 652.2 128.9 650.6 131.4 649C136.3 645.8 141.1 642.6 145.9 639.4C155.6 633 165.2 626.5 174.8 620C194 607 213.3 593.9 232.4 580.8L290 541.6L318.8 522.1L348 502.9Z" fill="#504B4B"/>
<path opacity="0.6" d="M122.4 664L151 644.3L179.7 624.8L237.2 585.9L294.8 547.1C304.4 540.6 314 534.2 323.5 527.6C328.3 524.4 333.1 521.1 337.8 517.8C340.2 516.2 342.5 514.5 344.9 512.8C347.2 511.1 349.6 509.5 351.8 507.5C349.8 509.6 347.4 511.2 345.1 513C342.8 514.7 340.5 516.5 338.1 518.2C333.4 521.6 328.7 525 324 528.4C314.6 535.1 305.1 541.7 295.6 548.3C276.6 561.5 257.4 574.4 238.3 587.5C219.1 600.4 199.9 613.3 180.6 626L151.6 645.1C141.8 651.4 132.1 657.7 122.4 664Z" fill="#504B4B"/>
<path opacity="0.6" d="M357.4 511.6C348 518.3 338.5 525 329.1 531.7L300.6 551.6C281.6 564.8 262.5 577.9 243.5 591.1C224.4 604.1 205.3 617.2 186 630.1L157.1 649.3L142.5 658.8L135.2 663.5C132.7 665 130.3 666.6 127.7 667.9C130.2 666.5 132.6 664.8 135 663.2L142.2 658.3L156.5 648.5L185.1 628.8L242.3 589.5L299.7 550.4L328.5 530.9L357.4 511.6Z" fill="#504B4B"/>
<path opacity="0.6" d="M361.4 517C352.1 523.7 342.7 530.2 333.3 536.9L305.1 556.6C286.3 569.7 267.4 582.7 248.6 595.7C229.7 608.6 210.8 621.6 191.8 634.5L163.3 653.8C153.8 660.2 144.3 666.6 134.7 672.9C144 666.2 153.4 659.7 162.8 653L191 633.3C209.8 620.2 228.7 607.2 247.5 594.2C266.4 581.3 285.3 568.3 304.3 555.4L332.8 536.1C342.3 529.8 351.8 523.4 361.4 517Z" fill="#504B4B"/>
<path opacity="0.6" d="M365.4 521.8C356 528.5 346.6 535.1 337.2 541.7L308.9 561.5C290 574.7 271 587.7 252 600.7C232.9 613.6 213.9 626.7 194.8 639.5L166 658.8L151.6 668.3C146.8 671.4 142 674.7 137 677.5C139.5 676 141.8 674.3 144.2 672.7L151.3 667.8L165.5 658L193.9 638.4L250.8 599.2L307.9 560.3L336.5 541L365.4 521.8Z" fill="#504B4B"/>
<path opacity="0.6" d="M369.7 527.3C360.5 534.1 351.2 540.8 342 547.5L314.1 567.5C304.8 574.2 295.4 580.7 286 587.2C276.6 593.7 267.1 600.2 257.5 606.4C238.4 618.9 219.5 631.8 200.4 644.5L171.8 663.5C167 666.6 162.2 669.7 157.4 672.8C152.6 675.8 147.8 679 142.7 681.6C145.2 680.2 147.6 678.7 150 677.1C152.4 675.5 154.8 674 157.1 672.4C161.9 669.2 166.6 666 171.3 662.8L199.6 643.4C209 636.9 218.5 630.5 227.9 624C237.4 617.6 246.8 611.1 256.4 604.9C275.6 592.5 294.3 579.3 313.2 566.4L369.7 527.3Z" fill="#504B4B"/>
<path opacity="0.6" d="M373.7 533.3C364.4 539.9 355.1 546.3 345.8 552.8L317.8 572.1C299.1 585 280.3 597.7 261.6 610.4C242.8 623 224 635.7 205 648.2L176.6 666.9L162.3 676.1C157.5 679.2 152.7 682.2 147.9 685.2L260.5 608.7L317 570.8L345.3 551.9L373.7 533.3Z" fill="#504B4B"/>
<path opacity="0.6" d="M377.5 538.3C368.2 544.9 358.8 551.5 349.4 558.1L321.2 577.7C302.4 590.7 283.5 603.6 264.6 616.6C245.6 629.4 226.7 642.3 207.7 655L179.1 674L164.7 683.4L157.5 688L153.9 690.3L150.2 692.5C159.8 686.3 169.2 679.7 178.6 673.2L206.9 653.8L263.6 615L320.4 576.5L348.9 557.3L377.5 538.3Z" fill="#504B4B"/>
<path opacity="0.6" d="M381.9 541.4C372.7 548.3 363.5 555 354.2 561.8L326.3 581.9C307.7 595.3 288.9 608.4 270.2 621.6L242 641C232.5 647.4 223.1 653.9 213.5 660.2C203.9 666.5 194.3 672.8 184.6 678.9C179.7 681.9 174.8 684.9 169.9 687.8L166.2 689.9L162.4 692C159.9 693.3 157.3 694.6 154.6 695.6C157.3 694.5 159.8 693.2 162.3 691.7L166 689.6L169.7 687.4C174.6 684.4 179.4 681.3 184.2 678.2C193.8 672 203.3 665.6 212.7 659.1C231.6 646.2 250.5 633.2 269.2 620.1L381.9 541.4Z" fill="#504B4B"/>
<path opacity="0.6" d="M387.7 545.5C378.4 552.3 369 559 359.7 565.8L331.6 585.9C312.8 599.2 293.9 612.4 275 625.6C256 638.7 237 651.7 217.9 664.6C208.3 671 198.7 677.4 189 683.6C184.2 686.7 179.3 689.8 174.4 692.8C171.9 694.3 169.5 695.8 167 697.3C165.7 698 164.5 698.8 163.2 699.4L161.3 700.4L159.3 701.2L161.3 700.3L163.2 699.2C164.5 698.5 165.7 697.7 166.9 697C169.4 695.5 171.8 693.9 174.2 692.4C179 689.2 183.8 686 188.6 682.8C198.2 676.4 207.7 669.9 217.2 663.3C236.2 650.2 255.2 637.2 274 624L330.8 584.7L359.3 565.1L387.7 545.5Z" fill="#504B4B"/>
<path opacity="0.6" d="M390.2 552.9C381 559.6 371.8 566.1 362.6 572.7L334.9 592.3C316.4 605.3 297.8 618.2 279.2 631.1C260.5 643.9 241.9 656.7 223.1 669.3C213.7 675.6 204.3 681.9 194.8 688.1C190.1 691.2 185.3 694.3 180.5 697.3C178.1 698.8 175.7 700.3 173.3 701.8C172.1 702.5 170.9 703.3 169.6 704C169 704.4 168.4 704.7 167.7 705C167.1 705.3 166.5 705.7 165.8 705.8C166.5 705.6 167.1 705.2 167.7 704.9C168.3 704.5 168.9 704.2 169.5 703.8C170.7 703.1 171.9 702.3 173.1 701.5C175.5 700 177.8 698.4 180.2 696.8C184.9 693.7 189.6 690.5 194.2 687.3C203.6 680.9 212.9 674.5 222.2 668.1L278.1 629.5L334.1 591L362.1 571.8L390.2 552.9Z" fill="#504B4B"/>
<path opacity="0.6" d="M169.7 710.6L197.9 691.6L226.2 672.7C245.1 660.1 264.1 647.7 282.9 635C285.3 633.4 287.5 631.8 289.9 630.1L296.9 625.2L310.9 615.5C320.2 609.1 329.6 602.6 338.9 596.2L367 577L381.1 567.4L388.1 562.6C389.3 561.8 390.4 561 391.6 560.2C392.8 559.4 393.9 558.6 395 557.7C390.6 561.3 385.9 564.5 381.4 567.9L367.6 577.8L339.8 597.5C321.2 610.6 302.6 623.4 284.1 636.6C274.7 642.9 265.2 649.1 255.7 655.4C246.2 661.6 236.7 667.9 227.2 674L198.6 692.4C188.9 698.5 179.3 704.6 169.7 710.6Z" fill="#504B4B"/>
<path opacity="0.6" d="M399.8 562C390.6 568.7 381.4 575.3 372.2 581.9L344.5 601.7C326 614.9 307.5 627.9 289 641C284.4 644.2 279.7 647.5 274.9 650.6L260.6 659.8C251 665.9 241.5 672 231.8 678L203 695.9C193.3 701.8 183.7 707.8 173.9 713.6L202.5 695.1L231.1 676.7L259.7 658.3L273.9 649C278.6 645.9 283.2 642.7 287.9 639.4C306.5 626.4 325 613.4 343.7 600.4L371.7 581.1C381.1 574.8 390.4 568.4 399.8 562Z" fill="#504B4B"/>
<path opacity="0.6" d="M177.2 719.9L206 701.2L234.9 682.6L263.8 664L278.2 654.7L281.8 652.3L282.7 651.7L283.5 651.1C283.9 650.8 284.7 650.1 285.3 649.7C287.6 648 289.9 646.3 292.3 644.6L320.4 624.9L348.6 605.2L376.8 585.5C381.5 582.2 386.2 578.9 390.8 575.6C393.1 573.9 395.5 572.3 397.8 570.6C399 569.8 400.1 568.9 401.2 568C402.3 567.1 403.5 566.3 404.5 565.2C403.6 566.3 402.4 567.2 401.3 568.1C400.2 569 399.1 569.9 397.9 570.8C395.6 572.6 393.4 574.3 391.1 576C386.5 579.4 381.9 582.9 377.3 586.3C368 593.1 358.7 599.7 349.4 606.4C330.8 619.8 312 632.9 293.3 646.2C291 647.9 288.6 649.5 286.3 651.2L284.7 652.5L283.7 653.2L282.8 653.8L279.2 656.2L264.7 665.5C255 671.6 245.4 677.8 235.6 683.8L206.6 702C196.8 707.9 187 714 177.2 719.9Z" fill="#504B4B"/>
<path opacity="0.6" d="M183.2 724.1L211.6 705.5L240.1 687L268.6 668.5L282.8 659.2C285.2 657.6 287.5 656.1 289.9 654.5C291.1 653.7 292.2 652.9 293.3 652.1L295 650.8L296.7 649.6C305.9 643 315.2 636.6 324.5 630.1C333.8 623.6 343.1 617.1 352.4 610.7L380.4 591.4L394.4 581.8L401.4 577L404.9 574.6L406.6 573.4L408.3 572.1C390.3 585.9 371.7 598.8 353.3 612C334.9 625.1 316.3 638.1 297.9 651.3L296.2 652.5L294.6 653.7C293.4 654.6 292.2 655.4 291 656.2C288.6 657.8 286.3 659.3 283.9 660.9L269.6 670.1C260.1 676.2 250.5 682.3 240.9 688.3L212.1 706.3C202.5 712.2 192.9 718.2 183.2 724.1Z" fill="#504B4B"/>
<path opacity="0.6" d="M413.2 575.5C404.2 582.3 395.1 589 386 595.7L358.6 615.7C349.5 622.4 340.3 628.9 331.1 635.5C326.5 638.8 321.9 642.1 317.2 645.3C312.5 648.4 307.9 651.6 303.2 654.8C284.5 667.4 265.8 680.1 247 692.6C237.6 698.8 228.1 705 218.7 711.2C213.9 714.3 209.2 717.3 204.4 720.3C202 721.8 199.6 723.3 197.2 724.7C196 725.4 194.8 726.1 193.5 726.8C192.3 727.5 191 728.2 189.7 728.7C191 728.2 192.2 727.4 193.4 726.7C194.6 726 195.8 725.2 197 724.4C199.4 722.9 201.7 721.3 204.1 719.8C208.8 716.7 213.5 713.5 218.2 710.4C227.6 704.1 236.9 697.7 246.2 691.4L302.2 653.2C306.9 650 311.5 646.9 316.3 643.7C321 640.6 325.6 637.3 330.2 634.1L357.8 614.5L385.5 594.9L413.2 575.5Z" fill="#504B4B"/>
<path opacity="0.6" d="M192.4 734.2L220.7 715.3L249.1 696.5C268 684 287.1 671.6 306 658.9C308.4 657.3 310.6 655.7 313 654L319.9 649L333.7 639.1C342.9 632.5 352.1 625.8 361.4 619.3C380 606.2 398.4 592.9 417.4 580.4C415 581.9 412.7 583.7 410.4 585.3L403.5 590.3L389.7 600.4L362.2 620.5C353 627.2 343.8 633.8 334.6 640.5L320.8 650.5L313.9 655.5C311.6 657.2 309.3 658.9 306.9 660.4C297.4 666.7 287.9 672.9 278.4 679.1C268.9 685.3 259.4 691.5 249.8 697.6L221.1 715.9C211.7 722.1 202.1 728.2 192.4 734.2Z" fill="#504B4B"/>
<path opacity="0.6" d="M421.9 585.2C412.8 592 403.7 598.6 394.6 605.3L367.2 625.2C348.9 638.5 330.5 651.6 312.1 664.7L298.2 674.4C295.9 676 293.6 677.6 291.2 679.2L284.1 683.9C274.7 690.1 265.2 696.4 255.8 702.5L227.3 720.9L212.9 729.9L205.7 734.3L202.1 736.5L200.3 737.5C199.7 737.8 199.1 738.2 198.4 738.4C199.1 738.2 199.7 737.8 200.3 737.4L202.1 736.3L205.7 734L212.8 729.4L226.9 720L255.1 701.2C264.5 694.9 273.9 688.7 283.3 682.4L290.4 677.7C292.7 676.1 295 674.5 297.3 672.9L311.1 663.1L366.4 624L394.1 604.5L421.9 585.2Z" fill="#504B4B"/>
<path opacity="0.6" d="M203.6 744.6C212.9 738 222.2 731.6 231.5 725.1L259.6 705.8C278.3 692.9 297.2 680.2 316 667.6C320.8 664.5 325.4 661.3 330.3 658.3C331.6 657.5 332.7 656.9 333.9 656.1L337.4 653.7L344.4 648.8L372.1 629L399.8 609.2L427.6 589.5C418.6 596.4 409.5 603.2 400.4 610L373 630.1C363.9 636.9 354.6 643.5 345.4 650.1L338.4 655L334.9 657.4C333.7 658.2 332.4 659 331.3 659.7C326.6 662.7 321.8 665.9 317.1 669C298.2 681.5 279.3 694.3 260.4 706.9L232 725.8L203.6 744.6Z" fill="#504B4B"/>
<path opacity="0.6" d="M430.9 595.2C421.9 601.9 412.8 608.5 403.7 615.2L376.4 635C367.3 641.6 358.1 648.1 349 654.6L321.4 674L265.3 711.5L237.2 730.2L223.1 739.4L216 744C214.8 744.7 213.6 745.5 212.4 746.2L210.6 747.3C210 747.7 209.4 748 208.7 748.3C209.3 747.9 209.9 747.6 210.5 747.2L212.3 746C213.5 745.2 214.6 744.4 215.8 743.7L222.8 739L236.7 729.4L264.5 710.3C273.7 703.9 283.1 697.6 292.4 691.3C297.1 688.1 301.7 685 306.4 681.9C308.8 680.3 311.1 678.9 313.4 677.3L320.3 672.5C338.8 659.7 357.1 646.6 375.5 633.8L403.1 614.5L430.9 595.2Z" fill="#504B4B"/>
<path opacity="0.6" d="M214.6 752.4L242.1 733.3L269.7 714.3L297.3 695.3L311.1 685.8L317.9 681L321.3 678.6C321.9 678.2 322.4 677.8 322.9 677.4C323.4 677 323.9 676.6 324.5 676.1C326.8 674.3 329.1 672.8 331.4 671.2L338.3 666.5L352.2 657.1C361.5 650.9 370.7 644.6 380 638.4L407.8 619.7C412.4 616.6 417.1 613.5 421.7 610.3C424 608.7 426.3 607.1 428.6 605.5C429.7 604.7 430.9 603.9 432 603C433.1 602.1 434.3 601.4 435.2 600.3C434.3 601.4 433.1 602.2 432.1 603.1C431 604 429.9 604.8 428.8 605.7C426.6 607.4 424.3 609 422.1 610.7C417.6 614 413 617.2 408.5 620.5C399.4 626.9 390.2 633.3 381 639.6C371.8 646 362.6 652.2 353.4 658.5L339.6 668L332.7 672.8C330.4 674.4 328.1 676 326 677.7C325.6 678.1 324.9 678.6 324.4 679C323.8 679.5 323.2 679.9 322.7 680.3L319.3 682.7L312.4 687.5L298.6 697C289.4 703.3 280.1 709.6 270.8 715.8L242.9 734.4C233.3 740.2 224 746.4 214.6 752.4Z" fill="#504B4B"/>
<path opacity="0.6" d="M438.9 605.9C429.9 612.4 420.9 618.8 411.9 625.2L384.8 644.4C366.7 657.2 348.5 669.8 330.4 682.4L303.1 701.3C294 707.5 284.8 713.8 275.6 719.9C257.2 732.2 238.9 744.6 220.1 756.3C229.3 750.2 238.4 743.9 247.5 737.6L274.8 718.8L302.1 700L329.3 681C347.5 668.4 365.7 655.8 383.9 643.3L411.3 624.6C420.5 618.3 429.6 612.1 438.9 605.9Z" fill="#504B4B"/>
<path opacity="0.6" d="M223.1 762L250.7 742.9L278.4 724C296.9 711.4 315.4 698.9 333.8 686.1C336.1 684.5 338.4 682.9 340.7 681.3C341.3 680.9 341.8 680.5 342.3 680.1L343.1 679.5C343.4 679.3 343.7 679 344 678.8C345.1 677.9 346.3 677.1 347.4 676.3C352 673 356.5 669.8 361.1 666.6C370.3 660.2 379.5 653.8 388.7 647.5L416.4 628.6L430.3 619.2L437.2 614.5C439.5 612.9 441.8 611.4 444 609.7C426.2 623.2 407.7 635.9 389.5 648.8C371.2 661.7 352.8 674.3 334.8 687.7C325.6 694 316.3 700.3 307 706.5C297.7 712.7 288.5 719 279.1 725.2L251.1 743.7C241.8 749.8 232.5 755.9 223.1 762Z" fill="#504B4B"/>
<path opacity="0.6" d="M447.1 614.1C438.2 620.8 429.1 627.3 420.2 633.9L393 653.6C374.9 666.7 356.7 679.5 338.5 692.4C329.4 698.8 320.2 705.1 310.9 711.4L307.4 713.7L303.8 716C301.4 717.4 299.1 718.9 296.7 720.3L282.6 729.2C273.2 735.2 263.8 741.2 254.5 747.4C249.8 750.4 245.2 753.5 240.5 756.6C238.2 758.2 235.9 759.7 233.6 761.3C232.5 762.1 231.3 762.9 230.2 763.7C229.6 764.1 229.1 764.5 228.5 765C228 765.4 227.4 765.8 227 766.4C227.3 765.8 227.9 765.4 228.5 764.9C229 764.5 229.6 764 230.1 763.6C231.2 762.7 232.3 761.9 233.4 761.1C235.6 759.4 237.9 757.8 240.2 756.2C244.8 753 249.3 749.8 253.9 746.6C263.1 740.3 272.4 734.1 281.7 728C286.4 724.9 291 721.9 295.7 718.9C298.1 717.4 300.4 715.9 302.8 714.5L306.3 712.3L309.8 710C319 703.7 328.1 697.3 337.2 690.9L391.9 652.4L419.3 633.2L447.1 614.1Z" fill="#504B4B"/>
<path opacity="0.6" d="M453.3 618.6C445 624.8 436.6 630.9 428.2 637C419.8 643.1 411.3 649 402.9 655L377.5 672.9L364.8 681.8C360.6 684.8 356.3 687.7 352.4 691.1C356 687.4 360.3 684.3 364.3 681.1L370.5 676.4L376.7 671.7C385 665.5 393.4 659.5 401.9 653.5C410.4 647.5 418.9 641.6 427.5 635.8C435.9 629.9 444.6 624.2 453.3 618.6Z" fill="#504B4B"/>
<path opacity="0.6" d="M455.4 624.4C449.9 628.9 444.2 633.4 438.6 637.7C432.9 642.1 427.2 646.3 421.4 650.6C415.6 654.8 409.8 659 403.9 663.1C398 667.2 392.1 671.3 386 675C388.9 672.8 391.7 670.6 394.5 668.4L403 661.9C408.7 657.6 414.4 653.3 420.2 649.1C431.8 640.7 443.4 632.3 455.4 624.4Z" fill="#504B4B"/>
<path opacity="0.6" d="M459.4 629.2C449.7 637.1 439.7 644.6 429.6 652C424.5 655.7 419.4 659.3 414.3 662.8C409.2 666.4 404 669.8 398.7 673.2C403.5 669.2 408.5 665.4 413.4 661.6C418.4 657.8 423.4 654.1 428.5 650.4C438.6 643.1 448.9 635.9 459.4 629.2Z" fill="#504B4B"/>
<path opacity="0.6" d="M464.5 634.8C460.7 637.7 456.9 640.6 453 643.3C449.1 646.1 445.2 648.8 441.3 651.5L429.5 659.6C427.5 661 425.6 662.3 423.6 663.7C422.6 664.4 421.7 665.1 420.7 665.8C420.2 666.2 419.8 666.5 419.3 666.9C418.8 667.3 418.4 667.7 418.1 668.2C418.6 667.1 419.5 666.3 420.4 665.4C421.3 664.6 422.1 663.7 423 662.9C424.8 661.3 426.7 659.8 428.6 658.4C432.4 655.5 436.3 652.7 440.2 650C444.2 647.3 448.1 644.7 452.2 642.1C456.1 639.5 460.3 637.1 464.5 634.8Z" fill="#504B4B"/>
<path opacity="0.6" d="M469.1 638.1C466.1 640.8 463 643.4 459.8 645.9C456.7 648.4 453.4 650.8 450.2 653.2C447 655.6 443.7 657.9 440.4 660.2C437.1 662.5 433.7 664.7 430.2 666.8C433.2 664.1 436.3 661.5 439.5 659C442.6 656.5 445.9 654.1 449.1 651.7C452.3 649.3 455.6 647 458.9 644.7C462.3 642.4 465.7 640.2 469.1 638.1Z" fill="#504B4B"/>
<path opacity="0.6" d="M473.7 643.7C471.2 645.7 468.7 647.6 466.1 649.5C463.5 651.4 460.9 653.1 458.3 654.9C455.7 656.6 453 658.4 450.4 660.1L446.4 662.7C445.7 663.1 445.1 663.6 444.4 664C443.8 664.5 443.1 664.9 442.5 665.5C442.9 664.8 443.5 664.2 444 663.6C444.6 663 445.2 662.5 445.7 662C446.9 661 448.1 659.9 449.4 659C451.9 657 454.5 655.2 457.1 653.4C459.7 651.7 462.4 649.9 465.1 648.3C468.1 646.6 470.8 645.1 473.7 643.7Z" fill="#504B4B"/>
<path opacity="0.6" d="M476.6 648.5C475 650.1 473.4 651.6 471.7 653.1C470 654.6 468.3 655.9 466.5 657.3C464.7 658.6 462.9 660 461.1 661.2C459.3 662.5 457.4 663.6 455.5 664.9C456.8 663 458.5 661.5 460.2 660C461.9 658.5 463.6 657.1 465.4 655.7C467.2 654.4 469 653.1 470.9 651.8C472.7 650.7 474.6 649.5 476.6 648.5Z" fill="#504B4B"/>
<path opacity="0.6" d="M342.7 461.9C344.3 461.6 346 461.3 347.6 460.8L350 460.1L352.4 459.3C355.6 458.3 358.7 457.2 361.9 456.2C368.2 454 374.4 451.7 380.7 449.3C393.2 444.6 405.6 439.8 418 434.9C442.8 425.1 467.5 415.2 492.2 405.1L566.3 375.1C591 365.2 615.7 355 640.6 345.5C628.2 350.5 616 355.8 603.7 361L566.8 376.5C542.2 386.8 517.5 396.9 492.8 406.9C468.1 416.8 443.3 426.8 418.4 436.3C405.9 441.1 393.5 445.7 380.9 450.2C374.6 452.4 368.3 454.6 362 456.7C358.8 457.7 355.7 458.7 352.4 459.6L350 460.3L347.6 460.9C346.1 461.5 344.4 461.7 342.7 461.9Z" fill="#504B4B"/>
<path opacity="0.6" d="M348 467.4L352.8 466C354.4 465.5 356 464.9 357.5 464.4C360.7 463.3 363.8 462.2 366.9 461L376.3 457.5L385.7 453.9C398.2 449.1 410.7 444.3 423.1 439.4C448 429.6 472.9 419.8 497.7 409.8C522.6 400 547.4 389.9 572.2 380L646.7 350.1C634.4 355.5 622.1 360.7 609.8 365.9L572.8 381.4C566.6 384 560.4 386.5 554.2 389L535.6 396.6L498.4 411.6C473.5 421.4 448.6 431.3 423.6 440.8C411.1 445.5 398.6 450.3 386 454.8L376.6 458.2L367.1 461.5C363.9 462.6 360.8 463.7 357.6 464.7C356 465.2 354.4 465.8 352.8 466.2L348 467.4Z" fill="#504B4B"/>
<path opacity="0.6" d="M653 354.4C640.6 359.6 628.1 364.8 615.7 370L578.3 385.4C553.4 395.6 528.4 405.7 503.4 415.8C478.4 425.8 453.3 435.8 428.2 445.6L390.5 460.2L371.6 467.3L362.1 470.8C358.9 471.9 355.8 473.1 352.5 474C355.7 473 358.8 471.7 362 470.5L371.4 466.8L390.2 459.3L427.7 444.2L502.7 414L577.8 384.1L615.4 369.2L653 354.4Z" fill="#504B4B"/>
<path opacity="0.6" d="M656.4 361.2C643.9 366.4 631.3 371.5 618.7 376.6L580.9 391.8C555.7 401.9 530.4 411.9 505.2 421.9C479.9 431.8 454.6 441.7 429.3 451.4L391.2 465.9L372.1 473L362.5 476.5C359.3 477.6 356.1 478.8 352.8 479.7C356.1 478.8 359.2 477.5 362.4 476.3L371.9 472.6L390.8 465.1L428.7 450.1L504.5 420.2L580.4 390.5L618.4 375.8L656.4 361.2Z" fill="#504B4B"/>
<path opacity="0.6" d="M356.2 484.8L393.9 469.9L431.7 455.2C444.3 450.3 456.9 445.5 469.5 440.6L488.4 433.3C491.5 432.1 494.7 430.9 497.9 429.6L507.3 425.8L582.7 396.1L620.4 381.3L639.3 374L648.7 370.3C651.8 369.1 655 367.9 658.1 366.5C633.3 377.3 608.2 387.3 583.2 397.5C558.2 407.6 533.1 417.6 508 427.6L498.6 431.3C495.5 432.5 492.3 433.7 489.1 434.9L470.2 442.1C457.6 446.9 445 451.7 432.3 456.4L394.3 470.6L356.2 484.8Z" fill="#504B4B"/>
<path opacity="0.6" d="M660.7 371.7C648.2 376.9 635.8 381.9 623.3 387.1L585.8 402.3C560.8 412.4 535.7 422.3 510.7 432.3C485.6 442.2 460.5 452.1 435.4 461.8C410.2 471.5 385.1 481.4 359.7 490.4C362.9 489.3 366 488 369.1 486.7L378.5 482.9L397.3 475.3L434.8 460.2L510 430.3L585.3 400.7L623 386L660.7 371.7Z" fill="#504B4B"/>
<path opacity="0.6" d="M364.1 496.3L401.4 481.3L438.8 466.4L513.6 436.9L551.1 422.3L560.4 418.6L565 416.7L567.2 415.8L568.5 415.2C568.9 415 569.3 414.9 569.7 414.7C575.9 412 582.1 409.5 588.3 407L625.5 391.8L644.1 384.3L653.4 380.5C656.5 379.2 659.6 378 662.7 376.6C638.2 387.6 613.4 397.8 588.8 408.3L570.3 416.2C569.9 416.4 569.5 416.5 569.2 416.7L568.2 417.2L565.7 418.3L561 420.2L551.7 423.9L514.3 438.7C489.3 448.4 464.3 458.2 439.3 467.8L401.7 482.2C389.2 486.8 376.6 491.6 364.1 496.3Z" fill="#504B4B"/>
<path opacity="0.6" d="M665 382.6C652.8 387.8 640.6 393 628.4 398.1L591.7 413.4C567.2 423.6 542.7 433.6 518.2 443.6C493.6 453.5 469.1 463.4 444.4 473.1C432.1 477.9 419.7 482.7 407.4 487.5C401.2 489.8 395 492.2 388.8 494.4C385.7 495.5 382.6 496.7 379.4 497.7C377.8 498.2 376.3 498.8 374.7 499.3C373.9 499.6 373.1 499.8 372.3 500C371.5 500.2 370.7 500.5 369.9 500.5C370.7 500.5 371.5 500.1 372.3 499.9C373.1 499.6 373.9 499.4 374.7 499.1C376.3 498.6 377.8 498 379.4 497.4C382.5 496.2 385.6 495.1 388.7 493.9C394.9 491.5 401 489 407.2 486.6C419.5 481.7 431.8 476.7 444 471.8L517.6 441.9L591.2 412.1L628.1 397.3L665 382.6Z" fill="#504B4B"/>
<path opacity="0.6" d="M374.2 505.4L410.7 490.5L447.3 475.8L520.5 446.6L593.8 417.7L630.5 403.3L648.8 396.1L657.9 392.4L662.5 390.6C664 390 665.6 389.4 667 388.6C665.6 389.4 664 390 662.6 390.7L658.1 392.7L649 396.6L630.8 404.2L594.3 419.1C570 429 545.5 438.7 521.1 448.4C496.6 458 472.2 467.7 447.7 477.2L411 491.4C398.7 496.1 386.5 500.8 374.2 505.4Z" fill="#504B4B"/>
<path opacity="0.6" d="M669.7 394.1C657.7 399.2 645.6 404.2 633.5 409.2L597.2 424.1C573 434 548.7 443.8 524.5 453.6C500.2 463.3 475.9 473 451.6 482.6C427.2 492.1 403 501.8 378.4 510.8C390.6 506 402.6 501 414.8 496.1L451.1 481.3L523.8 451.9L596.7 422.8L633.2 408.4L669.7 394.1Z" fill="#504B4B"/>
<path opacity="0.6" d="M382.8 516.1L418.8 501.2L454.8 486.5L526.9 457.4L599.1 428.5L635.2 414.1L653.3 406.9L662.3 403.3C665.3 402.1 668.3 400.9 671.2 399.5C668.3 401 665.3 402.2 662.4 403.6L653.5 407.4L635.6 415L599.7 430C575.7 439.9 551.6 449.5 527.6 459.3C503.5 468.9 479.4 478.5 455.3 488L419.1 502.2C407 506.8 394.9 511.5 382.8 516.1Z" fill="#504B4B"/>
<path opacity="0.6" d="M674.3 405.2C662.5 410.2 650.6 415.1 638.7 420.1L603.1 434.8C579.3 444.6 555.5 454.2 531.7 463.8C507.8 473.3 484 482.9 460.1 492.3L424.2 506.3L406.2 513.2C400.2 515.4 394.2 517.8 388.1 519.8C391.1 518.8 394.1 517.5 397.1 516.3L406 512.7L423.9 505.4L459.6 490.9L531.1 462L602.7 433.4L638.5 419.2L674.3 405.2Z" fill="#504B4B"/>
<path opacity="0.6" d="M392.5 525.6L427.9 511.1L463.3 496.7L534.3 468.2L605.4 440L641 426L658.8 419L667.7 415.5L672.1 413.7C673.6 413.1 675.1 412.5 676.5 411.8C675.1 412.6 673.6 413.2 672.2 413.9L667.8 415.8L659 419.5L641.4 426.9L606 441.4C582.4 451 558.7 460.5 535.1 470C511.4 479.4 487.7 488.8 464 498.1L428.4 512C416.3 516.5 404.4 521.1 392.5 525.6Z" fill="#504B4B"/>
<path opacity="0.6" d="M678.3 417.1C666.7 422 655 426.8 643.4 431.7L608.4 446.1C585.1 455.7 561.7 465.1 538.3 474.5C514.9 483.8 491.5 493.2 468 502.4L432.8 516.1L415.1 522.8L406.2 526.1L401.7 527.7C400.2 528.2 398.7 528.8 397.2 529.1C398.7 528.7 400.2 528.1 401.7 527.5L406.1 525.8L414.9 522.3L432.4 515.2L467.4 501L537.5 472.7L607.7 444.7L642.9 430.8L678.3 417.1Z" fill="#504B4B"/>
<path opacity="0.6" d="M398.8 534L434 519.8L469.3 505.8L539.9 478L610.6 450.4L645.9 436.6L663.6 429.6L672.4 426L676.8 424.2L679 423.2C679.7 422.9 680.5 422.6 681.1 422.1C680.5 422.6 679.7 422.9 679 423.3L676.9 424.3L672.6 426.3L663.9 430.1L646.4 437.5L611.3 451.8C587.8 461.3 564.3 470.5 540.8 479.8C517.2 489 493.7 498.2 470 507.2L434.5 520.7C422.5 525.1 410.7 529.6 398.8 534Z" fill="#504B4B"/>
<path opacity="0.6" d="M683.5 428.6C671.9 433.4 660.3 438.2 648.8 442.9L614 457C590.8 466.4 567.5 475.7 544.3 485C521 494.2 497.7 503.5 474.4 512.6L439.4 526.2L421.9 532.9C416 535.1 410.2 537.4 404.3 539.5L439.1 525.3L473.9 511.2L543.7 483.2L613.6 455.6L648.6 441.9C660.1 437.6 671.7 433 683.5 428.6Z" fill="#504B4B"/>
<path opacity="0.6" d="M407.1 545L441.7 530.8L476.4 516.8L545.8 489.1L615.3 461.7L650.1 448.1L667.5 441.3L676.2 437.9C679.1 436.7 682 435.7 684.8 434.3C662 444.5 638.9 453.6 615.8 463.1C592.7 472.5 569.6 481.7 546.4 490.9C523.2 500 500 509.2 476.8 518.2L441.9 531.7C430.4 536.2 418.8 540.7 407.1 545Z" fill="#504B4B"/>
<path opacity="0.6" d="M687.4 439.6C686.1 440.4 684.7 441.1 683.3 441.8L679.1 443.8C676.3 445.1 673.4 446.3 670.6 447.5C664.9 450 659.2 452.4 653.5 454.8C642.1 459.6 630.6 464.3 619.2 468.9C596.3 478.2 573.3 487.3 550.3 496.5C527.3 505.5 504.2 514.6 481.1 523.5L446.5 536.9L429.2 543.6L420.5 547L416.2 548.7L414 549.6L412.9 550L412.4 550.2L412.1 550.3C412 550.3 411.9 550.4 411.9 550.4C411.9 550.3 412 550.3 412.1 550.2L412.4 550.1L412.9 549.9L414 549.4L416.1 548.5L420.4 546.7L429 543.1L446.2 536L480.6 522.1L549.6 494.7L618.7 467.5L653.2 453.9C659 451.6 664.7 449.3 670.4 447L679 443.5L683.3 441.7C684.6 441 686 440.4 687.4 439.6Z" fill="#504B4B"/>
<path opacity="0.6" d="M690.7 444.8C679.4 449.6 668.1 454.3 656.8 459.1L622.9 473.2C600.3 482.6 577.6 491.8 554.9 501.1C532.2 510.2 509.5 519.5 486.7 528.5L452.5 542L435.3 548.6C429.6 550.8 423.9 553 418 554.9C420.9 553.9 423.7 552.7 426.6 551.6L435.1 548.1L452.1 541.1L486.1 527.1L554.1 499.3L622.3 471.8L656.4 458.2L690.7 444.8Z" fill="#504B4B"/>
<path opacity="0.6" d="M422.3 560.5C433.5 555.7 444.7 551.1 455.9 546.4L489.6 532.4C512.1 523.1 534.6 514 557.1 504.8L624.8 477.6L658.7 464.1C670 459.7 681.3 455.2 692.7 450.8C681.5 455.6 670.3 460.2 659.1 464.9L625.4 478.9L557.9 506.5C535.3 515.6 512.8 524.7 490.2 533.7L456.3 547.2C445 551.7 433.7 556.1 422.3 560.5Z" fill="#504B4B"/>
<path opacity="0.6" d="M695.5 456.7C684.4 461.5 673.2 466.1 662.1 470.9L628.6 484.9C606.3 494.2 583.9 503.3 561.5 512.5C539.1 521.5 516.7 530.6 494.2 539.5L460.4 552.8L443.5 559.3L435 562.5C432.1 563.5 429.3 564.6 426.4 565.4C429.3 564.5 432.1 563.3 434.9 562.2L443.3 558.8L460.1 551.9L493.7 538.1L560.9 510.7L628.2 483.5L661.9 470L695.5 456.7Z" fill="#504B4B"/>
<path opacity="0.6" d="M431.8 571.5C442.8 566.8 453.9 562.1 464.9 557.4L498.1 543.5C520.2 534.3 542.4 525.2 564.6 516L631.3 488.9L664.7 475.5C675.9 471.1 687 466.6 698.2 462.3C687.2 467 676.1 471.7 665.1 476.4L631.9 490.3L565.4 517.8C543.2 526.8 521 535.9 498.8 544.9L465.4 558.3C454.1 562.7 442.9 567.2 431.8 571.5Z" fill="#504B4B"/>
<path opacity="0.6" d="M700.7 467.5C689.7 472.3 678.7 476.9 667.7 481.6L634.6 495.5L568.3 523.1L501.8 550.3L468.5 563.8L435.2 577.2C440.7 574.7 446.2 572.4 451.7 570L468.2 562.9L501.3 548.9C523.4 539.6 545.5 530.5 567.6 521.3C589.8 512.3 611.9 503.1 634.1 494.1L667.4 480.7C678.5 476.3 689.6 471.9 700.7 467.5Z" fill="#504B4B"/>
<path opacity="0.6" d="M701.9 473C691 477.7 680.1 482.3 669.1 487L636.3 500.8C625.4 505.4 614.4 509.9 603.4 514.5L587 521.3L570.6 528.2C548.7 537.2 526.7 546.3 504.7 555.3L471.7 568.7L438.6 581.9C444 579.5 449.5 577.1 454.9 574.8L471.3 567.8L504.1 553.9L569.8 526.4L586.2 519.6L602.7 512.9C613.7 508.4 624.7 503.9 635.7 499.5L668.7 486.2C679.8 481.8 690.8 477.4 701.9 473Z" fill="#504B4B"/>
<path opacity="0.6" d="M443.6 587.8C454.3 582.9 465.1 578.2 475.8 573.3L508.1 559.1C518.9 554.4 529.7 549.8 540.6 545.2C546 542.9 551.4 540.6 556.9 538.4C558.3 537.8 559.6 537.3 561 536.7L563.1 535.9C563.8 535.6 564.5 535.4 565.2 535.1C566.8 534.6 568 534.2 569.3 533.7L573.4 532.2C595.3 523.7 617.1 514.7 638.9 505.9L671.6 492.6L688 486L696.2 482.6L700.3 480.9L702.3 480L704.3 479C699.1 481.7 693.6 484 688.3 486.4L672.1 493.5L639.6 507.3C628.8 511.9 617.9 516.4 607 520.8C596.1 525.3 585.2 529.7 574.2 534L570 535.5C568.6 536 566.9 536.5 565.7 536.9C565.1 537.1 564.4 537.4 563.7 537.6L561.7 538.4C560.3 538.9 559 539.5 557.6 540C552.1 542.2 546.7 544.4 541.3 546.7L508.8 560.4L476.3 574.1L443.6 587.8Z" fill="#504B4B"/>
<path opacity="0.6" d="M706.3 484.4C695.7 489 685 493.6 674.3 498.2L642.2 511.8L577.9 538.7L513.5 565.3L481.3 578.5C470.5 582.9 459.8 587.2 449.1 591.7C470.2 582.1 491.7 573.1 513 563.9C534.4 554.8 555.8 545.9 577.3 536.9C598.8 528.1 620.2 519.1 641.7 510.4L674 497.3C684.7 493 695.5 488.6 706.3 484.4Z" fill="#504B4B"/>
<path opacity="0.6" d="M452.4 597.3C463 592.6 473.6 588.1 484.2 583.5L516.1 569.9C537.4 560.8 558.7 551.9 580 543C601.4 534.2 622.7 525.3 644.1 516.5C665.5 507.8 686.9 499 708.6 490.9C697.9 495.2 687.3 499.8 676.6 504.3L644.6 517.8L580.6 544.7L516.5 571.2L484.4 584.3C473.9 588.7 463.2 593.1 452.4 597.3Z" fill="#504B4B"/>
<path opacity="0.6" d="M711.9 496.2C701.4 500.8 690.8 505.2 680.3 509.7L648.7 523L585.3 549.4L521.8 575.4L490 588.3C479.4 592.6 468.8 596.8 458.2 601.3C479 591.8 500.2 583 521.2 574.1C542.3 565.2 563.5 556.5 584.6 547.7C605.8 539 626.9 530.3 648.2 521.7L680.1 508.9C690.6 504.7 701.3 500.4 711.9 496.2Z" fill="#504B4B"/>
<path opacity="0.6" d="M462 606.4C472.3 601.8 482.7 597.3 493 592.8L524.1 579.4C544.9 570.5 565.7 561.7 586.5 552.9C607.4 544.2 628.2 535.5 649.1 527L680.5 514.3L696.3 508.1L704.2 505.1C706.9 504.2 709.5 503.1 712.2 502.4C709.5 503.2 706.9 504.4 704.3 505.4L696.5 508.6L680.9 515.2L649.7 528.4L587.3 554.7L524.8 580.8L493.5 593.7L462 606.4Z" fill="#504B4B"/>
<path opacity="0.6" d="M715.2 507.6L684.2 520.9L653.1 534L590.9 560L528.6 585.8L497.4 598.7L481.8 605.2L474 608.5C471.4 609.6 468.8 610.7 466.3 612C471.2 609.3 476.4 607.1 481.5 604.7L496.9 597.8L527.9 584.4C548.6 575.6 569.3 566.9 590.1 558.2C610.9 549.7 631.7 541 652.5 532.6L683.8 520C694.3 515.8 704.7 511.7 715.2 507.6Z" fill="#504B4B"/>
<path opacity="0.6" d="M471 616.8C481.2 612.3 491.4 607.8 501.6 603.4L532.3 590.2C552.8 581.4 573.3 572.8 593.8 564C614.4 555.4 634.9 546.8 655.5 538.3C676.1 529.9 696.7 521.3 717.6 513.4C707.3 517.6 697.1 522.1 686.8 526.5L656.1 539.6L594.5 565.7L532.8 591.5L502 604.2C491.7 608.4 481.4 612.6 471 616.8Z" fill="#504B4B"/>
<path opacity="0.6" d="M720.4 519.5L689.8 532.4L659.1 545.2L597.7 570.6L536.2 595.7L505.5 608.3L490.1 614.6L482.5 617.8C480 618.9 477.4 619.9 475 621.3C477.3 619.8 479.9 618.7 482.4 617.5L490 614.1L505.2 607.4L535.7 594.3C556.1 585.7 576.6 577.2 597 568.7C617.5 560.4 638 552 658.6 543.7L689.5 531.4C699.7 527.5 710 523.5 720.4 519.5Z" fill="#504B4B"/>
<path opacity="0.6" d="M721.3 524.8L691.1 537.7L660.9 550.4L600.3 575.6L539.6 600.6L509.3 613.1L494.2 619.4L486.7 622.6L482.9 624.2C481.7 624.8 480.4 625.3 479.3 626.1C480.4 625.3 481.7 624.7 482.9 624.1L486.6 622.3L494.1 618.9L509.1 612.2L539.2 599.2C559.3 590.6 579.5 582.2 599.7 573.8C619.9 565.5 640.2 557.2 660.4 549L690.8 536.8C700.9 532.8 711.1 528.8 721.3 524.8Z" fill="#504B4B"/>
<path opacity="0.6" d="M482.8 632.2C493.6 627 504.5 621.8 515.4 616.8C526.3 611.8 537.3 606.8 548.2 601.9C559.2 597 570.2 592.2 581.2 587.5C586.7 585.1 592.3 582.8 597.8 580.5C603.4 578.3 608.9 575.9 614.6 573.9C609.1 576.3 603.6 578.8 598.2 581.3L581.8 588.8C570.9 593.8 559.9 598.7 548.9 603.6C527 613.4 505 623.1 482.8 632.2Z" fill="#504B4B"/>
<path opacity="0.6" d="M642.2 566.1C646 564.2 649.8 562.5 653.7 560.8C657.5 559.1 661.4 557.5 665.3 555.9C669.2 554.3 673.1 552.8 677 551.3C680.9 549.8 684.9 548.4 688.8 546.8C687.1 548 685.2 548.9 683.3 549.9C681.4 550.8 679.5 551.8 677.6 552.6C673.8 554.4 669.9 556 666 557.6C662.1 559.2 658.2 560.7 654.2 562.1C650.2 563.6 646.2 564.9 642.2 566.1Z" fill="#504B4B"/>
<path opacity="0.6" d="M724.1 537.4C710.1 543.9 695.9 549.9 681.7 555.8C674.6 558.7 667.4 561.6 660.3 564.4L649.5 568.6C645.9 569.9 642.3 571.3 638.7 572.7C645.6 569.2 652.7 566.1 659.7 563C666.8 559.9 673.9 556.9 681 554C695.2 548.2 709.5 542.5 724.1 537.4Z" fill="#504B4B"/>
<path opacity="0.6" d="M623.5 578C601.2 588.3 578.7 598 556.2 607.7C544.9 612.5 533.6 617.3 522.3 622L505.3 629.1C499.6 631.4 494 633.7 488.4 636.3C491.1 634.8 493.9 633.5 496.6 632.2L504.9 628.3C510.5 625.7 516.1 623.2 521.7 620.7C532.9 615.7 544.1 610.8 555.4 606C566.7 601.2 578 596.4 589.3 591.8C600.7 587 612.1 582.4 623.5 578Z" fill="#504B4B"/>
<path opacity="0.6" d="M491.4 640.3C501.2 636 511 631.8 520.7 627.6L550.1 615.1C569.7 606.8 589.4 598.6 609 590.3C628.7 582.2 648.4 574 668.1 566L697.7 554C707.6 550.1 717.5 546.1 727.4 542.3L698 554.9L668.6 567.4L609.6 592.1C589.9 600.2 570.2 608.4 550.5 616.4L520.9 628.4C511.2 632.4 501.4 636.4 491.4 640.3Z" fill="#504B4B"/>
<path opacity="0.6" d="M729.9 547.4C720.3 551.6 710.6 555.8 701 559.9L672 572.2C652.6 580.4 633.2 588.5 613.8 596.6C594.4 604.6 574.9 612.7 555.5 620.6L526.3 632.5C516.5 636.4 506.8 640.3 497 644.2C506.6 640 516.3 635.8 525.9 631.7L554.9 619.4C574.3 611.2 593.7 603.1 613.1 595C632.5 587 652 578.9 671.4 571L700.6 559.1C710.3 555.2 720.1 551.2 729.9 547.4Z" fill="#504B4B"/>
<path opacity="0.6" d="M500.1 649.6C509.7 645.4 519.3 641.4 529 637.3L557.9 625.1L615.9 601L674 577.3L703.1 565.5L717.7 559.6L725 556.6C727.4 555.6 729.9 554.7 732.2 553.5C713.2 562.4 693.9 570.3 674.6 578.5C655.3 586.6 636 594.6 616.7 602.6C597.3 610.5 578 618.4 558.6 626.2L529.5 637.9C519.5 641.9 509.8 645.8 500.1 649.6Z" fill="#504B4B"/>
<path opacity="0.6" d="M734.7 559.8C715.2 568.7 695.6 577.2 675.9 585.5C666 589.6 656.2 593.8 646.3 597.8L631.5 603.9C626.5 605.9 621.6 607.9 616.7 610.1C619 608.7 621.4 607.6 623.9 606.4L631.2 603C636.1 600.8 640.9 598.6 645.8 596.4C655.6 592.1 665.4 587.8 675.3 583.7C685.2 579.6 695 575.4 705 571.4C714.7 567.5 724.7 563.6 734.7 559.8Z" fill="#504B4B"/>
<path opacity="0.6" d="M593.2 618.2C579.1 624.9 564.8 631 550.5 637.1C543.3 640.1 536.1 643.1 528.9 646L518.1 650.4C514.5 651.8 510.8 653.2 507.3 654.8C509 653.8 510.7 652.9 512.5 652.1L517.8 649.6C521.3 647.9 524.9 646.3 528.4 644.7C535.5 641.5 542.7 638.4 549.8 635.4C557 632.4 564.2 629.4 571.4 626.6C578.6 623.6 585.9 620.9 593.2 618.2Z" fill="#504B4B"/>
<path opacity="0.6" d="M508.5 659.5C512.5 657.5 516.6 655.7 520.8 653.9C524.9 652.1 529.1 650.4 533.2 648.7C537.4 647 541.6 645.4 545.8 643.8L552.1 641.5C554.2 640.7 556.3 640 558.4 639.1C556.5 640.4 554.5 641.3 552.5 642.3C550.5 643.3 548.4 644.2 546.4 645.1C542.3 646.9 538.1 648.7 534 650.4C529.8 652.1 525.6 653.7 521.4 655.2C517.1 656.8 512.8 658.2 508.5 659.5Z" fill="#504B4B"/>
<path opacity="0.6" d="M647.3 602.8C661.9 596 676.7 589.7 691.6 583.5C699 580.4 706.5 577.4 714 574.5C721.5 571.5 729 568.7 736.6 566C729.3 569.4 722 572.7 714.6 575.9C707.2 579.1 699.8 582.2 692.4 585.3C677.4 591.3 662.5 597.3 647.3 602.8Z" fill="#504B4B"/>
<path opacity="0.6" d="M738.9 570.3C725.9 576.9 712.6 582.9 699.3 588.8C692.6 591.7 686 594.6 679.2 597.4C672.5 600.2 665.7 602.9 658.9 605.5C665.4 602.2 672 599 678.6 596C685.2 592.9 691.8 589.9 698.5 587C711.9 581.2 725.3 575.5 738.9 570.3Z" fill="#504B4B"/>
<path opacity="0.6" d="M740.7 577.8C729.2 583.4 717.5 588.4 705.8 593.5C699.9 596 694 598.4 688.1 600.8L679.2 604.4C676.2 605.6 673.3 606.7 670.4 608.2C671.7 607.2 673.1 606.5 674.5 605.7C675.9 605 677.3 604.2 678.8 603.5C681.7 602.1 684.5 600.7 687.4 599.4C693.2 596.7 699 594.2 704.9 591.7C710.8 589.2 716.7 586.8 722.6 584.5C728.6 582.1 734.6 579.9 740.7 577.8Z" fill="#504B4B"/>
<path opacity="0.6" d="M742.9 582.9C734.3 587.4 725.5 591.3 716.7 595.2C712.3 597.1 707.8 599 703.4 600.8L696.7 603.5C694.4 604.4 692.2 605.2 690 606.2C694.1 603.6 698.5 601.5 702.8 599.4C707.2 597.3 711.6 595.4 716 593.4C720.4 591.5 724.9 589.6 729.4 587.9C733.8 586.1 738.3 584.4 742.9 582.9Z" fill="#504B4B"/>
<path opacity="0.6" d="M745.9 590.1C742.9 591.7 739.9 593.2 736.8 594.5C733.7 595.9 730.6 597.2 727.5 598.5C724.4 599.8 721.2 601 718.1 602.1C714.9 603.3 711.7 604.3 708.5 605.4C711.4 603.6 714.4 602.1 717.5 600.7C720.6 599.3 723.7 598 726.8 596.7C729.9 595.4 733.1 594.2 736.3 593.1C739.4 592.1 742.6 591 745.9 590.1Z" fill="#504B4B"/>
<path opacity="0.6" d="M747.3 597C745.1 598.3 742.7 599.5 740.4 600.6C738.1 601.7 735.7 602.7 733.3 603.7C730.9 604.7 728.5 605.6 726 606.4C723.6 607.2 721.1 608 718.5 608.6C720.7 607.3 723.1 606.1 725.4 605C727.7 603.9 730.1 602.9 732.5 601.9C734.9 600.9 737.3 600 739.8 599.2C742.3 598.4 744.8 597.6 747.3 597Z" fill="#504B4B"/>
<path opacity="0.6" d="M334.6 449C332.7 447.4 331 445.8 329.3 444C327.6 442.3 326 440.5 324.4 438.7C322.8 436.9 321.3 435 319.8 433.1C318.3 431.2 316.9 429.2 315.6 427.2C317.5 428.8 319.2 430.4 320.9 432.2C322.6 433.9 324.2 435.7 325.8 437.5C327.4 439.3 328.9 441.2 330.4 443.1C331.8 445 333.3 446.9 334.6 449Z" fill="#504B4B"/>
<path opacity="0.6" d="M341.4 445.7C339.9 444.7 338.6 443.5 337.3 442.3C336 441.1 334.7 439.9 333.5 438.6C331 436.1 328.6 433.5 326.1 431C323.7 428.4 321.4 425.8 319.1 423.1C316.8 420.4 314.6 417.6 312.4 414.9C315.2 417.1 317.7 419.6 320.2 422.1C322.7 424.6 325.1 427.2 327.5 429.8C329.9 432.4 332.2 435 334.5 437.7L337.9 441.7C339.1 443 340.2 444.4 341.4 445.7Z" fill="#504B4B"/>
<path opacity="0.6" d="M347.7 445.1C345.7 443.6 344.1 441.8 342.3 440.1C340.6 438.3 338.9 436.5 337.3 434.7C334 431.1 330.8 427.4 327.7 423.6C324.6 419.8 321.5 416.1 318.5 412.2C317 410.3 315.5 408.4 314 406.4C312.5 404.4 311.1 402.5 309.6 400.6C313.2 404 316.4 407.6 319.7 411.3C323 414.9 326.1 418.7 329.3 422.4C332.4 426.1 335.5 429.9 338.6 433.7L343.2 439.4C344.6 441.4 346.1 443.3 347.7 445.1Z" fill="#504B4B"/>
<path opacity="0.6" d="M354.8 445C353.6 443.9 352.6 442.6 351.6 441.3L348.5 437.5L342.4 429.8C338.3 424.7 334.3 419.6 330.1 414.6C326 409.6 321.7 404.7 317.2 399.9C316.1 398.7 315 397.5 313.8 396.4C312.6 395.3 311.5 394.1 310.3 393C309.1 391.9 307.9 390.8 306.7 389.7C305.4 388.7 304.2 387.6 302.9 386.6C308.5 390 313.5 394.3 318.2 398.9C320.6 401.2 322.8 403.6 325 406C327.2 408.4 329.4 410.9 331.4 413.4C335.6 418.5 339.6 423.6 343.4 428.9C345.3 431.6 347.2 434.2 349 436.9C351.1 439.7 352.9 442.4 354.8 445Z" fill="#504B4B"/>
<path opacity="0.6" d="M359.7 442C354.7 436.1 349.7 430.2 344.8 424.2L330.1 406.2L315.5 388.2C313 385.2 310.6 382.2 308.1 379.3C306.9 377.8 305.6 376.4 304.3 374.9C303.6 374.2 303 373.5 302.3 372.8C301.6 372.1 300.9 371.4 300 371C300.9 371.3 301.7 372 302.5 372.6C303.3 373.2 304 373.9 304.7 374.5C306.1 375.8 307.5 377.2 308.8 378.6C311.5 381.4 314.1 384.3 316.7 387.2C321.8 393 326.8 399 331.7 405C336.6 411 341.4 417.1 346.1 423.3C350.7 429.5 355.2 435.7 359.7 442Z" fill="#504B4B"/>
<path opacity="0.6" d="M364.3 437.7C358.7 431.2 353.2 424.6 347.8 418L331.5 398.2C326.1 391.6 320.7 385 315.2 378.4C312.5 375.1 309.7 371.9 306.9 368.7C305.5 367.1 304.1 365.5 302.6 363.9C301.1 362.4 299.7 360.8 298 359.5C299.8 360.7 301.4 362.1 303 363.6C304.6 365.1 306.1 366.6 307.6 368.1C310.6 371.2 313.5 374.3 316.4 377.5C322.1 383.9 327.6 390.4 333.1 397C338.5 403.6 343.9 410.3 349.1 417.1C354.2 423.9 359.3 430.8 364.3 437.7Z" fill="#504B4B"/>
<path opacity="0.6" d="M371.5 436.6C365.1 429.1 358.7 421.6 352.4 414L333.6 391.2L314.8 368.4C311.7 364.6 308.5 360.8 305.3 357.1C303.7 355.2 302.1 353.3 300.5 351.5C299.7 350.6 298.8 349.7 298 348.8C297.2 347.9 296.3 347 295.3 346.2C297.3 347.6 299.1 349.4 300.8 351.1C302.6 352.8 304.3 354.6 306 356.4C309.4 360 312.7 363.7 315.9 367.4C322.4 374.8 328.8 382.4 335 390C341.3 397.6 347.4 405.3 353.5 413.1C359.7 420.8 365.6 428.7 371.5 436.6Z" fill="#504B4B"/>
<path opacity="0.6" d="M379.4 436.4C372.3 427.9 365.3 419.4 358.3 410.8L337.3 385.2C330.3 376.7 323.3 368.2 316.1 359.8C312.5 355.6 308.9 351.4 305.2 347.3C301.5 343.2 297.8 339.1 293.6 335.6C295.9 337.2 297.9 339 300 340.9C302 342.8 304 344.7 305.9 346.7C309.8 350.7 313.5 354.7 317.2 358.8C324.6 367 331.7 375.5 338.7 384C345.7 392.5 352.6 401.2 359.4 409.9C366.2 418.6 372.9 427.4 379.4 436.4Z" fill="#504B4B"/>
<path opacity="0.6" d="M383.5 430.5C375.8 421.6 368.1 412.7 360.5 403.7L337.7 376.7L315 349.6L303.6 336.1C301.7 333.9 299.8 331.6 297.8 329.4L294.8 326.1C293.8 325 292.7 324 291.7 323C292.8 324 294 324.9 295 325.9L298.1 329C300.2 331.1 302.2 333.3 304.2 335.4C308.2 339.7 312.2 344.1 316 348.5C323.8 357.3 331.4 366.3 339 375.3C346.6 384.3 354.1 393.4 361.5 402.6C369.1 411.9 376.4 421.2 383.5 430.5Z" fill="#504B4B"/>
<path opacity="0.6" d="M389 429.5C384.7 424.6 380.5 419.5 376.2 414.6L363.5 399.5L338.3 369.3L313.3 338.9L300.8 323.7C296.6 318.6 292.5 313.5 288.1 308.7C297.4 318 305.8 328.1 314.4 338C322.9 348 331.3 358.1 339.7 368.1C348 378.3 356.3 388.4 364.5 398.6L376.8 414C380.9 419.1 385 424.3 389 429.5Z" fill="#504B4B"/>
<path opacity="0.6" d="M394.7 427.5L380.9 411L367.2 394.5L339.9 361.4L326.3 344.8L312.6 328.3C308.1 322.8 303.5 317.3 298.8 311.9L295.3 307.8L293.6 305.8L291.8 303.8L288.2 299.8L284.4 296L288.4 299.6L292.1 303.5L294 305.4L295.8 307.4L299.4 311.3C304.2 316.6 308.9 322 313.6 327.4C323 338.2 332.1 349.2 341.3 360.2C350.3 371.3 359.4 382.4 368.3 393.6L381.6 410.5C386 416.1 390.4 421.7 394.7 427.5Z" fill="#504B4B"/>
<path opacity="0.6" d="M401.9 427.3C400.4 426 399.2 424.5 397.9 423.1C396.6 421.6 395.4 420.1 394.1 418.6C391.6 415.6 389.1 412.6 386.7 409.6L372.1 391.3C362.4 379.1 352.9 366.8 343.1 354.7C338.3 348.6 333.4 342.5 328.5 336.5C323.6 330.5 318.6 324.5 313.7 318.5C308.7 312.5 303.7 306.6 298.4 300.9C293.2 295.2 287.9 289.4 281.7 284.7C285 286.8 287.9 289.5 290.8 292.1C293.6 294.8 296.4 297.5 299.1 300.3C304.5 305.9 309.7 311.7 314.8 317.6C325 329.4 334.8 341.5 344.6 353.6C354.2 365.8 363.8 378.1 373.3 390.5L387.4 409.1C389.7 412.2 392.1 415.3 394.5 418.4C395.7 419.9 396.9 421.5 398.1 423C399.3 424.4 400.5 426 401.9 427.3Z" fill="#504B4B"/>
<path opacity="0.6" d="M407 424C396.4 411.3 386.4 398.3 376.1 385.4C365.9 372.5 355.7 359.5 345.3 346.7C335 333.8 324.6 321.1 314 308.5C308.7 302.2 303.3 296 297.8 289.9C292.3 283.8 286.6 277.8 280.3 272.5C283.6 275 286.7 277.7 289.7 280.5C291.2 281.9 292.7 283.4 294.1 284.8L298.4 289.2C304.1 295.2 309.6 301.3 315.1 307.5C320.6 313.7 325.8 320 331.1 326.4C336.4 332.7 341.6 339.1 346.8 345.5C351.9 351.9 357 358.4 362.1 364.9C367.2 371.4 372.3 377.9 377.2 384.5L392.1 404.2C397.1 410.8 402 417.5 407 424Z" fill="#504B4B"/>
<path opacity="0.6" d="M412.8 421.9L380.6 381.5C369.8 368.1 359.1 354.6 348.3 341.2C337.5 327.8 326.6 314.5 315.5 301.3C310 294.7 304.4 288.2 298.6 281.8C297.2 280.2 295.7 278.6 294.3 277C292.8 275.4 291.4 273.8 289.9 272.3C286.9 269.3 283.9 266.2 280.3 263.8C284 266 287.2 269 290.3 272C291.9 273.5 293.4 275 294.9 276.5C296.4 278 297.9 279.6 299.4 281.1C305.3 287.4 311 293.8 316.7 300.3C328 313.3 338.9 326.6 349.8 340C360.6 353.5 371.3 366.9 381.8 380.6L397.5 401.1C402.5 408.1 407.7 415 412.8 421.9Z" fill="#504B4B"/>
<path opacity="0.6" d="M418.8 419.5L385.2 377.6C374 363.6 362.9 349.6 351.6 335.8C346 328.8 340.4 321.9 334.7 315C329.1 308.1 323.3 301.2 317.6 294.3C311.9 287.4 306.1 280.6 300.2 273.9C297.3 270.5 294.3 267.2 291.2 264C289.7 262.4 288.1 260.8 286.5 259.2L284.1 256.9L281.6 254.7C285.2 257.3 288.4 260.5 291.6 263.6C294.8 266.8 297.9 270 300.9 273.3C307 279.9 312.9 286.6 318.8 293.3C330.5 306.8 341.8 320.7 353.1 334.6C364.3 348.6 375.4 362.6 386.4 376.7L402.7 398C408.1 405.1 413.5 412.2 418.8 419.5Z" fill="#504B4B"/>
<path opacity="0.6" d="M424.8 417.1L407 395.4L389.3 373.6L354 330.1C342.3 315.5 330.5 301.1 318.6 286.6C312.7 279.4 306.7 272.2 300.7 265C297.7 261.4 294.7 257.9 291.6 254.4L289.3 251.8L286.9 249.2C285.3 247.5 283.7 245.8 281.9 244.3C285.5 247.2 288.8 250.7 292 254C295.2 257.4 298.3 260.9 301.5 264.4C307.7 271.4 313.8 278.5 319.8 285.6C325.9 292.7 331.8 299.9 337.8 307.1L355.6 328.8C367.3 343.4 379 357.9 390.6 372.6L407.9 394.7C413.5 402.3 419.2 409.6 424.8 417.1Z" fill="#504B4B"/>
<path opacity="0.6" d="M429.5 414.4L412 393L394.6 371.5L359.9 328.5C348.4 314.1 336.8 299.8 325.2 285.5C319.4 278.3 313.6 271.2 307.7 264.1C304.7 260.6 301.9 257 298.8 253.5L294.3 248.3C292.8 246.6 291.1 245 289.6 243.3C291.2 244.9 292.9 246.5 294.5 248.1L299.2 253.2C302.3 256.6 305.3 260.1 308.4 263.5C314.4 270.5 320.4 277.5 326.3 284.6C338.1 298.7 349.7 313 361.3 327.3C372.8 341.7 384.3 356.1 395.6 370.6L412.6 392.4C418.3 399.7 424 407 429.5 414.4Z" fill="#504B4B"/>
<path opacity="0.6" d="M435.2 413.5C433.8 411.5 432.2 409.6 430.7 407.7L426.1 401.9L416.8 390.4L398.3 367.4L361.4 321.3L324.6 275L306.2 251.9L296.9 240.4L292.2 234.7C290.6 232.8 289.1 230.9 287.3 229.2C289.2 230.8 290.8 232.7 292.4 234.5L297.3 240.1L306.9 251.3C313.2 258.9 319.5 266.4 325.8 274C338.3 289.2 350.6 304.6 363 319.9C375.2 335.3 387.5 350.7 399.6 366.3C411.5 382 423.8 397.4 435.2 413.5Z" fill="#504B4B"/>
<path opacity="0.6" d="M442 410.2C435.5 402.4 429 394.5 422.5 386.7L403.2 363L364.7 315.5L326.5 267.8L307.3 244L297.8 232L293 226.1L290.6 223.1L288.1 220.2C301.7 235.4 314.5 251.3 327.5 266.9C340.4 282.6 353.2 298.5 366.1 314.3C378.8 330.2 391.6 346.1 404.3 362L423.2 386C429.5 394.1 435.8 402.1 442 410.2Z" fill="#504B4B"/>
<path opacity="0.6" d="M446.6 408L427 383.7L407.5 359.3L368.6 310.4C355.7 294 342.7 277.8 329.7 261.5L320 249.3L310.2 237.1C303.6 229 297.2 220.8 290.1 213.2L292.9 216L294.3 217.4C294.8 217.9 295.2 218.4 295.6 218.8L300.8 224.6L311 236.4L321 248.4L330.9 260.5C334.2 264.5 337.5 268.6 340.8 272.6L350.6 284.8L370.1 309.2C383 325.6 395.9 341.9 408.7 358.3L427.8 383C434 391.4 440.3 399.7 446.6 408Z" fill="#504B4B"/>
<path opacity="0.6" d="M452.7 406.6C445.2 398.2 438.1 389.5 431.1 380.7C427.6 376.3 424.2 371.8 420.8 367.3C417.4 362.8 414.1 358.2 411 353.6C414.8 357.8 418.4 362 422 366.4C425.6 370.7 429.1 375.1 432.6 379.5C439.5 388.4 446.3 397.3 452.7 406.6Z" fill="#504B4B"/>
<path opacity="0.6" d="M406.5 348.1C396.2 336.2 386.3 324 376.5 311.7C374.1 308.6 371.6 305.5 369.3 302.4C368.1 300.8 366.9 299.2 365.8 297.6C365.2 296.8 364.7 296 364.1 295.2C363.6 294.4 363 293.3 362.6 292.6C360.5 289.4 358.1 286.2 355.8 283.1L348.7 273.7C339.3 261.1 329.7 248.7 320.1 236.2C315.3 230 310.5 223.8 305.6 217.6C303.2 214.5 300.7 211.4 298.2 208.4C297 206.9 295.7 205.4 294.4 203.9C293.1 202.4 291.9 200.9 290.4 199.6C292 200.8 293.3 202.3 294.6 203.7C295.9 205.1 297.2 206.6 298.5 208.1C301.1 211.1 303.7 214 306.2 217.1C311.2 223.1 316.2 229.3 321.1 235.4C331 247.7 340.6 260.1 350.1 272.6L357.1 282.1C359.4 285.3 361.7 288.4 363.9 291.8C364.5 292.8 364.8 293.5 365.4 294.3C366 295.1 366.5 295.9 367 296.7C368.1 298.3 369.3 299.9 370.5 301.4L377.6 310.8C382.4 317.1 387.2 323.3 392 329.5C396.8 335.7 401.7 341.9 406.5 348.1Z" fill="#504B4B"/>
<path opacity="0.6" d="M460.1 403.9C458.8 403.2 457.6 402.3 456.5 401.4C455.4 400.5 454.3 399.5 453.2 398.5C452.2 397.5 451.2 396.4 450.2 395.3C449.3 394.2 448.4 393 447.6 391.8C448.9 392.6 450.1 393.4 451.3 394.4C452.4 395.3 453.5 396.3 454.5 397.3C455.5 398.3 456.5 399.4 457.4 400.5C458.4 401.4 459.3 402.6 460.1 403.9Z" fill="#504B4B"/>
<path opacity="0.6" d="M465.8 402.5C460.7 397.8 455.6 393 450.7 388C445.8 383.1 440.9 378.1 436.1 373C433.7 370.4 431.4 367.9 429.2 365.1C427.1 362.4 424.8 359.8 422.5 357.1L415.6 349.2C413.3 346.6 411 344 408.7 341.4C413.9 346 418.8 351 423.6 356.1C426 358.6 428.3 361.2 430.6 364C432.7 366.7 435.1 369.2 437.5 371.7L451.7 387C456.5 392.1 461.1 397.3 465.8 402.5Z" fill="#504B4B"/>
<path opacity="0.6" d="M473.9 400.4C471.4 398.7 469.2 396.7 467 394.7C464.8 392.7 462.6 390.7 460.4 388.6C456.1 384.5 451.8 380.3 447.7 376C439.3 367.5 431.1 358.8 423.2 349.9L399.4 323.2L387.5 309.8C383.6 305.3 379.6 300.8 375.6 296.5C384.2 304.8 392.3 313.5 400.5 322.2C408.6 330.9 416.7 339.7 424.6 348.6C428.5 353.1 432.6 357.5 436.6 361.8C440.6 366.2 444.7 370.5 448.8 374.9C452.9 379.2 457 383.6 461.1 387.8C463.2 389.9 465.2 392.1 467.4 394.2C469.4 396.5 471.5 398.6 473.9 400.4Z" fill="#504B4B"/>
<path opacity="0.6" d="M480.2 397.3C477.9 395.6 475.8 393.6 473.7 391.7C471.6 389.8 469.5 387.8 467.4 385.9C463.2 382 459.1 378 455 374C446.8 366 438.7 357.9 430.6 349.7C422.6 341.5 414.6 333.2 406.9 324.8C403 320.6 399.2 316.3 395.4 312C393.6 309.8 391.6 307.7 389.9 305.4L387.2 302.1L384.7 298.6L387.4 301.9L390.3 305.1C392.2 307.3 394.2 309.3 396.2 311.4C400.1 315.6 404.1 319.7 408.1 323.8C416.1 332 424.1 340.2 432.1 348.4L456 373L468 385.3C472 389.3 476 393.4 480.2 397.3Z" fill="#504B4B"/>
<path opacity="0.6" d="M369.6 292.3C356.7 275.1 344.3 257.6 331.8 240.1L313.1 214C310 209.6 306.8 205.3 303.7 201C302.1 198.9 300.5 196.7 298.9 194.6L296.4 191.4C295.5 190.4 294.6 189.4 293.7 188.4C294.7 189.3 295.6 190.3 296.6 191.2L299.3 194.2C301.1 196.2 302.7 198.3 304.5 200.4C307.9 204.6 311.2 208.8 314.4 213.1C320.9 221.7 327.2 230.3 333.5 239.1C339.7 247.9 345.9 256.7 351.9 265.5C357.8 274.4 363.8 283.3 369.6 292.3Z" fill="#504B4B"/>
<path opacity="0.6" d="M379.8 295.2C365.3 276.1 351.3 256.7 337.2 237.3L316.1 208.2L305.5 193.7C302 188.8 298.3 184.1 294.7 179.4C302.7 188.4 310.1 197.8 317.4 207.4C324.7 216.9 331.8 226.6 338.9 236.3C345.9 246 352.9 255.8 359.7 265.6C366.5 275.3 373.2 285.2 379.8 295.2Z" fill="#504B4B"/>
<path opacity="0.6" d="M297.2 172C305.1 181.2 312.8 190.7 320.4 200.3C324.1 205.1 327.8 210 331.4 214.9C335 219.8 338.4 224.9 341.8 230C348.7 240 355.7 250 362.8 259.9C369.9 269.8 377.1 279.6 384.5 289.2C386.3 291.6 388.3 293.8 390.4 296.1C392.4 298.4 394.5 300.6 396.5 302.8C400.6 307.3 404.8 311.7 409 316.1C417.4 324.9 425.9 333.6 434.4 342.3C442.9 351 451.6 359.5 460.4 368C469.1 376.5 478.1 384.8 487.2 392.8C468.4 377.3 450.7 360.5 433.4 343.4C424.7 334.9 416.2 326.1 407.8 317.3C403.6 312.9 399.4 308.5 395.2 304C393.1 301.8 391 299.5 389 297.3C387 295.1 384.9 292.8 383 290.3C375.6 280.6 368.5 270.7 361.4 260.8C354.4 250.9 347.3 240.9 340.6 230.7C337.2 225.6 334 220.5 330.5 215.5C327 210.5 323.4 205.6 319.7 200.8C312.3 191.1 304.8 181.6 297.2 172Z" fill="#504B4B"/>
<path opacity="0.6" d="M492.9 391.1C488 387.3 483.3 383.3 478.7 379.2C474.1 375.1 469.5 370.9 464.9 366.7C455.8 358.2 446.9 349.7 438 341C429.1 332.4 420.4 323.5 411.8 314.6C407.5 310.1 403.2 305.7 399 301.1C396.9 298.8 394.8 296.5 392.8 294.1L391.3 292.3L389.8 290.4C388.8 289.2 387.9 287.9 387.1 286.6L344.6 225.7C330.6 205.3 316.3 185 302.9 164.2C309.9 174.5 317.1 184.5 324.3 194.6L345.8 224.9L388.7 285.6C389.6 286.9 390.5 288.2 391.4 289.3L392.8 291.1L394.3 292.9C396.3 295.3 398.4 297.5 400.4 299.8C404.6 304.4 408.8 308.9 413.1 313.3C421.7 322.2 430.4 331 439.1 339.8C447.8 348.6 456.7 357.3 465.6 365.9C474.4 374.6 483.3 383.2 492.9 391.1Z" fill="#504B4B"/>
<path opacity="0.6" d="M499.2 388C489.9 379.6 480.6 371.1 471.4 362.6C462.2 354.1 453 345.5 443.9 336.9C434.8 328.3 425.8 319.6 416.8 310.8C412.3 306.4 407.9 301.9 403.5 297.4C401.3 295.1 399.2 292.8 397.1 290.5C396.1 289.3 395 288.1 394 286.8C393.5 286.2 393 285.4 392.6 284.8L391.4 282.8C384.6 272.3 377.5 261.9 370.5 251.5L349.3 220.4L307 158.2C314.4 168.3 321.7 178.6 328.9 188.8L350.5 219.6C357.7 229.9 364.8 240.2 371.9 250.6C379 261 386.1 271.3 393 281.8L394.3 283.8C394.7 284.4 395.1 285 395.6 285.6C396.5 286.8 397.5 288 398.6 289.2C400.7 291.5 402.8 293.8 405 296.1C409.3 300.6 413.7 305.1 418.2 309.5C427.1 318.4 436.1 327.1 445.1 335.8C454.1 344.5 463.1 353.2 472.2 361.9L499.2 388Z" fill="#504B4B"/>
<path opacity="0.6" d="M311.8 153.7C319.1 164.2 326.3 174.7 333.6 185.2L355.2 216.8L398.2 280.2L399.5 282.2L400.2 283.2L400.9 284.1L402.3 285.9C402.8 286.5 403.4 287.1 403.9 287.7C406 290.1 408.2 292.4 410.4 294.7C414.8 299.3 419.3 303.8 423.9 308.3C433 317.3 442.2 326.1 451.4 335C460.6 343.8 469.9 352.6 479.2 361.3C483.9 365.7 488.5 370 493.3 374.3C498.1 378.5 502.7 382.9 507.9 386.7C502.6 383.1 497.9 378.8 493 374.7C488.2 370.5 483.4 366.3 478.6 362C469.1 353.4 459.7 344.8 450.4 336.1C441 327.4 431.9 318.5 422.7 309.6C418.1 305.1 413.6 300.6 409.1 296C406.9 293.7 404.6 291.4 402.5 289C402 288.4 401.4 287.8 400.9 287.2L399.4 285.3L398.6 284.3L397.9 283.3L396.6 281.3L354 217.6L332.8 185.7C325.8 175 318.7 164.4 311.8 153.7Z" fill="#504B4B"/>
<path opacity="0.6" d="M510.6 382.6C501.3 374.4 492.1 366 482.9 357.7C473.7 349.3 464.6 340.9 455.5 332.4C446.4 323.9 437.4 315.3 428.5 306.7L421.9 300.2L415.3 293.6C413.1 291.4 411 289.1 408.8 286.9C406.7 284.6 404.6 282.3 402.7 279.8C398.9 274.9 395.3 269.8 391.8 264.7C388.3 259.6 384.8 254.4 381.4 249.3C374.5 238.9 367.7 228.6 361.1 218.1L341.1 186.7L331.1 171C329.4 168.4 327.7 165.8 326 163.2C324.3 160.6 322.6 158 320.6 155.6C321.7 156.7 322.6 158 323.5 159.2C324.4 160.5 325.3 161.7 326.2 163C328 165.5 329.7 168.1 331.5 170.7L341.9 186.2L362.4 217.3C369.3 227.6 376 238.1 383 248.3C386.5 253.5 389.9 258.6 393.5 263.7C397 268.8 400.6 273.8 404.4 278.7C406.3 281.1 408.4 283.4 410.4 285.7C412.5 287.9 414.6 290.2 416.8 292.4L423.3 299L429.9 305.6C438.8 314.3 447.7 322.9 456.7 331.5C465.7 340.1 474.7 348.6 483.7 357.2L510.6 382.6Z" fill="#504B4B"/>
<path opacity="0.6" d="M324.1 152C331.5 162.1 338.7 172.2 345.9 182.4C353.1 192.6 360.2 202.9 367.2 213.2C374.2 223.5 381.2 233.9 388 244.3C391.4 249.5 394.8 254.8 398.2 260L403.1 268C404.7 270.7 406.4 273.3 407.7 276.1C404.5 270.8 400.9 265.7 397.3 260.5L386.7 245.1L365.5 214.2C351.6 193.7 337.7 173 324.1 152Z" fill="#504B4B"/>
<path opacity="0.6" d="M519.2 381.1C518.3 380.9 517.7 380.4 517 379.9C516.4 379.4 515.8 378.9 515.2 378.4C514.7 377.8 514.2 377.3 513.7 376.6C513.2 376 512.8 375.3 512.5 374.5C513.4 374.6 514.1 375.1 514.8 375.5C515.5 375.9 516.1 376.5 516.6 377C517.7 378.2 518.6 379.5 519.2 381.1Z" fill="#504B4B"/>
<path opacity="0.6" d="M506.5 370.3C503.1 367.5 499.7 364.7 496.5 361.7C493.2 358.8 490 355.7 486.9 352.7C483.8 349.6 480.6 346.5 477.6 343.3C474.6 340.1 471.6 336.9 468.8 333.4C472.1 336.3 475.4 339.2 478.6 342.2C481.8 345.2 485 348.2 488.2 351.3C491.3 354.4 494.5 357.5 497.5 360.6C500.6 363.8 503.6 367 506.5 370.3Z" fill="#504B4B"/>
<path opacity="0.6" d="M462.9 326.9C460.6 325.2 458.4 323.3 456.3 321.4C454.2 319.5 452.1 317.5 450.1 315.5C448.1 313.5 446.1 311.4 444.2 309.3C442.3 307.2 440.4 305 438.8 302.6C441 304.5 443.1 306.3 445.2 308.2C447.3 310.1 449.3 312.1 451.4 314.1C453.4 316.1 455.4 318.1 457.3 320.3C459.3 322.5 461.2 324.6 462.9 326.9Z" fill="#504B4B"/>
<path opacity="0.6" d="M435.8 298.8C432.9 296.5 430.3 293.8 427.7 291.2C425.1 288.5 422.6 285.9 420.1 283.1C418.9 281.7 417.7 280.3 416.5 278.8C415.9 278.1 415.4 277.3 414.9 276.5L413.3 274.2L407.1 265C398.8 252.8 390.6 240.4 382.4 228.2L358 191.2L345.9 172.6C341.9 166.4 337.9 160.2 333.8 154C342.6 165.9 350.9 178.2 359.2 190.3C367.5 202.5 375.7 214.8 383.9 227.1C392 239.5 400.2 251.8 408.2 264.2L414.2 273.5C415.2 275 416.2 276.6 417.3 278.1C418.4 279.6 419.6 281 420.8 282.4C423.2 285.2 425.6 288 428.1 290.8C429.3 292.2 430.6 293.5 431.9 294.9C433.2 296.2 434.4 297.6 435.8 298.8Z" fill="#504B4B"/>
<path opacity="0.6" d="M523 375.7C521.7 375.2 520.6 374.5 519.5 373.8C518.4 373.1 517.3 372.3 516.3 371.5C515.3 370.7 514.3 369.8 513.4 368.9C512.5 368 511.6 367 510.9 365.8C512.2 366.3 513.3 367 514.4 367.7C515.5 368.4 516.6 369.2 517.6 370C518.6 370.8 519.6 371.7 520.5 372.6C521.3 373.6 522.2 374.6 523 375.7Z" fill="#504B4B"/>
<path opacity="0.6" d="M505.6 359.7C504.6 359.5 503.7 359.1 502.8 358.6C501.9 358.2 501.1 357.7 500.3 357.1C499.5 356.5 498.8 355.9 498.1 355.3C497.4 354.6 496.7 353.9 496.2 353C497.2 353.2 498.1 353.6 499 354.1C499.9 354.5 500.7 355 501.5 355.6C502.3 356.2 503 356.8 503.7 357.4C504.4 358.1 505.1 358.8 505.6 359.7Z" fill="#504B4B"/>
<path opacity="0.6" d="M491.1 347C490.1 347 489.5 346.6 489.1 346.1C488.9 345.8 488.7 345.6 488.6 345.2C488.5 344.8 488.4 344.5 488.5 343.9C489 343.9 489.4 344 489.7 344.2C490 344.4 490.3 344.6 490.5 344.8C490.7 345.1 490.9 345.4 491 345.7C491.1 346.1 491.2 346.5 491.1 347Z" fill="#504B4B"/>
<path opacity="0.6" d="M485 341.5C479.7 336.5 474.4 331.4 469.3 326.2C464.1 321 459 315.8 454 310.5C449 305.2 443.9 299.9 439 294.5C434.1 289.1 429.2 283.7 424.6 277.9C427.2 280.5 429.8 283.1 432.4 285.7L440.1 293.5C445.2 298.7 450.3 304 455.4 309.2C465.4 319.7 475.4 330.4 485 341.5Z" fill="#504B4B"/>
<path opacity="0.6" d="M420 272.2C419.2 271.7 418.6 271 418 270.4C417.4 269.7 416.9 269 416.5 268.3C416.1 267.6 415.7 266.8 415.3 266C415 265.2 414.7 264.3 414.6 263.4C415.4 263.9 416 264.6 416.6 265.2C417.2 265.9 417.7 266.6 418.1 267.3C418.5 268 418.9 268.8 419.3 269.6C419.6 270.4 419.9 271.2 420 272.2Z" fill="#504B4B"/>
<path opacity="0.6" d="M411.2 258.9C398.4 241.3 386 223.4 373.7 205.5C367.6 196.5 361.5 187.5 355.4 178.5L346.4 164.9C343.4 160.4 340.5 155.8 337.4 151.3C344.1 159.9 350.4 168.8 356.7 177.6C363 186.5 369.2 195.4 375.3 204.4C381.4 213.4 387.5 222.4 393.5 231.5C399.5 240.6 405.4 249.7 411.2 258.9Z" fill="#504B4B"/>
</g>
<defs>
<clipPath id="clip0">
<rect width="747.3" height="766.4" fill="white"/>
</clipPath>
</defs>
</svg>
