<svg width="272" height="80" viewBox="0 0 272 80" fill="none" xmlns="http://www.w3.org/2000/svg">
<path d="M128.88 0C128.88 0 143.603 3.36336 145.292 8.88889C145.292 8.88889 147.223 7.68769 148.912 9.36937C148.912 9.36937 149.636 9.84985 149.878 10.3303C149.878 10.3303 149.154 10.5706 148.912 10.8108C148.43 11.5315 147.223 12.012 147.223 12.012C147.223 12.012 148.43 13.6937 143.844 16.3363C139.258 18.979 128.639 19.9399 128.156 19.9399C128.156 19.9399 131.777 19.2192 134.673 17.5375C137.569 16.0961 137.086 14.6547 137.81 14.4144C138.293 14.1742 134.19 13.6937 123.571 16.8168C123.571 16.0961 128.398 15.8559 129.846 12.7327C130.57 11.0511 122.847 10.3303 122.364 9.84985C121.881 9.36937 124.777 9.60961 128.156 10.3303C131.535 11.0511 136.604 10.3303 136.604 10.0901C135.155 9.12913 136.604 6.72673 134.673 4.80481C132.742 2.88288 128.156 0.24024 128.88 0Z" fill="white"/>
<path d="M212.869 45.6454C213.111 45.6454 213.352 45.4052 213.593 45.1649C213.835 44.9247 214.076 44.6844 214.076 44.4442C214.317 44.204 214.317 43.7235 214.317 43.4832C214.317 43.0028 214.317 42.7625 214.317 42.282C214.317 42.0418 214.076 41.5613 214.076 41.3211C213.835 41.0808 213.593 40.8406 213.352 40.6004C213.111 40.3601 212.628 40.3601 212.145 40.3601L209.973 40.1199L209.49 45.4052L211.663 45.6454C212.387 45.6454 212.628 45.6454 212.869 45.6454Z" fill="white"/>
<path d="M220.352 51.4114C220.593 51.8918 220.834 52.1321 221.076 52.3723C221.317 52.6126 221.8 52.6126 222.282 52.8528C222.765 52.8528 223.248 52.8528 223.489 52.8528C223.972 52.6126 224.213 52.6126 224.454 52.1321C224.696 51.8919 224.937 51.4114 225.179 50.9309C225.42 50.4504 225.42 49.7297 225.661 49.009L225.903 46.6066C225.903 45.8858 225.903 45.1651 225.903 44.6846C225.903 44.2042 225.661 43.7237 225.42 43.2432C225.179 42.7627 224.937 42.5225 224.696 42.2822C224.454 42.042 223.972 42.042 223.489 41.8018C223.006 41.8018 222.524 41.8018 222.282 41.8018C221.8 42.042 221.558 42.042 221.317 42.5225C221.076 42.7627 220.834 43.2432 220.593 43.7237C220.352 44.2042 220.11 44.9249 220.11 45.6456L219.869 48.048C219.869 48.7687 219.869 49.4894 219.869 49.9699C219.869 50.6906 220.11 51.1711 220.352 51.4114Z" fill="white"/>
<path d="M186.563 48.2881C186.804 48.7686 187.045 49.0088 187.528 49.2491C187.769 49.4893 188.252 49.4893 188.735 49.4893C189.218 49.4893 189.7 49.4893 189.942 49.2491C190.424 49.0088 190.666 48.7686 190.907 48.5283C191.148 48.2881 191.39 47.8076 191.631 47.0869C191.872 46.6064 191.872 45.8857 191.872 45.165L192.114 42.7626C192.114 42.0418 192.114 41.3211 192.114 40.8406C192.114 40.3602 191.872 39.8797 191.631 39.3992C191.39 38.9187 191.148 38.6785 190.666 38.4382C190.424 38.198 189.942 38.198 189.459 38.198C188.976 38.198 188.494 38.198 188.252 38.4382C187.769 38.6785 187.528 38.9187 187.287 39.159C187.045 39.3992 186.804 39.8797 186.563 40.6004C186.321 41.0809 186.321 41.8016 186.321 42.5223L186.08 44.9247C186.08 45.6455 186.08 46.3662 186.08 46.8467C186.08 47.3271 186.321 47.8076 186.563 48.2881Z" fill="white"/>
<path d="M26.5484 43.9639C17.6185 45.4053 8.9299 46.8468 0 48.5284C4.58563 52.8528 9.17125 57.1771 13.7569 61.7416C11.102 67.5074 8.44721 73.0329 5.79237 78.7987C19.0666 76.3963 32.3407 74.2341 45.6149 72.5525C40.5466 70.6305 35.2369 68.4684 29.9272 66.5465C28.7205 59.099 27.5138 51.4113 26.5484 43.9639Z" fill="white"/>
<path d="M237.728 64.6245C239.176 54.5344 240.624 44.2041 242.314 34.114C171.84 23.7836 100.401 23.7836 29.9271 34.114C31.3752 44.2041 32.8232 54.5344 34.5127 64.6245C101.849 54.7746 170.392 54.7746 237.728 64.6245ZM218.179 47.8077L218.42 45.4053C218.662 44.4443 218.662 43.4833 219.144 42.7626C219.386 42.0419 219.868 41.5614 220.351 41.0809C220.834 40.6005 221.317 40.3602 222.041 40.12C222.765 39.8797 223.247 39.8797 223.971 39.8797C224.695 39.8797 225.419 40.12 225.902 40.6004C226.385 40.8407 226.868 41.3212 227.35 42.0419C227.592 42.5224 227.833 43.2431 228.074 43.9638C228.316 44.6845 228.316 45.6455 228.074 46.6065L227.833 49.0089C227.592 49.9698 227.592 50.9308 227.109 51.6515C226.868 52.3722 226.385 52.8527 225.902 53.3332C225.419 53.8137 224.937 54.0539 224.213 54.2941C223.489 54.5344 223.006 54.5344 222.282 54.5344C221.558 54.5344 220.834 54.2941 220.351 53.8137C219.868 53.5734 219.386 53.0929 218.903 52.6125C218.42 52.132 218.179 51.4113 218.179 50.6905C217.938 49.7296 217.938 48.7686 218.179 47.8077ZM208.766 38.4383L212.628 38.9188C214.076 39.159 215.042 39.6395 215.766 40.3602C216.49 41.0809 216.731 42.2821 216.49 43.7236C216.49 44.6845 216.007 45.4053 215.766 45.8857C215.283 46.6065 214.8 46.8467 214.076 47.0869L216.248 53.3332L214.317 53.0929L212.387 47.0869L209.973 46.8467L209.249 52.6125L207.56 52.3722L208.766 38.4383ZM196.216 47.3272L197.182 37.4773L198.871 37.7176L197.906 47.3272C197.906 47.8077 197.906 48.2881 197.906 48.7686C197.906 49.2491 198.147 49.4893 198.388 49.7296C198.63 49.9698 198.871 50.2101 199.112 50.2101C199.354 50.2101 199.837 50.4503 200.078 50.4503C200.561 50.4503 200.802 50.4503 201.043 50.4503C201.285 50.4503 201.767 50.2101 202.009 49.9698C202.25 49.7296 202.491 49.4893 202.491 49.2491C202.733 49.0089 202.733 48.5284 202.733 47.8077L203.698 37.9578L205.388 38.198L204.905 48.0479C204.905 48.7686 204.664 49.4893 204.422 49.9698C204.181 50.4503 203.698 50.9308 203.215 51.171C202.733 51.4113 202.25 51.6515 201.767 51.8917C201.285 51.8917 200.561 52.132 200.078 51.8917C199.354 51.8917 198.871 51.6515 198.388 51.4113C197.906 51.171 197.423 50.9308 197.182 50.4503C196.94 49.9698 196.458 49.4893 196.458 49.0089C196.216 48.7686 195.975 48.0479 196.216 47.3272ZM184.149 44.6845L184.39 42.2821C184.39 41.3212 184.632 40.3602 184.873 39.6395C185.114 38.9188 185.597 38.198 186.08 37.7176C186.562 37.2371 187.045 36.9968 187.769 36.7566C188.493 36.5164 188.976 36.5164 189.7 36.5164C190.424 36.5164 191.148 36.7566 191.631 36.9968C192.113 37.2371 192.596 37.7176 193.079 38.198C193.561 38.6785 193.803 39.3993 193.803 40.12C194.044 40.8407 194.044 41.8017 194.044 42.7626L193.803 45.165C193.803 46.126 193.561 47.0869 193.32 47.8077C193.079 48.5284 192.596 49.2491 192.355 49.7296C191.872 50.2101 191.389 50.4503 190.665 50.6905C189.941 50.9308 189.459 50.9308 188.734 50.9308C188.01 50.9308 187.286 50.6905 186.804 50.4503C186.321 50.2101 185.838 49.7296 185.356 49.2491C184.873 48.7686 184.632 48.0479 184.632 47.3272C184.149 46.6065 184.149 45.6455 184.149 44.6845ZM173.53 35.7956L176.908 36.0359C177.632 36.0359 178.357 36.2761 179.081 36.5164C179.805 36.7566 180.287 37.2371 180.77 37.7176C181.253 38.198 181.494 38.9188 181.735 39.6395C181.977 40.3602 181.977 41.3212 181.977 42.2821L181.735 44.6845C181.735 45.6455 181.494 46.6065 181.253 47.3272C181.011 48.0479 180.529 48.5284 180.046 49.0089C179.563 49.4893 179.081 49.7296 178.357 49.9698C177.632 50.2101 176.908 50.2101 175.943 50.2101L172.805 49.9698L173.53 35.7956ZM158.807 35.0749L166.289 35.3152V36.7566L160.497 36.5164L160.255 41.0809L165.324 41.3212V42.7626L160.255 42.5224L160.014 47.5674L165.806 47.8077V49.2491L158.083 49.0089L158.807 35.0749ZM146.257 34.8347H147.947L147.705 40.8407L153.498 41.0809L153.739 35.0749H155.428L155.187 49.2491H153.498L153.739 42.7626H147.947L147.705 49.2491H146.016L146.257 34.8347ZM134.672 34.8347H143.844V36.2761H139.982V49.0089H138.293V36.2761H134.672V34.8347ZM120.433 34.8347L126.225 45.6455L125.984 34.5944H127.673L127.915 48.7686H126.225L120.674 38.198L120.916 49.0089H119.226L118.985 34.8347H120.433ZM115.365 35.0749L115.847 49.2491H114.158L113.675 35.0749H115.365ZM100.884 35.5554C101.608 35.5554 102.332 35.5554 103.056 35.7956C103.78 36.0359 104.262 36.2761 104.745 36.7566C105.228 37.2371 105.711 37.7176 105.952 38.4383C106.193 39.159 106.435 40.12 106.435 41.0809V43.4833C106.435 44.4443 106.435 45.4053 106.193 46.126C105.952 46.8467 105.711 47.5674 105.228 48.0479C104.745 48.5284 104.262 49.0089 103.538 49.2491C102.814 49.4893 102.09 49.7296 101.366 49.7296L98.2287 49.9698L97.5047 35.7956L100.884 35.5554ZM94.8499 35.7956V37.2371L89.0575 37.7176L89.2988 42.2821L94.3672 42.0419V43.4833L89.2988 43.7236L89.5402 48.7686L95.3326 48.2881V49.7296L88.0921 50.4503L87.1267 36.2761L94.8499 35.7956ZM84.9546 36.5164V37.9578L81.3343 38.4383L82.2997 50.9308L80.6103 51.171L79.6449 38.4383L76.0247 38.6785V37.2371L84.9546 36.5164ZM66.3707 40.12C66.6121 39.6395 66.8534 39.159 67.0948 38.9188C67.3361 38.4383 67.8188 38.198 68.3015 37.9578C68.7842 37.7176 69.2669 37.4773 69.9909 37.4773C70.715 37.4773 71.1977 37.4773 71.9217 37.7176C72.4044 37.9578 72.8871 38.198 73.3698 38.4383C73.8525 38.9188 74.0939 39.159 74.3352 39.6395C74.5766 40.12 74.8179 40.6005 74.8179 41.3212L73.1285 41.5614C73.1285 41.0809 72.8871 40.8407 72.8871 40.3602C72.6458 40.12 72.6458 39.6395 72.4044 39.6395C72.1631 39.3992 71.9217 39.159 71.6804 39.159C71.439 39.159 70.9563 38.9188 70.4736 39.159C69.9909 39.159 69.7496 39.3992 69.5082 39.3992C69.2669 39.6395 69.0256 39.6395 68.7842 39.8797C68.5429 40.12 68.5429 40.3602 68.5429 40.6004C68.5429 40.8407 68.5429 41.0809 68.5429 41.5614C68.5429 42.0419 68.7842 42.5224 69.2669 43.0029C69.7496 43.4833 70.4736 43.7236 71.439 43.9638C72.1631 44.2041 72.6458 44.4443 73.3698 44.4443C73.8525 44.6845 74.3352 44.9248 74.5766 45.165C74.8179 45.4053 75.3006 45.8857 75.3006 46.3662C75.542 46.8467 75.542 47.3272 75.542 47.8077C75.542 48.2881 75.542 49.0089 75.3006 49.4893C75.0593 49.9698 74.8179 50.4503 74.5766 50.6905C74.3352 51.171 73.8525 51.4113 73.3698 51.6515C72.8871 51.8917 72.4044 52.132 71.6804 52.132C71.1977 52.132 70.4736 52.132 69.9909 52.132C69.5083 51.8917 69.0256 51.8917 68.5429 51.4113C68.0602 51.171 67.8188 50.6905 67.3361 50.2101C67.0948 49.7296 66.8534 49.0089 66.8534 48.2881L68.5429 48.0479C68.5429 48.5284 68.7842 49.0089 68.7842 49.2491C69.0256 49.4893 69.2669 49.7296 69.5082 49.9698C69.7496 50.2101 69.9909 50.2101 70.4736 50.4503C70.715 50.4503 71.1977 50.4503 71.439 50.4503C72.1631 50.4503 72.8871 50.2101 73.1285 49.7296C73.3698 49.2491 73.6112 48.7686 73.6112 48.0479C73.6112 47.8077 73.6112 47.3272 73.3698 47.0869C73.3698 46.8467 73.1285 46.6065 72.8871 46.3662C72.6458 46.126 72.4044 45.8857 71.9217 45.8857C71.439 45.6455 71.1977 45.6455 70.4736 45.4053C69.9909 45.165 69.2669 45.165 68.7842 44.9248C68.3015 44.6845 67.8188 44.4443 67.5775 44.2041C67.0948 43.9638 66.8534 43.4833 66.6121 43.2431C66.3707 42.7626 66.3707 42.2821 66.1294 41.8017C66.1294 41.3212 66.3707 40.8407 66.3707 40.12ZM63.7159 38.4383L63.9572 39.8797L58.1649 40.6004L58.6476 45.165L63.7159 44.6845L63.9572 46.126L58.8889 46.6065L59.3716 51.6515L65.164 50.9308L65.4053 52.3722L57.6822 53.0929L56.2341 38.9188L63.7159 38.4383ZM45.6147 40.3602L52.6138 50.4503L51.1658 39.6395L52.8552 39.3992L54.5446 53.5734L52.8552 53.8137L45.8561 43.7236L47.3042 54.5344L45.6147 54.7746L43.9253 40.6004L45.6147 40.3602Z" fill="white"/>
<path d="M178.84 47.5674C179.564 46.8467 179.805 45.8857 179.805 44.4443L180.046 42.0419C180.046 40.6004 179.805 39.3992 179.322 38.6785C178.84 37.9578 177.874 37.4773 176.668 37.4773H174.978L174.254 48.5283H175.702C177.15 48.5283 178.116 48.2881 178.84 47.5674Z" fill="white"/>
<path d="M101.125 48.2881C102.332 48.2881 103.297 47.8076 103.78 47.0869C104.263 46.3662 104.504 45.165 104.504 43.7235V41.3211C104.504 39.8797 104.021 38.6785 103.539 38.198C102.815 37.4773 102.091 37.2371 100.884 37.2371H99.1945L99.6772 48.2881H101.125Z" fill="white"/>
<path d="M272 48.5284C263.311 46.8468 254.381 45.4053 245.451 43.9639C244.245 51.4113 243.038 59.099 242.072 66.5465C236.763 68.4684 231.694 70.3903 226.385 72.5525C239.659 74.2341 252.933 76.3963 266.207 78.7987C263.552 73.0329 261.139 67.5074 258.243 61.7416C262.828 57.1771 267.414 52.8528 272 48.5284Z" fill="white"/>
<path d="M62.509 68.7085C62.2677 68.4683 61.785 68.228 61.3023 67.9878C60.8196 67.7476 60.3369 67.7476 59.8542 67.9878L56.2339 68.4683L57.4407 79.9998L58.8888 79.7596L58.4061 75.195L60.5782 74.9548C61.0609 74.9548 61.5436 74.7145 62.0263 74.4743C62.509 74.234 62.7504 73.9938 62.9917 73.7536C63.2331 73.5133 63.4744 73.0328 63.4744 72.5524C63.4744 72.0719 63.7157 71.5914 63.4744 71.1109C63.4744 70.6304 63.2331 70.15 62.9917 69.6695C63.2331 69.4292 62.9917 68.9488 62.509 68.7085ZM62.2677 72.3121C62.2677 72.5524 62.0263 72.7926 62.0263 73.0328C61.785 73.2731 61.785 73.5133 61.5436 73.5133C61.3023 73.7536 61.0609 73.7536 60.5782 73.7536L58.4061 73.9938L57.9234 69.4292L60.0955 69.189C60.3369 69.189 60.8196 69.189 61.0609 69.189C61.3023 69.189 61.5436 69.4292 61.785 69.6695C62.0263 69.9097 62.0263 70.15 62.2677 70.3902C62.2677 70.6304 62.509 70.8707 62.509 71.3512C62.2677 71.5914 62.2677 71.8316 62.2677 72.3121Z" fill="white"/>
<path d="M70.9559 73.5133C71.4386 73.2731 71.9213 72.7926 72.1626 72.0719C72.404 71.5914 72.6453 70.8707 72.404 70.15C72.404 68.9488 71.9213 68.2281 71.1972 67.7476C70.4732 67.2671 69.7491 67.0269 68.5424 67.0269L65.4048 67.2671L66.6116 78.7986L68.0597 78.5584L67.577 74.2341L69.5078 73.9938L71.9213 78.5584L73.6107 78.3181L70.9559 73.5133ZM69.9905 72.5524C69.7491 72.7926 69.5078 72.7926 69.0251 72.7926L67.3356 73.0329L66.8529 68.7085L68.5424 68.4683C68.7837 68.4683 69.2664 68.4683 69.5078 68.4683C69.7491 68.4683 69.9905 68.7085 70.2318 68.9488C70.4732 69.189 70.4732 69.4293 70.7145 69.6695C70.7145 69.9097 70.9559 70.15 70.9559 70.6305C70.9559 70.8707 70.9559 71.1109 70.9559 71.5914C70.9559 71.8317 70.7145 72.0719 70.7145 72.3121C70.4732 72.0719 70.2318 72.3121 69.9905 72.5524Z" fill="white"/>
<path d="M82.0585 70.8707C82.0585 70.15 81.8172 69.4293 81.5758 68.7086C81.3345 68.2281 81.0932 67.5074 80.6105 67.2671C80.1278 66.7866 79.8864 66.5464 79.4037 66.5464C78.921 66.3062 78.4383 66.3062 77.7143 66.3062C77.2316 66.3062 76.5075 66.5464 76.0248 66.7866C75.5421 67.0269 75.0594 67.2671 74.8181 67.7476C74.5767 68.2281 74.3354 68.7086 74.094 69.4293C73.8527 70.15 73.8527 70.8707 74.094 71.5914L74.3354 73.5134C74.3354 74.2341 74.5767 74.9548 74.8181 75.6755C75.0594 76.156 75.3008 76.8767 75.7835 77.117C76.2662 77.5974 76.5075 77.8377 76.9902 77.8377C77.4729 78.0779 77.9556 78.0779 78.6797 78.0779C79.1624 78.0779 79.8864 77.8377 80.3691 77.5974C80.8518 77.3572 81.3345 77.117 81.5758 76.6365C81.8172 76.156 82.0585 75.6755 82.2999 74.9548C82.5412 74.2341 82.5412 73.5134 82.2999 72.7926L82.0585 70.8707ZM80.8518 74.4743C80.8518 74.9548 80.6105 75.4353 80.3691 75.6755C80.1278 75.9158 79.8864 76.156 79.6451 76.3962C79.4037 76.6365 78.921 76.6365 78.6797 76.6365C78.197 76.6365 77.9556 76.6365 77.7143 76.3962C77.4729 76.3962 77.2316 76.156 76.9902 75.9158C76.7489 75.6755 76.5075 75.195 76.5075 74.7146C76.2662 74.2341 76.2662 73.7536 76.2662 73.0329L76.0248 71.111C76.0248 70.3902 76.0248 69.9098 76.0248 69.4293C76.0248 68.9488 76.2662 68.4683 76.5075 68.2281C76.7489 67.9878 76.9902 67.7476 77.2316 67.5074C77.4729 67.2671 77.9556 67.2671 78.197 67.2671C78.6797 67.2671 78.921 67.2671 79.1624 67.2671C79.4037 67.2671 79.6451 67.5074 79.8864 67.7476C80.1278 67.9878 80.3691 68.4683 80.3691 68.9488C80.3691 69.4293 80.6105 69.9098 80.6105 70.6305L80.8518 72.5524C80.8518 73.5134 80.8518 73.9938 80.8518 74.4743Z" fill="white"/>
<path d="M91.471 70.15C91.471 69.4293 91.2296 68.7086 90.9883 67.9879C90.7469 67.5074 90.5056 67.0269 90.0229 66.5464C89.5402 66.0659 89.0575 65.8257 88.5748 65.8257C88.0921 65.5855 87.3681 65.5854 86.8854 65.5854L84.2305 65.8257L84.9546 77.3572L87.6094 77.117C88.3335 77.117 88.8161 76.8767 89.5402 76.6365C90.0229 76.3963 90.5056 76.156 90.7469 75.6755C90.9883 75.1951 91.471 74.7146 91.471 73.9939C91.7123 73.5134 91.7123 72.7927 91.7123 72.0719L91.471 70.15ZM89.5402 74.9548C89.0575 75.6755 88.3335 75.9158 87.3681 75.9158H86.1613L85.4373 66.7867H86.644C87.6094 66.7867 88.3335 67.0269 88.8161 67.5074C89.2988 67.9879 89.5402 68.9488 89.7815 70.15L90.0229 72.0719C90.2642 73.2731 90.0229 74.2341 89.5402 74.9548Z" fill="white"/>
<path d="M98.953 64.8647L99.4357 73.0329C99.4357 73.5134 99.4357 73.7536 99.4357 74.2341C99.4357 74.4744 99.1943 74.7146 98.953 74.9548C98.7116 75.1951 98.4703 75.1951 98.2289 75.4353C97.9876 75.4353 97.7462 75.6756 97.2635 75.6756C97.0222 75.6756 96.5395 75.6756 96.2981 75.6756C96.0568 75.6756 95.8154 75.4353 95.5741 75.4353C95.3327 75.1951 95.3327 74.9548 95.0914 74.7146C95.0914 74.4744 94.85 73.9939 94.85 73.5134L94.3673 65.3452H92.9193L93.4019 73.5134C93.4019 74.2341 93.6433 74.7146 93.8846 75.1951C94.126 75.6756 94.3673 75.9158 94.6087 76.156C94.85 76.3963 95.3327 76.6365 95.8154 76.6365C96.2981 76.6365 96.7808 76.8768 97.2635 76.6365C97.7462 76.6365 98.2289 76.6365 98.7116 76.3963C99.1943 76.156 99.4357 75.9158 99.9184 75.6756C100.16 75.4353 100.401 74.9548 100.642 74.4744C100.884 73.9939 100.884 73.5134 100.884 72.7927L100.642 64.8647H98.953Z" fill="white"/>
<path d="M108.848 73.5134C108.848 73.7537 108.607 74.2341 108.366 74.2341C108.124 74.4744 107.883 74.7146 107.641 74.7146C107.4 74.7146 106.917 74.9549 106.676 74.9549C106.193 74.9549 105.952 74.9549 105.469 74.7146C105.228 74.4744 104.987 74.2341 104.745 73.9939C104.504 73.7537 104.504 73.2732 104.263 72.7927C104.263 72.3122 104.021 71.8317 104.021 71.3513V69.1891C104.021 68.7086 104.021 68.2281 104.021 67.7476C104.021 67.2672 104.263 67.0269 104.504 66.5464C104.745 66.3062 104.987 66.066 105.228 65.8257C105.469 65.5855 105.952 65.5855 106.435 65.5855C106.676 65.5855 107.159 65.5855 107.4 65.5855C107.642 65.5855 107.883 65.8257 108.124 66.066C108.366 66.3062 108.366 66.5464 108.607 66.7867C108.607 67.0269 108.848 67.5074 108.848 67.9879H110.296C110.296 67.2672 110.055 66.7867 109.814 66.3062C109.572 65.8257 109.331 65.3452 109.09 65.105C108.848 64.8648 108.366 64.6245 107.883 64.3843C107.4 64.144 106.917 64.144 106.435 64.144C105.711 64.144 105.228 64.3843 104.745 64.6245C104.263 64.8648 103.78 65.105 103.539 65.5855C103.297 66.066 103.056 66.5464 102.815 67.2672C102.573 67.9879 102.573 68.4684 102.573 69.1891V71.3513C102.573 72.072 102.815 72.7927 102.815 73.2732C103.056 73.7537 103.297 74.4744 103.539 74.7146C103.78 75.1951 104.263 75.4353 104.745 75.6756C105.228 75.9158 105.711 75.9158 106.435 75.9158C107.159 75.9158 107.642 75.6756 108.124 75.6756C108.607 75.4353 108.848 75.1951 109.331 74.9549C109.572 74.7146 109.814 74.2341 110.055 73.7537C110.296 73.2732 110.296 72.7927 110.296 72.072H108.848C109.09 72.7927 109.09 73.2732 108.848 73.5134Z" fill="white"/>
<path d="M118.743 64.144L111.261 64.3843V65.5855H114.399L114.64 75.9158H116.088L115.847 65.5855L118.984 65.3452L118.743 64.144Z" fill="white"/>
<path d="M131.535 66.5465C131.294 65.8257 131.052 65.3452 130.811 65.105C130.57 64.6245 130.087 64.3843 129.604 64.144C129.121 63.9038 128.639 63.9038 127.915 63.9038C127.432 63.9038 126.708 63.9038 126.225 64.144C125.743 64.3843 125.26 64.6245 125.018 65.105C124.777 65.5855 124.536 66.066 124.294 66.7867C124.053 67.5074 124.053 68.2281 124.053 68.9489V70.8708C124.053 71.5915 124.053 72.3122 124.294 73.0329C124.536 73.7537 124.777 74.2341 125.018 74.4744C125.26 74.9549 125.743 75.1951 126.225 75.4353C126.708 75.6756 127.191 75.6756 127.915 75.6756C128.397 75.6756 129.121 75.6756 129.604 75.4353C130.087 75.1951 130.57 74.9549 130.811 74.4744C131.052 73.9939 131.294 73.5134 131.535 73.0329C131.776 72.3122 131.776 71.5915 131.776 70.8708V68.9489C131.776 67.9879 131.776 67.2672 131.535 66.5465ZM130.328 72.3122C130.328 72.7927 130.087 73.0329 129.845 73.5134C129.604 73.7537 129.363 73.9939 129.121 74.2341C128.639 74.4744 128.397 74.4744 127.915 74.4744C127.432 74.4744 127.191 74.4744 126.949 74.2341C126.708 73.9939 126.467 73.9939 126.225 73.5134C125.984 73.2732 125.743 72.7927 125.743 72.3122C125.743 71.8317 125.501 71.3513 125.501 70.6305V68.7086C125.501 67.9879 125.501 67.5074 125.743 67.0269C125.743 66.5464 125.984 66.3062 126.225 65.8257C126.467 65.5855 126.708 65.3452 126.949 65.105C127.191 64.8648 127.673 64.8648 127.915 64.8648C128.397 64.8648 128.639 64.8648 128.88 65.105C129.121 65.3452 129.363 65.3452 129.604 65.8257C129.845 66.066 130.087 66.5464 130.087 67.0269C130.087 67.5074 130.328 67.9879 130.328 68.7086V70.6305C130.328 71.3513 130.328 72.072 130.328 72.3122Z" fill="white"/>
<path d="M134.189 75.4353H135.637V70.3903H139.499V69.1891H135.637V65.105H140.223V63.9038H134.189V75.4353Z" fill="white"/>
<path d="M152.291 65.105C152.05 64.8648 151.567 64.6245 151.326 64.3843C150.843 64.144 150.36 64.144 149.878 64.144H146.257L146.016 75.6756H147.464V71.111H149.636C150.119 71.111 150.602 71.111 151.084 70.8708C151.567 70.6305 151.808 70.3903 152.291 70.15C152.532 69.9098 152.774 69.4293 153.015 68.9488C153.256 68.4684 153.256 67.9879 153.256 67.5074C153.256 67.0269 153.256 66.5464 153.015 66.066C152.774 65.8257 152.532 65.3452 152.291 65.105ZM151.567 68.4684C151.567 68.7086 151.326 68.9488 151.084 69.1891C150.843 69.4293 150.602 69.4293 150.36 69.6696C150.119 69.6696 149.878 69.9098 149.395 69.9098H147.223V65.3452H149.395C149.636 65.3452 150.119 65.3452 150.36 65.5855C150.602 65.8257 150.843 65.8257 151.084 66.066C151.326 66.3062 151.326 66.5464 151.326 66.7867C151.326 67.0269 151.326 67.2672 151.326 67.7476C151.567 67.9879 151.567 68.2281 151.567 68.4684Z" fill="white"/>
<path d="M161.703 65.5855C161.462 65.105 160.979 64.8648 160.496 64.6245C160.014 64.3843 159.531 64.3843 158.807 64.144C158.324 64.144 157.6 64.144 157.118 64.3843C156.635 64.6245 156.152 64.8648 155.911 65.3452C155.669 65.8257 155.187 66.3062 155.187 66.7867C154.945 67.5074 154.945 68.2281 154.945 68.9488V70.8708C154.945 71.5915 154.945 72.3122 155.187 73.0329C155.428 73.7536 155.669 74.2341 155.911 74.7146C156.152 75.1951 156.635 75.4353 157.118 75.6756C157.6 75.9158 158.083 75.9158 158.807 76.1561C159.29 76.1561 160.014 76.1561 160.496 75.9158C160.979 75.6756 161.462 75.4353 161.703 74.9549C161.944 74.4744 162.427 73.9939 162.427 73.5134C162.669 72.7927 162.669 72.072 162.669 71.3512V69.4293C162.669 68.7086 162.669 67.9879 162.427 67.2672C162.186 66.5464 161.944 65.8257 161.703 65.5855ZM160.979 71.111C160.979 71.8317 160.979 72.3122 160.738 72.7927C160.738 73.2732 160.496 73.5134 160.255 73.9939C160.014 74.2341 159.772 74.4744 159.531 74.7146C159.29 74.9548 158.807 74.9549 158.566 74.9549C158.083 74.9549 157.842 74.9548 157.6 74.7146C157.359 74.4744 157.118 74.2341 156.876 73.9939C156.635 73.7536 156.635 73.2732 156.393 72.7927C156.393 72.3122 156.152 71.8317 156.152 71.111V69.1891C156.152 68.4684 156.152 67.9879 156.393 67.5074C156.635 67.0269 156.635 66.7867 156.876 66.3062C157.118 66.066 157.359 65.8257 157.6 65.5855C157.842 65.3452 158.324 65.3452 158.566 65.3452C159.048 65.3452 159.29 65.3452 159.531 65.5855C159.772 65.8257 160.014 66.066 160.255 66.3062C160.496 66.5464 160.496 67.0269 160.738 67.5074C160.738 67.9879 160.979 68.4684 160.738 69.1891L160.979 71.111Z" fill="white"/>
<path d="M171.116 70.15C171.357 69.6696 171.598 68.9488 171.598 68.2281C171.598 67.0269 171.357 66.3062 170.874 65.5855C170.392 64.8648 169.426 64.6245 168.219 64.6245L164.841 64.3843L164.358 75.9158H165.806L166.047 71.111H167.978L169.909 75.9158H171.598L169.668 70.8708C170.392 71.111 170.874 70.6305 171.116 70.15ZM168.943 70.15C168.702 70.15 168.461 70.3903 167.978 70.3903H166.289L166.53 66.066H168.219C168.461 66.066 168.943 66.066 169.185 66.3062C169.426 66.5464 169.668 66.5464 169.668 66.7867C169.909 67.0269 169.909 67.2672 169.909 67.5074C169.909 67.7476 169.909 67.9879 169.909 68.4684C169.909 68.7086 169.909 68.9488 169.668 69.4293C169.668 69.6696 169.426 69.9098 169.185 70.15C169.426 69.9098 169.185 70.15 168.943 70.15Z" fill="white"/>
<path d="M172.323 66.0659L175.46 66.3062L174.978 76.6365H176.426L176.908 66.3062L180.046 66.5464V65.3452L172.564 64.8647L172.323 66.0659Z" fill="white"/>
<path d="M186.804 73.9939C186.804 74.4743 186.804 74.7146 186.562 75.1951C186.321 75.4353 186.321 75.6755 186.08 75.9158C185.838 76.156 185.597 76.156 185.356 76.156C185.114 76.156 184.873 76.156 184.39 76.156C184.149 76.156 183.666 76.156 183.425 75.9158C183.184 75.9158 182.942 75.6755 182.701 75.4353C182.459 75.1951 182.459 74.9548 182.218 74.7146C182.218 74.4743 182.218 73.9939 182.218 73.5134L182.701 65.3452H181.253L180.77 73.5134C180.77 74.2341 180.77 74.7146 181.011 75.1951C181.253 75.6755 181.494 76.156 181.735 76.3963C181.977 76.6365 182.459 76.8767 182.942 77.117C183.425 77.3572 183.908 77.3572 184.39 77.3572C184.873 77.3572 185.356 77.3572 185.838 77.3572C186.321 77.3572 186.562 77.117 187.045 76.8767C187.286 76.6365 187.769 76.156 188.01 75.9158C188.252 75.4353 188.493 74.9548 188.493 74.2341L188.976 66.0659H187.528L186.804 73.9939Z" fill="white"/>
<path d="M192.355 69.1891C192.596 68.7086 192.596 68.4684 192.837 67.9879C193.079 67.7476 193.32 67.5074 193.561 67.2672C193.803 67.0269 194.285 67.0269 194.768 67.0269C195.492 67.0269 195.975 67.2672 196.216 67.7476C196.458 68.2281 196.699 68.7086 196.699 69.4293H198.147C198.147 68.9488 198.147 68.4684 197.906 67.9879C197.664 67.5074 197.664 67.0269 197.182 66.7867C196.94 66.5464 196.458 66.3062 196.216 66.0659C195.734 65.8257 195.251 65.8257 194.768 65.5855C192.113 65.3452 190.665 66.7867 190.424 70.15L190.182 72.3122C190.182 73.0329 190.182 73.7536 190.182 74.4744C190.424 75.1951 190.665 75.6756 190.907 76.156C191.148 76.6365 191.631 76.8768 192.113 77.117C192.596 77.3572 193.079 77.5975 193.803 77.5975C194.285 77.5975 194.768 77.5975 195.251 77.5975C195.734 77.5975 195.975 77.3572 196.216 77.3572C196.458 77.117 196.699 77.117 196.94 76.8768C197.182 76.6365 197.182 76.6365 197.423 76.3963L197.664 72.072H194.527V73.2732L196.699 73.5134L196.458 76.156C196.458 76.156 196.216 76.156 196.216 76.3963C196.216 76.3963 195.975 76.6365 195.734 76.6365C195.492 76.6365 195.492 76.8768 195.251 76.8768C195.009 76.8768 194.768 76.8768 194.285 76.8768C193.803 76.8768 193.561 76.6365 193.32 76.6365C193.079 76.3963 192.837 76.156 192.596 75.9158C192.355 75.6756 192.355 75.1951 192.113 74.7146C192.113 74.2341 192.113 73.7536 192.113 73.0329L192.355 70.8708C192.113 70.15 192.113 69.6696 192.355 69.1891Z" fill="white"/>
<path d="M203.94 67.0269L199.113 78.3181L200.561 78.5584L201.767 75.6755L205.629 76.156L206.353 79.2791L207.801 79.5193L205.146 67.2671L203.94 67.0269ZM202.25 74.2341L204.422 69.189L205.388 74.4743L202.25 74.2341Z" fill="white"/>
<path d="M211.904 67.9878L210.456 67.7476L209.249 79.2791L215.283 79.9998L215.524 78.7986L210.938 78.3181L211.904 67.9878Z" fill="white"/>
</svg>
