<svg width="193" height="43" viewBox="0 0 193 43" fill="none" xmlns="http://www.w3.org/2000/svg">
<path d="M92.7768 5.8995C92.4665 6.21 91.2252 8.07301 93.0871 9.31502C94.018 10.2465 94.3283 10.2465 95.2592 10.2465C95.5695 10.2465 95.8798 9.31502 95.8798 9.31502C96.1901 9.62552 96.8107 11.178 97.7416 10.8675C97.7416 10.8675 97.7416 10.8675 98.0519 10.8675C101.155 9.93603 100.224 8.69402 99.9138 7.45201C100.224 7.14151 102.707 6.5205 102.396 5.27849C102.086 4.03648 101.776 2.79447 100.534 2.48397C100.224 2.48397 99.2932 3.10498 99.2932 3.10498C99.2932 2.48397 99.2932 0.620958 97.4313 0.310455C96.8107 0.310455 96.1901 0.310455 95.8798 0.310455C94.9489 0.620958 94.9489 1.55246 94.6386 2.17347C94.3283 2.17347 94.018 1.55246 93.3974 1.55246C92.7768 1.86297 91.5356 2.17347 91.2252 3.10498C90.6046 3.72598 91.5356 4.96799 92.7768 5.8995Z" fill="#A22442"/>
<path d="M103.947 32.6027C105.189 29.8082 104.878 26.3927 102.706 23.5981C102.706 23.5981 102.706 23.5981 102.706 23.2876C100.224 19.5616 101.465 15.8356 101.465 15.8356V15.5251H101.155C99.9134 16.1461 99.6031 15.8356 98.9825 15.5251C98.6722 15.2146 98.0516 14.9041 97.431 15.2146C97.431 15.2146 97.1207 15.5251 96.8104 15.5251C96.1897 15.8356 95.8794 16.1461 94.6382 15.2146C94.3279 14.9041 94.0176 14.9041 93.7073 14.9041C93.397 14.9041 93.0867 15.2146 93.0867 15.5251C92.7764 16.1461 92.1558 16.7671 90.6043 16.1461H90.294V16.4566C91.8455 18.0091 90.6043 20.8036 89.3631 23.2876C89.0527 24.2192 88.7424 25.1507 88.4321 25.7717C87.8115 28.2557 88.1218 31.0502 89.3631 32.9132C90.294 34.4657 91.8455 35.3972 93.7073 36.0182C94.3279 36.3287 94.9485 36.9497 95.2588 36.9497C95.2588 37.8813 95.5691 39.4338 95.2588 39.7443C95.2588 40.0548 95.2588 40.3653 95.2588 40.3653L95.5691 40.6758C95.8794 40.9863 96.5 40.6758 96.8104 40.3653C97.431 39.7443 97.1207 38.5023 96.8104 37.2602V36.9497C97.1207 36.6392 98.0516 36.3287 98.3619 36.3287C101.155 36.0182 103.016 34.4657 103.947 32.6027Z" fill="#A22442"/>
<path d="M56.1607 30.1186L56.471 30.4291C56.471 30.7396 56.7813 30.7396 57.0916 30.7396C57.0916 30.7396 57.0916 30.4291 57.0916 30.4291V30.1186C60.8153 26.7031 59.2638 19.8721 58.9535 18.9405C59.5741 17.6985 59.2638 16.767 58.6432 16.146C57.7122 14.5935 54.9195 14.5935 53.6783 14.5935C53.6783 14.283 53.6783 13.662 53.368 13.3515C53.0577 13.041 52.7474 13.041 52.1268 13.041C51.8165 13.041 51.5062 13.3515 51.1959 13.662C50.8855 14.283 51.1959 14.5935 51.5062 14.904C50.5752 15.2145 48.0928 16.767 47.7825 18.3195C47.4722 19.251 48.0928 20.1826 49.0237 21.1141C49.6443 22.0456 51.1959 28.5661 56.1607 30.1186Z" fill="#A22442"/>
<path d="M61.4359 41.9178C61.7462 41.9178 62.0566 41.6073 62.0566 41.2968V40.9863C61.4359 40.0548 57.7123 34.1553 50.265 34.1553C48.4032 34.1553 46.8516 34.4658 44.9898 35.0868C40.3352 36.6393 37.5425 37.2603 35.3704 37.2603C34.1292 37.2603 33.1982 36.9498 31.957 36.6393C30.0952 35.7078 29.7849 33.5342 29.7849 32.9132C29.7849 31.9817 30.0952 31.3607 30.4055 30.7397C31.0261 31.3607 31.957 31.6712 32.5776 31.6712C33.8189 31.6712 35.0601 31.0502 35.6807 29.8082C36.3013 28.5662 36.3013 26.7032 35.3704 25.4612C34.4395 23.9087 32.8879 23.2877 30.7158 23.2877C27.3025 23.2877 23.5788 25.7717 22.6479 30.1187C22.0273 33.2237 22.6479 36.0183 24.5097 38.1918C26.3715 40.6758 29.4746 41.9178 33.1982 41.9178C33.8188 41.9178 34.4395 41.9178 34.7498 41.9178C36.9219 41.6073 39.094 40.9863 41.2662 40.3653C44.3692 39.4338 47.7825 38.1918 51.1959 38.1918C54.9195 38.1918 58.0226 39.4338 60.8153 41.9178C61.1256 41.9178 61.1256 41.9178 61.4359 41.9178Z" fill="#A22442"/>
<path d="M81.9152 4.34695H81.6049C81.2946 4.34695 81.2946 4.34695 81.2946 4.65746C79.7431 7.45198 79.1225 9.936 79.7431 12.42C80.9843 16.4565 84.3976 18.3196 84.7079 18.3196H85.0182C85.3286 18.3196 85.3286 18.3196 85.6389 18.0091C90.2934 9.936 82.2255 4.34695 81.9152 4.34695Z" fill="#A22442"/>
<path d="M5.89106 28.2557C4.96014 28.2557 4.33953 28.2557 3.40862 28.5662C1.54679 29.1872 0.305576 30.7397 0.615881 32.9132C0.926185 35.0867 2.78801 36.9497 5.58075 36.9497C6.20136 36.9497 6.51166 36.9497 7.13227 36.6392C7.44258 36.6392 8.06319 36.6392 8.37349 36.6392C11.4765 36.6392 14.5796 39.1232 17.3723 41.9178H17.6826C17.9929 41.9178 18.3032 41.6073 18.3032 41.2968V40.9863C17.6826 39.7442 13.959 28.2557 5.89106 28.2557Z" fill="#A22442"/>
<path d="M18.924 23.9087C19.5446 22.9772 20.1652 22.0457 19.2343 20.4931L18.924 20.1826C16.1313 20.4932 15.5107 22.3562 15.2004 23.2877C14.8901 25.1507 15.5107 27.3242 17.0622 28.2557C17.3725 28.2557 17.3725 28.5662 17.6828 28.5662H17.9931V28.2557C17.6828 26.0822 18.3034 24.8402 18.924 23.9087Z" fill="#A22442"/>
<path d="M77.8817 39.7442C78.192 40.3652 79.1229 41.9178 79.7435 42.2283H80.0538L80.3641 41.9178C80.3641 41.6073 80.3641 41.2968 79.7435 40.3652C79.7435 40.0547 79.4332 39.7442 79.1229 39.4337C81.9156 38.1917 81.9156 35.7077 82.2259 33.5342C82.2259 32.6027 82.5362 31.6712 82.5362 30.7397C82.5362 30.4292 82.5362 30.4292 82.2259 30.1187C80.3641 28.8767 79.4332 25.1506 80.0538 23.5981V23.2876L79.7435 22.9771C79.1229 22.3561 75.7095 18.9406 75.7095 17.6986C75.7095 17.3881 75.3992 17.3881 75.3992 17.0776C73.8477 16.7671 69.8137 14.5936 67.9519 12.7305C67.9519 12.7305 67.6416 12.7305 67.3313 12.7305C67.021 12.7305 67.021 13.041 67.021 13.041C67.021 15.8356 65.7798 20.1826 64.8489 21.4246C64.8489 21.7351 64.8489 21.7351 64.8489 22.0456C65.7798 22.9771 66.0901 27.9452 65.4695 28.5662V28.8767C65.4695 28.8767 65.4695 29.1872 65.7798 29.1872C67.3313 29.8082 69.5034 33.2237 68.8828 35.3972C68.8828 35.7077 68.8828 35.7077 69.1931 36.0182C70.1241 36.6392 70.7447 37.2602 71.3653 37.8812C72.6065 38.8127 73.8477 40.0547 75.3992 40.0547C76.3301 40.0547 76.9508 40.0547 77.8817 39.7442Z" fill="#A22442"/>
<path d="M33.1978 18.9407C36.6112 18.9407 38.7833 19.5617 40.0245 21.4247C42.1967 24.5297 40.3348 29.8082 40.3348 29.8082V30.1187C40.3348 30.1187 40.3348 30.1187 40.6451 30.1187C40.6451 30.1187 40.6451 30.1187 40.9554 30.1187C43.1276 28.8767 44.0585 25.4612 43.4379 21.7352C42.8173 17.6986 40.0245 14.9041 36.6112 13.9726C33.1978 13.0411 30.4051 13.9726 29.7845 15.5251C29.4742 16.1461 29.4742 16.7671 29.7845 17.3881C29.7845 18.3197 31.336 18.9407 33.1978 18.9407Z" fill="#A22442"/>
<path d="M136.219 29.8082V30.1187C136.219 30.4292 136.529 30.4292 136.529 30.4292C136.84 30.4292 136.84 30.4292 137.15 30.1187L137.46 29.8082C142.425 28.2557 143.977 21.7352 143.977 20.4931C144.908 19.5616 145.218 18.6301 145.218 17.6986C144.908 15.8356 142.425 14.5936 141.494 14.2831C141.805 13.9726 142.115 13.3516 141.805 13.0411C141.805 12.7306 141.494 12.4201 140.874 12.4201C140.253 12.4201 139.943 12.4201 139.632 12.7306C139.322 13.0411 139.322 13.6621 139.322 13.9726C138.391 13.9726 135.599 13.9726 134.357 15.5251C133.737 16.1461 133.737 17.3881 134.047 18.3196C134.047 19.5616 132.495 26.3927 136.219 29.8082Z" fill="#A22442"/>
<path d="M169.111 38.5022C170.973 36.3287 171.593 33.5342 170.973 30.4292C170.042 26.0821 166.318 23.5981 162.905 23.5981C161.043 23.5981 159.181 24.5296 158.25 25.7716C157.319 27.3242 157.319 28.8767 157.94 30.1187C158.561 31.3607 159.802 31.9817 161.043 31.9817C161.974 31.9817 162.595 31.6712 163.215 31.0502C163.526 31.3607 163.836 32.2922 163.836 33.2237C163.836 33.8447 163.526 36.0182 161.664 36.9497C160.423 37.5707 159.492 37.5707 158.25 37.5707C156.078 37.5707 153.286 36.9497 148.631 35.3972C146.769 34.7762 144.907 34.4657 143.356 34.4657C135.908 34.4657 132.185 40.3653 131.564 41.2968L131.254 41.6073C131.254 41.9178 131.564 42.2283 131.875 42.2283H132.185C134.978 39.7442 138.391 38.5022 141.804 38.5022C145.218 38.5022 148.631 39.4337 151.734 40.6758C154.216 41.2968 156.389 42.2283 158.25 42.2283C158.871 42.2283 159.492 42.2283 159.802 42.2283C164.146 41.9178 167.249 40.6758 169.111 38.5022Z" fill="#A22442"/>
<path d="M108.291 18.3196C108.601 18.3196 108.601 18.3196 108.291 18.3196C108.601 18.3196 112.325 16.146 113.566 12.42C114.187 9.936 113.877 7.45198 112.015 4.65746L111.705 4.34695H111.394C111.394 4.34695 103.016 9.936 107.981 18.0091C107.981 18.3196 108.291 18.3196 108.291 18.3196Z" fill="#A22442"/>
<path d="M175.007 41.6073C175.007 41.9178 175.317 42.2283 175.628 42.2283H175.938C178.731 39.4338 181.834 36.9498 184.937 36.9498C185.247 36.9498 185.868 36.9498 186.178 36.9498C186.799 36.9498 187.109 37.2603 187.73 37.2603C190.522 37.2603 192.384 35.0867 192.694 33.2237C193.005 31.3607 191.764 29.4977 189.902 28.8767C188.971 28.5662 188.35 28.5662 187.419 28.5662C179.351 28.2557 175.628 39.7443 175.007 41.6073Z" fill="#A22442"/>
<path d="M175.007 28.5662V28.8767H175.318C175.628 28.8767 175.938 28.5662 175.938 28.5662C177.49 27.3242 178.421 25.4611 177.8 23.5981C177.49 22.6666 176.869 20.8036 174.077 20.4931C174.077 20.4931 173.766 20.4931 173.766 20.8036C173.146 22.0456 173.766 23.2876 174.077 24.2191C175.007 24.8401 175.628 26.0821 175.007 28.5662Z" fill="#A22442"/>
<path d="M124.117 35.7077C123.807 33.5342 125.669 30.1187 127.221 29.4977L127.531 29.1872V28.8767C127.221 27.9452 127.221 23.2876 128.151 22.3561C128.462 22.0456 128.462 21.7351 128.462 21.4246C127.531 20.1826 126.29 15.8356 126.29 13.041C126.29 12.7305 126.29 12.7305 125.979 12.7305C125.669 12.7305 125.669 12.7305 125.359 12.7305C123.497 14.5936 119.463 17.0776 117.911 17.0776C117.601 17.0776 117.601 17.3881 117.601 17.6986C117.601 19.2511 114.188 22.6666 113.257 22.9771C113.257 22.9771 112.947 22.9771 112.947 23.2876V23.5981C113.567 25.1506 112.636 28.8767 110.774 30.1187C110.464 30.1187 110.464 30.4292 110.464 30.7397C110.774 31.6712 110.774 32.6027 110.774 33.5342C111.085 35.7077 111.085 38.1917 113.877 39.4337C113.877 39.7442 113.567 40.0547 113.257 40.3652C112.947 40.9863 112.636 41.2968 112.636 41.9178L112.947 42.2283H113.257C113.877 42.2283 114.808 40.6758 115.119 39.7442C116.05 40.0547 116.67 40.0547 117.291 40.0547C118.842 39.7442 120.084 38.8127 121.325 37.8812C121.945 37.2602 122.876 36.6392 123.497 36.0182C124.118 36.0182 124.117 35.7077 124.117 35.7077Z" fill="#A22442"/>
<path d="M152.665 30.1187C152.975 30.1187 152.975 30.1187 152.975 30.1187V29.8082C152.975 29.8082 151.113 24.5297 153.285 21.4247C154.526 19.5617 156.699 18.9407 160.112 18.9407C161.974 18.9407 163.525 18.3197 163.836 17.3881C164.146 16.7671 164.146 16.1461 163.836 15.5251C162.905 13.9726 160.112 13.0411 157.009 13.9726C153.596 14.9041 150.803 17.6986 150.182 21.7352C149.562 25.1507 150.492 28.5662 152.665 30.1187Z" fill="#A22442"/>
</svg>
