<svg width="205" height="53" viewBox="0 0 205 53" fill="none" xmlns="http://www.w3.org/2000/svg">
<g clip-path="url(#clip0)">
<path d="M22.3 0C10 0 0 10 0 22.3C0 33.5 8.3 42.8 19.2 44.3C19.1 44.3 19.1 44.4 19 44.4C16.7 45.2 14.9 46.7 13.6 48.2L13.5 48.3C13.4 48.4 13.3 48.5 13.3 48.6C13.2 48.7 13.1 48.8 13 48.9C12.9 49 12.9 49.1 12.8 49.2L12.7 49.3C12.4 49.7 12.2 50.1 12.1 50.4C12.1 50.5 12 50.5 12 50.6V50.7C11.9 50.9 11.9 51 11.8 51.2C11.6 51.8 11.6 52 11.7 52.3C11.8 52.5 12 52.6 12.2 52.6C12.4 52.6 12.6 52.5 12.7 52.3C13.1 52 14 51.1 16.5 51.1C18.2 51.1 20.2 51.5 22.6 52.3C23.5 52.6 24.3 52.7 25.1 52.7C28 52.7 30 51 31.1 49.5C32.4 47.9 33.1 46.2 33.1 45.6C33.1 45.2 32.8 44.9 32.5 44.9C32.2 44.9 32.1 45 31.7 45.3C30.9 46 29 47.6 26.1 47.6C24.8 47.6 23.4 47.3 22 46.6C20.8 46 19.7 45.7 18.6 45.7C20 45.1 21.8 44.6 24.4 44.3C24.9 44.3 25.4 44.2 25.9 44.1C26.1 44.1 26.2 44 26.4 44C26.7 44 26.9 43.9 27.2 43.8C37.1 41.6 44.5 32.7 44.5 22.1C44.5 10 34.6 0 22.3 0ZM32.8 14.2C32.8 14.6 32.5 14.9 32.1 14.9C31.7 14.9 31.4 14.6 31.4 14.2V13.7H26.6V22.5C26.6 23.4 26.6 24.4 27.6 24.5C26.7 24.5 26.6 25.6 26.6 26.5V34.5H27C27.4 34.5 27.7 34.8 27.7 35.2C27.7 35.6 27.4 35.9 27 35.9H17.5C17.1 35.9 16.8 35.6 16.8 35.2C16.8 34.8 17.1 34.5 17.5 34.5H18V26.5C18 25.6 18 24.6 17 24.5C17.9 24.5 18 23.4 18 22.5V13.7H13.2V14.2C13.2 14.6 12.9 14.9 12.5 14.9C12.1 14.9 11.8 14.6 11.8 14.2V10.6C11.8 10.2 12.1 9.9 12.5 9.9H32.1C32.5 9.9 32.8 10.2 32.8 10.6V14.2Z" fill="#5A5862"/>
<path d="M54.4001 15.2H73.7001C73.8001 15.2 74.0001 15.1 74.0001 14.9V14.6C74.0001 14.5 73.9001 14.3 73.7001 14.3H54.4001C54.3001 14.3 54.1001 14.4 54.1001 14.6V14.9C54.2001 15.1 54.3001 15.2 54.4001 15.2Z" fill="#5A5862"/>
<path d="M204.4 14.9V14.6C204.4 14.5 204.3 14.3 204.1 14.3H184.8C184.7 14.3 184.5 14.4 184.5 14.6V14.9C184.5 15 184.6 15.2 184.8 15.2H204.1C204.2 15.2 204.4 15.1 204.4 14.9Z" fill="#5A5862"/>
<path d="M89.5002 17.3C89.6002 17.4 89.6002 17.5 89.5002 17.6L89.0002 18.1C88.9002 18.2 88.8002 18.2 88.7002 18.1L87.6002 17C86.8002 17.6 85.8002 18 84.7002 18C81.9002 18 79.7002 15.8 79.7002 13C79.7002 10.2 81.9002 8 84.7002 8C87.5002 8 89.7002 10.3 89.7002 13C89.7002 14.2 89.3002 15.4 88.5002 16.2L89.5002 17.3ZM88.4002 13C88.4002 10.8 86.7002 9 84.6002 9C82.5002 9 80.8002 10.8 80.8002 13C80.8002 15.2 82.5002 17 84.6002 17C86.6002 17 88.4002 15.2 88.4002 13Z" fill="#5A5862"/>
<path d="M102 8.29998V13.8C102 16.3 101.1 18 98.4003 18C95.7003 18 94.8003 16.3 94.8003 13.8V8.29998C94.8003 8.19998 94.9003 8.09998 95.0003 8.09998H95.8003C95.9003 8.09998 96.0003 8.19998 96.0003 8.29998V13.6C96.0003 16 96.7003 17 98.4003 17C100.1 17 100.8 16 100.8 13.6V8.29998C100.8 8.19998 100.9 8.09998 101 8.09998H101.8C101.9 8.09998 102 8.19998 102 8.29998Z" fill="#5A5862"/>
<path d="M107.6 17.7V8.29998C107.6 8.19998 107.7 8.09998 107.8 8.09998H108.6C108.7 8.09998 108.8 8.19998 108.8 8.29998V17.7C108.8 17.8 108.7 17.9 108.6 17.9H107.8C107.7 17.9 107.6 17.8 107.6 17.7Z" fill="#5A5862"/>
<path d="M122 8.29998V17.7C122 17.8 121.9 17.9 121.8 17.9H121.3H121.2C121.1 17.9 120.9 17.8 120.9 17.7L115.9 10.4V17.7C115.9 17.8 115.8 17.9 115.7 17.9H114.9C114.8 17.9 114.7 17.8 114.7 17.7V8.29998C114.7 8.19998 114.8 8.09998 114.9 8.09998H115.4H115.5C115.6 8.09998 115.8 8.19998 115.8 8.29998L120.8 15.7V8.29998C120.8 8.19998 120.9 8.09998 121 8.09998H121.8C121.9 8.09998 122 8.19998 122 8.29998Z" fill="#5A5862"/>
<path d="M134.4 8.29998V8.89997C134.4 8.99997 134.3 9.09998 134.2 9.09998H131.4V17.7C131.4 17.8 131.3 17.9 131.2 17.9H130.4C130.3 17.9 130.2 17.8 130.2 17.7V9.09998H127.4C127.3 9.09998 127.2 8.99997 127.2 8.89997V8.29998C127.2 8.19998 127.3 8.09998 127.4 8.09998H130.6H131.2H134.2C134.3 8.09998 134.4 8.19998 134.4 8.29998Z" fill="#5A5862"/>
<path d="M146.4 17.9H145.6C145.5 17.9 145.4 17.8 145.4 17.8L144.6 15.9H139.9L139.1 17.8C139.1 17.9 139 17.9 138.9 17.9H138.1C138 17.9 137.8 17.8 137.9 17.6L141.8 8.1C141.9 8 142 8 142 8H142.3H142.4C142.5 8 142.5 8 142.6 8.1L146.6 17.6C146.6 17.7 146.5 17.9 146.4 17.9ZM144.2 14.8L142.3 10.1L140.4 14.8H144.2Z" fill="#5A5862"/>
<path d="M161.4 17.9H158.6H158.2C158.1 17.9 158 17.8 158 17.7V8.29998C158 8.19998 158.1 8.09998 158.2 8.09998H159H161.4C163.8 8.19998 165.6 9.99998 165.6 13C165.7 16 163.8 17.8 161.4 17.9ZM164.5 13C164.5 10.5 163 9.09998 161.4 9.09998H159.3V16.8H161.4C163 16.8 164.5 15.5 164.5 13Z" fill="#5A5862"/>
<path d="M178.4 17.9H177.6C177.5 17.9 177.4 17.8 177.4 17.8L176.6 15.9H171.9L171.1 17.8C171.1 17.9 171 17.9 170.9 17.9H170.1C170 17.9 169.8 17.8 169.9 17.6L173.8 8.1C173.9 8 174 8 174 8H174.3H174.4C174.5 8 174.5 8 174.6 8.1L178.6 17.6C178.6 17.7 178.5 17.9 178.4 17.9ZM176.2 14.8L174.3 10.1L172.4 14.8H176.2Z" fill="#5A5862"/>
<path d="M69.1002 23.5H55.0002C54.6002 23.5 54.2002 23.9 54.2002 24.3V25.5C54.2002 25.9 54.6002 26.3 55.0002 26.3H60.4002V43.6C60.4002 44 60.7002 44.4 61.2002 44.4H62.9002C63.3002 44.4 63.7002 44 63.7002 43.6V26.4H69.1002C69.5002 26.4 69.9002 26 69.9002 25.6V24.4C69.9002 23.9 69.5002 23.5 69.1002 23.5Z" fill="#5A5862"/>
<path d="M84.8002 35.9C87.0002 34.9 88.3002 32.6 88.3002 29.9C88.3002 25.8 85.4002 23.5 82.6002 23.5H74.0002C73.5002 23.5 73.2002 23.9 73.2002 24.3V43.7C73.2002 44.1 73.5002 44.5 74.0002 44.5H75.7002C76.1002 44.5 76.5002 44.2 76.5002 43.7V36.4H81.5002L85.3002 43.8C85.5002 44.1 85.8002 44.4 86.2002 44.4H87.9002C88.2002 44.4 88.4002 44.3 88.6002 44C88.7002 43.8 88.8002 43.5 88.6002 43.2L84.8002 35.9ZM85.1002 29.9C85.1002 31.3 84.7002 33.5 81.9002 33.5H76.5002V26.4H81.9002C84.7002 26.4 85.1002 28.4 85.1002 29.9Z" fill="#5A5862"/>
<path d="M102.4 23.3C96.5002 23.3 91.7002 28.1 91.7002 34C91.7002 39.9 96.5002 44.7 102.4 44.7C108.3 44.7 113.1 39.9 113.1 34C113.1 28.1 108.3 23.3 102.4 23.3ZM102.4 41.8C98.3002 41.8 95.0002 38.3 95.0002 34C95.0002 29.7 98.3002 26.1 102.4 26.1C106.4 26.1 109.8 29.7 109.8 34C109.8 38.3 106.4 41.8 102.4 41.8Z" fill="#5A5862"/>
<path d="M133 23.5H131.4C131 23.5 130.6 23.8 130.4 24.2L124.4 39L118.4 24.2C118.3 23.9 117.9 23.5 117.4 23.5H115.8C115.5 23.5 115.3 23.6 115.1 23.8C114.9 24 114.9 24.3 115 24.6L123.1 43.9C123.2 44.2 123.4 44.5 123.9 44.5H124.9C125.1 44.5 125.4 44.4 125.6 44L133.7 24.7C133.8 24.4 133.8 24.2 133.6 23.9C133.5 23.7 133.2 23.5 133 23.5Z" fill="#5A5862"/>
<path d="M139.9 23.5H138.2C137.8 23.5 137.4 23.9 137.4 24.3V43.7C137.4 44.1 137.8 44.5 138.2 44.5H139.9C140.3 44.5 140.7 44.1 140.7 43.7V24.3C140.6 23.9 140.3 23.5 139.9 23.5Z" fill="#5A5862"/>
<path d="M153.3 32.4C149.9 31.5 148.5 30.6 148.5 29.1C148.5 27.4 150.3 26.2 152.7 26.2C155.1 26.2 156.6 27.1 157.7 27.8C158.1 28.1 158.6 28 158.8 27.7L159.7 26.5C160.1 25.9 159.7 25.5 159.6 25.4C157.8 24 155.6 23.3 152.8 23.3C146.9 23.3 145.3 27 145.3 29.2C145.3 33 148.9 34.4 152.4 35.3L152.8 35.4C155.2 36 157.3 36.6 157.3 38.5C157.3 41.2 154 41.7 152.8 41.7C149.8 41.7 148.1 40.1 147.5 39.6C147.4 39.5 147.3 39.5 147.3 39.4C146.9 39.2 146.4 39.2 146.2 39.6L145.3 40.7C145.1 41 145.1 41.5 145.3 41.7C147.2 43.6 149.7 44.6 152.8 44.6C158.2 44.6 160.6 41.4 160.6 38.4C160.6 34.1 156.1 33 153.3 32.4Z" fill="#5A5862"/>
<path d="M181.5 38.7C181.2 38.4 180.6 38.4 180.3 38.8C179.3 40.2 177.2 41.8 174.5 41.8C170.5 41.8 167.1 38.1 167.1 34C167.1 29.8 170.5 26.2 174.5 26.2C177 26.2 179.2 27.7 180.1 29C180.4 29.4 181 29.4 181.3 29.1L182.3 28.1C182.4 28 182.5 27.8 182.6 27.6C182.6 27.4 182.6 27.2 182.4 27C180.6 24.7 177.7 23.3 174.5 23.3C168.6 23.3 163.8 28.1 163.8 34C163.8 39.9 168.6 44.7 174.5 44.7C177.7 44.7 180.6 43.2 182.6 40.7C182.8 40.4 182.9 39.9 182.5 39.6L181.5 38.7Z" fill="#5A5862"/>
<path d="M204.3 43.4L196 23.8C195.9 23.5 195.6 23.3 195.3 23.3H194.5C194.3 23.3 194 23.4 193.8 23.8L185.7 43.4C185.6 43.7 185.6 43.9 185.8 44.2C185.9 44.4 186.2 44.6 186.5 44.6H188.1C188.4 44.6 188.7 44.4 188.8 44.1L190.4 40.3H199.7L201.2 44C201.3 44.3 201.6 44.5 201.9 44.5H203.5C203.8 44.5 204 44.4 204.2 44.1C204.4 43.9 204.4 43.6 204.3 43.4ZM198.4 37.4H191.5L194.9 29.1L198.4 37.4Z" fill="#5A5862"/>
</g>
<defs>
<clipPath id="clip0">
<rect width="204.4" height="52.7" fill="white"/>
</clipPath>
</defs>
</svg>
