<?xml version="1.0" encoding="utf-8"?>
<!-- Generator: Adobe Illustrator 24.3.0, SVG Export Plug-In . SVG Version: 6.00 Build 0)  -->
<svg version="1.1" id="Camada_1" xmlns="http://www.w3.org/2000/svg" xmlns:xlink="http://www.w3.org/1999/xlink" x="0px" y="0px"
	 width="691px" height="52px" viewBox="0 0 691 52" style="enable-background:new 0 0 691 52;" xml:space="preserve">
<style type="text/css">
	.st0{fill:#FFFFFF;}
</style>
<g>
	<g>
		<path d="M604.8,3.4h-66.5v45.2h66.5V3.4z"/>
		<g>
			<polygon class="st0" points="570.2,13.5 571.5,12.5 572.8,13.5 572.3,11.9 573.7,11 572,11 571.5,9.4 571,11 569.3,11 
				570.7,11.9 			"/>
			<polygon class="st0" points="563.4,15.3 564.7,14.4 566,15.3 565.5,13.8 566.8,12.8 565.2,12.8 564.7,11.2 564.2,12.8 
				562.5,12.8 563.9,13.8 			"/>
			<polygon class="st0" points="559.7,16.2 559.2,17.8 557.5,17.8 558.9,18.8 558.4,20.3 559.7,19.4 561,20.3 560.5,18.8 
				561.8,17.8 560.2,17.8 			"/>
			<polygon class="st0" points="557.8,26.2 559.2,27.2 558.7,25.6 560,24.6 558.3,24.6 557.8,23.1 557.3,24.6 555.7,24.6 557,25.6 
				556.5,27.2 			"/>
			<polygon class="st0" points="560.2,31.5 559.7,29.9 559.2,31.5 557.5,31.5 558.9,32.4 558.4,34 559.7,33 561,34 560.5,32.4 
				561.8,31.5 			"/>
			<polygon class="st0" points="565.2,36.5 564.7,34.9 564.2,36.5 562.5,36.5 563.9,37.4 563.4,39 564.7,38 566,39 565.5,37.4 
				566.8,36.5 			"/>
			<polygon class="st0" points="572,38.3 571.5,36.7 571,38.3 569.3,38.3 570.7,39.3 570.2,40.8 571.5,39.9 572.8,40.8 572.3,39.3 
				573.7,38.3 			"/>
			<polygon class="st0" points="578.8,36.5 578.3,34.9 577.8,36.5 576.2,36.5 577.5,37.4 577,39 578.3,38 579.6,39 579.1,37.4 
				580.5,36.5 			"/>
			<polygon class="st0" points="583.8,31.5 583.3,29.9 582.8,31.5 581.2,31.5 582.5,32.4 582,34 583.3,33 584.6,34 584.1,32.4 
				585.5,31.5 			"/>
			<polygon class="st0" points="587.3,24.6 585.6,24.6 585.1,23 584.6,24.6 583,24.6 584.3,25.6 583.8,27.1 585.1,26.2 586.5,27.1 
				586,25.6 			"/>
			<polygon class="st0" points="582,20.3 583.3,19.4 584.6,20.3 584.1,18.8 585.5,17.8 583.8,17.8 583.3,16.2 582.8,17.8 
				581.2,17.8 582.5,18.8 			"/>
			<polygon class="st0" points="578.3,11.2 577.8,12.8 576.2,12.8 577.5,13.8 577,15.3 578.3,14.4 579.7,15.3 579.2,13.8 
				580.5,12.8 578.8,12.8 			"/>
		</g>
		<g>
			<path d="M611.5,5.6h0.6v2.6c0,0.5-0.1,0.8-0.2,1.1c-0.1,0.3-0.3,0.5-0.6,0.7c-0.3,0.2-0.6,0.3-1.1,0.3c-0.4,0-0.8-0.1-1.1-0.2
				c-0.3-0.1-0.5-0.4-0.6-0.6c-0.1-0.3-0.2-0.7-0.2-1.1V5.6h0.6v2.6c0,0.4,0,0.7,0.1,0.9c0.1,0.2,0.2,0.3,0.4,0.4
				c0.2,0.1,0.4,0.2,0.7,0.2c0.4,0,0.8-0.1,1-0.3c0.2-0.2,0.3-0.6,0.3-1.2V5.6z"/>
			<polygon points="613.1,10.2 613.1,5.6 613.7,5.6 616.1,9.2 616.1,5.6 616.7,5.6 616.7,10.2 616.1,10.2 613.7,6.6 613.7,10.2 			
				"/>
			<rect x="617.8" y="5.6" width="0.6" height="4.6"/>
			<path d="M619,10.2l1.8-4.6h0.7l1.9,4.6h-0.7L622,8.8h-1.9l-0.5,1.4H619z M620.1,5.3c0-0.2,0.1-0.4,0.2-0.5
				c0.1-0.1,0.3-0.2,0.5-0.2c0.1,0,0.3,0.1,0.5,0.2c0.1,0.1,0.2,0.1,0.3,0.1c0.1,0,0.1,0,0.2-0.1c0,0,0.1-0.1,0.1-0.2h0.4
				c0,0.2-0.1,0.4-0.2,0.5c-0.1,0.1-0.3,0.2-0.4,0.2c-0.1,0-0.3-0.1-0.5-0.2c-0.1-0.1-0.2-0.1-0.3-0.1c-0.1,0-0.1,0-0.2,0.1
				c0,0.1-0.1,0.1-0.1,0.2H620.1z M620.3,8.3h1.6L621.4,7c-0.1-0.4-0.3-0.7-0.3-1c-0.1,0.3-0.1,0.6-0.2,0.9L620.3,8.3z"/>
			<path d="M623.6,8c0-0.8,0.2-1.4,0.6-1.8c0.4-0.4,0.9-0.6,1.6-0.6c0.4,0,0.8,0.1,1.1,0.3c0.3,0.2,0.6,0.5,0.8,0.8
				c0.2,0.4,0.3,0.8,0.3,1.2c0,0.5-0.1,0.9-0.3,1.2c-0.2,0.4-0.5,0.6-0.8,0.8c-0.3,0.2-0.7,0.3-1.1,0.3c-0.4,0-0.8-0.1-1.2-0.3
				c-0.3-0.2-0.6-0.5-0.8-0.9C623.7,8.7,623.6,8.4,623.6,8 M624.2,8c0,0.6,0.1,1,0.4,1.3c0.3,0.3,0.7,0.5,1.1,0.5
				c0.5,0,0.8-0.2,1.1-0.5c0.3-0.3,0.4-0.8,0.4-1.4c0-0.4-0.1-0.7-0.2-1c-0.1-0.3-0.3-0.5-0.6-0.6c-0.2-0.2-0.5-0.2-0.8-0.2
				c-0.4,0-0.8,0.2-1.1,0.4C624.4,6.8,624.2,7.3,624.2,8"/>
			<polygon points="630.5,10.2 630.5,5.6 633.8,5.6 633.8,6.2 631.1,6.2 631.1,7.6 633.7,7.6 633.7,8.1 631.1,8.1 631.1,9.7 
				633.9,9.7 633.9,10.2 			"/>
			<path d="M637.8,5.6h0.6v2.6c0,0.5-0.1,0.8-0.2,1.1c-0.1,0.3-0.3,0.5-0.6,0.7c-0.3,0.2-0.6,0.3-1.1,0.3c-0.4,0-0.8-0.1-1.1-0.2
				c-0.3-0.1-0.5-0.4-0.6-0.6c-0.1-0.3-0.2-0.7-0.2-1.1V5.6h0.6v2.6c0,0.4,0,0.7,0.1,0.9c0.1,0.2,0.2,0.3,0.4,0.4
				c0.2,0.1,0.4,0.2,0.7,0.2c0.4,0,0.8-0.1,1-0.3c0.2-0.2,0.3-0.6,0.3-1.2V5.6z"/>
			<path d="M639.4,10.2V5.6h2c0.4,0,0.7,0,0.9,0.1c0.2,0.1,0.4,0.2,0.5,0.4c0.1,0.2,0.2,0.4,0.2,0.7c0,0.3-0.1,0.6-0.3,0.8
				c-0.2,0.2-0.5,0.4-1,0.4c0.2,0.1,0.3,0.1,0.4,0.2c0.2,0.2,0.3,0.4,0.5,0.6l0.8,1.2h-0.8l-0.6-1c-0.2-0.3-0.3-0.5-0.4-0.6
				c-0.1-0.1-0.2-0.3-0.3-0.3c-0.1-0.1-0.2-0.1-0.3-0.1c-0.1,0-0.2,0-0.3,0H640v2H639.4z M640,7.6h1.3c0.3,0,0.5,0,0.6-0.1
				c0.2-0.1,0.3-0.2,0.4-0.3c0.1-0.1,0.1-0.3,0.1-0.4c0-0.2-0.1-0.4-0.2-0.5c-0.2-0.1-0.4-0.2-0.7-0.2H640V7.6z"/>
			<path d="M643.8,8c0-0.8,0.2-1.4,0.6-1.8c0.4-0.4,0.9-0.6,1.6-0.6c0.4,0,0.8,0.1,1.1,0.3c0.3,0.2,0.6,0.5,0.8,0.8
				c0.2,0.4,0.3,0.8,0.3,1.2c0,0.5-0.1,0.9-0.3,1.2c-0.2,0.4-0.5,0.6-0.8,0.8c-0.3,0.2-0.7,0.3-1.1,0.3c-0.4,0-0.8-0.1-1.2-0.3
				c-0.3-0.2-0.6-0.5-0.8-0.9C643.9,8.7,643.8,8.4,643.8,8 M644.5,8c0,0.6,0.1,1,0.4,1.3c0.3,0.3,0.7,0.5,1.1,0.5
				c0.5,0,0.8-0.2,1.1-0.5c0.3-0.3,0.4-0.8,0.4-1.4c0-0.4-0.1-0.7-0.2-1c-0.1-0.3-0.3-0.5-0.6-0.6c-0.2-0.2-0.5-0.2-0.8-0.2
				c-0.4,0-0.8,0.2-1.1,0.4C644.6,6.8,644.5,7.3,644.5,8"/>
			<path d="M649,10.2V5.6h1.7c0.3,0,0.5,0,0.7,0c0.2,0,0.4,0.1,0.6,0.2c0.2,0.1,0.3,0.3,0.4,0.4c0.1,0.2,0.1,0.4,0.1,0.6
				c0,0.4-0.1,0.7-0.4,1c-0.2,0.3-0.7,0.4-1.3,0.4h-1.2v1.9H649z M649.6,7.8h1.2c0.4,0,0.7-0.1,0.8-0.2c0.2-0.1,0.2-0.4,0.2-0.6
				c0-0.2-0.1-0.4-0.1-0.5c-0.1-0.1-0.2-0.2-0.4-0.3c-0.1,0-0.3,0-0.6,0h-1.2V7.8z"/>
			<polygon points="653.3,10.2 653.3,5.6 656.6,5.6 656.6,6.2 653.9,6.2 653.9,7.6 656.4,7.6 656.4,8.1 653.9,8.1 653.9,9.7 
				656.7,9.7 656.7,10.2 			"/>
			<rect x="657.6" y="5.6" width="0.6" height="4.6"/>
			<path d="M658.8,10.2l1.8-4.6h0.7l1.9,4.6h-0.7l-0.5-1.4H660l-0.5,1.4H658.8z M660.1,8.3h1.6L661.2,7c-0.1-0.4-0.3-0.7-0.3-1
				c-0.1,0.3-0.1,0.6-0.2,0.9L660.1,8.3z"/>
			<polygon points="608.5,33.2 608.5,28.7 611.6,28.7 611.6,29.2 609.1,29.2 609.1,30.6 611.3,30.6 611.3,31.2 609.1,31.2 
				609.1,33.2 			"/>
			<path d="M614.5,33.2v-0.5c-0.3,0.4-0.6,0.6-1.1,0.6c-0.2,0-0.4,0-0.5-0.1c-0.2-0.1-0.3-0.2-0.4-0.3c-0.1-0.1-0.1-0.3-0.2-0.4
				c0-0.1,0-0.3,0-0.5v-2.1h0.6v1.8c0,0.3,0,0.5,0,0.6c0,0.1,0.1,0.3,0.2,0.3c0.1,0.1,0.3,0.1,0.4,0.1c0.2,0,0.3,0,0.5-0.1
				c0.1-0.1,0.3-0.2,0.3-0.4c0.1-0.1,0.1-0.4,0.1-0.6v-1.8h0.6v3.3H614.5z"/>
			<path d="M615.9,33.2v-3.3h0.5v0.5c0.2-0.4,0.6-0.5,1.1-0.5c0.2,0,0.4,0,0.6,0.1c0.2,0.1,0.3,0.2,0.4,0.3c0.1,0.1,0.1,0.3,0.2,0.4
				c0,0.1,0,0.3,0,0.6v2H618v-2c0-0.2,0-0.4-0.1-0.5c0-0.1-0.1-0.2-0.2-0.3c-0.1-0.1-0.2-0.1-0.4-0.1c-0.2,0-0.4,0.1-0.6,0.2
				c-0.2,0.1-0.3,0.4-0.3,0.9v1.8H615.9z"/>
			<path d="M621.6,33.2v-0.4c-0.2,0.3-0.5,0.5-0.9,0.5c-0.3,0-0.5-0.1-0.7-0.2c-0.2-0.1-0.4-0.3-0.5-0.6c-0.1-0.3-0.2-0.6-0.2-0.9
				c0-0.3,0.1-0.6,0.2-0.9c0.1-0.3,0.3-0.5,0.5-0.6c0.2-0.1,0.5-0.2,0.7-0.2c0.2,0,0.4,0,0.5,0.1c0.2,0.1,0.3,0.2,0.4,0.3v-1.6h0.6
				v4.6H621.6z M619.8,31.6c0,0.4,0.1,0.7,0.3,1c0.2,0.2,0.4,0.3,0.6,0.3c0.2,0,0.5-0.1,0.6-0.3c0.2-0.2,0.3-0.5,0.3-0.9
				c0-0.5-0.1-0.8-0.3-1c-0.2-0.2-0.4-0.3-0.6-0.3c-0.3,0-0.5,0.1-0.6,0.3C619.9,30.8,619.8,31.1,619.8,31.6"/>
			<path d="M622.8,31.6c0-0.6,0.2-1.1,0.5-1.4c0.3-0.2,0.6-0.4,1-0.4c0.5,0,0.8,0.1,1.1,0.4c0.3,0.3,0.4,0.7,0.4,1.2
				c0,0.4-0.1,0.8-0.2,1c-0.1,0.2-0.3,0.4-0.6,0.6c-0.2,0.1-0.5,0.2-0.8,0.2c-0.5,0-0.8-0.2-1.1-0.5
				C622.9,32.6,622.8,32.1,622.8,31.6 M623.4,31.6c0,0.4,0.1,0.7,0.3,1c0.2,0.2,0.4,0.3,0.7,0.3c0.3,0,0.5-0.1,0.7-0.3
				c0.2-0.2,0.3-0.5,0.3-1c0-0.4-0.1-0.7-0.3-0.9c-0.2-0.2-0.4-0.3-0.7-0.3c-0.3,0-0.5,0.1-0.7,0.3
				C623.4,30.8,623.4,31.2,623.4,31.6"/>
			<path d="M626.3,32.2l0.6-0.1c0,0.2,0.1,0.4,0.3,0.5c0.1,0.1,0.3,0.2,0.6,0.2c0.3,0,0.5-0.1,0.6-0.2c0.1-0.1,0.2-0.2,0.2-0.4
				c0-0.1-0.1-0.2-0.2-0.3c-0.1,0-0.3-0.1-0.6-0.2c-0.4-0.1-0.7-0.2-0.9-0.3c-0.2-0.1-0.3-0.2-0.4-0.3c-0.1-0.1-0.1-0.3-0.1-0.4
				c0-0.1,0-0.3,0.1-0.4c0.1-0.1,0.2-0.2,0.3-0.3c0.1-0.1,0.2-0.1,0.4-0.2c0.2,0,0.3-0.1,0.5-0.1c0.3,0,0.5,0,0.7,0.1
				c0.2,0.1,0.3,0.2,0.4,0.3c0.1,0.1,0.2,0.3,0.2,0.5l-0.5,0.1c0-0.2-0.1-0.3-0.2-0.4c-0.1-0.1-0.3-0.1-0.5-0.1
				c-0.3,0-0.4,0-0.6,0.1c-0.1,0.1-0.2,0.2-0.2,0.3c0,0.1,0,0.1,0.1,0.2c0,0.1,0.1,0.1,0.2,0.2c0.1,0,0.2,0.1,0.5,0.1
				c0.4,0.1,0.7,0.2,0.8,0.3c0.2,0.1,0.3,0.2,0.4,0.3c0.1,0.1,0.1,0.3,0.1,0.5c0,0.2-0.1,0.4-0.2,0.5c-0.1,0.2-0.3,0.3-0.5,0.4
				c-0.2,0.1-0.4,0.1-0.7,0.1c-0.4,0-0.8-0.1-1-0.3C626.5,32.9,626.4,32.6,626.3,32.2"/>
			<polygon points="631.6,33.2 631.6,28.7 634.9,28.7 634.9,29.2 632.2,29.2 632.2,30.6 634.7,30.6 634.7,31.1 632.2,31.1 
				632.2,32.7 635,32.7 635,33.2 			"/>
			<path d="M638,33.2v-0.5c-0.3,0.4-0.6,0.6-1.1,0.6c-0.2,0-0.4,0-0.5-0.1c-0.2-0.1-0.3-0.2-0.4-0.3c-0.1-0.1-0.1-0.3-0.2-0.4
				c0-0.1,0-0.3,0-0.5v-2.1h0.6v1.8c0,0.3,0,0.5,0,0.6c0,0.1,0.1,0.3,0.2,0.3c0.1,0.1,0.3,0.1,0.4,0.1c0.2,0,0.3,0,0.5-0.1
				c0.2-0.1,0.3-0.2,0.3-0.4c0.1-0.1,0.1-0.4,0.1-0.6v-1.8h0.6v3.3H638z"/>
			<path d="M639.3,33.2v-3.3h0.5v0.5c0.1-0.2,0.2-0.4,0.4-0.5c0.1-0.1,0.2-0.1,0.4-0.1c0.2,0,0.4,0.1,0.6,0.2l-0.2,0.5
				c-0.1-0.1-0.3-0.1-0.4-0.1c-0.1,0-0.2,0-0.3,0.1c-0.1,0.1-0.2,0.2-0.2,0.3c-0.1,0.2-0.1,0.4-0.1,0.7v1.7H639.3z"/>
			<path d="M641.3,31.6c0-0.6,0.2-1.1,0.5-1.4c0.3-0.2,0.6-0.4,1-0.4c0.5,0,0.8,0.1,1.1,0.4c0.3,0.3,0.4,0.7,0.4,1.2
				c0,0.4-0.1,0.8-0.2,1c-0.1,0.2-0.3,0.4-0.6,0.6c-0.2,0.1-0.5,0.2-0.8,0.2c-0.5,0-0.8-0.2-1.1-0.5
				C641.4,32.6,641.3,32.1,641.3,31.6 M641.9,31.6c0,0.4,0.1,0.7,0.3,1c0.2,0.2,0.4,0.3,0.7,0.3c0.3,0,0.5-0.1,0.7-0.3
				c0.2-0.2,0.3-0.5,0.3-1c0-0.4-0.1-0.7-0.3-0.9c-0.2-0.2-0.4-0.3-0.7-0.3c-0.3,0-0.5,0.1-0.7,0.3
				C641.9,30.8,641.9,31.2,641.9,31.6"/>
			<path d="M645,34.5v-4.6h0.5v0.4c0.1-0.2,0.3-0.3,0.4-0.4c0.2-0.1,0.3-0.1,0.6-0.1c0.3,0,0.5,0.1,0.8,0.2c0.2,0.1,0.4,0.4,0.5,0.6
				c0.1,0.3,0.2,0.6,0.2,0.9c0,0.3-0.1,0.6-0.2,0.9c-0.1,0.3-0.3,0.5-0.5,0.6c-0.2,0.1-0.5,0.2-0.7,0.2c-0.2,0-0.4,0-0.5-0.1
				c-0.2-0.1-0.3-0.2-0.4-0.3v1.6H645z M645.6,31.6c0,0.4,0.1,0.7,0.3,0.9c0.2,0.2,0.4,0.3,0.6,0.3c0.3,0,0.5-0.1,0.6-0.3
				c0.2-0.2,0.3-0.5,0.3-1c0-0.4-0.1-0.7-0.3-0.9c-0.2-0.2-0.4-0.3-0.6-0.3c-0.2,0-0.5,0.1-0.6,0.3
				C645.6,30.8,645.6,31.2,645.6,31.6"/>
			<path d="M650.9,32.2l0.6,0.1c-0.1,0.3-0.3,0.6-0.5,0.8c-0.3,0.2-0.6,0.3-1,0.3c-0.5,0-0.9-0.2-1.2-0.5c-0.3-0.3-0.4-0.7-0.4-1.3
				c0-0.6,0.1-1,0.4-1.3c0.3-0.3,0.7-0.5,1.1-0.5c0.4,0,0.8,0.2,1.1,0.5c0.3,0.3,0.4,0.7,0.4,1.3c0,0,0,0.1,0,0.2H649
				c0,0.4,0.1,0.6,0.3,0.8c0.2,0.2,0.4,0.3,0.7,0.3c0.2,0,0.4-0.1,0.5-0.2C650.7,32.6,650.8,32.4,650.9,32.2 M649,31.3h1.9
				c0-0.3-0.1-0.5-0.2-0.6c-0.2-0.2-0.4-0.3-0.7-0.3c-0.3,0-0.5,0.1-0.6,0.3C649.1,30.7,649,31,649,31.3"/>
			<path d="M654.3,33.2v-0.5c-0.3,0.4-0.6,0.6-1.1,0.6c-0.2,0-0.4,0-0.5-0.1c-0.2-0.1-0.3-0.2-0.4-0.3c-0.1-0.1-0.1-0.3-0.2-0.4
				c0-0.1,0-0.3,0-0.5v-2.1h0.6v1.8c0,0.3,0,0.5,0,0.6c0,0.1,0.1,0.3,0.2,0.3c0.1,0.1,0.3,0.1,0.4,0.1c0.2,0,0.3,0,0.5-0.1
				c0.1-0.1,0.3-0.2,0.3-0.4c0.1-0.1,0.1-0.4,0.1-0.6v-1.8h0.6v3.3H654.3z"/>
			<path d="M655.5,32.2l0.6-0.1c0,0.2,0.1,0.4,0.3,0.5c0.1,0.1,0.3,0.2,0.6,0.2c0.3,0,0.5-0.1,0.6-0.2c0.1-0.1,0.2-0.2,0.2-0.4
				c0-0.1-0.1-0.2-0.2-0.3c-0.1,0-0.3-0.1-0.6-0.2c-0.4-0.1-0.7-0.2-0.9-0.3c-0.2-0.1-0.3-0.2-0.4-0.3c-0.1-0.1-0.1-0.3-0.1-0.4
				c0-0.1,0-0.3,0.1-0.4c0.1-0.1,0.2-0.2,0.3-0.3c0.1-0.1,0.2-0.1,0.4-0.2c0.1,0,0.3-0.1,0.5-0.1c0.3,0,0.5,0,0.7,0.1
				c0.2,0.1,0.3,0.2,0.4,0.3c0.1,0.1,0.2,0.3,0.2,0.5l-0.6,0.1c0-0.2-0.1-0.3-0.2-0.4c-0.1-0.1-0.3-0.1-0.5-0.1
				c-0.3,0-0.4,0-0.6,0.1c-0.1,0.1-0.2,0.2-0.2,0.3c0,0.1,0,0.1,0.1,0.2c0,0.1,0.1,0.1,0.2,0.2c0.1,0,0.2,0.1,0.5,0.1
				c0.4,0.1,0.7,0.2,0.8,0.3c0.2,0.1,0.3,0.2,0.4,0.3c0.1,0.1,0.1,0.3,0.1,0.5c0,0.2-0.1,0.4-0.2,0.5c-0.1,0.2-0.3,0.3-0.5,0.4
				c-0.2,0.1-0.4,0.1-0.7,0.1c-0.4,0-0.8-0.1-1-0.3C655.7,32.9,655.6,32.6,655.5,32.2"/>
			<polygon points="608.5,40.9 608.5,36.3 611.8,36.3 611.8,36.9 609.1,36.9 609.1,38.3 611.6,38.3 611.6,38.8 609.1,38.8 
				609.1,40.4 611.9,40.4 611.9,40.9 			"/>
			<path d="M612.4,39.9l0.6-0.1c0,0.2,0.1,0.4,0.3,0.5c0.1,0.1,0.3,0.2,0.6,0.2c0.3,0,0.5-0.1,0.6-0.2c0.1-0.1,0.2-0.2,0.2-0.4
				c0-0.1-0.1-0.2-0.2-0.3c-0.1,0-0.3-0.1-0.6-0.2c-0.4-0.1-0.7-0.2-0.9-0.3c-0.2-0.1-0.3-0.2-0.4-0.3c-0.1-0.1-0.1-0.3-0.1-0.4
				c0-0.1,0-0.3,0.1-0.4c0.1-0.1,0.2-0.2,0.3-0.3c0.1-0.1,0.2-0.1,0.4-0.2c0.2,0,0.3-0.1,0.5-0.1c0.3,0,0.5,0,0.7,0.1
				c0.2,0.1,0.3,0.2,0.4,0.3c0.1,0.1,0.2,0.3,0.2,0.5l-0.6,0.1c0-0.2-0.1-0.3-0.2-0.4c-0.1-0.1-0.3-0.1-0.5-0.1
				c-0.3,0-0.4,0-0.6,0.1c-0.1,0.1-0.2,0.2-0.2,0.3c0,0.1,0,0.1,0.1,0.2c0,0.1,0.1,0.1,0.2,0.1c0.1,0,0.2,0.1,0.5,0.1
				c0.4,0.1,0.7,0.2,0.8,0.3c0.2,0.1,0.3,0.2,0.4,0.3c0.1,0.1,0.1,0.3,0.1,0.5c0,0.2-0.1,0.4-0.2,0.5c-0.1,0.2-0.3,0.3-0.5,0.4
				c-0.2,0.1-0.4,0.1-0.7,0.1c-0.4,0-0.8-0.1-1-0.3C612.6,40.5,612.5,40.3,612.4,39.9"/>
			<path d="M617.1,40.4l0.1,0.5c-0.2,0-0.3,0.1-0.4,0.1c-0.2,0-0.4,0-0.5-0.1c-0.1-0.1-0.2-0.1-0.2-0.3c0-0.1-0.1-0.3-0.1-0.7V38
				h-0.4v-0.4h0.4v-0.8l0.6-0.3v1.2h0.6V38h-0.6V40c0,0.2,0,0.3,0,0.3c0,0,0.1,0.1,0.1,0.1c0,0,0.1,0,0.2,0
				C616.9,40.4,617,40.4,617.1,40.4"/>
			<path d="M617.6,40.9v-3.3h0.5v0.5c0.1-0.2,0.3-0.4,0.4-0.5c0.1-0.1,0.2-0.1,0.4-0.1c0.2,0,0.4,0.1,0.6,0.2l-0.2,0.5
				c-0.1-0.1-0.3-0.1-0.4-0.1c-0.1,0-0.2,0-0.3,0.1c-0.1,0.1-0.2,0.2-0.2,0.3c-0.1,0.2-0.1,0.4-0.1,0.7v1.7H617.6z"/>
			<path d="M621.9,40.9v-0.5c-0.3,0.4-0.6,0.6-1.1,0.6c-0.2,0-0.4,0-0.5-0.1c-0.2-0.1-0.3-0.2-0.4-0.3c-0.1-0.1-0.1-0.3-0.2-0.4
				c0-0.1,0-0.3,0-0.5v-2.1h0.6v1.8c0,0.3,0,0.5,0,0.6c0,0.1,0.1,0.3,0.2,0.3c0.1,0.1,0.3,0.1,0.4,0.1c0.2,0,0.3,0,0.5-0.1
				c0.1-0.1,0.3-0.2,0.3-0.4c0.1-0.2,0.1-0.4,0.1-0.6v-1.8h0.6v3.3H621.9z"/>
			<path d="M624.6,40.4l0.1,0.5c-0.2,0-0.3,0.1-0.4,0.1c-0.2,0-0.4,0-0.5-0.1c-0.1-0.1-0.2-0.1-0.2-0.3c0-0.1-0.1-0.3-0.1-0.7V38
				H623v-0.4h0.4v-0.8l0.6-0.3v1.2h0.6V38H624V40c0,0.2,0,0.3,0,0.3c0,0,0.1,0.1,0.1,0.1c0,0,0.1,0,0.2,0
				C624.4,40.4,624.5,40.4,624.6,40.4"/>
			<path d="M627.3,40.9v-0.5c-0.3,0.4-0.6,0.6-1,0.6c-0.2,0-0.4,0-0.6-0.1c-0.2-0.1-0.3-0.2-0.4-0.3c-0.1-0.1-0.1-0.3-0.2-0.4
				c0-0.1,0-0.3,0-0.5v-2.1h0.6v1.8c0,0.3,0,0.5,0,0.6c0,0.1,0.1,0.3,0.2,0.3c0.1,0.1,0.3,0.1,0.4,0.1c0.2,0,0.3,0,0.5-0.1
				c0.1-0.1,0.3-0.2,0.3-0.4c0.1-0.2,0.1-0.4,0.1-0.6v-1.8h0.6v3.3H627.3z"/>
			<path d="M628.7,40.9v-3.3h0.5v0.5c0.1-0.2,0.2-0.4,0.4-0.5c0.1-0.1,0.2-0.1,0.4-0.1c0.2,0,0.4,0.1,0.6,0.2l-0.2,0.5
				c-0.1-0.1-0.3-0.1-0.4-0.1c-0.1,0-0.2,0-0.3,0.1c-0.1,0.1-0.2,0.2-0.2,0.3c-0.1,0.2-0.1,0.4-0.1,0.7v1.7H628.7z"/>
			<path d="M633,40.5c-0.2,0.2-0.4,0.3-0.6,0.4c-0.2,0.1-0.4,0.1-0.6,0.1c-0.4,0-0.6-0.1-0.8-0.3c-0.2-0.2-0.3-0.4-0.3-0.7
				c0-0.2,0-0.3,0.1-0.4c0.1-0.1,0.2-0.2,0.3-0.3c0.1-0.1,0.3-0.1,0.4-0.2c0.1,0,0.3-0.1,0.5-0.1c0.5,0,0.8-0.1,1-0.2
				c0-0.1,0-0.1,0-0.1c0-0.2-0.1-0.4-0.2-0.5c-0.1-0.1-0.4-0.2-0.6-0.2c-0.3,0-0.5,0-0.6,0.1c-0.1,0.1-0.2,0.3-0.3,0.5l-0.5-0.1
				c0.1-0.2,0.1-0.4,0.2-0.6c0.1-0.1,0.3-0.3,0.5-0.3c0.2-0.1,0.5-0.1,0.7-0.1c0.3,0,0.5,0,0.7,0.1c0.2,0.1,0.3,0.2,0.4,0.3
				c0.1,0.1,0.1,0.2,0.2,0.4c0,0.1,0,0.3,0,0.5v0.8c0,0.5,0,0.9,0,1c0,0.1,0.1,0.3,0.1,0.4h-0.6C633,40.8,633,40.7,633,40.5
				 M632.9,39.3c-0.2,0.1-0.5,0.2-0.9,0.2c-0.2,0-0.4,0.1-0.5,0.1c-0.1,0-0.2,0.1-0.2,0.2c0,0.1-0.1,0.2-0.1,0.3
				c0,0.1,0.1,0.3,0.2,0.4c0.1,0.1,0.3,0.2,0.5,0.2c0.2,0,0.4,0,0.6-0.1c0.2-0.1,0.3-0.2,0.4-0.4c0.1-0.1,0.1-0.3,0.1-0.6V39.3z"/>
			<path d="M634.4,36.3h0.6V37h-0.6V36.3z M634.4,37.6h0.6v3.3h-0.6V37.6z"/>
			<path d="M635.6,39.9l0.6-0.1c0,0.2,0.1,0.4,0.3,0.5c0.1,0.1,0.3,0.2,0.6,0.2c0.3,0,0.5-0.1,0.6-0.2c0.1-0.1,0.2-0.2,0.2-0.4
				c0-0.1-0.1-0.2-0.2-0.3c-0.1,0-0.3-0.1-0.6-0.2c-0.4-0.1-0.7-0.2-0.9-0.3c-0.2-0.1-0.3-0.2-0.4-0.3c-0.1-0.1-0.1-0.3-0.1-0.4
				c0-0.1,0-0.3,0.1-0.4c0.1-0.1,0.2-0.2,0.3-0.3c0.1-0.1,0.2-0.1,0.4-0.2c0.2,0,0.3-0.1,0.5-0.1c0.3,0,0.5,0,0.7,0.1
				c0.2,0.1,0.3,0.2,0.4,0.3c0.1,0.1,0.2,0.3,0.2,0.5l-0.5,0.1c0-0.2-0.1-0.3-0.2-0.4c-0.1-0.1-0.3-0.1-0.5-0.1
				c-0.3,0-0.4,0-0.6,0.1c-0.1,0.1-0.2,0.2-0.2,0.3c0,0.1,0,0.1,0.1,0.2c0,0.1,0.1,0.1,0.2,0.1c0.1,0,0.2,0.1,0.5,0.1
				c0.4,0.1,0.7,0.2,0.8,0.3c0.2,0.1,0.3,0.2,0.4,0.3c0.1,0.1,0.1,0.3,0.1,0.5c0,0.2-0.1,0.4-0.2,0.5c-0.1,0.2-0.3,0.3-0.5,0.4
				c-0.2,0.1-0.4,0.1-0.7,0.1c-0.4,0-0.8-0.1-1-0.3C635.8,40.5,635.6,40.3,635.6,39.9"/>
			<path d="M643,39.8l0.6,0.1c-0.1,0.3-0.3,0.6-0.5,0.8c-0.2,0.2-0.6,0.3-1,0.3c-0.5,0-0.9-0.2-1.2-0.4c-0.3-0.3-0.4-0.7-0.4-1.3
				c0-0.6,0.1-1,0.4-1.3c0.3-0.3,0.7-0.5,1.1-0.5c0.4,0,0.8,0.1,1.1,0.5c0.3,0.3,0.4,0.7,0.4,1.3c0,0,0,0.1,0,0.1h-2.5
				c0,0.4,0.1,0.6,0.3,0.8c0.2,0.2,0.4,0.3,0.7,0.3c0.2,0,0.4-0.1,0.5-0.2C642.8,40.3,643,40.1,643,39.8 M641.2,38.9h1.9
				c0-0.3-0.1-0.5-0.2-0.6c-0.2-0.2-0.4-0.3-0.7-0.3c-0.3,0-0.5,0.1-0.7,0.3C641.3,38.4,641.2,38.6,641.2,38.9"/>
			<path d="M648.3,40.9v-0.4c-0.2,0.3-0.5,0.5-0.9,0.5c-0.3,0-0.5-0.1-0.7-0.2c-0.2-0.1-0.4-0.3-0.5-0.6c-0.1-0.3-0.2-0.6-0.2-0.9
				c0-0.3,0.1-0.6,0.2-0.9c0.1-0.3,0.3-0.5,0.5-0.6c0.2-0.1,0.5-0.2,0.7-0.2c0.2,0,0.4,0,0.5,0.1c0.2,0.1,0.3,0.2,0.4,0.3v-1.6h0.6
				v4.6H648.3z M646.5,39.3c0,0.4,0.1,0.7,0.3,1c0.2,0.2,0.4,0.3,0.6,0.3c0.2,0,0.5-0.1,0.6-0.3c0.2-0.2,0.3-0.5,0.3-0.9
				c0-0.5-0.1-0.8-0.3-1c-0.2-0.2-0.4-0.3-0.6-0.3c-0.2,0-0.5,0.1-0.6,0.3C646.6,38.5,646.5,38.8,646.5,39.3"/>
			<path d="M651.9,39.8l0.6,0.1c-0.1,0.3-0.3,0.6-0.5,0.8c-0.2,0.2-0.6,0.3-0.9,0.3c-0.5,0-0.9-0.2-1.2-0.4
				c-0.3-0.3-0.4-0.7-0.4-1.3c0-0.6,0.1-1,0.4-1.3c0.3-0.3,0.7-0.5,1.1-0.5c0.4,0,0.8,0.1,1.1,0.5c0.3,0.3,0.4,0.7,0.4,1.3
				c0,0,0,0.1,0,0.1h-2.5c0,0.4,0.1,0.6,0.3,0.8c0.2,0.2,0.4,0.3,0.7,0.3c0.2,0,0.4-0.1,0.5-0.2C651.7,40.3,651.8,40.1,651.9,39.8
				 M650.1,38.9h1.9c0-0.3-0.1-0.5-0.2-0.6c-0.2-0.2-0.4-0.3-0.7-0.3c-0.3,0-0.5,0.1-0.6,0.3C650.2,38.4,650.1,38.6,650.1,38.9"/>
			<rect x="655.2" y="36.3" width="0.6" height="4.6"/>
			<path d="M656.8,40.9v-3.3h0.5v0.5c0.2-0.4,0.6-0.5,1.1-0.5c0.2,0,0.4,0,0.6,0.1c0.2,0.1,0.3,0.2,0.4,0.3c0.1,0.1,0.1,0.3,0.2,0.4
				c0,0.1,0,0.3,0,0.5v2h-0.6v-2c0-0.2,0-0.4-0.1-0.5c0-0.1-0.1-0.2-0.2-0.3c-0.1-0.1-0.2-0.1-0.4-0.1c-0.2,0-0.4,0.1-0.6,0.2
				c-0.2,0.2-0.3,0.4-0.3,0.9v1.8H656.8z"/>
			<path d="M661.3,40.9l-1.3-3.3h0.6l0.7,2c0.1,0.2,0.1,0.4,0.2,0.7c0.1-0.2,0.1-0.4,0.2-0.6l0.7-2h0.6l-1.3,3.3H661.3z"/>
			<path d="M665.8,39.8l0.6,0.1c-0.1,0.3-0.3,0.6-0.5,0.8c-0.2,0.2-0.6,0.3-1,0.3c-0.5,0-0.9-0.2-1.2-0.4c-0.3-0.3-0.4-0.7-0.4-1.3
				c0-0.6,0.1-1,0.4-1.3c0.3-0.3,0.7-0.5,1.1-0.5c0.4,0,0.8,0.1,1.1,0.5c0.3,0.3,0.4,0.7,0.4,1.3c0,0,0,0.1,0,0.1h-2.5
				c0,0.4,0.1,0.6,0.3,0.8c0.2,0.2,0.4,0.3,0.7,0.3c0.2,0,0.4-0.1,0.5-0.2C665.6,40.3,665.7,40.1,665.8,39.8 M664,38.9h1.9
				c0-0.3-0.1-0.5-0.2-0.6c-0.2-0.2-0.4-0.3-0.7-0.3c-0.3,0-0.5,0.1-0.6,0.3C664.1,38.4,664,38.6,664,38.9"/>
			<path d="M666.9,39.9l0.6-0.1c0,0.2,0.1,0.4,0.3,0.5c0.1,0.1,0.3,0.2,0.6,0.2c0.3,0,0.4-0.1,0.6-0.2c0.1-0.1,0.2-0.2,0.2-0.4
				c0-0.1-0.1-0.2-0.2-0.3c-0.1,0-0.3-0.1-0.6-0.2c-0.4-0.1-0.7-0.2-0.9-0.3c-0.2-0.1-0.3-0.2-0.4-0.3c-0.1-0.1-0.1-0.3-0.1-0.4
				c0-0.1,0-0.3,0.1-0.4c0.1-0.1,0.2-0.2,0.3-0.3c0.1-0.1,0.2-0.1,0.4-0.2c0.1,0,0.3-0.1,0.5-0.1c0.3,0,0.5,0,0.7,0.1
				c0.2,0.1,0.3,0.2,0.4,0.3c0.1,0.1,0.2,0.3,0.2,0.5l-0.5,0.1c0-0.2-0.1-0.3-0.2-0.4c-0.1-0.1-0.3-0.1-0.5-0.1
				c-0.3,0-0.4,0-0.6,0.1c-0.1,0.1-0.2,0.2-0.2,0.3c0,0.1,0,0.1,0.1,0.2c0,0.1,0.1,0.1,0.2,0.1c0.1,0,0.2,0.1,0.5,0.1
				c0.4,0.1,0.7,0.2,0.8,0.3c0.2,0.1,0.3,0.2,0.4,0.3c0.1,0.1,0.1,0.3,0.1,0.5c0,0.2-0.1,0.4-0.2,0.5c-0.1,0.2-0.3,0.3-0.5,0.4
				c-0.2,0.1-0.4,0.1-0.7,0.1c-0.4,0-0.8-0.1-1-0.3C667.1,40.5,666.9,40.3,666.9,39.9"/>
			<path d="M671.5,40.4l0.1,0.5c-0.2,0-0.3,0.1-0.4,0.1c-0.2,0-0.4,0-0.5-0.1c-0.1-0.1-0.2-0.1-0.2-0.3c0-0.1-0.1-0.3-0.1-0.7V38
				H670v-0.4h0.4v-0.8l0.6-0.3v1.2h0.6V38H671V40c0,0.2,0,0.3,0,0.3c0,0,0.1,0.1,0.1,0.1c0,0,0.1,0,0.2,0
				C671.3,40.4,671.4,40.4,671.5,40.4"/>
			<path d="M672.1,36.3h0.6V37h-0.6V36.3z M672.1,37.6h0.6v3.3h-0.6V37.6z"/>
			<path d="M673.5,40.9v-3.3h0.5v0.5c0.1-0.2,0.2-0.3,0.4-0.4c0.2-0.1,0.4-0.1,0.6-0.1c0.2,0,0.5,0.1,0.6,0.2
				c0.2,0.1,0.3,0.2,0.3,0.4c0.3-0.4,0.6-0.6,1-0.6c0.3,0,0.6,0.1,0.8,0.3c0.2,0.2,0.3,0.5,0.3,0.8v2.3h-0.6v-2.1
				c0-0.2,0-0.4-0.1-0.5c0-0.1-0.1-0.2-0.2-0.2c-0.1-0.1-0.2-0.1-0.3-0.1c-0.2,0-0.4,0.1-0.6,0.2c-0.2,0.2-0.2,0.4-0.2,0.7v1.9h-0.6
				v-2.2c0-0.2,0-0.4-0.1-0.6c-0.1-0.1-0.2-0.2-0.5-0.2c-0.2,0-0.3,0-0.4,0.1c-0.1,0.1-0.2,0.2-0.3,0.4c-0.1,0.2-0.1,0.4-0.1,0.7
				v1.7H673.5z"/>
			<path d="M681.1,39.8l0.6,0.1c-0.1,0.3-0.3,0.6-0.5,0.8c-0.2,0.2-0.6,0.3-1,0.3c-0.5,0-0.9-0.2-1.2-0.4c-0.3-0.3-0.4-0.7-0.4-1.3
				c0-0.6,0.1-1,0.4-1.3c0.3-0.3,0.7-0.5,1.1-0.5c0.4,0,0.8,0.1,1.1,0.5c0.3,0.3,0.4,0.7,0.4,1.3c0,0,0,0.1,0,0.1h-2.5
				c0,0.4,0.1,0.6,0.3,0.8c0.2,0.2,0.4,0.3,0.7,0.3c0.2,0,0.4-0.1,0.5-0.2C680.9,40.3,681,40.1,681.1,39.8 M679.3,38.9h1.9
				c0-0.3-0.1-0.5-0.2-0.6c-0.2-0.2-0.4-0.3-0.7-0.3c-0.3,0-0.5,0.1-0.6,0.3C679.4,38.4,679.3,38.6,679.3,38.9"/>
			<path d="M682.4,40.9v-3.3h0.5v0.5c0.2-0.4,0.6-0.5,1.1-0.5c0.2,0,0.4,0,0.6,0.1c0.2,0.1,0.3,0.2,0.4,0.3c0.1,0.1,0.1,0.3,0.2,0.4
				c0,0.1,0,0.3,0,0.5v2h-0.6v-2c0-0.2,0-0.4-0.1-0.5c0-0.1-0.1-0.2-0.2-0.3c-0.1-0.1-0.2-0.1-0.4-0.1c-0.2,0-0.4,0.1-0.6,0.2
				c-0.2,0.2-0.3,0.4-0.3,0.9v1.8H682.4z"/>
			<path d="M687.2,40.4l0.1,0.5c-0.2,0-0.3,0.1-0.4,0.1c-0.2,0-0.4,0-0.5-0.1c-0.1-0.1-0.2-0.1-0.2-0.3c0-0.1-0.1-0.3-0.1-0.7V38
				h-0.4v-0.4h0.4v-0.8l0.6-0.3v1.2h0.6V38h-0.6V40c0,0.2,0,0.3,0,0.3c0,0,0,0.1,0.1,0.1c0,0,0.1,0,0.2,0
				C687,40.4,687.1,40.4,687.2,40.4"/>
			<path d="M687.5,39.3c0-0.6,0.2-1.1,0.5-1.4c0.3-0.2,0.6-0.4,1-0.4c0.5,0,0.8,0.1,1.1,0.4c0.3,0.3,0.4,0.7,0.4,1.2
				c0,0.4-0.1,0.8-0.2,1c-0.1,0.2-0.3,0.4-0.6,0.6c-0.2,0.1-0.5,0.2-0.8,0.2c-0.5,0-0.8-0.1-1.1-0.4
				C687.7,40.2,687.5,39.8,687.5,39.3 M688.1,39.3c0,0.4,0.1,0.7,0.3,1c0.2,0.2,0.4,0.3,0.7,0.3c0.3,0,0.5-0.1,0.7-0.3
				c0.2-0.2,0.3-0.5,0.3-1c0-0.4-0.1-0.7-0.3-0.9c-0.2-0.2-0.4-0.3-0.7-0.3c-0.3,0-0.5,0.1-0.7,0.3
				C688.2,38.5,688.1,38.8,688.1,39.3"/>
		</g>
	</g>
	<g>
		<g>
			<path d="M0.4,41.3H2c0.9,0,1.5,0.6,1.5,1.3C3.5,43.4,3,44,2,44H1.2v1.4h0.4v0.3H0.4v-0.3h0.4v-3.8H0.4V41.3z M2,43.6
				c0.7,0,1.1-0.4,1.1-1c0-0.6-0.4-1-1.1-1H1.2v2H2z"/>
			<path d="M5.5,43.9H4.6v1.5H5v0.3H3.8v-0.3h0.4v-3.8H3.8v-0.3h1.7c0.9,0,1.4,0.6,1.4,1.3c0,0.6-0.3,1-0.9,1.2l1,1.6h0.4v0.3H6.6
				L5.5,43.9z M5.4,43.6c0.7,0,1.1-0.4,1.1-0.9c0-0.6-0.3-1-1.1-1H4.6v1.9H5.4z"/>
			<path d="M7.5,43.5c0-1.3,1-2.2,2.2-2.2c1.2,0,2.2,0.9,2.2,2.2c0,1.3-1,2.2-2.2,2.2C8.5,45.8,7.5,44.8,7.5,43.5z M11.5,43.5
				c0-1.1-0.8-1.9-1.8-1.9c-1,0-1.8,0.8-1.8,1.9c0,1.1,0.8,1.9,1.8,1.9C10.8,45.4,11.5,44.6,11.5,43.5z"/>
			<path d="M16.1,45.2c-0.3,0.3-0.8,0.5-1.4,0.5c-1.2,0-2.2-0.9-2.2-2.2c0-1.3,1-2.2,2.2-2.2c0.6,0,1.1,0.2,1.3,0.6v-0.5h0.3v1.1H16
				c-0.2-0.5-0.6-0.8-1.3-0.8c-1,0-1.8,0.8-1.8,1.9c0,1.1,0.8,1.9,1.8,1.9c0.7,0,1.1-0.3,1.4-0.5v-0.9h-1.3v-0.3h1.7v2.1h-0.4V45.2z
				"/>
			<path d="M18.8,43.9h-0.9v1.5h0.4v0.3H17v-0.3h0.4v-3.8H17v-0.3h1.7c0.9,0,1.4,0.6,1.4,1.3c0,0.6-0.3,1-0.9,1.2l1,1.6h0.4v0.3
				h-0.7L18.8,43.9z M18.7,43.6c0.7,0,1.1-0.4,1.1-0.9c0-0.6-0.3-1-1.1-1h-0.8v1.9H18.7z"/>
			<path d="M25,45.7h-1.2v-0.3h0.4l-0.3-0.9H22l-0.3,0.9h0.4v0.3h-1.2v-0.3h0.3l1.4-3.8h-0.3v-0.3h1.3v0.3h-0.3l1.4,3.8H25V45.7z
				 M22.1,44.2h1.7l-0.9-2.4L22.1,44.2z"/>
			<path d="M30.2,45.7H29v-0.3h0.4V42l-1.5,2.4h-0.2L26.2,42v3.4h0.4v0.3h-1.2v-0.3h0.4v-3.8h-0.4v-0.3h0.8l1.6,2.5l1.6-2.5h0.8v0.3
				h-0.4v3.8h0.4V45.7z"/>
			<path d="M34.7,45.7h-1.2v-0.3h0.4l-0.3-0.9h-1.9l-0.3,0.9h0.4v0.3h-1.2v-0.3h0.3l1.4-3.8H32v-0.3h1.3v0.3H33l1.4,3.8h0.3V45.7z
				 M31.8,44.2h1.7l-0.9-2.4L31.8,44.2z"/>
			<path d="M36.1,43.5c0-1.3,1-2.2,2.2-2.2c1.2,0,2.2,0.9,2.2,2.2c0,1.3-1,2.2-2.2,2.2C37.1,45.8,36.1,44.8,36.1,43.5z M40.1,43.5
				c0-1.1-0.8-1.9-1.8-1.9c-1,0-1.8,0.8-1.8,1.9c0,1.1,0.8,1.9,1.8,1.9C39.4,45.4,40.1,44.6,40.1,43.5z"/>
			<path d="M41,41.3h1.7c0.9,0,1.5,0.6,1.5,1.3c0,0.8-0.5,1.3-1.5,1.3h-0.8v1.4h0.4v0.3H41v-0.3h0.4v-3.8H41V41.3z M42.6,43.6
				c0.7,0,1.1-0.4,1.1-1c0-0.6-0.4-1-1.1-1h-0.8v2H42.6z"/>
			<path d="M47,41.7h-1.9v1.7h1.7v0.3h-1.7v1.7h2v-0.6h0.3v1h-3.1v-0.3h0.4v-3.8h-0.4v-0.3h3v1H47V41.7z"/>
			<path d="M49.7,43.9h-0.9v1.5h0.4v0.3H48v-0.3h0.4v-3.8H48v-0.3h1.7c0.9,0,1.4,0.6,1.4,1.3c0,0.6-0.3,1-0.9,1.2l1,1.6h0.4v0.3
				h-0.7L49.7,43.9z M49.6,43.6c0.7,0,1.1-0.4,1.1-0.9c0-0.6-0.3-1-1.1-1h-0.8v1.9H49.6z"/>
			<path d="M55.9,45.7h-1.2v-0.3h0.4l-0.3-0.9h-1.9l-0.3,0.9H53v0.3h-1.2v-0.3h0.3l1.4-3.8h-0.3v-0.3h1.3v0.3h-0.3l1.4,3.8h0.3V45.7
				z M53,44.2h1.7l-0.9-2.4L53,44.2z"/>
			<path d="M58.2,41.3c0.6,0,1.1,0.2,1.4,0.6v-0.5h0.3v1.2h-0.3c-0.2-0.6-0.7-0.9-1.4-0.9c-1,0-1.8,0.8-1.8,1.9
				c0,1.1,0.8,1.9,1.8,1.9c0.6,0,1.1-0.3,1.5-0.7l0.3,0.2c-0.4,0.6-1,0.9-1.8,0.9c-1.2,0-2.2-0.9-2.2-2.2C56,42.2,57,41.3,58.2,41.3
				z"/>
			<path d="M60.4,41.3h1.2v0.3h-0.4v3.8h0.4v0.3h-1.2v-0.3h0.4v-3.8h-0.4V41.3z"/>
			<path d="M62,43.5c0-1.3,1-2.2,2.2-2.2c1.2,0,2.2,0.9,2.2,2.2c0,1.3-1,2.2-2.2,2.2C63,45.8,62,44.8,62,43.5z M66,43.5
				c0-1.1-0.8-1.9-1.8-1.9c-1,0-1.8,0.8-1.8,1.9c0,1.1,0.8,1.9,1.8,1.9C65.3,45.4,66,44.6,66,43.5z"/>
			<path d="M71,41.6h-0.4v4.1h-0.3l-2.7-3.8v3.5h0.4v0.3h-1.2v-0.3h0.4v-3.8h-0.4v-0.3h0.8l2.5,3.6v-3.3h-0.4v-0.3H71V41.6z"/>
			<path d="M75.3,45.7h-1.2v-0.3h0.4l-0.3-0.9h-1.9l-0.3,0.9h0.4v0.3h-1.2v-0.3h0.3l1.4-3.8h-0.3v-0.3h1.3v0.3h-0.3l1.4,3.8h0.3
				V45.7z M72.3,44.2h1.7l-0.9-2.4L72.3,44.2z"/>
			<path d="M75.6,41.3h1.2v0.3h-0.4v3.7h1.7v-0.6h0.3v1h-2.9v-0.3H76v-3.8h-0.4V41.3z"/>
			<path d="M81.8,43.9h-1v1.5h0.4v0.3H80v-0.3h0.4v-3.8H80v-0.3h1.7c0.9,0,1.4,0.6,1.4,1.3c0,0.6-0.3,1-1,1.2l1,1.6h0.4v0.3h-0.7
				L81.8,43.9z M81.6,43.6c0.7,0,1.1-0.4,1.1-0.9c0-0.6-0.3-1-1.1-1h-0.8v1.9H81.6z"/>
			<path d="M86.6,41.7h-1.9v1.7h1.7v0.3h-1.7v1.7h1.9v-0.6h0.3v1H84v-0.3h0.4v-3.8H84v-0.3h3v1h-0.3V41.7z"/>
			<path d="M91.1,45.2c-0.3,0.3-0.8,0.5-1.4,0.5c-1.2,0-2.2-0.9-2.2-2.2c0-1.3,1-2.2,2.2-2.2c0.6,0,1.1,0.2,1.3,0.6v-0.5h0.3v1.1H91
				c-0.2-0.5-0.6-0.8-1.3-0.8c-1,0-1.8,0.8-1.8,1.9c0,1.1,0.8,1.9,1.8,1.9c0.7,0,1.1-0.3,1.4-0.5v-0.9h-1.3v-0.3h1.7v2.1h-0.4V45.2z
				"/>
			<path d="M92.1,41.3h1.2v0.3h-0.4v3.8h0.4v0.3h-1.2v-0.3h0.4v-3.8h-0.4V41.3z"/>
			<path d="M93.7,43.5c0-1.3,1-2.2,2.2-2.2c1.2,0,2.2,0.9,2.2,2.2c0,1.3-1,2.2-2.2,2.2C94.7,45.8,93.7,44.8,93.7,43.5z M97.7,43.5
				c0-1.1-0.8-1.9-1.8-1.9c-1,0-1.8,0.8-1.8,1.9c0,1.1,0.8,1.9,1.8,1.9C97,45.4,97.7,44.6,97.7,43.5z"/>
			<path d="M102.7,41.6h-0.4v4.1h-0.3l-2.7-3.8v3.5h0.4v0.3h-1.2v-0.3H99v-3.8h-0.4v-0.3h0.8l2.5,3.6v-3.3h-0.4v-0.3h1.2V41.6z"/>
			<path d="M107,45.7h-1.2v-0.3h0.4l-0.3-0.9H104l-0.3,0.9h0.4v0.3h-1.2v-0.3h0.3l1.4-3.8h-0.3v-0.3h1.3v0.3h-0.3l1.4,3.8h0.3V45.7z
				 M104.1,44.2h1.7l-0.9-2.4L104.1,44.2z"/>
			<path d="M107.4,41.3h1.2v0.3h-0.4v3.7h1.7v-0.6h0.3v1h-2.9v-0.3h0.4v-3.8h-0.4V41.3z"/>
			<path d="M111.8,41.3h1.5c1.4,0,2.3,0.9,2.3,2.2c0,1.3-0.8,2.2-2.3,2.2h-1.5v-0.3h0.4v-3.8h-0.4V41.3z M113.2,45.4
				c1.3,0,1.9-0.8,1.9-1.8c0-1.1-0.6-1.8-1.9-1.8h-0.6v3.7H113.2z"/>
			<path d="M116,43.5c0-1.3,1-2.2,2.2-2.2c1.2,0,2.2,0.9,2.2,2.2c0,1.3-1,2.2-2.2,2.2C117,45.8,116,44.8,116,43.5z M120,43.5
				c0-1.1-0.8-1.9-1.8-1.9s-1.8,0.8-1.8,1.9c0,1.1,0.8,1.9,1.8,1.9S120,44.6,120,43.5z"/>
			<path d="M126.2,41.6h-0.4v4.1h-0.3l-2.7-3.8v3.5h0.4v0.3h-1.2v-0.3h0.4v-3.8h-0.4v-0.3h0.8l2.5,3.6v-3.3H125v-0.3h1.2V41.6z"/>
			<path d="M126.6,43.5c0-1.3,1-2.2,2.2-2.2c1.2,0,2.2,0.9,2.2,2.2c0,1.3-1,2.2-2.2,2.2C127.6,45.8,126.6,44.8,126.6,43.5z
				 M130.6,43.5c0-1.1-0.8-1.9-1.8-1.9c-1,0-1.8,0.8-1.8,1.9c0,1.1,0.8,1.9,1.8,1.9C129.8,45.4,130.6,44.6,130.6,43.5z"/>
			<path d="M133.2,43.9h-0.9v1.5h0.4v0.3h-1.3v-0.3h0.4v-3.8h-0.4v-0.3h1.7c0.9,0,1.4,0.6,1.4,1.3c0,0.6-0.3,1-1,1.2l1,1.6h0.4v0.3
				h-0.7L133.2,43.9z M133.1,43.6c0.7,0,1.1-0.4,1.1-0.9c0-0.6-0.3-1-1.1-1h-0.8v1.9H133.1z"/>
			<path d="M138.1,41.7H137v3.7h0.4v0.3h-1.3v-0.3h0.4v-3.7h-1.1v0.6h-0.3v-1h3.3v1h-0.3V41.7z"/>
			<path d="M141.5,41.7h-1.9v1.7h1.7v0.3h-1.7v1.7h2v-0.6h0.3v1h-3.1v-0.3h0.4v-3.8h-0.4v-0.3h3v1h-0.3V41.7z"/>
		</g>
		<path d="M203.4,34.2h23.3v-7.3h-23.3V34.2z M214.8,19.2c5.4-3.9,8.5-13.3,0.7-13.3c6.3,0,10.9,3.8,10.9,9.1V15
			c0,4.3-2.3,6.6-5.6,8.7l-0.3,0.2h-12.8L214.8,19.2z M233.1,9.9c-2.8,2.6-4.6,6.3-4.6,10.5v0.1c0,5.3,2.8,9.8,7,12.3
			c7.5,2.7,15.1-1.1,15.1-8.2c0-1.8-0.5-3.4-1.3-4.7c0,0.2,0,0.3,0,0.5v0.1c0,2.2-1,4.3-2.8,5.4c-6.5,5-15,0.4-15-9.6
			C231.6,14.1,232.1,11.8,233.1,9.9 M258.8,20.4c0,8-6.4,14.3-14.7,14.6c5.6-0.2,9.2-5,9.2-10.3v-0.1c0-5.5-3.7-10.4-9.6-10.4
			c-3.5,0-5.7,3-5.7,6.2v0.1c0,3.3,2.2,6.3,5.7,6.3c-5.8-0.1-9.5-5-9.5-10.4v-0.1c0-5.4,3.7-10.3,9.5-10.3h0.1
			C252.2,5.8,258.8,12.2,258.8,20.4L258.8,20.4z M161.2,10.6c0.6-3.3-2.8-5-6.2-4.3c-3.4,0.8-5.8,2.8-8.2,5.7l6.1,5.2
			c2.3-2.5,3.7-3.5,5.3-3.5c0.6,0,1.1,0.1,1.5,0.3C160.5,12.9,161,11.7,161.2,10.6 M146.9,26.9h23.3v7.3h-23.3V26.9z M151.3,23.9
			h12.8l0.3-0.2c3.3-2.1,5.6-4.5,5.6-8.7V15c0-5.3-4.5-9.1-10.9-9.1c7.8,0,4.7,9.4-0.7,13.3L151.3,23.9z M33.7,16.3
			c0,10,8.5,14.6,15,9.6c1.8-1.1,2.8-3.2,2.8-5.4v-0.1c0-0.2,0-0.3,0-0.5c0.8,1.3,1.3,3,1.3,4.7c0,7.1-7.6,10.8-15.1,8.2
			c-4.3-2.5-7-7.1-7-12.3v-0.1c0-4.1,1.7-7.8,4.6-10.5C34.2,11.8,33.7,14.1,33.7,16.3 M76.7,13.9c2.1,0,3.5,1.1,3.5,2.9
			c2.2-0.7,2.9-2.1,2.9-3.7c0-4.3-4.8-6.7-10.1-6.7l-9.6,0v7.4H76.7z M60.8,20.4c0,8-6.4,14.3-14.7,14.6c5.6-0.2,9.2-5,9.2-10.3
			v-0.1c0-5.5-3.7-10.4-9.6-10.4c-3.5,0-5.7,3-5.7,6.2v0.1c0,3.3,2.2,6.3,5.7,6.3c-5.8-0.1-9.5-5-9.5-10.4v-0.1
			c0-5.4,3.7-10.3,9.5-10.3h0.1C54.3,5.8,60.8,12.2,60.8,20.4L60.8,20.4z M9.6,6.4H0.4l18.5,27.9h9.2L9.6,6.4z M18.9,6.4h9.2v22.5
			l-9.2-13.6V6.4z M0.4,12.1v22.2h9.2v-8.6L0.4,12.1z M85.4,27l5,7.4H79.9l-3.6-5.5c3.1-0.2,6.3-0.6,8.8-1.7
			C85.1,27.1,85.3,27,85.4,27 M84,24.8c3.2-1.5,5.5-4.5,5.5-8.5v-0.1c0-2.9-0.9-4.9-2.5-6.6c-1.8-1.8-4.5-2.9-8.6-3.2
			c-0.4,0-0.8,0-1.2,0l-0.1,0c0.5,0,0.9,0,1.4,0c4.5,0.3,7.3,2.4,7.3,6.5v0.2c0,4.2-3.3,6.6-8.7,6.6h-2.3v6.7
			C74.6,26.4,80.7,26.3,84,24.8 M90.6,6.4h25.6v7.3H90.6V6.4z M118.3,13.8h23.6V6.4h-23.6V13.8z M118.3,27h23.6v7.3h-23.6V27z
			 M63.4,34.3h9.2V16.7h-9.2V34.3z M175.1,16.3c0,10,8.5,14.6,15,9.6c1.8-1.1,2.8-3.2,2.8-5.4v-0.1c0-0.2,0-0.3,0-0.5
			c0.8,1.3,1.3,3,1.3,4.7c0,7.1-7.6,10.8-15.1,8.2c-4.3-2.5-7-7.1-7-12.3v-0.1c0-4.1,1.7-7.8,4.6-10.5
			C175.7,11.8,175.1,14.1,175.1,16.3 M202.3,20.3c0-8.1-6.5-14.5-15.1-14.5h-0.1c-5.8,0-9.5,4.9-9.5,10.3v0.1
			c0,5.4,3.7,10.4,9.5,10.4c-3.5,0-5.7-3-5.7-6.3v-0.1c0-3.3,2.2-6.2,5.7-6.2c5.9,0,9.6,5,9.6,10.4v0.1c0,5.3-3.5,10.1-9.2,10.3
			C195.9,34.7,202.3,28.3,202.3,20.3L202.3,20.3z M108,34.3h-9.2V16.7h9.2V34.3z M118.3,24.1h18.4v-7.3h-18.4V24.1z M216.2,14.1
			c-0.4-0.2-0.9-0.3-1.5-0.3c-1.6,0-3,1-5.3,3.5l-6.1-5.2c2.4-2.9,4.8-4.9,8.2-5.7c3.4-0.6,6.8,1,6.2,4.3
			C217.4,11.7,216.9,12.9,216.2,14.1"/>
	</g>
	<g>
		<g>
			<path d="M356.5,43.8l9.8-8.3c1-0.8,1.8-1.5,2.5-2.2c0.7-0.7,1.2-1.3,1.6-1.9c0.4-0.6,0.7-1.2,0.9-1.7c0.2-0.6,0.3-1.2,0.3-1.8
				c0-1.4-0.4-2.5-1.3-3.3c-0.9-0.8-2-1.2-3.3-1.2c-1.3,0-2.4,0.4-3.4,1.1c-1,0.7-2,1.8-3.1,3.2l-3.5-2.8c0.7-0.9,1.4-1.8,2.1-2.5
				c0.7-0.7,1.5-1.4,2.3-1.9c0.8-0.5,1.7-0.9,2.7-1.2c1-0.3,2.1-0.4,3.4-0.4c1.4,0,2.6,0.2,3.8,0.6c1.1,0.4,2.1,1,3,1.7
				c0.8,0.7,1.5,1.6,1.9,2.7c0.5,1,0.7,2.2,0.7,3.5v0.1c0,1.1-0.1,2.1-0.4,3c-0.3,0.9-0.7,1.8-1.4,2.6c-0.6,0.8-1.4,1.7-2.3,2.5
				c-0.9,0.9-2,1.8-3.3,2.8l-5.8,4.9H377v4.4h-20.5V43.8z"/>
			<path d="M394.1,47.7c-2.2,0-4.2-0.4-6-1.2c-1.8-0.8-3.4-1.8-4.7-3.1c-1.3-1.3-2.3-2.9-3-4.6c-0.7-1.8-1.1-3.7-1.1-5.7V33
				c0-2,0.4-3.9,1.1-5.7c0.7-1.8,1.8-3.3,3.1-4.7c1.3-1.3,2.9-2.4,4.7-3.2c1.8-0.8,3.8-1.2,6-1.2c2.2,0,4.2,0.4,6,1.2
				c1.8,0.8,3.4,1.8,4.7,3.1c1.3,1.3,2.3,2.9,3,4.6c0.7,1.8,1.1,3.7,1.1,5.7V33c0,2-0.4,3.9-1.1,5.7c-0.7,1.8-1.8,3.3-3.1,4.7
				c-1.3,1.3-2.9,2.4-4.7,3.2C398.3,47.3,396.3,47.7,394.1,47.7 M394.2,43.1c1.4,0,2.7-0.3,3.9-0.8c1.2-0.5,2.2-1.2,3-2.1
				c0.8-0.9,1.5-2,2-3.2c0.5-1.2,0.7-2.5,0.7-3.9V33c0-1.4-0.2-2.7-0.7-3.9c-0.5-1.2-1.1-2.3-2-3.2c-0.8-0.9-1.9-1.6-3-2.2
				c-1.2-0.5-2.5-0.8-3.9-0.8c-1.4,0-2.7,0.3-3.9,0.8c-1.2,0.5-2.2,1.2-3,2.2c-0.8,0.9-1.5,2-2,3.2c-0.5,1.2-0.7,2.5-0.7,3.9V33
				c0,1.4,0.2,2.7,0.7,3.9c0.5,1.2,1.1,2.3,2,3.2c0.8,0.9,1.9,1.6,3,2.2C391.5,42.8,392.8,43.1,394.2,43.1"/>
			<path d="M411,43.8l9.8-8.3c1-0.8,1.8-1.5,2.5-2.2c0.7-0.7,1.2-1.3,1.6-1.9c0.4-0.6,0.7-1.2,0.9-1.7c0.2-0.6,0.3-1.2,0.3-1.8
				c0-1.4-0.4-2.5-1.3-3.3c-0.9-0.8-2-1.2-3.3-1.2c-1.3,0-2.4,0.4-3.4,1.1c-1,0.7-2,1.8-3.1,3.2l-3.5-2.8c0.7-0.9,1.4-1.8,2.1-2.5
				c0.7-0.7,1.5-1.4,2.3-1.9c0.8-0.5,1.7-0.9,2.7-1.2c1-0.3,2.1-0.4,3.4-0.4c1.4,0,2.6,0.2,3.8,0.6c1.1,0.4,2.1,1,3,1.7
				c0.8,0.7,1.5,1.6,1.9,2.7c0.5,1,0.7,2.2,0.7,3.5v0.1c0,1.1-0.1,2.1-0.4,3c-0.3,0.9-0.8,1.8-1.4,2.6c-0.6,0.8-1.4,1.7-2.3,2.5
				c-0.9,0.9-2,1.8-3.3,2.8l-5.8,4.9h13.5v4.4H411V43.8z"/>
			<path d="M448.6,47.7c-2.2,0-4.2-0.4-6-1.2c-1.8-0.8-3.4-1.8-4.7-3.1c-1.3-1.3-2.3-2.9-3-4.6c-0.7-1.8-1.1-3.7-1.1-5.7V33
				c0-2,0.4-3.9,1.1-5.7c0.7-1.8,1.8-3.3,3.1-4.7c1.3-1.3,2.9-2.4,4.7-3.2c1.8-0.8,3.8-1.2,6-1.2c2.2,0,4.2,0.4,6,1.2
				c1.8,0.8,3.4,1.8,4.7,3.1c1.3,1.3,2.3,2.9,3,4.6c0.7,1.8,1.1,3.7,1.1,5.7V33c0,2-0.4,3.9-1.1,5.7c-0.7,1.8-1.8,3.3-3.1,4.7
				c-1.3,1.3-2.9,2.4-4.7,3.2C452.8,47.3,450.8,47.7,448.6,47.7 M448.7,43.1c1.4,0,2.7-0.3,3.9-0.8c1.2-0.5,2.2-1.2,3-2.1
				c0.8-0.9,1.5-2,2-3.2c0.5-1.2,0.7-2.5,0.7-3.9V33c0-1.4-0.2-2.7-0.7-3.9c-0.5-1.2-1.1-2.3-2-3.2c-0.9-0.9-1.9-1.6-3-2.2
				c-1.2-0.5-2.5-0.8-3.9-0.8c-1.4,0-2.7,0.3-3.9,0.8c-1.2,0.5-2.2,1.2-3,2.2c-0.8,0.9-1.5,2-2,3.2c-0.5,1.2-0.7,2.5-0.7,3.9V33
				c0,1.4,0.2,2.7,0.7,3.9c0.5,1.2,1.1,2.3,2,3.2c0.8,0.9,1.9,1.6,3,2.2C446,42.8,447.3,43.1,448.7,43.1"/>
		</g>
		<g>
			<path d="M359.6,9.6c-0.1,0-0.3,0-0.5,0v1.7c0.4,0,0.7,0.1,1,0.1v1h-3.6v-1c0.3-0.1,0.7-0.1,1-0.1V5.5c-0.4,0-0.7-0.1-1-0.1v-1
				h0.9c0.4,0,1.4,0,2.2,0c1.9,0,3,0.9,3,2.5C362.7,8.4,361.5,9.6,359.6,9.6z M359.6,5.7c-0.2,0-0.4,0-0.5,0v2.7c0.2,0,0.3,0,0.4,0
				c0.9,0,1.6-0.5,1.6-1.4C361.1,6.2,360.7,5.7,359.6,5.7z M367,12.5c-2.4,0-3.6-1.5-3.6-4c0-2.6,1.8-4.2,3.9-4.2
				c2.1,0,3.6,1.3,3.6,4C370.9,10.9,369.2,12.5,367,12.5z M367.1,5.7c-1.1,0-2.1,0.9-2.1,2.7c0,1.7,0.7,2.8,2.1,2.8
				c1,0,2.1-0.8,2.1-2.7C369.3,6.7,368.5,5.7,367.1,5.7z M376.2,12.4l-1.9-3.3H374v2.2c0.2,0,0.5,0.1,0.7,0.1v1h-3.3v-1
				c0.3-0.1,0.7-0.1,1-0.1V5.5c-0.4,0-0.7-0.1-1-0.1v-1h0.9c0.3,0,1.4,0,2.4,0c1.8,0,2.9,0.6,2.9,2.2c0,1.1-0.8,1.9-1.9,2.2
				c0.1,0.2,0.3,0.4,0.4,0.6l1.2,1.9c0.2,0,0.5,0.1,0.8,0.1v1H376.2z M374.6,5.7c-0.2,0-0.4,0-0.6,0V8c0.1,0,0.3,0,0.5,0
				c0.9,0,1.5-0.5,1.5-1.2C376,6,375.6,5.7,374.6,5.7z M383.6,6.7c-0.1-0.4-0.1-0.7-0.1-1h-1.2v5.6c0.4,0,0.7,0.1,1,0.1v1h-3.6v-1
				c0.3-0.1,0.7-0.1,1-0.1V5.7h-1.2c0,0.3-0.1,0.6-0.1,1h-1.1V4.4h6.5v2.2H383.6z M392.5,5.5v3.8c0,2.1-1.2,3.2-3.3,3.2
				c-2.5,0-3.1-1.4-3.1-2.9V5.5c-0.3,0-0.5-0.1-0.7-0.1v-1h3.1v1c-0.3,0.1-0.6,0.1-0.8,0.1v4c0,1,0.3,1.7,1.6,1.7
				c1.2,0,1.7-0.5,1.7-1.9V5.5c-0.3,0-0.6-0.1-0.8-0.1v-1h3.1v1C393,5.5,392.8,5.5,392.5,5.5z M400.4,9.3V12
				c-0.8,0.3-1.8,0.5-2.7,0.5c-2.5,0-4-1.5-4-3.9c0-2.5,1.7-4.3,4.4-4.3c0.7,0,1.5,0.1,2.2,0.3v2.1h-1.2c-0.1-0.3-0.1-0.6-0.1-1
				c-0.3-0.1-0.7-0.1-1-0.1c-1.5,0-2.7,1-2.7,2.8c0,1.7,0.9,2.7,2.5,2.7c0.4,0,0.7,0,1-0.1V9.3c-0.3,0-0.7-0.1-1-0.2v-1h3.2v1
				C400.9,9.3,400.6,9.3,400.4,9.3z M405.9,12.4v-1c0.2,0,0.6-0.1,0.8-0.1l-0.3-0.9h-2.9l-0.3,0.9c0.3,0,0.6,0.1,0.8,0.1v1h-3v-1
				c0.2-0.1,0.4-0.1,0.6-0.1l2.4-6.9h1.9l2.5,6.9c0.2,0,0.4,0.1,0.6,0.1v1H405.9z M405.4,7.2c-0.2-0.4-0.3-0.8-0.4-1.3h0
				c-0.1,0.4-0.2,0.9-0.4,1.3l-0.7,1.9h2.1L405.4,7.2z M409.4,12.4v-1c0.3-0.1,0.7-0.1,1-0.1V5.5c-0.4,0-0.7-0.1-1-0.1v-1h3.6v1
				c-0.3,0.1-0.7,0.1-1,0.1v5.6h1.5c0-0.3,0.1-0.6,0.1-1h1.1v2.2H409.4z"/>
		</g>
		<g>
			<path d="M332.6,4.7c-7,2.8-11.4,10.1-11.4,21.4v17.1c0,0,1.4-11,11.4-14.2V4.7z"/>
			<path d="M336,30.7c-4.1,0.8-10.1,4.1-11.8,8.7C333,28.7,350.9,39,351.7,19c0.3-6.3,0.3-14.1,0.3-14.1c-9.3,0.5-15.9,3-15.9,3
				V30.7z"/>
			<path d="M334.9,36.4c0,0-9.5,0.8-10.3,6.2c-0.6,4.2,10.3,4.4,10.3,4.4V36.4z"/>
		</g>
	</g>
</g>
</svg>
