<svg id="Camada_1" data-name="Camada 1" xmlns="http://www.w3.org/2000/svg" viewBox="0 0 690.25 45.18"><defs><style>.cls-1{fill:#fff;}</style></defs><path class="cls-1" d="M604.78,3.41H538.25V48.59h66.53Z" transform="translate(-0.37 -3.41)"/><polygon points="569.81 10.09 571.13 9.13 572.44 10.09 571.94 8.53 573.28 7.57 571.63 7.57 571.13 5.99 570.62 7.57 568.97 7.57 570.31 8.53 569.81 10.09"/><polygon points="562.98 11.93 564.3 10.96 565.62 11.93 565.12 10.37 566.45 9.41 564.81 9.41 564.3 7.83 563.8 9.41 562.14 9.41 563.48 10.37 562.98 11.93"/><polygon points="559.31 12.84 558.8 14.41 557.15 14.41 558.49 15.37 557.99 16.93 559.31 15.97 560.63 16.93 560.12 15.37 561.46 14.41 559.81 14.41 559.31 12.84"/><polygon points="557.48 22.79 558.79 23.75 558.29 22.19 559.63 21.23 557.98 21.23 557.48 19.65 556.97 21.23 555.32 21.23 556.66 22.19 556.15 23.75 557.48 22.79"/><polygon points="559.81 28.07 559.31 26.49 558.8 28.07 557.15 28.07 558.49 29.03 557.99 30.58 559.31 29.62 560.63 30.58 560.12 29.03 561.46 28.07 559.81 28.07"/><polygon points="564.82 33.07 564.31 31.5 563.8 33.07 562.15 33.07 563.5 34.03 562.99 35.59 564.31 34.63 565.63 35.59 565.13 34.03 566.47 33.07 564.82 33.07"/><polygon points="571.63 34.88 571.13 33.31 570.62 34.88 568.97 34.88 570.31 35.84 569.81 37.41 571.13 36.45 572.44 37.41 571.94 35.84 573.28 34.88 571.63 34.88"/><polygon points="578.45 33.07 577.95 31.5 577.44 33.07 575.79 33.07 577.13 34.03 576.63 35.59 577.95 34.63 579.26 35.59 578.76 34.03 580.1 33.07 578.45 33.07"/><polygon points="583.45 28.07 582.95 26.49 582.45 28.07 580.79 28.07 582.13 29.03 581.63 30.58 582.95 29.62 584.27 30.58 583.76 29.03 585.11 28.07 583.45 28.07"/><polygon points="586.92 21.21 585.27 21.21 584.76 19.63 584.26 21.21 582.61 21.21 583.95 22.18 583.44 23.73 584.76 22.77 586.09 23.73 585.58 22.18 586.92 21.21"/><polygon points="581.63 16.91 582.95 15.95 584.27 16.91 583.76 15.36 585.11 14.4 583.45 14.4 582.95 12.81 582.45 14.4 580.79 14.4 582.13 15.36 581.63 16.91"/><polygon points="577.97 7.83 577.46 9.41 575.81 9.41 577.15 10.37 576.65 11.93 577.97 10.96 579.28 11.93 578.78 10.37 580.12 9.41 578.47 9.41 577.97 7.83"/><path class="cls-1" d="M611.47,5.61h.61V8.26a3,3,0,0,1-.16,1.1,1.26,1.26,0,0,1-.56.65,2,2,0,0,1-1.07.26,2.15,2.15,0,0,1-1-.22,1.27,1.27,0,0,1-.59-.64,3,3,0,0,1-.17-1.15V5.61h.6V8.26a2.62,2.62,0,0,0,.11.87.84.84,0,0,0,.39.44,1.32,1.32,0,0,0,.66.15,1.27,1.27,0,0,0,1-.3,1.73,1.73,0,0,0,.28-1.16Z" transform="translate(-0.37 -3.41)"/><polygon class="cls-1" points="612.71 6.79 612.71 2.2 613.33 2.2 615.74 5.8 615.74 2.2 616.32 2.2 616.32 6.79 615.7 6.79 613.29 3.19 613.29 6.79 612.71 6.79"/><rect class="cls-1" x="617.44" y="2.2" width="0.61" height="4.58"/><path class="cls-1" d="M619,10.19l1.76-4.58h.65l1.87,4.58h-.68l-.54-1.38h-1.92l-.5,1.38Zm1.1-4.86a.7.7,0,0,1,.18-.52.6.6,0,0,1,.45-.19,1.17,1.17,0,0,1,.53.17.71.71,0,0,0,.29.09.25.25,0,0,0,.16,0,.43.43,0,0,0,.07-.22h.41a.82.82,0,0,1-.18.53.58.58,0,0,1-.43.18,1.2,1.2,0,0,1-.52-.17.77.77,0,0,0-.31-.12.21.21,0,0,0-.17.08.34.34,0,0,0-.07.22Zm.22,3h1.55L621.38,7c-.14-.38-.25-.7-.32-1a5.81,5.81,0,0,1-.25.88Z" transform="translate(-0.37 -3.41)"/><path class="cls-1" d="M623.57,8a2.45,2.45,0,0,1,.62-1.78,2.08,2.08,0,0,1,1.58-.65,2.21,2.21,0,0,1,1.14.3,2.06,2.06,0,0,1,.78.85A2.71,2.71,0,0,1,628,7.91a2.83,2.83,0,0,1-.28,1.25,2,2,0,0,1-.8.83,2.35,2.35,0,0,1-1.12.28,2.16,2.16,0,0,1-1.15-.31,2,2,0,0,1-.77-.86A2.49,2.49,0,0,1,623.57,8m.63,0a1.83,1.83,0,0,0,.44,1.3,1.56,1.56,0,0,0,2.25,0,1.9,1.9,0,0,0,.44-1.36,2.32,2.32,0,0,0-.19-1,1.46,1.46,0,0,0-.55-.65,1.53,1.53,0,0,0-.82-.23,1.5,1.5,0,0,0-1.1.45A2,2,0,0,0,624.2,8" transform="translate(-0.37 -3.41)"/><polygon class="cls-1" points="630.15 6.79 630.15 2.2 633.47 2.2 633.47 2.75 630.76 2.75 630.76 4.15 633.3 4.15 633.3 4.69 630.76 4.69 630.76 6.24 633.57 6.24 633.57 6.79 630.15 6.79"/><path class="cls-1" d="M637.79,5.61h.61V8.26a3,3,0,0,1-.16,1.1,1.26,1.26,0,0,1-.56.65,2,2,0,0,1-1.07.26,2.22,2.22,0,0,1-1.06-.22,1.25,1.25,0,0,1-.58-.64,3,3,0,0,1-.18-1.15V5.61h.61V8.26a2.62,2.62,0,0,0,.11.87.79.79,0,0,0,.38.44,1.38,1.38,0,0,0,.67.15,1.27,1.27,0,0,0,1-.3,1.73,1.73,0,0,0,.28-1.16Z" transform="translate(-0.37 -3.41)"/><path class="cls-1" d="M639.41,10.19V5.61h2a2.52,2.52,0,0,1,.93.13,1,1,0,0,1,.51.43,1.38,1.38,0,0,1,.19.69,1.18,1.18,0,0,1-.32.83,1.59,1.59,0,0,1-1,.42,1.39,1.39,0,0,1,.37.23,3.2,3.2,0,0,1,.5.61l.8,1.24h-.77l-.61-.95c-.17-.28-.32-.48-.43-.63a1.39,1.39,0,0,0-.31-.3.65.65,0,0,0-.28-.13l-.33,0H640v2ZM640,7.63h1.31a2.13,2.13,0,0,0,.64-.08.72.72,0,0,0,.36-.27.79.79,0,0,0,.12-.42.67.67,0,0,0-.23-.53,1.12,1.12,0,0,0-.75-.21H640Z" transform="translate(-0.37 -3.41)"/><path class="cls-1" d="M643.85,8a2.45,2.45,0,0,1,.61-1.78A2.08,2.08,0,0,1,646,5.53a2.21,2.21,0,0,1,1.14.3,2.06,2.06,0,0,1,.78.85,2.71,2.71,0,0,1,.27,1.23A2.83,2.83,0,0,1,648,9.16a2,2,0,0,1-.8.83,2.37,2.37,0,0,1-1.11.28,2.14,2.14,0,0,1-1.16-.31,2,2,0,0,1-.77-.86A2.48,2.48,0,0,1,643.85,8m.62,0a1.79,1.79,0,0,0,.45,1.3,1.43,1.43,0,0,0,1.11.48,1.47,1.47,0,0,0,1.13-.48,2,2,0,0,0,.44-1.36,2.32,2.32,0,0,0-.19-1,1.46,1.46,0,0,0-.55-.65,1.59,1.59,0,0,0-1.93.22A2,2,0,0,0,644.47,8" transform="translate(-0.37 -3.41)"/><path class="cls-1" d="M649,10.19V5.61h1.73a3.13,3.13,0,0,1,.69,0,1.21,1.21,0,0,1,.57.21,1.24,1.24,0,0,1,.37.44,1.46,1.46,0,0,1,.14.63,1.41,1.41,0,0,1-.38,1,1.8,1.8,0,0,1-1.34.4h-1.17v1.86Zm.61-2.4h1.18a1.21,1.21,0,0,0,.83-.22.76.76,0,0,0,.25-.61.92.92,0,0,0-.14-.5.77.77,0,0,0-.39-.27,3.12,3.12,0,0,0-.56,0h-1.17Z" transform="translate(-0.37 -3.41)"/><polygon class="cls-1" points="652.92 6.79 652.92 2.2 656.23 2.2 656.23 2.75 653.52 2.75 653.52 4.15 656.06 4.15 656.06 4.69 653.52 4.69 653.52 6.24 656.34 6.24 656.34 6.79 652.92 6.79"/><rect class="cls-1" x="657.28" y="2.2" width="0.61" height="4.58"/><path class="cls-1" d="M658.82,10.19l1.76-4.58h.66l1.87,4.58h-.69l-.54-1.38H660l-.5,1.38Zm1.32-1.88h1.55L661.22,7c-.15-.38-.26-.7-.33-1a7.19,7.19,0,0,1-.24.88Z" transform="translate(-0.37 -3.41)"/><polygon class="cls-1" points="608.13 29.83 608.13 25.24 611.22 25.24 611.22 25.79 608.73 25.79 608.73 27.2 610.89 27.2 610.89 27.75 608.73 27.75 608.73 29.83 608.13 29.83"/><path class="cls-1" d="M614.48,33.24v-.49a1.23,1.23,0,0,1-1.05.56,1.42,1.42,0,0,1-.55-.11,1,1,0,0,1-.38-.28,1.13,1.13,0,0,1-.17-.42,3.07,3.07,0,0,1,0-.53v-2h.57v1.84a3.71,3.71,0,0,0,0,.59.56.56,0,0,0,.22.35.75.75,0,0,0,.43.12,1,1,0,0,0,.48-.12.77.77,0,0,0,.31-.36,1.78,1.78,0,0,0,.09-.64V29.92H615v3.32Z" transform="translate(-0.37 -3.41)"/><path class="cls-1" d="M615.86,33.24V29.92h.51v.47a1.22,1.22,0,0,1,1.06-.55A1.42,1.42,0,0,1,618,30a.84.84,0,0,1,.37.28,1,1,0,0,1,.18.42,3.28,3.28,0,0,1,0,.55v2H618v-2a1.41,1.41,0,0,0-.07-.52.54.54,0,0,0-.23-.27.81.81,0,0,0-.39-.1.87.87,0,0,0-.62.23,1.08,1.08,0,0,0-.26.86v1.82Z" transform="translate(-0.37 -3.41)"/><path class="cls-1" d="M621.58,33.24v-.42a1,1,0,0,1-.93.49,1.26,1.26,0,0,1-.73-.22,1.49,1.49,0,0,1-.52-.61,2.13,2.13,0,0,1-.18-.9,2.37,2.37,0,0,1,.17-.9,1.35,1.35,0,0,1,.49-.63,1.48,1.48,0,0,1,.74-.21,1.3,1.3,0,0,1,.54.12,1.24,1.24,0,0,1,.38.34V28.65h.56v4.59Zm-1.78-1.66a1.42,1.42,0,0,0,.27,1,.82.82,0,0,0,.63.32.8.8,0,0,0,.63-.3,1.4,1.4,0,0,0,.26-.92,1.58,1.58,0,0,0-.26-1,.81.81,0,0,0-.65-.32.8.8,0,0,0-.63.3,1.52,1.52,0,0,0-.25,1" transform="translate(-0.37 -3.41)"/><path class="cls-1" d="M622.78,31.58a1.72,1.72,0,0,1,.51-1.37,1.51,1.51,0,0,1,1-.37,1.48,1.48,0,0,1,1.12.45,1.7,1.7,0,0,1,.43,1.24,2.34,2.34,0,0,1-.18,1,1.49,1.49,0,0,1-.57.57,1.67,1.67,0,0,1-.8.2,1.47,1.47,0,0,1-1.12-.45,1.74,1.74,0,0,1-.43-1.28m.57,0a1.38,1.38,0,0,0,.28,1,.93.93,0,0,0,1.4,0,1.42,1.42,0,0,0,.28-1,1.33,1.33,0,0,0-.28-.93.88.88,0,0,0-.7-.32.9.9,0,0,0-.7.31,1.39,1.39,0,0,0-.28,1" transform="translate(-0.37 -3.41)"/><path class="cls-1" d="M626.32,32.24l.56-.08a.74.74,0,0,0,.26.51,1.09,1.09,0,0,0,1.17,0,.48.48,0,0,0,.19-.37.34.34,0,0,0-.17-.3,2.07,2.07,0,0,0-.57-.19,5.26,5.26,0,0,1-.86-.27.81.81,0,0,1-.36-.32.77.77,0,0,1-.13-.45,1,1,0,0,1,.1-.41,1,1,0,0,1,.28-.31,1.21,1.21,0,0,1,.36-.16,1.87,1.87,0,0,1,.49-.07,2,2,0,0,1,.68.11.94.94,0,0,1,.44.31,1.27,1.27,0,0,1,.19.51l-.55.08a.61.61,0,0,0-.22-.4.75.75,0,0,0-.5-.15,1,1,0,0,0-.56.13.38.38,0,0,0-.16.3.34.34,0,0,0,.06.2.53.53,0,0,0,.22.15l.5.14c.39.11.68.2.83.26a.85.85,0,0,1,.37.3.82.82,0,0,1,.13.48.94.94,0,0,1-.16.53,1.14,1.14,0,0,1-.47.39,1.94,1.94,0,0,1-.7.13,1.58,1.58,0,0,1-1-.27,1.25,1.25,0,0,1-.43-.8" transform="translate(-0.37 -3.41)"/><polygon class="cls-1" points="631.24 29.83 631.24 25.24 634.55 25.24 634.55 25.79 631.84 25.79 631.84 27.19 634.38 27.19 634.38 27.72 631.84 27.72 631.84 29.29 634.65 29.29 634.65 29.83 631.24 29.83"/><path class="cls-1" d="M638,33.24v-.49a1.23,1.23,0,0,1-1.05.56,1.38,1.38,0,0,1-.55-.11,1,1,0,0,1-.38-.28,1.33,1.33,0,0,1-.18-.42,3.33,3.33,0,0,1,0-.53v-2h.56v1.84a3.71,3.71,0,0,0,0,.59.57.57,0,0,0,.23.35.75.75,0,0,0,.43.12,1,1,0,0,0,.47-.12.79.79,0,0,0,.32-.36,1.78,1.78,0,0,0,.09-.64V29.92h.56v3.32Z" transform="translate(-0.37 -3.41)"/><path class="cls-1" d="M639.35,33.24V29.92h.5v.5a1.52,1.52,0,0,1,.36-.47.66.66,0,0,1,.36-.11,1.22,1.22,0,0,1,.58.18l-.2.52a.78.78,0,0,0-.41-.12.57.57,0,0,0-.33.11.62.62,0,0,0-.21.31,2.29,2.29,0,0,0-.09.66v1.74Z" transform="translate(-0.37 -3.41)"/><path class="cls-1" d="M641.27,31.58a1.69,1.69,0,0,1,.52-1.37,1.51,1.51,0,0,1,1-.37,1.48,1.48,0,0,1,1.12.45,1.7,1.7,0,0,1,.43,1.24,2.19,2.19,0,0,1-.19,1,1.4,1.4,0,0,1-.56.57,1.67,1.67,0,0,1-.8.2,1.49,1.49,0,0,1-1.13-.45,1.78,1.78,0,0,1-.43-1.28m.58,0a1.44,1.44,0,0,0,.28,1,.89.89,0,0,0,.7.32.91.91,0,0,0,.7-.32,1.48,1.48,0,0,0,.27-1,1.38,1.38,0,0,0-.27-.93.94.94,0,0,0-1.4,0,1.45,1.45,0,0,0-.28,1" transform="translate(-0.37 -3.41)"/><path class="cls-1" d="M645,34.51V29.92h.52v.43A1.11,1.11,0,0,1,646,30a1.22,1.22,0,0,1,.56-.13,1.37,1.37,0,0,1,.75.22,1.39,1.39,0,0,1,.49.62,2.44,2.44,0,0,1,0,1.79,1.35,1.35,0,0,1-.53.62,1.32,1.32,0,0,1-.73.22,1.07,1.07,0,0,1-.51-.12,1.22,1.22,0,0,1-.37-.3v1.62Zm.51-2.92a1.46,1.46,0,0,0,.26.95.78.78,0,0,0,.63.31.8.8,0,0,0,.64-.32,1.89,1.89,0,0,0,0-1.93.76.76,0,0,0-.63-.32.79.79,0,0,0-.63.34,1.51,1.51,0,0,0-.28,1" transform="translate(-0.37 -3.41)"/><path class="cls-1" d="M650.87,32.17l.58.07a1.31,1.31,0,0,1-.5.79,1.53,1.53,0,0,1-1,.28,1.51,1.51,0,0,1-1.16-.45,1.78,1.78,0,0,1-.42-1.26,1.84,1.84,0,0,1,.43-1.3,1.48,1.48,0,0,1,1.12-.46,1.39,1.39,0,0,1,1.08.46,1.79,1.79,0,0,1,.43,1.27s0,.08,0,.15H649a1.28,1.28,0,0,0,.31.84.91.91,0,0,0,.69.29.86.86,0,0,0,.53-.17,1,1,0,0,0,.34-.51M649,31.26h1.85a1.11,1.11,0,0,0-.21-.63.87.87,0,0,0-.7-.33.91.91,0,0,0-.65.26,1,1,0,0,0-.29.7" transform="translate(-0.37 -3.41)"/><path class="cls-1" d="M654.33,33.24v-.49a1.2,1.2,0,0,1-1.05.56,1.5,1.5,0,0,1-.55-.11,1.14,1.14,0,0,1-.38-.28,1.32,1.32,0,0,1-.17-.42,3.33,3.33,0,0,1,0-.53v-2h.56v1.84a2.58,2.58,0,0,0,0,.59.56.56,0,0,0,.22.35.75.75,0,0,0,.43.12,1,1,0,0,0,.47-.12.79.79,0,0,0,.32-.36,1.78,1.78,0,0,0,.09-.64V29.92h.56v3.32Z" transform="translate(-0.37 -3.41)"/><path class="cls-1" d="M655.5,32.24l.55-.08a.75.75,0,0,0,.27.51.89.89,0,0,0,.59.18.93.93,0,0,0,.58-.16.47.47,0,0,0,.18-.37.33.33,0,0,0-.16-.3,2.19,2.19,0,0,0-.58-.19,5.4,5.4,0,0,1-.85-.27.81.81,0,0,1-.49-.77.86.86,0,0,1,.1-.41,1,1,0,0,1,.28-.31,1.1,1.1,0,0,1,.36-.16,1.87,1.87,0,0,1,.49-.07,2.06,2.06,0,0,1,.68.11.91.91,0,0,1,.43.31,1.14,1.14,0,0,1,.2.51l-.55.08a.61.61,0,0,0-.22-.4.78.78,0,0,0-.51-.15.94.94,0,0,0-.55.13.39.39,0,0,0-.17.3.35.35,0,0,0,.07.2.53.53,0,0,0,.22.15l.5.14c.39.11.67.2.83.26a.85.85,0,0,1,.37.3.82.82,0,0,1,.13.48.94.94,0,0,1-.16.53,1.11,1.11,0,0,1-.48.39,1.84,1.84,0,0,1-.69.13,1.56,1.56,0,0,1-1-.27,1.21,1.21,0,0,1-.43-.8" transform="translate(-0.37 -3.41)"/><polygon class="cls-1" points="608.11 37.51 608.11 32.93 611.42 32.93 611.42 33.47 608.71 33.47 608.71 34.87 611.25 34.87 611.25 35.41 608.71 35.41 608.71 36.97 611.53 36.97 611.53 37.51 608.11 37.51"/><path class="cls-1" d="M612.44,39.92l.56-.08a.74.74,0,0,0,.26.51.89.89,0,0,0,.59.18.86.86,0,0,0,.58-.16.47.47,0,0,0,.19-.37.34.34,0,0,0-.17-.3,2.51,2.51,0,0,0-.57-.19,4.66,4.66,0,0,1-.86-.27.86.86,0,0,1-.49-.76.92.92,0,0,1,.1-.41,1,1,0,0,1,.28-.32,1.61,1.61,0,0,1,.85-.23,1.79,1.79,0,0,1,.68.12.91.91,0,0,1,.44.3,1.18,1.18,0,0,1,.19.51l-.55.08a.59.59,0,0,0-.22-.4.75.75,0,0,0-.5-.15,1,1,0,0,0-.56.13.38.38,0,0,0-.16.31.28.28,0,0,0,.07.19.44.44,0,0,0,.21.15l.5.14a6.17,6.17,0,0,1,.83.27.77.77,0,0,1,.37.29.83.83,0,0,1,.14.48.93.93,0,0,1-.17.53,1,1,0,0,1-.47.38,1.59,1.59,0,0,1-.7.14,1.58,1.58,0,0,1-1-.27,1.25,1.25,0,0,1-.43-.8" transform="translate(-0.37 -3.41)"/><path class="cls-1" d="M617.09,40.41l.08.5a2.18,2.18,0,0,1-.42.05.93.93,0,0,1-.48-.1.5.5,0,0,1-.23-.25A1.91,1.91,0,0,1,616,40V38h-.41V37.6H616v-.82l.56-.35V37.6h.56V38h-.56V40a1.08,1.08,0,0,0,0,.32.19.19,0,0,0,.1.1.32.32,0,0,0,.19,0l.24,0" transform="translate(-0.37 -3.41)"/><path class="cls-1" d="M617.64,40.92V37.6h.5v.5a1.35,1.35,0,0,1,.36-.46.6.6,0,0,1,.36-.12,1.12,1.12,0,0,1,.58.18l-.2.53a.7.7,0,0,0-.41-.12.51.51,0,0,0-.33.11.61.61,0,0,0-.21.3,2.29,2.29,0,0,0-.09.66v1.74Z" transform="translate(-0.37 -3.41)"/><path class="cls-1" d="M622,40.92v-.49a1.23,1.23,0,0,1-1.05.56,1.42,1.42,0,0,1-.55-.11,1,1,0,0,1-.38-.28,1.13,1.13,0,0,1-.17-.42,2.25,2.25,0,0,1,0-.53v-2h.57v1.84a3.71,3.71,0,0,0,0,.59.56.56,0,0,0,.22.35.75.75,0,0,0,.43.13,1,1,0,0,0,.47-.13.77.77,0,0,0,.32-.35,1.84,1.84,0,0,0,.09-.65V37.6h.56v3.32Z" transform="translate(-0.37 -3.41)"/><path class="cls-1" d="M624.56,40.41l.08.5a2.37,2.37,0,0,1-.42.05.93.93,0,0,1-.48-.1.5.5,0,0,1-.23-.25,1.91,1.91,0,0,1-.07-.66V38H623V37.6h.41v-.82l.56-.35V37.6h.56V38H624V40a.81.81,0,0,0,0,.32.19.19,0,0,0,.1.1.32.32,0,0,0,.19,0l.24,0" transform="translate(-0.37 -3.41)"/><path class="cls-1" d="M627.29,40.92v-.49a1.23,1.23,0,0,1-1,.56,1.42,1.42,0,0,1-.55-.11,1,1,0,0,1-.38-.28,1.13,1.13,0,0,1-.17-.42,2.25,2.25,0,0,1,0-.53v-2h.56v1.84a2.58,2.58,0,0,0,0,.59.56.56,0,0,0,.22.35.73.73,0,0,0,.43.13,1,1,0,0,0,.47-.13.82.82,0,0,0,.32-.35,1.84,1.84,0,0,0,.09-.65V37.6h.56v3.32Z" transform="translate(-0.37 -3.41)"/><path class="cls-1" d="M628.67,40.92V37.6h.5v.5a1.35,1.35,0,0,1,.36-.46.6.6,0,0,1,.36-.12,1.12,1.12,0,0,1,.58.18l-.19.53a.75.75,0,0,0-.42-.12.51.51,0,0,0-.33.11.55.55,0,0,0-.21.3,2.29,2.29,0,0,0-.09.66v1.74Z" transform="translate(-0.37 -3.41)"/><path class="cls-1" d="M633,40.51a2.22,2.22,0,0,1-.6.37,1.8,1.8,0,0,1-.62.11,1.18,1.18,0,0,1-.84-.27.87.87,0,0,1-.3-.68.91.91,0,0,1,.4-.77,1.5,1.5,0,0,1,.41-.18,4.31,4.31,0,0,1,.5-.09,5.06,5.06,0,0,0,1-.19,1.06,1.06,0,0,0,0-.15.63.63,0,0,0-.16-.48.94.94,0,0,0-.64-.19,1.12,1.12,0,0,0-.59.13,1,1,0,0,0-.28.5l-.55-.08A1.36,1.36,0,0,1,631,38a1.1,1.1,0,0,1,.5-.33,2.11,2.11,0,0,1,.75-.12,1.94,1.94,0,0,1,.69.1,1,1,0,0,1,.39.26.79.79,0,0,1,.17.38,2.94,2.94,0,0,1,0,.52v.75a6.64,6.64,0,0,0,0,1,1.19,1.19,0,0,0,.14.4h-.59a1.3,1.3,0,0,1-.11-.41m-.05-1.26a4.38,4.38,0,0,1-.92.21,2.85,2.85,0,0,0-.49.11.59.59,0,0,0-.22.19.5.5,0,0,0-.08.27.5.5,0,0,0,.17.37.75.75,0,0,0,.5.15,1.21,1.21,0,0,0,.58-.14.87.87,0,0,0,.37-.39,1.39,1.39,0,0,0,.09-.56Z" transform="translate(-0.37 -3.41)"/><path class="cls-1" d="M634.37,36.33h.56V37h-.56Zm0,1.27h.56v3.32h-.56Z" transform="translate(-0.37 -3.41)"/><path class="cls-1" d="M635.56,39.92l.56-.08a.79.79,0,0,0,.26.51.9.9,0,0,0,.6.18.83.83,0,0,0,.57-.16.5.5,0,0,0,.19-.37.34.34,0,0,0-.17-.3,2.51,2.51,0,0,0-.57-.19,4.66,4.66,0,0,1-.86-.27.75.75,0,0,1-.36-.32.84.84,0,0,1-.13-.44.92.92,0,0,1,.1-.41,1.24,1.24,0,0,1,.28-.32,1.61,1.61,0,0,1,.85-.23,1.79,1.79,0,0,1,.68.12.86.86,0,0,1,.44.3,1.33,1.33,0,0,1,.19.51l-.55.08a.63.63,0,0,0-.21-.4.79.79,0,0,0-.51-.15,1,1,0,0,0-.56.13.38.38,0,0,0-.16.31.28.28,0,0,0,.07.19.44.44,0,0,0,.21.15l.5.14a6.17,6.17,0,0,1,.83.27.77.77,0,0,1,.37.29.75.75,0,0,1,.13.48.92.92,0,0,1-.16.53,1,1,0,0,1-.47.38,1.59,1.59,0,0,1-.7.14,1.58,1.58,0,0,1-1-.27,1.25,1.25,0,0,1-.43-.8" transform="translate(-0.37 -3.41)"/><path class="cls-1" d="M643,39.85l.59.07a1.46,1.46,0,0,1-.51.79,1.73,1.73,0,0,1-2.11-.17,1.76,1.76,0,0,1-.42-1.26A1.82,1.82,0,0,1,641,38a1.44,1.44,0,0,1,1.12-.46,1.41,1.41,0,0,1,1.08.45,1.83,1.83,0,0,1,.43,1.28s0,.08,0,.15h-2.47a1.24,1.24,0,0,0,.31.84.91.91,0,0,0,.69.29.86.86,0,0,0,.53-.16,1.12,1.12,0,0,0,.34-.52m-1.84-.91H643a1.14,1.14,0,0,0-.21-.63.86.86,0,0,0-.7-.33.92.92,0,0,0-.65.26,1.09,1.09,0,0,0-.29.7" transform="translate(-0.37 -3.41)"/><path class="cls-1" d="M648.26,40.92V40.5a1,1,0,0,1-.93.49,1.26,1.26,0,0,1-.73-.22,1.49,1.49,0,0,1-.52-.61,2.13,2.13,0,0,1-.18-.9,2.37,2.37,0,0,1,.17-.9,1.18,1.18,0,0,1,.49-.62,1.37,1.37,0,0,1,.74-.22,1.08,1.08,0,0,1,.54.13,1.1,1.1,0,0,1,.38.33V36.33h.56v4.59Zm-1.78-1.66a1.44,1.44,0,0,0,.27,1,.8.8,0,0,0,1.26,0,1.4,1.4,0,0,0,.25-.92,1.63,1.63,0,0,0-.26-1,.81.81,0,0,0-1.27,0,1.52,1.52,0,0,0-.25,1" transform="translate(-0.37 -3.41)"/><path class="cls-1" d="M651.93,39.85l.58.07a1.41,1.41,0,0,1-.51.79,1.49,1.49,0,0,1-1,.28,1.51,1.51,0,0,1-1.15-.45,1.76,1.76,0,0,1-.43-1.26,1.87,1.87,0,0,1,.43-1.3,1.48,1.48,0,0,1,1.13-.46,1.41,1.41,0,0,1,1.08.45,1.83,1.83,0,0,1,.43,1.28s0,.08,0,.15h-2.47a1.28,1.28,0,0,0,.3.84,1,1,0,0,0,.7.29.86.86,0,0,0,.53-.16,1.12,1.12,0,0,0,.34-.52m-1.84-.91h1.85a1.14,1.14,0,0,0-.21-.63A.87.87,0,0,0,651,38a.91.91,0,0,0-.65.26,1,1,0,0,0-.29.7" transform="translate(-0.37 -3.41)"/><rect class="cls-1" x="654.8" y="32.93" width="0.6" height="4.58"/><path class="cls-1" d="M656.78,40.92V37.6h.51v.47a1.17,1.17,0,0,1,1.05-.55,1.42,1.42,0,0,1,.55.11.86.86,0,0,1,.38.28,1.13,1.13,0,0,1,.17.42,2.24,2.24,0,0,1,0,.54v2.05h-.57v-2a1.6,1.6,0,0,0-.06-.51.55.55,0,0,0-.24-.28.71.71,0,0,0-.39-.1.87.87,0,0,0-.62.23,1.09,1.09,0,0,0-.26.86v1.82Z" transform="translate(-0.37 -3.41)"/><path class="cls-1" d="M661.26,40.92,660,37.6h.59l.71,2c.08.21.15.43.22.66.05-.17.11-.38.2-.63l.74-2H663l-1.26,3.32Z" transform="translate(-0.37 -3.41)"/><path class="cls-1" d="M665.81,39.85l.58.07a1.41,1.41,0,0,1-.51.79,1.72,1.72,0,0,1-2.1-.17,1.76,1.76,0,0,1-.43-1.26,1.87,1.87,0,0,1,.43-1.3,1.46,1.46,0,0,1,1.12-.46A1.43,1.43,0,0,1,666,38a1.83,1.83,0,0,1,.42,1.28v.15h-2.48a1.29,1.29,0,0,0,.31.84.93.93,0,0,0,.7.29.83.83,0,0,0,.52-.16,1.14,1.14,0,0,0,.35-.52M664,38.94h1.86a1.23,1.23,0,0,0-.21-.63.88.88,0,0,0-.71-.33.92.92,0,0,0-.65.26,1.09,1.09,0,0,0-.29.7" transform="translate(-0.37 -3.41)"/><path class="cls-1" d="M666.87,39.92l.56-.08a.79.79,0,0,0,.26.51.9.9,0,0,0,.6.18.83.83,0,0,0,.57-.16.47.47,0,0,0,.19-.37.34.34,0,0,0-.17-.3,2.33,2.33,0,0,0-.57-.19,4.5,4.5,0,0,1-.85-.27.73.73,0,0,1-.37-.32.83.83,0,0,1-.12-.44.8.8,0,0,1,.1-.41,1,1,0,0,1,.27-.32,1.61,1.61,0,0,1,.85-.23,1.76,1.76,0,0,1,.68.12.91.91,0,0,1,.44.3,1.18,1.18,0,0,1,.19.51l-.55.08a.58.58,0,0,0-.21-.4.78.78,0,0,0-.51-.15,1,1,0,0,0-.56.13.38.38,0,0,0-.16.31.28.28,0,0,0,.07.19.49.49,0,0,0,.21.15l.5.14a7,7,0,0,1,.84.27.79.79,0,0,1,.36.29.83.83,0,0,1,.14.48.86.86,0,0,1-.17.53,1,1,0,0,1-.47.38,1.59,1.59,0,0,1-.7.14,1.58,1.58,0,0,1-1-.27,1.3,1.3,0,0,1-.43-.8" transform="translate(-0.37 -3.41)"/><path class="cls-1" d="M671.53,40.41l.07.5a2.18,2.18,0,0,1-.42.05.89.89,0,0,1-.47-.1.48.48,0,0,1-.24-.25,1.91,1.91,0,0,1-.07-.66V38H670V37.6h.41v-.82l.56-.35V37.6h.57V38H671V40a1.08,1.08,0,0,0,0,.32.22.22,0,0,0,.09.1.4.4,0,0,0,.2,0l.25,0" transform="translate(-0.37 -3.41)"/><path class="cls-1" d="M672.08,36.33h.56V37h-.56Zm0,1.27h.56v3.32h-.56Z" transform="translate(-0.37 -3.41)"/><path class="cls-1" d="M673.5,40.92V37.6h.5v.47a1.08,1.08,0,0,1,.42-.4,1.15,1.15,0,0,1,.59-.15,1.09,1.09,0,0,1,.6.15.88.88,0,0,1,.34.44,1.19,1.19,0,0,1,1-.59,1,1,0,0,1,.76.27,1.19,1.19,0,0,1,.27.85v2.28h-.56v-2.1a1.4,1.4,0,0,0-.06-.48.47.47,0,0,0-.2-.24.6.6,0,0,0-.33-.09.78.78,0,0,0-.59.23A1.07,1.07,0,0,0,676,39v1.93h-.56V38.76a.94.94,0,0,0-.14-.56.53.53,0,0,0-.45-.19.73.73,0,0,0-.43.13.67.67,0,0,0-.3.36,2.05,2.05,0,0,0-.09.69v1.73Z" transform="translate(-0.37 -3.41)"/><path class="cls-1" d="M681.1,39.85l.58.07a1.41,1.41,0,0,1-.51.79,1.72,1.72,0,0,1-2.1-.17,1.72,1.72,0,0,1-.43-1.26,1.87,1.87,0,0,1,.43-1.3,1.46,1.46,0,0,1,1.12-.46,1.42,1.42,0,0,1,1.09.45,1.83,1.83,0,0,1,.42,1.28v.15h-2.48a1.34,1.34,0,0,0,.31.84.94.94,0,0,0,.69.29.84.84,0,0,0,.53-.16,1.14,1.14,0,0,0,.35-.52m-1.85-.91h1.86a1.23,1.23,0,0,0-.21-.63.87.87,0,0,0-.7-.33.89.89,0,0,0-.65.26,1,1,0,0,0-.3.7" transform="translate(-0.37 -3.41)"/><path class="cls-1" d="M682.39,40.92V37.6h.5v.47a1.2,1.2,0,0,1,1.06-.55,1.38,1.38,0,0,1,.55.11.81.81,0,0,1,.38.28,1.33,1.33,0,0,1,.18.42,3.22,3.22,0,0,1,0,.54v2.05h-.57v-2a1.6,1.6,0,0,0-.06-.51.58.58,0,0,0-.23-.28.74.74,0,0,0-.4-.1.89.89,0,0,0-.62.23,1.13,1.13,0,0,0-.26.86v1.82Z" transform="translate(-0.37 -3.41)"/><path class="cls-1" d="M687.18,40.41l.08.5a2.37,2.37,0,0,1-.43.05.89.89,0,0,1-.47-.1.58.58,0,0,1-.24-.25,1.91,1.91,0,0,1-.07-.66V38h-.41V37.6h.41v-.82l.56-.35V37.6h.57V38h-.57V40a1.08,1.08,0,0,0,0,.32.19.19,0,0,0,.1.1.34.34,0,0,0,.19,0l.25,0" transform="translate(-0.37 -3.41)"/><path class="cls-1" d="M687.52,39.26a1.72,1.72,0,0,1,.51-1.37,1.56,1.56,0,0,1,1.05-.37,1.48,1.48,0,0,1,1.11.45,1.71,1.71,0,0,1,.44,1.24,2.36,2.36,0,0,1-.19,1,1.46,1.46,0,0,1-.56.57,1.72,1.72,0,0,1-.8.2,1.49,1.49,0,0,1-1.13-.45,1.74,1.74,0,0,1-.43-1.28m.58,0a1.44,1.44,0,0,0,.27,1,.91.91,0,0,0,.71.32.9.9,0,0,0,.69-.32,1.42,1.42,0,0,0,.28-1,1.39,1.39,0,0,0-.28-.94.89.89,0,0,0-.69-.31.9.9,0,0,0-.71.31,1.47,1.47,0,0,0-.27,1" transform="translate(-0.37 -3.41)"/><path class="cls-1" d="M.37,41.34H2A1.32,1.32,0,1,1,2,44H1.18V45.4h.45v.31H.37V45.4H.76V41.64H.37ZM2,43.63a1,1,0,1,0,0-2H1.18v2Z" transform="translate(-0.37 -3.41)"/><path class="cls-1" d="M5.51,43.91h-1V45.4H5v.31H3.75V45.4h.39V41.64H3.75v-.3H5.43a1.29,1.29,0,0,1,1.45,1.3,1.16,1.16,0,0,1-1,1.2l1,1.56h.4v.31H6.62Zm-.13-.33c.74,0,1.07-.37,1.07-.95s-.34-1-1.07-1H4.56v1.91Z" transform="translate(-0.37 -3.41)"/><path class="cls-1" d="M7.5,43.52a2.23,2.23,0,1,1,2.22,2.24A2.19,2.19,0,0,1,7.5,43.52Zm4,0a1.79,1.79,0,1,0-1.79,1.87A1.79,1.79,0,0,0,11.51,43.52Z" transform="translate(-0.37 -3.41)"/><path class="cls-1" d="M16.06,45.22a1.9,1.9,0,0,1-1.41.54,2.14,2.14,0,0,1-2.2-2.24,2.18,2.18,0,0,1,2.18-2.23,1.55,1.55,0,0,1,1.32.55v-.5h.34v1.12H16a1.21,1.21,0,0,0-1.31-.8,1.76,1.76,0,0,0-1.77,1.86,1.78,1.78,0,0,0,1.79,1.87A1.8,1.8,0,0,0,16,44.86V44H14.73v-.34h1.71v2.1h-.38Z" transform="translate(-0.37 -3.41)"/><path class="cls-1" d="M18.81,43.91h-.95V45.4h.44v.31H17.05V45.4h.39V41.64h-.39v-.3h1.68a1.29,1.29,0,0,1,1.45,1.3,1.17,1.17,0,0,1-.95,1.2l1,1.56h.4v.31h-.68Zm-.14-.33c.74,0,1.07-.37,1.07-.95s-.33-1-1.07-1h-.81v1.91Z" transform="translate(-0.37 -3.41)"/><path class="cls-1" d="M25,45.71H23.81V45.4h.42l-.31-.87H22l-.32.87h.42v.31H20.92V45.4h.33l1.36-3.76H22.3v-.3h1.32v.3h-.31l1.35,3.76H25Zm-2.91-1.53H23.8L23,41.74Z" transform="translate(-0.37 -3.41)"/><path class="cls-1" d="M30.2,45.71H29V45.4h.44V42l-1.54,2.39h-.17L26.15,42V45.4h.45v.31H25.39V45.4h.39V41.64h-.4v-.3h.82l1.59,2.48,1.58-2.48h.84v.3h-.4V45.4h.39Z" transform="translate(-0.37 -3.41)"/><path class="cls-1" d="M34.67,45.71H33.48V45.4h.42l-.31-.87h-2l-.32.87h.42v.31H30.59V45.4h.33l1.36-3.76H32v-.3h1.32v.3H33l1.36,3.76h.34Zm-2.91-1.53h1.71l-.85-2.44Z" transform="translate(-0.37 -3.41)"/><path class="cls-1" d="M36.13,43.52a2.23,2.23,0,1,1,2.22,2.24A2.19,2.19,0,0,1,36.13,43.52Zm4,0a1.79,1.79,0,1,0-1.79,1.87A1.79,1.79,0,0,0,40.14,43.52Z" transform="translate(-0.37 -3.41)"/><path class="cls-1" d="M41,41.34h1.66a1.32,1.32,0,1,1,0,2.62h-.85V45.4h.44v.31H41V45.4h.39V41.64H41Zm1.62,2.29a1,1,0,1,0,0-2h-.81v2Z" transform="translate(-0.37 -3.41)"/><path class="cls-1" d="M47.05,41.68H45.19v1.66h1.74v.34H45.19v1.68h2v-.6h.33v1H44.38V45.4h.38V41.64h-.38v-.3h3v.95h-.34Z" transform="translate(-0.37 -3.41)"/><path class="cls-1" d="M49.74,43.91h-1V45.4h.44v.31H48V45.4h.39V41.64H48v-.3h1.68a1.29,1.29,0,0,1,1.45,1.3,1.17,1.17,0,0,1-1,1.2l1,1.56h.4v.31h-.68Zm-.14-.33c.74,0,1.07-.37,1.07-.95s-.33-1-1.07-1h-.81v1.91Z" transform="translate(-0.37 -3.41)"/><path class="cls-1" d="M55.93,45.71H54.74V45.4h.42l-.31-.87h-2l-.32.87H53v.31H51.85V45.4h.33l1.36-3.76h-.31v-.3h1.32v.3h-.32l1.36,3.76h.34ZM53,44.18h1.71l-.85-2.44Z" transform="translate(-0.37 -3.41)"/><path class="cls-1" d="M58.16,41.28a1.54,1.54,0,0,1,1.35.6v-.54h.35v1.22h-.31a1.28,1.28,0,0,0-1.36-.91,1.87,1.87,0,1,0,1.49,3l.32.23a2.14,2.14,0,0,1-1.81.88,2.24,2.24,0,0,1,0-4.48Z" transform="translate(-0.37 -3.41)"/><path class="cls-1" d="M60.4,41.34h1.19v.3H61.2V45.4h.39v.31H60.4V45.4h.39V41.64H60.4Z" transform="translate(-0.37 -3.41)"/><path class="cls-1" d="M62,43.52a2.23,2.23,0,1,1,2.22,2.24A2.19,2.19,0,0,1,62,43.52Zm4,0a1.8,1.8,0,1,0-1.8,1.87A1.79,1.79,0,0,0,66,43.52Z" transform="translate(-0.37 -3.41)"/><path class="cls-1" d="M71,41.64h-.39v4.07h-.27l-2.7-3.77V45.4h.43v.31h-1.2V45.4h.39V41.64h-.39v-.3h.81l2.55,3.56V41.64h-.44v-.3H71Z" transform="translate(-0.37 -3.41)"/><path class="cls-1" d="M75.26,45.71H74.07V45.4h.42l-.31-.87h-2l-.32.87h.42v.31H71.18V45.4h.33l1.36-3.76h-.31v-.3h1.32v.3h-.32l1.36,3.76h.34Zm-2.91-1.53h1.71l-.85-2.44Z" transform="translate(-0.37 -3.41)"/><path class="cls-1" d="M75.64,41.34h1.2v.3h-.39v3.72h1.71v-.6h.34v1H75.64V45.4H76V41.64h-.39Z" transform="translate(-0.37 -3.41)"/><path class="cls-1" d="M81.78,43.91h-1V45.4h.45v.31H80V45.4h.39V41.64H80v-.3h1.69a1.29,1.29,0,0,1,1.44,1.3,1.16,1.16,0,0,1-1,1.2l1,1.56h.4v.31h-.68Zm-.13-.33c.74,0,1.07-.37,1.07-.95s-.34-1-1.07-1h-.82v1.91Z" transform="translate(-0.37 -3.41)"/><path class="cls-1" d="M86.64,41.68H84.78v1.66h1.74v.34H84.78v1.68h2v-.6h.33v1H84V45.4h.39V41.64H84v-.3h3v.95h-.33Z" transform="translate(-0.37 -3.41)"/><path class="cls-1" d="M91.14,45.22a1.91,1.91,0,0,1-1.42.54,2.14,2.14,0,0,1-2.19-2.24,2.18,2.18,0,0,1,2.18-2.23,1.52,1.52,0,0,1,1.31.55v-.5h.35v1.12H91a1.19,1.19,0,0,0-1.3-.8,1.87,1.87,0,1,0,1.38,3.2V44h-1.3v-.34h1.7v2.1h-.38Z" transform="translate(-0.37 -3.41)"/><path class="cls-1" d="M92.13,41.34h1.19v.3h-.39V45.4h.39v.31H92.13V45.4h.39V41.64h-.39Z" transform="translate(-0.37 -3.41)"/><path class="cls-1" d="M93.73,43.52A2.23,2.23,0,1,1,96,45.76,2.19,2.19,0,0,1,93.73,43.52Zm4,0A1.8,1.8,0,1,0,96,45.39,1.79,1.79,0,0,0,97.75,43.52Z" transform="translate(-0.37 -3.41)"/><path class="cls-1" d="M102.73,41.64h-.39v4.07h-.27l-2.69-3.77V45.4h.42v.31H98.6V45.4H99V41.64H98.6v-.3h.81L102,44.9V41.64h-.44v-.3h1.21Z" transform="translate(-0.37 -3.41)"/><path class="cls-1" d="M107,45.71H105.8V45.4h.42l-.31-.87h-2l-.32.87h.42v.31h-1.15V45.4h.33l1.36-3.76h-.31v-.3h1.32v.3h-.32l1.36,3.76H107Zm-2.91-1.53h1.71l-.85-2.44Z" transform="translate(-0.37 -3.41)"/><path class="cls-1" d="M107.37,41.34h1.2v.3h-.39v3.72h1.71v-.6h.35v1h-2.87V45.4h.39V41.64h-.39Z" transform="translate(-0.37 -3.41)"/><path class="cls-1" d="M111.75,41.34h1.48a2.19,2.19,0,1,1,0,4.37h-1.48V45.4h.39V41.64h-.39Zm1.44,4a1.84,1.84,0,1,0,0-3.68h-.63v3.68Z" transform="translate(-0.37 -3.41)"/><path class="cls-1" d="M116,43.52a2.23,2.23,0,1,1,2.23,2.24A2.19,2.19,0,0,1,116,43.52Zm4,0a1.79,1.79,0,1,0-1.79,1.87A1.79,1.79,0,0,0,120,43.52Z" transform="translate(-0.37 -3.41)"/><path class="cls-1" d="M126.2,41.64h-.39v4.07h-.27l-2.69-3.77V45.4h.43v.31h-1.2V45.4h.38V41.64h-.38v-.3h.8l2.55,3.56V41.64H125v-.3h1.21Z" transform="translate(-0.37 -3.41)"/><path class="cls-1" d="M126.59,43.52a2.23,2.23,0,1,1,2.22,2.24A2.19,2.19,0,0,1,126.59,43.52Zm4,0a1.79,1.79,0,1,0-1.79,1.87A1.79,1.79,0,0,0,130.6,43.52Z" transform="translate(-0.37 -3.41)"/><path class="cls-1" d="M133.22,43.91h-.95V45.4h.44v.31h-1.25V45.4h.39V41.64h-.39v-.3h1.68a1.29,1.29,0,0,1,1.45,1.3,1.17,1.17,0,0,1-1,1.2l1,1.56h.4v.31h-.68Zm-.13-.33c.73,0,1.07-.37,1.07-.95s-.34-1-1.07-1h-.82v1.91Z" transform="translate(-0.37 -3.41)"/><path class="cls-1" d="M138.09,41.68H137V45.4h.43v.31h-1.26V45.4h.42V41.68h-1.08v.61h-.35v-.95h3.27v.95h-.34Z" transform="translate(-0.37 -3.41)"/><path class="cls-1" d="M141.53,41.68h-1.86v1.66h1.74v.34h-1.74v1.68h2v-.6H142v1h-3.1V45.4h.39V41.64h-.39v-.3h3v.95h-.34Z" transform="translate(-0.37 -3.41)"/><path class="cls-1" d="M203.37,34.23h23.28V26.92H203.37Zm11.43-15c5.41-3.93,8.51-13.33.71-13.33,6.32,0,10.86,3.82,10.86,9.11v.08c0,4.26-2.25,6.57-5.57,8.71l-.28.18H207.75ZM233.1,9.9a14.24,14.24,0,0,0-4.55,10.48v.08a14.19,14.19,0,0,0,7,12.34c7.5,2.68,15.12-1.08,15.12-8.16a9,9,0,0,0-1.3-4.74c0,.16,0,.32,0,.48v.08a6.31,6.31,0,0,1-2.83,5.43c-6.54,5-15,.36-15-9.63a14.23,14.23,0,0,1,1.5-6.36m25.67,10.48c0,8-6.38,14.33-14.71,14.55,5.63-.18,9.16-5,9.16-10.29v-.13c0-5.47-3.72-10.41-9.6-10.43-3.53,0-5.74,3-5.74,6.22v.08c0,3.29,2.22,6.26,5.73,6.3-5.83-.06-9.51-5-9.51-10.42v-.14c0-5.41,3.66-10.29,9.49-10.29h.11c8.54,0,15.07,6.38,15.07,14.47Zm-97.58-9.75c.6-3.31-2.77-5-6.16-4.34-3.42.81-5.81,2.75-8.18,5.7l6.08,5.21c2.29-2.47,3.75-3.46,5.33-3.46a3.07,3.07,0,0,1,1.47.33,10.09,10.09,0,0,0,1.46-3.44M146.92,26.92h23.27v7.31H146.92Zm4.38-3h12.76l.28-.18c3.32-2.14,5.57-4.45,5.57-8.71V15c0-5.29-4.54-9.11-10.86-9.11,7.8,0,4.7,9.4-.71,13.33ZM33.67,16.26c0,10,8.47,14.64,15,9.63a6.31,6.31,0,0,0,2.83-5.43v-.08c0-.16,0-.32,0-.48a9,9,0,0,1,1.3,4.74c0,7.08-7.62,10.84-15.12,8.16a14.19,14.19,0,0,1-7-12.34v-.08A14.24,14.24,0,0,1,35.17,9.9a14.23,14.23,0,0,0-1.5,6.36m43-2.4c2.13,0,3.52,1.07,3.52,2.91a3.64,3.64,0,0,0,2.91-3.66c0-4.35-4.8-6.69-10.09-6.69H63.4v7.43ZM60.84,20.38c0,8-6.38,14.33-14.71,14.55,5.63-.18,9.16-5,9.16-10.29v-.13c0-5.47-3.72-10.41-9.6-10.43C42.16,14.1,40,17,40,20.3v.08c0,3.29,2.22,6.26,5.74,6.3-5.84-.06-9.52-5-9.52-10.42v-.14c0-5.41,3.66-10.29,9.49-10.29h.11c8.54,0,15.07,6.38,15.07,14.47ZM9.55,6.43H.37L18.89,34.34h9.18Zm9.34,0h9.18V28.92L18.89,15.27ZM.37,12.13V34.34H9.55V25.78ZM85.4,27l5,7.38H79.85l-3.62-5.53A25.7,25.7,0,0,0,85,27.15L85.4,27M84,24.85a9,9,0,0,0,5.45-8.53v-.08a8.77,8.77,0,0,0-2.53-6.62c-1.75-1.77-4.47-2.95-8.61-3.16-.39,0-.8,0-1.22,0h-.14c.47,0,.93,0,1.36,0,4.5.32,7.34,2.45,7.34,6.45v.2c0,4.17-3.27,6.6-8.66,6.6H74.63v6.65s6.09-.05,9.34-1.51M90.61,6.43h25.57v7.32H90.61Zm27.71,7.32h23.57V6.43H118.32Zm0,13.3h23.57v7.33H118.32ZM63.4,34.34h9.17V16.73H63.4ZM175.14,16.26c0,10,8.47,14.64,15,9.63A6.31,6.31,0,0,0,193,20.46v-.08a3.85,3.85,0,0,0,0-.48,9,9,0,0,1,1.3,4.74c0,7.08-7.62,10.84-15.12,8.16a14.19,14.19,0,0,1-7-12.34v-.08A14.28,14.28,0,0,1,176.64,9.9a14.23,14.23,0,0,0-1.5,6.36m27.18,4c0-8.09-6.53-14.47-15.08-14.47h-.11c-5.82,0-9.49,4.88-9.49,10.29v.14c0,5.44,3.69,10.36,9.52,10.42-3.51,0-5.73-3-5.73-6.3V20.3c0-3.26,2.2-6.2,5.73-6.22,5.88,0,9.6,5,9.6,10.43v.13c0,5.31-3.52,10.11-9.16,10.29,8.33-.22,14.72-6.59,14.72-14.55ZM108,34.34H98.85V16.73H108Zm10.29-10.29h18.39V16.73H118.32Zm97.86-10a3,3,0,0,0-1.46-.33c-1.58,0-3,1-5.33,3.46L203.31,12c2.37-3,4.76-4.89,8.17-5.7,3.39-.64,6.77,1,6.16,4.34a9.9,9.9,0,0,1-1.46,3.44" transform="translate(-0.37 -3.41)"/><path class="cls-1" d="M356.52,43.76l9.77-8.3c1-.81,1.8-1.54,2.47-2.2a14,14,0,0,0,1.65-1.89,6.63,6.63,0,0,0,.91-1.74,5.64,5.64,0,0,0,.28-1.82,4.1,4.1,0,0,0-1.31-3.25A4.74,4.74,0,0,0,367,23.4a5.69,5.69,0,0,0-3.42,1.06,15.16,15.16,0,0,0-3.14,3.2l-3.53-2.76A22.75,22.75,0,0,1,359,22.36a10.66,10.66,0,0,1,2.29-1.88A10.29,10.29,0,0,1,364,19.31a12.9,12.9,0,0,1,3.39-.41,11.24,11.24,0,0,1,3.79.61,8.67,8.67,0,0,1,3,1.72,7.94,7.94,0,0,1,1.92,2.68,8.45,8.45,0,0,1,.69,3.46v.08a9.9,9.9,0,0,1-.44,3A9.59,9.59,0,0,1,375,33.09a17,17,0,0,1-2.31,2.53c-.94.85-2,1.79-3.27,2.82l-5.83,4.87H377v4.37H356.52Z" transform="translate(-0.37 -3.41)"/><path class="cls-1" d="M394.14,47.68a15.17,15.17,0,0,1-6-1.15,14.1,14.1,0,0,1-7.7-7.79,14.62,14.62,0,0,1-1.09-5.65V33a14.71,14.71,0,0,1,1.09-5.66,14.4,14.4,0,0,1,3.08-4.66,14.61,14.61,0,0,1,4.71-3.18,15,15,0,0,1,6-1.18,15.13,15.13,0,0,1,6,1.16,14.28,14.28,0,0,1,4.67,3.14,14.48,14.48,0,0,1,3,4.64A14.71,14.71,0,0,1,409,32.93V33a14.62,14.62,0,0,1-1.09,5.65,14.33,14.33,0,0,1-3.08,4.67,14.8,14.8,0,0,1-10.71,4.35m.09-4.58a9.24,9.24,0,0,0,6.86-2.93A10,10,0,0,0,403,37a10.46,10.46,0,0,0,.71-3.89V33A10.64,10.64,0,0,0,403,29.1a9.35,9.35,0,0,0-5-5.37,9.12,9.12,0,0,0-3.88-.82,9.37,9.37,0,0,0-3.85.79,9.24,9.24,0,0,0-3,2.15,10,10,0,0,0-2,3.19,10.66,10.66,0,0,0-.71,3.89V33a10.85,10.85,0,0,0,.71,3.91,9.59,9.59,0,0,0,2,3.2,9.46,9.46,0,0,0,3.05,2.17,9.2,9.2,0,0,0,3.88.81" transform="translate(-0.37 -3.41)"/><path class="cls-1" d="M411,43.76l9.77-8.3c1-.81,1.79-1.54,2.47-2.2a13.84,13.84,0,0,0,1.64-1.89,6.63,6.63,0,0,0,.91-1.74,5.65,5.65,0,0,0,.29-1.82,4.07,4.07,0,0,0-1.32-3.25,4.74,4.74,0,0,0-3.26-1.16A5.72,5.72,0,0,0,418,24.46a15.41,15.41,0,0,0-3.14,3.2l-3.53-2.76a25.23,25.23,0,0,1,2.07-2.54,10.91,10.91,0,0,1,2.29-1.88,10.35,10.35,0,0,1,2.72-1.17,12.77,12.77,0,0,1,3.38-.41,11.2,11.2,0,0,1,3.79.61,8.58,8.58,0,0,1,3,1.72,7.83,7.83,0,0,1,1.93,2.68,8.45,8.45,0,0,1,.69,3.46v.08a9.06,9.06,0,0,1-1.81,5.64,16.51,16.51,0,0,1-2.31,2.53q-1.4,1.27-3.26,2.82L418,43.31h13.5v4.37H411Z" transform="translate(-0.37 -3.41)"/><path class="cls-1" d="M448.59,47.68a15.17,15.17,0,0,1-6-1.15,14.1,14.1,0,0,1-7.7-7.79,14.63,14.63,0,0,1-1.1-5.65V33a14.71,14.71,0,0,1,1.1-5.66A14.24,14.24,0,0,1,438,22.69a14.67,14.67,0,0,1,4.7-3.18,15,15,0,0,1,6-1.18,15.18,15.18,0,0,1,6,1.16,14.13,14.13,0,0,1,7.7,7.78,14.71,14.71,0,0,1,1.1,5.66V33a14.63,14.63,0,0,1-1.1,5.65,14.33,14.33,0,0,1-3.08,4.67,14.77,14.77,0,0,1-4.71,3.18,14.92,14.92,0,0,1-6,1.17m.08-4.58a9.21,9.21,0,0,0,3.85-.79,9,9,0,0,0,3-2.14,9.87,9.87,0,0,0,2-3.19,10.66,10.66,0,0,0,.7-3.89V33a10.84,10.84,0,0,0-.7-3.91,9.74,9.74,0,0,0-2-3.21,9.59,9.59,0,0,0-3.05-2.16,9,9,0,0,0-3.87-.82,9.2,9.2,0,0,0-6.87,2.94,10,10,0,0,0-2,3.19,10.66,10.66,0,0,0-.71,3.89V33a10.85,10.85,0,0,0,.71,3.91,9.73,9.73,0,0,0,2,3.2,9.57,9.57,0,0,0,3.05,2.17,9.27,9.27,0,0,0,3.88.81" transform="translate(-0.37 -3.41)"/><path class="cls-1" d="M359.59,9.62a4.79,4.79,0,0,1-.51,0v1.71a7.77,7.77,0,0,1,1,.14v1h-3.59v-1a7.77,7.77,0,0,1,1-.14V5.54a7.77,7.77,0,0,1-1-.14v-1h.93c.37,0,1.41,0,2.24,0,1.94,0,3,.91,3,2.46A2.8,2.8,0,0,1,359.59,9.62Zm0-4h-.53V8.31a2.42,2.42,0,0,0,.45,0A1.41,1.41,0,0,0,361.11,7C361.11,6.16,360.66,5.65,359.61,5.65Zm7.4,6.89c-2.43,0-3.62-1.55-3.62-4a3.89,3.89,0,0,1,3.89-4.22c2.12,0,3.62,1.28,3.62,4A3.89,3.89,0,0,1,367,12.54Zm.13-6.84c-1.1,0-2.11.87-2.11,2.66s.66,2.79,2.09,2.79c1,0,2.14-.81,2.14-2.72S368.51,5.7,367.14,5.7Zm9,6.71-2-3.29H374v2.19a3.77,3.77,0,0,1,.72.13v1h-3.28v-1a7.77,7.77,0,0,1,1-.14V5.54a7.77,7.77,0,0,1-1-.14v-1h.92c.31,0,1.41,0,2.39,0,1.76,0,2.9.61,2.9,2.24a2.2,2.2,0,0,1-1.88,2.16c.14.19.28.39.4.58l1.23,1.92.78.13v1Zm-1.57-6.76a5.15,5.15,0,0,0-.59,0V8l.54,0c.93,0,1.49-.47,1.49-1.22S375.57,5.65,374.59,5.65Zm9,1c-.05-.37-.12-.68-.14-1h-1.23v5.6a7.77,7.77,0,0,1,1,.14v1h-3.59v-1a8,8,0,0,1,1-.14V5.71h-1.21c0,.3-.09.61-.14,1h-1.14V4.45h6.52V6.69Zm8.88-1.15V9.35c0,2.11-1.17,3.19-3.29,3.19-2.52,0-3.08-1.37-3.08-2.89V5.54a3.36,3.36,0,0,1-.74-.13v-1h3.12v1a5,5,0,0,1-.85.13v4c0,1,.32,1.71,1.64,1.71S391,10.77,391,9.41V5.54a4.58,4.58,0,0,1-.85-.13v-1h3.09v1A3.37,3.37,0,0,1,392.5,5.54Zm7.91,3.79V12a7.56,7.56,0,0,1-2.75.5,3.65,3.65,0,0,1-4-3.92,4.09,4.09,0,0,1,4.41-4.28,8.37,8.37,0,0,1,2.22.3V6.76h-1.18c-.07-.34-.1-.65-.14-1a4.11,4.11,0,0,0-1-.12,2.54,2.54,0,0,0-2.66,2.79,2.38,2.38,0,0,0,2.53,2.68,3.15,3.15,0,0,0,1-.15V9.34a6.12,6.12,0,0,1-1-.15v-1h3.21v1C400.86,9.26,400.63,9.29,400.41,9.33ZM406,12.41v-1c.25,0,.56-.1.83-.12l-.34-.95h-2.9l-.33.95c.27,0,.59.08.84.12v1h-3v-1a3.5,3.5,0,0,1,.63-.12l2.43-6.88H406l2.48,6.88a3.34,3.34,0,0,1,.63.12v1Zm-.59-5.18A11.82,11.82,0,0,1,405,6h0a11.63,11.63,0,0,1-.38,1.31l-.68,1.9h2.14Zm4.08,5.18v-1a8,8,0,0,1,1-.14V5.54a8,8,0,0,1-1-.14v-1H413v1a7.77,7.77,0,0,1-1,.14v5.61h1.53c0-.29.08-.63.14-1h1.13v2.24Z" transform="translate(-0.37 -3.41)"/><path class="cls-1" d="M332.65,4.65c-7,2.78-11.39,10.1-11.39,21.38V43.16s1.44-11,11.39-14.18Z" transform="translate(-0.37 -3.41)"/><path class="cls-1" d="M336,30.67c-4.08.82-10.05,4.09-11.81,8.69C333,28.73,350.86,39,351.65,19c.25-6.34.28-14.13.28-14.13a58.34,58.34,0,0,0-15.89,3Z" transform="translate(-0.37 -3.41)"/><path class="cls-1" d="M334.91,36.45s-9.51.77-10.32,6.19C324,46.89,334.91,47,334.91,47Z" transform="translate(-0.37 -3.41)"/></svg>