<svg width="24" height="24" viewBox="0 0 24 24" fill="none" xmlns="http://www.w3.org/2000/svg">
<path d="M12.0218 9.00119C12.2555 9.00073 12.4819 9.08211 12.6618 9.23119L18.6618 14.2312C18.866 14.4009 18.9945 14.6448 19.0188 14.9093C19.0432 15.1737 18.9616 15.437 18.7918 15.6412C18.6221 15.8454 18.3782 15.9738 18.1137 15.9982C17.8493 16.0226 17.586 15.9409 17.3818 15.7712L12.0218 11.2912L6.66182 15.6112C6.55953 15.6943 6.44183 15.7563 6.3155 15.7937C6.18916 15.8311 6.05667 15.8432 5.92564 15.8293C5.79461 15.8154 5.66763 15.7757 5.55199 15.7125C5.43635 15.6493 5.33434 15.5639 5.25182 15.4612C5.16024 15.3584 5.09088 15.2377 5.04809 15.1069C5.00529 14.976 4.98999 14.8377 5.00313 14.7006C5.01628 14.5636 5.05758 14.4307 5.12447 14.3103C5.19135 14.19 5.28237 14.0847 5.39182 14.0012L11.3918 9.17119C11.5769 9.04567 11.7987 8.98582 12.0218 9.00119Z" fill="#989296"/>
</svg>
