<svg width="24" height="24" viewBox="0 0 24 24" fill="none" xmlns="http://www.w3.org/2000/svg">
<path d="M11.9998 16C11.7661 16.0005 11.5397 15.9191 11.3598 15.77L5.35979 10.77C5.15557 10.6003 5.02715 10.3564 5.00277 10.092C4.97839 9.82753 5.06005 9.56425 5.22979 9.36003C5.39953 9.15581 5.64344 9.02739 5.90786 9.00301C6.17229 8.97863 6.43557 9.06029 6.63979 9.23003L11.9998 13.71L17.3598 9.39003C17.4621 9.30697 17.5798 9.24493 17.7061 9.2075C17.8324 9.17007 17.9649 9.15798 18.096 9.17192C18.227 9.18586 18.354 9.22555 18.4696 9.28873C18.5853 9.3519 18.6873 9.4373 18.7698 9.54003C18.8614 9.64285 18.9307 9.76348 18.9735 9.89435C19.0163 10.0252 19.0316 10.1635 19.0185 10.3006C19.0053 10.4377 18.964 10.5705 18.8971 10.6909C18.8303 10.8112 18.7392 10.9165 18.6298 11L12.6298 15.83C12.4447 15.9555 12.2229 16.0154 11.9998 16Z" fill="#989296"/>
</svg>
