<?xml version="1.0" encoding="UTF-8"?>
<svg version="1.1" viewBox="0 0 24 24" xmlns="http://www.w3.org/2000/svg" xmlns:xlink="http://www.w3.org/1999/xlink">
    <!--Generated by IJSVG (https://github.com/iconjar/IJSVG)-->
    <g fill="#FFF">
        <path d="M20.854,17.146l-10,-10c-0.143,-0.142 -0.357,-0.186 -0.545,-0.108c-0.187,0.077 -0.309,0.261 -0.309,0.462v13.846c0,0.192 0.109,0.366 0.28,0.45c0.173,0.085 0.376,0.063 0.527,-0.055l2.539,-1.986l2.216,3.988c0.091,0.165 0.262,0.257 0.438,0.257c0.076,0 0.152,-0.017 0.224,-0.053l3,-1.5c0.122,-0.061 0.214,-0.169 0.254,-0.299c0.04,-0.131 0.025,-0.272 -0.041,-0.391l-2.087,-3.757h3.15c0.202,0 0.385,-0.122 0.462,-0.309c0.078,-0.186 0.035,-0.402 -0.108,-0.545Zm-4.354,-0.144c-0.177,0 -0.341,0.094 -0.431,0.247c-0.09,0.152 -0.092,0.341 -0.006,0.496l2.246,4.043l-2.104,1.053l-2.268,-4.082c-0.071,-0.128 -0.194,-0.219 -0.338,-0.248c-0.033,-0.007 -0.066,-0.01 -0.099,-0.01c-0.111,0 -0.219,0.037 -0.308,0.106l-2.192,1.713v-11.612l8.293,8.294c0,-3.55271e-15 -2.793,-3.55271e-15 -2.793,-3.55271e-15Z"></path>
        <path d="M10.5,4c0.276,0 0.5,-0.224 0.5,-0.5v-3c0,-0.276 -0.224,-0.5 -0.5,-0.5c-0.276,0 -0.5,0.224 -0.5,0.5v3c0,0.276 0.224,0.5 0.5,0.5Z"></path>
        <path d="M7,7.5c0,-0.276 -0.224,-0.5 -0.5,-0.5h-3c-0.276,0 -0.5,0.224 -0.5,0.5c0,0.276 0.224,0.5 0.5,0.5h3c0.276,0 0.5,-0.224 0.5,-0.5Z"></path>
        <path d="M14,7.5c0,0.276 0.224,0.5 0.5,0.5h3c0.276,0 0.5,-0.224 0.5,-0.5c0,-0.276 -0.224,-0.5 -0.5,-0.5h-3c-0.276,0 -0.5,0.224 -0.5,0.5Z"></path>
        <path d="M7.317,5.024c0.098,0.098 0.226,0.146 0.354,0.146c0.128,0 0.256,-0.049 0.353,-0.146c0.195,-0.195 0.195,-0.512 0,-0.707l-2.121,-2.121c-0.195,-0.195 -0.512,-0.195 -0.707,0c-0.195,0.195 -0.195,0.512 0,0.707l2.121,2.121Z"></path>
        <path d="M7.317,9.974l-2.121,2.122c-0.195,0.195 -0.195,0.512 0,0.707c0.098,0.097 0.226,0.146 0.354,0.146c0.128,0 0.256,-0.049 0.353,-0.146l2.121,-2.122c0.195,-0.195 0.195,-0.512 0,-0.707c-0.195,-0.195 -0.512,-0.195 -0.707,0Z"></path>
        <path d="M13.329,5.17c0.128,0 0.255,-0.049 0.353,-0.146l2.121,-2.121c0.195,-0.195 0.195,-0.512 0,-0.707c-0.195,-0.195 -0.512,-0.195 -0.707,0l-2.121,2.121c-0.195,0.195 -0.195,0.512 0,0.707c0.098,0.098 0.226,0.146 0.354,0.146Z"></path>
    </g>
</svg>