<?xml version="1.0" encoding="UTF-8"?>
<svg version="1.1" viewBox="0 0 24 24" xmlns="http://www.w3.org/2000/svg" xmlns:xlink="http://www.w3.org/1999/xlink">
    <!--Generated by IJSVG (https://github.com/iconjar/IJSVG)-->
    <g fill="#FFF">
        <path d="M6,4c-1.10303,0 -2,0.896973 -2,2c0,1.10303 0.896973,2 2,2c1.10303,0 2,-0.896973 2,-2c0,-1.10303 -0.896973,-2 -2,-2Zm0,3c-0.55127,0 -1,-0.44873 -1,-1c0,-0.55127 0.44873,-1 1,-1c0.55127,0 1,0.44873 1,1c0,0.55127 -0.44873,1 -1,1Z"></path>
        <path d="M7.5,9h-3c-0.276367,0 -0.5,0.223633 -0.5,0.5v10c0,0.276367 0.223633,0.5 0.5,0.5h3c0.276367,0 0.5,-0.223633 0.5,-0.5v-10c0,-0.276367 -0.223633,-0.5 -0.5,-0.5Zm-0.5,10h-2v-9h2v9Z"></path>
        <path d="M15.5,9c-1.08398,0 -1.84961,0.305664 -2.5,0.814453v-0.314453c0,-0.276367 -0.223633,-0.5 -0.5,-0.5h-3c-0.276367,0 -0.5,0.223633 -0.5,0.5v10c0,0.276367 0.223633,0.5 0.5,0.5h3c0.276367,0 0.5,-0.223633 0.5,-0.5v-5.5c0,-1.25244 0.560547,-2 1.5,-2c0.939453,0 1.5,0.747559 1.5,2v5.5c0,0.276367 0.223633,0.5 0.5,0.5h3c0.276367,0 0.5,-0.223633 0.5,-0.5v-5.5c0,-3.0376 -1.7666,-5 -4.5,-5Zm3.5,10h-2v-5c0,-2.07227 -1.25586,-3 -2.5,-3c-1.24414,0 -2.5,0.927734 -2.5,3v5h-2v-9h2v1.00098c0,0.208984 0.129883,0.395996 0.325684,0.46875c0.195312,0.0732422 0.416992,0.0170898 0.552734,-0.14209c0.743652,-0.86084 1.38184,-1.32764 2.62158,-1.32764c2.15869,0 3.5,1.53271 3.5,4v5Z"></path>
        <path d="M21,1h-18c-1.10303,0 -2,0.896973 -2,2v18c0,1.10303 0.896973,2 2,2h18c1.10303,0 2,-0.896973 2,-2v-18c0,-1.10303 -0.896973,-2 -2,-2Zm1,20c0,0.55127 -0.44873,1 -1,1h-18c-0.55127,0 -1,-0.44873 -1,-1v-18c0,-0.55127 0.44873,-1 1,-1h18c0.55127,0 1,0.44873 1,1v18Z"></path>
    </g>
</svg>