<?xml version="1.0" encoding="UTF-8"?>
<svg version="1.1" viewBox="0 0 576 512" xmlns="http://www.w3.org/2000/svg" xmlns:xlink="http://www.w3.org/1999/xlink">
    <!--Generated by IJSVG (https://github.com/iconjar/IJSVG)-->
    <path d="M549.655,124.083c-6.281,-23.65 -24.787,-42.276 -48.284,-48.597c-42.59,-11.486 -213.371,-11.486 -213.371,-11.486c0,0 -170.78,0 -213.371,11.486c-23.497,6.322 -42.003,24.947 -48.284,48.597c-11.412,42.867 -11.412,132.305 -11.412,132.305c0,0 0,89.438 11.412,132.305c6.281,23.65 24.787,41.5 48.284,47.821c42.591,11.486 213.371,11.486 213.371,11.486c0,0 170.78,0 213.371,-11.486c23.497,-6.321 42.003,-24.171 48.284,-47.821c11.412,-42.867 11.412,-132.305 11.412,-132.305c0,0 0,-89.438 -11.412,-132.305Zm-317.51,213.508v-162.406l142.739,81.205l-142.739,81.201Z" fill="#fff"></path>
</svg>