<svg width="80" height="80" viewBox="0 0 80 80" fill="none" xmlns="http://www.w3.org/2000/svg">
<path d="M69.4458 21.5148C69.0793 19.5513 67.5874 17.9196 65.6672 17.34C65.0935 17.1668 64.4911 17.09 63.8919 17.1141C59.8729 17.2762 51.895 18.4483 42.7565 24.3702C42.4125 23.5527 42.05 22.7495 41.6668 21.9628C38.5497 15.5634 34.786 11.5441 32.1774 9.29937C30.6868 8.01651 28.5166 7.65225 26.6765 8.34686C26.091 8.56785 25.5453 8.89194 25.0719 9.29925C22.0203 11.9255 17.6997 16.6908 14.4467 24.4781C14.2463 24.9578 14.4755 25.5081 14.9587 25.7072C15.4418 25.9059 15.996 25.6787 16.1965 25.1988C18.7945 18.9796 22.0863 14.7922 24.7888 12.1274C23.621 14.47 22.3019 17.7409 21.1503 22.1355C19.1707 29.6897 18.167 38.6873 18.167 48.8785C18.167 55.6483 19.1587 61.4304 21.035 65.5997C21.678 67.0287 22.4172 68.2376 23.2324 69.2096C20.8032 68.288 18.624 66.732 16.8533 64.615C13.6091 60.7364 11.8942 55.2948 11.8942 48.8785C11.8942 41.4396 12.9157 34.6094 14.9302 28.5778C15.0948 28.0847 14.8257 27.5524 14.3293 27.389C13.832 27.2255 13.2967 27.4926 13.1321 27.9856C11.0539 34.2086 10 41.238 10 48.8785C10 55.7393 11.866 61.5965 15.3962 65.8169C18.7678 69.8478 23.4659 72.0678 28.6247 72.0678C30.2159 72.0678 31.7628 71.856 33.2408 71.4456C34.7221 71.8583 36.2518 72.0667 37.8056 72.0667C40.1315 72.0667 42.5097 71.6057 44.8496 70.689C49.0167 69.0565 52.9994 65.9784 56.3672 61.7872C59.2896 58.1502 61.7846 54.4191 63.7827 50.6974C64.0287 50.2391 63.8541 49.6693 63.3924 49.425C62.9308 49.1806 62.3571 49.354 62.111 49.8125C60.1674 53.4327 57.7366 57.0669 54.8864 60.6139C51.7249 64.5483 48.0137 67.4271 44.1544 68.9391C41.6125 69.9348 39.0307 70.335 36.5487 70.1331C38.5343 69.0889 40.3295 67.6386 41.8533 65.8169C42.4094 65.1521 42.924 64.4465 43.3968 63.7028C45.6061 61.7639 47.8214 59.4189 49.9832 56.7288C56.3844 48.7628 61.2513 41.108 64.4488 33.9772C66.3072 29.8327 67.3305 26.4612 67.8895 23.9077C68.4378 28.6949 68.2455 36.691 63.7616 46.4922C63.5618 46.9288 63.7347 47.4595 64.1538 47.6976C64.6319 47.9692 65.2589 47.7673 65.4863 47.2703C70.9036 35.4283 70.2922 26.0507 69.4458 21.5148ZM45.6088 33.3349C54.6408 24.5837 61.5085 21.1772 64.9924 19.8927L46.9792 42.3097C46.7152 39.1855 46.2571 36.1916 45.6088 33.3349ZM61.8777 19.1543C55.2725 22.2162 48.9867 27.5355 45.0882 31.2216C44.6229 29.4778 44.0825 27.7893 43.4683 26.1572C50.9705 21.2145 57.6491 19.6244 61.8777 19.1543ZM20.0615 48.8785C20.0615 38.847 21.0447 30.0087 22.9836 22.6092C24.524 16.7305 26.3549 12.9706 27.6775 10.7899V70.0692C25.8137 69.6082 24.0957 67.79 22.7646 64.8323C20.9961 60.9025 20.0615 55.3858 20.0615 48.8785ZM40.396 64.615C38.6252 66.7322 36.4461 68.288 34.0168 69.2096C34.832 68.2376 35.5712 67.0287 36.2144 65.5997C38.0906 61.4304 39.0823 55.6483 39.0823 48.8785C39.0823 48.3591 38.6583 47.9379 38.1352 47.9379C37.612 47.9379 37.1881 48.359 37.1881 48.8785C37.1881 55.3859 36.2533 60.9025 34.4851 64.8323C33.154 67.79 31.4359 69.6081 29.572 70.0692V10.7896C32.2229 15.1557 36.5444 25.1612 37.1241 44.5245C37.1397 45.0437 37.5808 45.454 38.0991 45.4367C38.622 45.4213 39.0333 44.9879 39.0177 44.4686C38.5102 27.5202 35.1492 17.5064 32.4657 12.1331C34.7567 14.396 37.5543 17.8397 39.9614 22.7818C43.5406 30.1299 45.3553 38.9101 45.3553 48.8785C45.3552 55.2948 43.6404 60.7364 40.396 64.615ZM62.7182 33.2121C59.5861 40.1968 54.8033 47.7144 48.5024 55.5556C47.5853 56.6969 46.6592 57.7727 45.7295 58.7789C46.7326 55.8176 47.2496 52.4872 47.2496 48.8786C47.2496 47.5998 47.2204 46.3394 47.162 45.0984L66.473 21.0664C66.1371 23.59 65.2065 27.6627 62.7182 33.2121Z" fill="white"/>
</svg>
