<?xml version="1.0" encoding="utf-8"?>
<!-- Generator: Adobe Illustrator 24.3.0, SVG Export Plug-In . SVG Version: 6.00 Build 0)  -->
<svg version="1.1" id="Layer_1" xmlns="http://www.w3.org/2000/svg" xmlns:xlink="http://www.w3.org/1999/xlink" x="0px" y="0px"
	 width="80px" height="80px" viewBox="0 0 80 80" style="enable-background:new 0 0 80 80;" xml:space="preserve">
<style type="text/css">
	.st0{fill:#FFFFFF;}
</style>
<g>
	<path class="st0" d="M69.1,43.7c-0.2-0.4-0.4-0.8-0.6-1.1c-1.3-1.8-4-2.6-7-2.4L43.6,23.2l-1.2-4.6c-0.1-0.2-0.2-0.4-0.3-0.5
		c-5-4-9.8-1.5-11.9,0.8c-2.1-0.7-3.9-0.7-5.3,0.1c-1.3,0.6-2,1.7-2.3,2.4c-3.6-0.5-6.2,2-7.3,3.8c-1.8,0.1-3.3,0.8-4.4,2.1
		c-2.8,3.1-2.1,8.6-2.1,8.8c0,0.1,0.1,0.3,0.1,0.4l9.8,17.1c0,0,0,0,0,0.1c0,0,0,0,0.1,0.1c0.1,0.1,0.1,0.1,0.2,0.2c0,0,0,0,0,0
		c0.1,0.1,0.2,0.1,0.3,0.1c0,0,0,0,0,0l23.3,3.7c-1,3.3-1.2,5.9-1.2,6.1c0,0,0,0,0,0.1c0,0.1,0,0.2,0,0.3c0,0,0,0.1,0,0.1
		c0,0.1,0.1,0.2,0.2,0.3c0,0,0,0,0,0.1c0,0,0,0,0,0c0,0,0,0,0,0c0.2,0.2,2.7,2.4,7.2,2.4c3.2,0,7.5-1.1,12.6-4.8
		c0.6-0.4,1.1-0.8,1.6-1.2l2.7,0.4c0.1,0,0.1,0,0.2,0c0,0,0,0,0,0c0,0,0,0,0,0c0,0,0,0,0,0c0.1,0,0.3,0,0.4-0.1c0,0,0.1,0,0.1-0.1
		c0.1,0,0.1-0.1,0.2-0.1c0,0,0.1-0.1,0.1-0.1c0-0.1,0.1-0.1,0.1-0.2c0,0,0-0.1,0.1-0.2c0,0,0-0.1,0-0.1c0,0,0-0.1,0-0.1
		c0,0,0-0.1,0-0.1v-3.4C71.8,50.6,69.6,44.8,69.1,43.7z M65.5,55.7c-0.2,0.2-0.3,0.5-0.5,0.7c-0.3,0.4-0.6,0.7-1,1.1
		c-0.4,0.5-0.9,1-1.5,1.4c-0.6,0.6-1.3,1.1-2.1,1.7c0,0,0,0,0,0c-7.3,5.3-12.4,4.8-15.1,3.8c4.8-1.1,8.7-2.9,11.5-4.4
		c1-0.6,1.9-1.1,2.6-1.6c1.1-0.7,1.7-1.2,1.8-1.3c0,0,0.1-0.1,0.1-0.1c0.7-0.6,1.3-1.2,1.9-1.7c0.7-0.6,1.3-1.2,1.8-1.8
		c0.8-0.8,1.5-1.6,2-2.4c0.4-0.5,0.7-1,1-1.5c-0.1,1.1-0.4,2.2-1,3.5C66.6,54,66.1,54.8,65.5,55.7z M45.3,56.2
		c0.2-0.6,0.4-1.1,0.7-1.7c0.3-0.6,0.6-1.2,0.9-1.9c1.5-2.9,3.7-5.7,6.8-7.8c0,0,0.1,0,0.1-0.1c1-0.6,2-1.1,3-1.5
		c1.4-0.5,2.7-0.9,4-1c0.5-0.1,1-0.1,1.4-0.1c0.5,0,1,0,1.5,0.1c1.4,0.2,2.6,0.7,3.2,1.5c0.2,0.3,0.3,0.5,0.4,0.8
		c0.2,0.7,0.1,1.6-0.3,2.6c-0.4,1-1.1,2.1-2,3.3c-1.1,1.4-2.6,2.9-4.4,4.4c-0.3,0.2-0.5,0.5-0.8,0.7c0,0,0,0,0,0c0,0-0.5,0.4-1.3,1
		c-0.6,0.4-1.3,0.9-2.1,1.4c-0.8,0.5-1.8,1-2.9,1.6c-2.5,1.2-5.7,2.4-9.4,3.2c-0.2,0-0.3,0.1-0.5,0.1c0.2-1.1,0.5-2.7,1.1-4.7
		C44.8,57.5,45,56.8,45.3,56.2z M20.1,52.2l-9.5-16.5c-0.1-1.5-0.1-5.1,1.6-7c0.9-1,2-1.4,3.5-1.4c0.4,0,0.7-0.2,0.9-0.5
		c0.1-0.2,2.2-4.2,6.2-3.2c0.5,0.1,1.1-0.2,1.2-0.7c0,0,0.4-1.4,1.7-2c1.1-0.5,2.5-0.5,4.3,0.3c0.4,0.2,0.9,0,1.2-0.3
		c0.2-0.2,4.2-5.1,9.4-1.3l0.8,3.3c-0.8,0-2,0.1-3.5,0.2c-0.5,0.1-0.9,0.6-0.9,1.1c0.1,0.5,0.5,0.9,1,0.9c0,0,0.1,0,0.1,0
		c2-0.3,3.5-0.2,4.1-0.2L59,40.5c-1.9,0.4-3.8,1.1-5.6,2.2l-9.2-1.5c-0.5-0.1-1.1,0.3-1.2,0.8c-0.1,0.5,0.3,1.1,0.8,1.2l7.2,1.2
		c-2.8,2.3-4.8,5.1-6.2,8l-22.2-3.7l-6-10l19.9,3.3c0.1,0,0.1,0,0.2,0c0.5,0,0.9-0.3,1-0.8c0.1-0.5-0.3-1.1-0.8-1.2l-20.3-3.4
		c1.8-2,5.7-5.7,10.7-8.2c1.7-0.9,3.6-1.6,5.4-2.2c0.5-0.2,0.8-0.7,0.7-1.3c-0.2-0.5-0.7-0.8-1.3-0.7c-2,0.6-3.9,1.4-5.7,2.3
		c-7.5,3.7-12.4,9.8-12.6,10.1c0,0,0,0,0,0c0,0,0,0,0,0c0,0-0.1,0.1-0.1,0.2c0,0-0.1,0.1-0.1,0.1c0,0,0,0,0,0.1c0,0,0,0,0,0
		c0,0,0,0.1,0,0.1c0,0.1,0,0.1,0,0.2c0,0,0,0,0,0.1c0,0.1,0,0.1,0.1,0.2c0,0,0,0.1,0.1,0.1c0,0,0,0,0,0L21.1,50c0,0,0,0,0,0
		c0,0,0,0,0.1,0.1c0.1,0.1,0.1,0.1,0.2,0.2c0,0,0,0,0.1,0c0.1,0.1,0.2,0.1,0.3,0.1c0,0,0,0,0,0l22.1,3.7c-0.2,0.6-0.5,1.2-0.7,1.7
		L20.1,52.2z"/>
	<path class="st0" d="M60.2,49.5c0.2,0,0.5-0.1,0.7-0.3c0.9-0.9,1.9-1.3,2.5-1.6c0.5-0.2,0.9-0.3,0.9-0.3c0.3-0.1,0.6-0.3,0.7-0.6
		c0,0,0-0.1,0.1-0.1c0-0.1,0-0.2,0-0.3c0,0,0,0,0,0c0,0,0-0.1,0-0.1c0-0.1-0.1-0.2-0.1-0.2c-0.2-0.3-0.5-0.6-0.9-0.6
		c-0.1,0-0.1,0-0.2,0c-0.1,0-0.9,0.2-2,0.7c-0.7,0.4-1.6,0.9-2.4,1.7c-0.4,0.4-0.4,1-0.1,1.4C59.6,49.4,59.9,49.5,60.2,49.5z"/>
	<path class="st0" d="M56.6,52.9C56.6,52.9,56.5,52.9,56.6,52.9c-0.1,0-1,0.3-2,0.9c-0.5,0.3-1,0.7-1.5,1.2
		c-0.1,0.2-0.2,0.3-0.2,0.5c0,0.1,0,0.1,0,0.2c0,0.2,0.1,0.5,0.3,0.7c0.2,0.2,0.4,0.3,0.7,0.3c0.3,0,0.5-0.1,0.7-0.3
		c0.1-0.2,0.3-0.3,0.5-0.4c0.9-0.8,2-1.1,2.1-1.1c0.2-0.1,0.4-0.2,0.6-0.5c0.1-0.2,0.2-0.5,0.1-0.8C57.6,53.1,57.1,52.8,56.6,52.9z"
		/>
	<path class="st0" d="M53.3,49.9c0.3,0,0.5-0.1,0.7-0.3c1.3-1.4,3.1-2,3.1-2c0.5-0.2,0.8-0.7,0.7-1.2c-0.2-0.5-0.7-0.8-1.2-0.7
		c-0.1,0-2.3,0.7-4,2.5c-0.4,0.4-0.3,1,0.1,1.4C52.8,49.9,53.1,49.9,53.3,49.9z"/>
	<path class="st0" d="M48.5,57.9c0.3,0,0.6-0.1,0.8-0.4c0.2-0.2,0.4-0.4,0.6-0.6c0.4-0.4,0.8-0.6,0.8-0.6c0.4-0.2,0.6-0.6,0.5-1
		c0-0.1,0-0.2-0.1-0.3c-0.2-0.5-0.8-0.7-1.3-0.4c-0.1,0-0.3,0.2-0.7,0.4c-0.4,0.3-0.9,0.7-1.4,1.3c-0.1,0.1-0.1,0.2-0.1,0.3
		c-0.2,0.4,0,0.9,0.3,1.1C48.1,57.8,48.3,57.9,48.5,57.9z"/>
</g>
</svg>
