<?xml version="1.0" encoding="utf-8"?>
<!-- Generator: Adobe Illustrator 24.3.0, SVG Export Plug-In . SVG Version: 6.00 Build 0)  -->
<svg version="1.1" id="Layer_1" xmlns="http://www.w3.org/2000/svg" xmlns:xlink="http://www.w3.org/1999/xlink" x="0px" y="0px"
	 width="80px" height="80px" viewBox="0 0 80 80" style="enable-background:new 0 0 80 80;" xml:space="preserve">
<style type="text/css">
	.st0{fill:#FFFFFF;}
</style>
<g>
	<path class="st0" d="M70.5,24.2c0.9-1.4,1.1-3.3-0.9-4.9c-6-4.9-10.7-5.4-17.1-6.1c-1.7-0.2-3.7-0.4-5.9-0.7
		c-1.9-0.3-3.8,0.3-5.3,1.6L8.2,42.6c-0.6,0.5-0.9,1.4-0.6,2.2c0.2,0.8,0.8,1.4,1.6,1.5c0.3,0,0.5,0.1,0.8,0.1
		c-0.7,1-0.8,2.1-0.9,2.9c-0.1,2,1.2,3.8,3.3,4.4c0.3,0.1,0.6,0.2,0.9,0.3L12.5,55c-0.5,0.6-0.7,1.5-0.4,2.2c0.3,0.8,1,1.3,1.8,1.3
		c0.3,0,0.5,0,0.8,0c-0.5,1-0.6,2.2-0.5,3c0.1,2,1.7,3.6,3.8,4c7.9,1.3,14,2,18.5,2c4.1,0,6.9-0.6,8.2-1.7c0.2-0.2,0.4-0.4,0.6-0.6
		C60,47.7,71.8,29.5,71.9,29.3C72.8,27.8,72.9,25.7,70.5,24.2z M18.3,63.5c-1.2-0.2-2-1.1-2.1-2.2c0-0.5,0-1.6,0.5-2.2
		c0.3-0.3,0.7-0.4,1.2-0.5c0.2,0,0.3,0,0.5,0c-0.4,0.6-0.7,1.4-0.4,2.2c0.5,1.2,2.2,2.5,11.2,3c2.2,0.1,4.1,0.2,5.6,0.2
		c2.3,0,3.9-0.2,4.9-0.4c1.1-0.3,1.7-0.8,2-1.3c0.2-0.3,0.2-0.6,0.2-0.9c1.1,0.5,1.8,1.2,1.8,2c0,0.2,0,0.4-0.1,0.5
		c-0.1,0.1-0.2,0.2-0.2,0.3c0,0,0,0,0,0c0,0,0,0,0,0c-0.1,0.1-0.2,0.2-0.4,0.3C41.1,65.6,35.5,66.4,18.3,63.5z M14,56.3l1.5-1.6
		L17,53l4.2-4.7l1.6-1.8l20.6-22.7c0.9-1,2.2-1.6,3.5-1.5c2.2,0,4.2,0,6,0c5.6-0.1,9.5-0.2,14.6,2.5c0.6,0.3,1.2,0.6,1.8,1
		c0.1,0,0.1,0.1,0.2,0.1c1,0.7,1.3,1.4,0.7,2.3c-0.1,0.2-10.9,16.9-24.8,33.6c-0.7-1.4-2.6-2.4-5-3.1c0,0-0.1,0-0.1,0
		c-1-0.3-2-0.5-3.2-0.7c-3.7-0.6-8.2-0.9-12.8-1.1c-1.2-0.1-2.4-0.1-3.6-0.1c-0.9,0-1.8-0.1-2.7-0.1c0,0,0,0-0.1,0
		c-1.4-0.1-2.7-0.1-3.9-0.2c0,0-0.1,0-0.1-0.1C14,56.3,14,56.3,14,56.3z M39.9,61.4c-0.1,0.2-1,0.8-5.9,0.7c-1.3,0-2.8-0.1-4.7-0.2
		c-8.6-0.5-9.4-1.7-9.5-1.8c0-0.2,0.6-0.8,0.8-1.1c0.1-0.1,0.1-0.1,0.2-0.2c0.4,0,0.9,0,1.3,0.1c5.8,0.2,12.8,0.6,17.3,1.7
		C39.9,61.2,39.9,61.4,39.9,61.4z M9.6,44.3C9.6,44.3,9.5,44.3,9.6,44.3c-0.1-0.2-0.1-0.2-0.1-0.2l33.2-28.5c1-0.9,2.3-1.3,3.7-1.1
		c2.2,0.3,4.2,0.5,6,0.7c6.3,0.7,10.4,1.1,16,5.6c0.9,0.8,1.1,1.5,0.4,2.4c-5.7-3.1-10.1-3-15.9-2.9c-1.8,0-3.7,0.1-5.9,0
		c-1.9,0-3.8,0.8-5,2.2L20.5,46.2c-1.4-0.2-2.9-0.5-4.3-0.7c-0.9-0.1-1.8-0.3-2.6-0.4c0,0,0,0-0.1,0C12.1,44.8,10.8,44.6,9.6,44.3z
		 M13,51.8c-1.1-0.3-1.9-1.3-1.8-2.4c0-0.5,0.2-1.6,0.8-2.1c0.2-0.2,0.6-0.3,1-0.3c0.1,0,0.2,0,0.3,0c0.9,0.1,1.7,0.3,2.6,0.4
		c1,0.2,2,0.3,3.1,0.5l-4,4.5C14.2,52.2,13.6,52,13,51.8z"/>
	<path class="st0" d="M38,44.5c-0.1,0-0.2,0.1-0.3,0.2c-0.2,0.2-0.3,0.4-0.3,0.7c0,0.3,0.1,0.5,0.3,0.7c0.2,0.2,0.4,0.3,0.7,0.3
		c0.3,0,0.5-0.1,0.7-0.3c0.2-0.2,0.3-0.4,0.3-0.7c0-0.3-0.1-0.5-0.3-0.7C38.8,44.4,38.3,44.3,38,44.5z"/>
	<path class="st0" d="M49.4,47.6c0.2,0.2,0.4,0.3,0.7,0.3c0.1,0,0.3,0,0.4-0.1c0.1,0,0.2-0.1,0.3-0.2c0.2-0.2,0.3-0.4,0.3-0.7
		c0-0.1,0-0.1,0-0.2c0-0.1,0-0.1-0.1-0.2c0-0.1-0.1-0.1-0.1-0.2c0-0.1-0.1-0.1-0.1-0.2c-0.1-0.1-0.2-0.1-0.3-0.2
		c-0.2-0.1-0.5-0.1-0.8,0c-0.1,0-0.2,0.1-0.3,0.2c0,0-0.1,0.1-0.1,0.2c0,0-0.1,0.1-0.1,0.2c0,0.1,0,0.1,0,0.2c0,0.1,0,0.1,0,0.2
		c0,0.2,0,0.3,0.1,0.4C49.3,47.5,49.4,47.6,49.4,47.6z"/>
	<path class="st0" d="M46,34.1c-0.1,0-0.1-0.1-0.2-0.1c-0.1,0-0.1,0-0.2-0.1c-0.1,0-0.3,0-0.4,0c-0.1,0-0.1,0-0.2,0.1
		c-0.1,0-0.1,0-0.2,0.1c-0.1,0-0.1,0.1-0.1,0.1c-0.1,0.1-0.2,0.2-0.2,0.3c0,0.1-0.1,0.2-0.1,0.4s0,0.3,0.1,0.4
		c0.1,0.1,0.1,0.2,0.2,0.3c0,0,0.1,0.1,0.1,0.1c0.1,0,0.1,0.1,0.2,0.1c0.1,0,0.1,0.1,0.2,0.1c0.1,0,0.1,0,0.2,0c0.1,0,0.1,0,0.2,0
		c0.1,0,0.1,0,0.2-0.1c0.1,0,0.1,0,0.2-0.1c0,0,0.1-0.1,0.2-0.1c0.2-0.2,0.3-0.4,0.3-0.7c0-0.1,0-0.3-0.1-0.4c0-0.1-0.1-0.2-0.2-0.3
		C46.1,34.2,46.1,34.2,46,34.1z"/>
	<path class="st0" d="M54.3,26.9c0,0.1,0.1,0.1,0.1,0.2c0,0.1,0.1,0.1,0.1,0.2c0.2,0.2,0.4,0.3,0.7,0.3c0.3,0,0.5-0.1,0.7-0.3
		c0.2-0.2,0.3-0.4,0.3-0.7c0-0.1,0-0.3-0.1-0.4c-0.1-0.1-0.1-0.2-0.2-0.3c-0.2-0.2-0.6-0.3-0.9-0.3c-0.1,0-0.1,0-0.2,0.1
		c-0.1,0-0.1,0.1-0.2,0.1c0,0-0.1,0.1-0.2,0.1c-0.1,0.1-0.2,0.2-0.2,0.3c0,0.1-0.1,0.2-0.1,0.4c0,0.1,0,0.1,0,0.2
		C54.3,26.8,54.3,26.9,54.3,26.9z"/>
	<path class="st0" d="M44.8,30c0.1,0,0.1,0.1,0.2,0.1c0.1,0,0.1,0,0.2,0.1c0.1,0,0.1,0,0.2,0c0.1,0,0.1,0,0.2,0c0.1,0,0.1,0,0.2-0.1
		c0.1,0,0.1-0.1,0.2-0.1c0.1,0,0.1-0.1,0.2-0.1c0.2-0.2,0.3-0.4,0.3-0.7c0-0.3-0.1-0.5-0.3-0.7c0,0-0.1-0.1-0.2-0.1
		c0,0-0.1-0.1-0.2-0.1c-0.1,0-0.1,0-0.2-0.1c-0.1,0-0.3,0-0.4,0c-0.1,0-0.1,0-0.2,0.1c-0.1,0-0.1,0.1-0.2,0.1c0,0-0.1,0.1-0.2,0.1
		c-0.2,0.2-0.3,0.4-0.3,0.7c0,0.3,0.1,0.5,0.3,0.7C44.7,29.9,44.8,30,44.8,30z"/>
	<path class="st0" d="M37.5,39.8c0.1,0.1,0.2,0.2,0.3,0.2c0.1,0,0.2,0.1,0.4,0.1c0.1,0,0.1,0,0.2,0c0.1,0,0.1,0,0.2-0.1
		c0.1,0,0.1-0.1,0.2-0.1c0,0,0.1-0.1,0.2-0.1c0.1-0.1,0.2-0.2,0.2-0.3c0-0.1,0.1-0.2,0.1-0.4c0-0.1,0-0.3-0.1-0.4
		c-0.1-0.1-0.1-0.2-0.2-0.3c-0.3-0.3-0.7-0.4-1.1-0.2c-0.1,0.1-0.2,0.1-0.3,0.2c-0.1,0.1-0.2,0.2-0.2,0.3c0,0.1-0.1,0.2-0.1,0.4
		c0,0.1,0,0.3,0.1,0.4C37.4,39.5,37.4,39.6,37.5,39.8z"/>
	<path class="st0" d="M40.1,53.5c0.2,0.2,0.4,0.3,0.7,0.3c0.1,0,0.3,0,0.4-0.1s0.2-0.1,0.3-0.2c0.2-0.2,0.3-0.4,0.3-0.7
		c0-0.2-0.1-0.5-0.3-0.7c0,0,0,0,0,0c0,0-0.1-0.1-0.2-0.1c0,0-0.1-0.1-0.2-0.1c-0.1,0-0.1-0.1-0.2-0.1c-0.3-0.1-0.7,0-0.9,0.3
		c-0.2,0.2-0.3,0.5-0.3,0.7C39.8,53.1,39.9,53.3,40.1,53.5C40.1,53.5,40.1,53.5,40.1,53.5z"/>
	<path class="st0" d="M31.6,45.1c0.1,0.1,0.2,0.2,0.3,0.2c0.1,0.1,0.2,0.1,0.4,0.1c0.1,0,0.3,0,0.4-0.1c0.1,0,0.2-0.1,0.3-0.2
		s0.2-0.2,0.2-0.3c0.1-0.1,0.1-0.3,0.1-0.4c0-0.3-0.1-0.5-0.3-0.7c-0.4-0.4-1-0.4-1.4,0c-0.2,0.2-0.3,0.4-0.3,0.7
		c0,0.1,0,0.3,0.1,0.4C31.4,44.9,31.5,45,31.6,45.1z"/>
	<path class="st0" d="M24.3,53.5c0.3,0,0.5-0.1,0.7-0.3c0.2-0.2,0.3-0.4,0.3-0.7c0-0.3-0.1-0.5-0.3-0.7c0,0-0.1-0.1-0.2-0.1
		c-0.1,0-0.1-0.1-0.2-0.1c-0.1,0-0.1,0-0.2-0.1c-0.3-0.1-0.7,0-0.9,0.3c-0.2,0.2-0.3,0.5-0.3,0.7c0,0.3,0.1,0.5,0.3,0.7
		C23.8,53.4,24.1,53.5,24.3,53.5z"/>
	<path class="st0" d="M59.9,31.3c0.1,0.1,0.2,0.1,0.4,0.1s0.3,0,0.4-0.1c0.1,0,0.2-0.1,0.3-0.2c0.2-0.2,0.3-0.5,0.3-0.7
		c0-0.1,0-0.1,0-0.2c0-0.1,0-0.1-0.1-0.2c0-0.1-0.1-0.1-0.1-0.2c0,0-0.1-0.1-0.1-0.1c-0.1-0.1-0.2-0.2-0.3-0.2
		c-0.2-0.1-0.5-0.1-0.8,0c-0.1,0-0.2,0.1-0.3,0.2c0,0-0.1,0.1-0.1,0.1c0,0.1-0.1,0.1-0.1,0.2c0,0.1,0,0.1-0.1,0.2c0,0.1,0,0.1,0,0.2
		c0,0.3,0.1,0.5,0.3,0.7C59.7,31.1,59.8,31.2,59.9,31.3z"/>
	<path class="st0" d="M51.1,38.8c0.2,0.2,0.5,0.3,0.7,0.3c0.1,0,0.1,0,0.2,0c0.1,0,0.1,0,0.2-0.1c0.1,0,0.1-0.1,0.2-0.1
		c0,0,0.1-0.1,0.1-0.1c0.2-0.2,0.3-0.5,0.3-0.7c0-0.1,0-0.1,0-0.2c0-0.1,0-0.1,0-0.2c0-0.1-0.1-0.1-0.1-0.2c0-0.1-0.1-0.1-0.1-0.2
		c0,0-0.1-0.1-0.1-0.1c-0.1,0-0.1-0.1-0.2-0.1c-0.1,0-0.1,0-0.2-0.1c-0.2,0-0.4,0-0.6,0.1c-0.1,0.1-0.2,0.1-0.3,0.2
		c-0.2,0.2-0.3,0.5-0.3,0.7c0,0.1,0,0.3,0.1,0.4C50.9,38.6,51,38.7,51.1,38.8z"/>
	<path class="st0" d="M44.4,43c0.1,0,0.2,0.1,0.4,0.1c0.1,0,0.3,0,0.4-0.1c0.1,0,0.2-0.1,0.3-0.2c0.1-0.1,0.2-0.2,0.2-0.3
		c0-0.1,0.1-0.2,0.1-0.4c0-0.3-0.1-0.5-0.3-0.7c-0.1,0-0.1-0.1-0.2-0.1c-0.1,0-0.1-0.1-0.2-0.1c-0.1,0-0.1-0.1-0.2-0.1
		c-0.2,0-0.4,0-0.6,0.1c-0.1,0-0.2,0.1-0.3,0.2c-0.2,0.2-0.3,0.5-0.3,0.7c0,0.3,0.1,0.5,0.3,0.7C44.1,42.8,44.2,42.9,44.4,43z"/>
	<path class="st0" d="M33,51.1c-0.2-0.1-0.4-0.2-0.7-0.2c-0.2,0-0.5,0.1-0.7,0.3c-0.1,0.1-0.2,0.2-0.2,0.3c0,0.1-0.1,0.2-0.1,0.4
		s0,0.3,0.1,0.4s0.1,0.2,0.2,0.3c0.1,0.1,0.2,0.2,0.3,0.2c0.1,0,0.2,0.1,0.4,0.1c0.1,0,0.3,0,0.4-0.1c0.1,0,0.2-0.1,0.3-0.2
		c0.1-0.1,0.2-0.2,0.2-0.3c0.1-0.1,0.1-0.2,0.1-0.4s0-0.3-0.1-0.4C33.3,51.3,33.2,51.2,33,51.1C33.1,51.1,33,51.1,33,51.1z"/>
</g>
</svg>
