<?xml version="1.0" encoding="utf-8"?>
<!-- Generator: Adobe Illustrator 24.3.0, SVG Export Plug-In . SVG Version: 6.00 Build 0)  -->
<svg version="1.1" id="Layer_1" xmlns="http://www.w3.org/2000/svg" xmlns:xlink="http://www.w3.org/1999/xlink" x="0px" y="0px"
	 width="80px" height="80px" viewBox="0 0 80 80" style="enable-background:new 0 0 80 80;" xml:space="preserve">
<style type="text/css">
	.st0{fill:#FFFFFF;}
</style>
<path class="st0" d="M66.3,27.6C66.3,27.6,66.3,27.6,66.3,27.6c0-0.2-0.1-0.3-0.2-0.3c0,0,0,0,0-0.1c-0.2-0.2-0.3-0.5-0.6-0.7
	c-4-3.2-8.9-5.4-13.8-6.7c-0.8-1.3-2.2-2.1-3.7-2.3c0-0.6-0.1-1.1-0.3-1.7c-0.5-1.3-1.4-2.4-2.7-3s-2.7-0.7-4-0.2
	c-1.3,0.5-2.4,1.4-3,2.7c-0.3,0.7-0.5,1.4-0.5,2.1c-1.2-0.1-2.2-0.1-3.1-0.2c-2.2-0.1-4.3,0.9-5.6,2.7L14,39.8
	c-0.3,0.6-0.5,1.2-0.5,1.8c0,3.6,0,20.4,0,22.3c0,0.5,0.2,1,0.6,1.3c0.3,0.3,0.8,0.4,1.2,0.4c0.1,0,0.3,0,0.4,0
	c3.2-0.7,14.7-3.9,25.7-7c10.1-2.8,20.5-5.8,23.3-6.4c1-0.2,1.7-1,1.7-2V28.5C66.5,28.2,66.4,27.9,66.3,27.6z M64.5,50.2
	c0,0-0.1,0.1-0.1,0.1c-2.9,0.6-12.9,3.4-23.5,6.4c-10.9,3.1-22.1,6.2-25.4,7c0-1.1,0-3.3,0-5.8l49-13.3L64.5,50.2z M34.3,19.2
	c0,0,0.1,0,0.1,0c0.2,0,0.4,0,0.6,0c-0.5,0.5-0.9,1-1.2,1.6c-0.6,1.3-0.7,2.7-0.2,4c0.5,1.3,1.4,2.4,2.7,3c0.7,0.3,1.5,0.5,2.3,0.5
	c0.6,0,1.2-0.1,1.7-0.3c1.2-0.4,2.2-1.3,2.8-2.4c0.5,0.7,1.2,1.3,2,1.7c0.7,0.3,1.5,0.5,2.3,0.5c0.6,0,1.2-0.1,1.7-0.3
	c1.3-0.5,2.4-1.4,3-2.7c0.4-0.9,0.6-1.8,0.5-2.8c3.8,1.2,7.5,2.9,10.7,5.2L16.6,39.6l13.9-18.5C31.4,19.9,32.8,19.2,34.3,19.2z
	 M41.8,14.5c0.4-0.1,0.7-0.2,1.1-0.2c0.5,0,0.9,0.1,1.4,0.3c0.8,0.4,1.4,1,1.7,1.8c0.2,0.6,0.2,1.3,0.1,2c0,0.2-0.1,0.3-0.2,0.5
	c-0.1,0.1-0.2,0.3-0.3,0.4c-0.2,0.3-0.5,0.6-0.9,0.9c-0.2,0.1-0.5,0.3-0.7,0.4c-1.3,0.5-2.7,0-3.5-1c-0.2-0.3-0.5-0.6-0.6-1
	c0,0,0,0,0-0.1c-0.1-0.3-0.2-0.7-0.2-1c0-0.5,0.1-0.9,0.3-1.4C40.3,15.4,40.9,14.8,41.8,14.5z M38.2,19.9c0.5,1,1.3,1.9,2.4,2.4
	c0.4,0.2,0.8,0.3,1.2,0.4c0.2,1.5-0.7,3-2.1,3.5c-0.8,0.3-1.7,0.2-2.5-0.1c-0.8-0.4-1.4-1-1.7-1.8s-0.2-1.7,0.1-2.5
	c0.4-0.8,1-1.4,1.8-1.7C37.7,20,38,20,38.2,19.9z M50.4,21.5C50.4,21.5,50.4,21.5,50.4,21.5c0.3,0.9,0.3,1.8-0.1,2.6
	c-0.4,0.8-1,1.4-1.8,1.7c-0.8,0.3-1.7,0.2-2.5-0.1c-0.8-0.4-1.4-1-1.7-1.8c-0.1-0.4-0.2-0.7-0.2-1.1c0.1,0,0.3-0.1,0.4-0.1
	c1-0.3,1.8-1,2.4-1.8c0.2-0.3,0.4-0.6,0.5-0.9c0,0,0,0,0,0c0.1-0.1,0.1-0.2,0.1-0.3c0.7,0.1,1.3,0.3,1.9,0.8
	C49.9,20.6,50.2,21,50.4,21.5z M15.5,48.9c0.2,0.2,0.5,0.3,0.9,0.2c2.1-0.6,3.2-0.2,4.6,0.2c0.9,0.3,1.9,0.6,3.2,0.6
	c0.7,0,1.6-0.1,2.5-0.4c2.6-0.7,3.8-2,4.8-3.1c0.9-1,1.8-1.9,3.8-2.5c2.1-0.6,3.2-0.2,4.6,0.2c1.4,0.4,3,0.9,5.7,0.2
	c2.6-0.7,3.8-2,4.8-3.1c0.9-1,1.8-1.9,3.8-2.5c2.1-0.6,3.2-0.2,4.6,0.2c1.4,0.4,3,0.9,5.7,0.2c0,0,0.1,0,0.1-0.1l0,3.2l-49,13.3
	C15.5,53.5,15.5,51.1,15.5,48.9z M64.5,37.4c-0.2-0.1-0.4-0.1-0.6-0.1c-2.1,0.6-3.2,0.2-4.6-0.2c-1.4-0.4-3.1-0.9-5.7-0.2
	c-2.6,0.7-3.8,2-4.8,3.1c-0.9,1-1.8,1.9-3.8,2.5c-2.1,0.6-3.2,0.2-4.6-0.2c-1.4-0.4-3-0.9-5.7-0.2c-2.6,0.7-3.8,2-4.8,3.1
	c-0.9,1-1.8,1.9-3.8,2.5c-2.1,0.6-3.2,0.2-4.6-0.2c-1.4-0.4-3-0.9-5.7-0.2c-0.1,0-0.2,0.1-0.3,0.2c0-2.3,0-4.2,0-5.3l49-12.9
	L64.5,37.4z"/>
</svg>
