<?xml version="1.0" encoding="utf-8"?>
<!-- Generator: Adobe Illustrator 24.3.0, SVG Export Plug-In . SVG Version: 6.00 Build 0)  -->
<svg version="1.1" id="Layer_1" xmlns="http://www.w3.org/2000/svg" xmlns:xlink="http://www.w3.org/1999/xlink" x="0px" y="0px"
	 width="80px" height="80px" viewBox="0 0 80 80" style="enable-background:new 0 0 80 80;" xml:space="preserve">
<style type="text/css">
	.st0{fill:#FFFFFF;}
</style>
<g>
	<path class="st0" d="M30.9,43.8c-2.1,0-3.8-1.7-3.8-3.8c0-2.1,1.7-3.8,3.8-3.8c1.2,0,2.3,0.5,3,1.5c0.3,0.4,1,0.5,1.4,0.2
		c0.4-0.3,0.5-1,0.2-1.4c-1.1-1.5-2.8-2.3-4.6-2.3c-3.2,0-5.8,2.6-5.8,5.8c0,3.2,2.6,5.8,5.8,5.8c0.6,0,1-0.4,1-1
		S31.5,43.8,30.9,43.8z"/>
	<path class="st0" d="M37.6,47.2c-2.8,0-5.1,2.3-5.1,5.1s2.3,5.1,5.1,5.1s5.1-2.3,5.1-5.1S40.5,47.2,37.6,47.2z M37.6,55.4
		c-1.7,0-3.1-1.4-3.1-3.1s1.4-3.1,3.1-3.1s3.1,1.4,3.1,3.1S39.4,55.4,37.6,55.4z"/>
	<path class="st0" d="M50.5,33c-2.7,0-4.8,2.2-4.8,4.8s2.2,4.8,4.8,4.8s4.8-2.2,4.8-4.8S53.2,33,50.5,33z M50.5,40.7
		c-1.6,0-2.8-1.3-2.8-2.8s1.3-2.8,2.8-2.8c1.6,0,2.8,1.3,2.8,2.8S52.1,40.7,50.5,40.7z"/>
	<path class="st0" d="M51.9,48.4c-1.6,0-2.9,1.3-2.9,2.9s1.3,2.9,2.9,2.9s2.9-1.3,2.9-2.9S53.5,48.4,51.9,48.4z M51.9,52.2
		c-0.5,0-0.9-0.4-0.9-0.9s0.4-0.9,0.9-0.9s0.9,0.4,0.9,0.9S52.4,52.2,51.9,52.2z"/>
	<path class="st0" d="M63.8,42.7c0.6,0,1-0.4,1-1V29.2c0-0.1,0-0.2-0.1-0.3c0,0,0-0.1,0-0.1c0-0.1-0.1-0.2-0.2-0.2c0,0,0,0,0-0.1
		c-0.1-0.1-0.2-0.1-0.3-0.2l-26-12.6c-0.1-0.1-0.3-0.1-0.5-0.1c-16.3,0.5-22.2,12.7-22.4,13.2c0,0,0,0,0,0c-0.1,0.1-0.1,0.3-0.1,0.4
		V40c0,0.6,0.4,1,1,1c1.5,0,2.7,1.2,2.7,2.7s-1.2,2.7-2.7,2.7c-0.6,0-1,0.4-1,1v16.2c0,0.6,0.4,1,1,1h8c0.6,0,1-0.4,1-1
		c0-0.8,0.7-1.5,1.5-1.5s1.5,0.7,1.5,1.5c0,0.6,0.4,1,1,1h34.6c0.6,0,1-0.4,1-1V51.4c0-0.6-0.4-1-1-1c-2.1,0-3.9-1.7-3.9-3.9
		C59.9,44.4,61.6,42.7,63.8,42.7z M37.6,17.6l21.8,10.6H18C19.9,25.1,25.7,18,37.6,17.6z M62.8,52.3v10.1H30
		C29.6,61,28.3,60,26.7,60s-2.9,1-3.3,2.5h-6.2V48.2c2.1-0.5,3.7-2.3,3.7-4.5s-1.6-4.1-3.7-4.5v-8.9h45.5v10.6
		c-2.8,0.5-4.9,2.9-4.9,5.8C57.9,49.4,60,51.8,62.8,52.3z"/>
</g>
</svg>
