<?xml version="1.0" encoding="utf-8"?>
<!-- Generator: Adobe Illustrator 24.3.0, SVG Export Plug-In . SVG Version: 6.00 Build 0)  -->
<svg version="1.1" id="Layer_1" xmlns="http://www.w3.org/2000/svg" xmlns:xlink="http://www.w3.org/1999/xlink" x="0px" y="0px"
	 width="80px" height="80px" viewBox="0 0 80 80" style="enable-background:new 0 0 80 80;" xml:space="preserve">
<style type="text/css">
	.st0{fill:#FFFFFF;}
</style>
<path class="st0" d="M64.1,61.7l-3.9-21.9c2.6-0.7,3.9-2.8,3.5-5.8c-0.5-3.8-3.7-7.8-7.2-8.2l-0.4-2.1c-0.1-0.6-0.5-1.2-1.1-1.5
	c0.4-0.5,0.6-1.1,0.5-1.7l-2-11c-0.1-0.5-0.4-1-0.8-1.3c-0.4-0.3-1-0.4-1.5-0.3l-8.3,1.5c-0.4,0.1-0.7,0.3-1.2,0.9
	c-0.7-0.4-1.1-0.5-1.4-0.4L36,10.5l0,0c-0.3,0-1.2,0.2-4.2,0.8c-0.4,0.1-0.7,0.3-1.1,0.8c-0.1,0-0.1,0-0.2,0.1
	c-0.6-0.4-1-0.5-1.4-0.4l-8.3,1.5c-1.1,0.2-1.8,1.3-1.6,2.4l2,11c0.1,0.6,0.5,1.2,1.1,1.5c-0.3,0.4-0.5,0.9-0.5,1.4
	c-8.4,0.5-9.9,7.8-9.9,7.8c-0.1,0.5,0.2,1,0.7,1.1c3.5,1.2,6.8,2.5,10,3.9l4.7,26c0.3,1.7,1.6,3.1,3.1,3.6c0.1,0,0.1,0,0.2,0.1
	c0.4,0.1,0.8,0.2,1.3,0.2c0.3,0,0.5,0,0.8-0.1l27.7-5c0.7-0.1,1.3-0.4,1.8-0.8c0.1,0,0.1-0.1,0.2-0.2c0.4-0.3,0.7-0.6,1-1
	C64,64.2,64.3,63,64.1,61.7z M62.1,62.1c0.1,0.3,0.1,0.7,0,1c-1.9-1.5-7.1-1.8-11.6-1.7c0.1,0,0.1,0,0.2-0.1
	c0.6-0.2,1.1-0.8,1.2-1.5c0.1-0.5,0-1-0.3-1.4c-2.1-3.5-4.7-6.9-7.3-9.9c1-1.4,4.9-6.2,13.9-8.2L62.1,62.1z M23.7,29.5
	c0.2-0.2,0.3-0.4,0.4-0.7l8.3-1.5l2,11.2c-4.9-4.4-9.1-7.4-10.7-8.4c0-0.1,0-0.2,0-0.2L23.7,29.5z M53.5,23.5
	c0.2,0.2,0.4,0.4,0.6,0.5l1,5.5c0,0,0,0,0,0c0.4,2.1,0.4,4.1-2.6,6.2l-5.2,0.9L45.2,25L53.5,23.5z M47.7,39.2l-0.1-0.4l0.8-0.1
	C48.2,38.8,48,39,47.7,39.2z M45.3,37.1l-8.8,1.6L34.4,27l8.8-1.6L45.3,37.1z M36.9,40.8L36.9,40.8l8.8-1.7l0.3,1.6
	c-2.4,2.2-3.6,4-4.2,5C40.2,43.9,38.5,42.3,36.9,40.8z M61.7,34.3c0.2,1.5,0,3.3-2.3,3.7c-7.8,1.4-12.4,4.8-14.9,7.2
	c1.3-1.7,3.8-4.4,8.3-7.2c0.1-0.1,0.2-0.2,0.4-0.2c0.3-0.1,0.5-0.2,0.6-0.4c3.3-2.4,3.6-4.9,3.3-7.4c0,0,0-0.1,0-0.1l-0.3-1.9
	C59.1,28.5,61.3,31.6,61.7,34.3z M43.1,11.6c0.2-0.2,0.3-0.3,0.3-0.4l8.1-1.4l2,11.1c-0.2,0.2-0.3,0.4-0.4,0.7l-8.3,1.5l-2-11.1
	C42.9,11.8,43,11.8,43.1,11.6z M32.3,13.2l8-1.4c0.1,0,0.2,0.1,0.5,0.3l2,11.4L34,25l-2-11.4C32.2,13.4,32.3,13.3,32.3,13.2z
	 M21.2,15.2l8.1-1.5c0.1,0,0.2,0.1,0.4,0.3c0.1,0.1,0.2,0.1,0.4,0.2l2,11.1l-8.3,1.5c-0.2-0.2-0.4-0.4-0.6-0.5L21.2,15.2z
	 M22.3,31.5c1.9,1.3,14.7,10.2,24,22.6C39.7,49.2,28.2,41.7,14,36.9C14.6,35.2,16.6,31.6,22.3,31.5z M24.7,43.4
	c12.8,6.1,22,13.4,25.2,16.1c-1.6,0.6-3.2,1.2-4.9,1.8c-9.4,3.5-14.2,5.4-15.7,7.4c-0.1-0.2-0.2-0.4-0.2-0.7L24.7,43.4z M60,65.2
	l-27.7,5c-0.4,0.1-0.8,0-1.2-0.1c-0.1,0-0.1-0.1-0.2-0.1c0.6-1.4,7.9-4.2,13.5-6.3c8.3-0.7,16-0.2,16.6,1c0,0,0,0.1-0.1,0.1
	C60.6,65,60.3,65.1,60,65.2z"/>
</svg>
