<?xml version="1.0" encoding="utf-8"?>
<!-- Generator: Adobe Illustrator 24.3.0, SVG Export Plug-In . SVG Version: 6.00 Build 0)  -->
<svg version="1.1" id="Layer_1" xmlns="http://www.w3.org/2000/svg" xmlns:xlink="http://www.w3.org/1999/xlink" x="0px" y="0px"
	 width="80px" height="80px" viewBox="0 0 80 80" style="enable-background:new 0 0 80 80;" xml:space="preserve">
<style type="text/css">
	.st0{fill:#FFFFFF;}
</style>
<g>
	<path class="st0" d="M18.7,22.3c0-0.3-0.1-0.5-0.3-0.7c-0.4-0.4-1-0.4-1.4,0c-0.2,0.2-0.3,0.4-0.3,0.7c0,0.1,0,0.3,0.1,0.4
		c0.1,0.1,0.1,0.2,0.2,0.3c0.2,0.2,0.4,0.3,0.7,0.3c0.1,0,0.3,0,0.4-0.1c0.1,0,0.2-0.1,0.3-0.2c0.1-0.1,0.2-0.2,0.2-0.3
		S18.7,22.4,18.7,22.3z"/>
	<path class="st0" d="M20.4,29.1c0-0.1-0.1-0.2-0.2-0.3c-0.4-0.4-1-0.4-1.4,0c-0.1,0.1-0.2,0.2-0.2,0.3c-0.1,0.1-0.1,0.2-0.1,0.4
		c0,0.3,0.1,0.5,0.3,0.7c0.1,0.1,0.2,0.2,0.3,0.2c0.1,0,0.2,0.1,0.4,0.1c0.1,0,0.3,0,0.4-0.1c0.1,0,0.2-0.1,0.3-0.2
		c0.2-0.2,0.3-0.4,0.3-0.7C20.5,29.3,20.4,29.2,20.4,29.1z"/>
	<path class="st0" d="M21.8,35.8c-0.1,0-0.1-0.1-0.2-0.1c-0.1,0-0.1,0-0.2-0.1c-0.3-0.1-0.7,0-0.9,0.3c-0.2,0.2-0.3,0.5-0.3,0.7
		c0,0.3,0.1,0.5,0.3,0.7c0.1,0.1,0.2,0.2,0.3,0.2c0.1,0,0.2,0.1,0.4,0.1c0.1,0,0.3,0,0.4-0.1c0.1-0.1,0.2-0.1,0.3-0.2
		c0.1-0.1,0.2-0.2,0.2-0.3c0.1-0.1,0.1-0.2,0.1-0.4c0-0.3-0.1-0.5-0.3-0.7C21.9,35.9,21.9,35.8,21.8,35.8z"/>
	<path class="st0" d="M22.8,20.9c-0.1-0.1-0.1-0.2-0.2-0.3c-0.4-0.4-1-0.4-1.4,0c-0.1,0.1-0.2,0.2-0.2,0.3c-0.1,0.1-0.1,0.2-0.1,0.4
		c0,0.3,0.1,0.5,0.3,0.7c0.2,0.2,0.4,0.3,0.7,0.3s0.5-0.1,0.7-0.3c0.2-0.2,0.3-0.4,0.3-0.7C22.8,21.1,22.8,21,22.8,20.9z"/>
	<path class="st0" d="M24.6,28.4c0-0.3-0.1-0.5-0.3-0.7c-0.1-0.1-0.2-0.2-0.3-0.2c-0.2-0.1-0.5-0.1-0.8,0c-0.1,0-0.2,0.1-0.3,0.2
		c-0.2,0.2-0.3,0.4-0.3,0.7c0,0.1,0,0.3,0.1,0.4c0,0.1,0.1,0.2,0.2,0.3c0.1,0.1,0.2,0.2,0.3,0.2c0.1,0,0.2,0.1,0.4,0.1
		c0.1,0,0.3,0,0.4-0.1c0.1,0,0.2-0.1,0.3-0.2c0.1-0.1,0.2-0.2,0.2-0.3C24.6,28.7,24.6,28.6,24.6,28.4z"/>
	<path class="st0" d="M25,34.7c-0.1,0-0.2,0.1-0.3,0.2c-0.2,0.2-0.3,0.4-0.3,0.7c0,0.3,0.1,0.5,0.3,0.7c0.2,0.2,0.4,0.3,0.7,0.3
		c0.1,0,0.3,0,0.4-0.1c0.1-0.1,0.2-0.1,0.3-0.2c0.2-0.2,0.3-0.4,0.3-0.7c0-0.3-0.1-0.5-0.3-0.7C25.8,34.6,25.4,34.5,25,34.7z"/>
	<path class="st0" d="M26.7,19.5c-0.4-0.4-1-0.4-1.4,0c-0.2,0.2-0.3,0.4-0.3,0.7c0,0.3,0.1,0.5,0.3,0.7c0.2,0.2,0.4,0.3,0.7,0.3
		c0.3,0,0.5-0.1,0.7-0.3s0.3-0.4,0.3-0.7C27,19.9,26.9,19.7,26.7,19.5z"/>
	<path class="st0" d="M28.2,26.5c-0.4-0.1-0.8-0.1-1.1,0.2c-0.2,0.2-0.3,0.5-0.3,0.7c0,0.1,0,0.3,0.1,0.4c0,0.1,0.1,0.2,0.2,0.3
		c0.1,0.1,0.2,0.2,0.3,0.2c0.1,0,0.2,0.1,0.4,0.1c0.3,0,0.5-0.1,0.7-0.3c0.1-0.1,0.2-0.2,0.2-0.3c0.1-0.1,0.1-0.2,0.1-0.4
		c0-0.3-0.1-0.5-0.3-0.7C28.4,26.6,28.3,26.5,28.2,26.5z"/>
	<path class="st0" d="M44.4,47.3c0.2,0.2,0.5,0.4,0.8,0.4c0.2,0,0.4-0.1,0.6-0.2c0.4-0.3,0.5-1,0.1-1.4c-0.1-0.1-2-2.6,0.1-5.5
		c0.1-0.2,0.3-0.4,0.5-0.5c1.5-1,3.8-0.5,4.7,0.3c0.4,0.4,0.3,0.7,0.1,0.9c-0.1,0.1-0.2,0.2-0.3,0.2c-0.1,0-0.1,0-0.2,0
		c0,0,0,0-0.1,0c0.1-0.5-0.1-1-0.6-1.2c-0.5-0.2-1.1,0-1.3,0.5c-0.3,0.7-0.2,1.7,0.7,2.3c0.4,0.3,0.9,0.4,1.3,0.4
		c0.2,0,0.4,0,0.6-0.1c0.5-0.1,1-0.5,1.4-1c0.8-1.1,0.7-2.4-0.3-3.5c-0.4-0.4-1-0.8-1.6-1c2.7-1.2,5.3-3.4,4-10.1
		C55,27.3,54.5,26.9,54,27c-0.5,0.1-0.9,0.6-0.8,1.2c1.2,6.4-1.4,7.4-4.4,8.5c-1.2,0.5-2.4,0.9-3.4,1.7c0,0,0,0,0,0c0,0,0,0,0,0
		c-0.3,0.3-0.6,0.5-0.8,0.9C42,42.7,43.4,46,44.4,47.3z"/>
	<path class="st0" d="M33.7,51c-1.2-6.4,1.4-7.4,4.4-8.5c1.2-0.5,2.4-0.9,3.4-1.7c0,0,0,0,0,0c0,0,0,0,0,0c0.3-0.3,0.6-0.5,0.8-0.9
		c2.5-3.4,1.1-6.7,0.1-8c-0.3-0.4-1-0.5-1.4-0.1c-0.4,0.3-0.5,1-0.1,1.4c0.1,0.1,2,2.6-0.1,5.5c-0.1,0.2-0.3,0.4-0.5,0.5
		c-1.4,1-3.6,0.5-4.4-0.3c-0.4-0.4-0.2-0.6-0.1-0.7c0,0,0.2-0.3,0.4-0.1c-0.1,0.5,0.1,1,0.6,1.2c0.5,0.2,1.1,0,1.3-0.5
		c0.3-0.6,0.2-1.6-0.7-2.3c-1-0.8-2.4-0.5-3.2,0.6c-0.8,1.1-0.7,2.4,0.3,3.4c0.4,0.4,0.9,0.7,1.4,0.9c-2.8,1.2-5.4,3.4-4.2,10.2
		c0.1,0.5,0.5,0.8,1,0.8c0.1,0,0.1,0,0.2,0C33.4,52,33.8,51.5,33.7,51z"/>
	<path class="st0" d="M45.8,19.1c0.3,0,0.6-0.1,0.8-0.3c0,0,0.2-0.3,0.6-0.5c0.3-0.2,0.5-0.7,0.4-1.1c0.2,0.3,0.6,0.5,1,0.4
		c0.8-0.2,1.6,0.1,2.5,0.7c0.2,0.1,0.4,0.2,0.6,0.2c0.3,0,0.6-0.1,0.8-0.4c0.3-0.4,0.2-1.1-0.2-1.4c-1.3-0.9-2.6-1.3-4-1
		c-0.5,0.1-0.9,0.6-0.8,1.2c0,0.1,0.1,0.2,0.1,0.3c0-0.1-0.1-0.2-0.1-0.3c-0.3-0.4-0.9-0.6-1.4-0.2c-0.6,0.4-0.9,0.8-1,0.9
		c-0.4,0.4-0.3,1,0.1,1.4C45.4,19,45.6,19.1,45.8,19.1z"/>
	<path class="st0" d="M71,29.3c-0.1-2.7-3.1-5-5.6-6.8l-1.3-0.9c-1.7-1.4-3.5-2.8-5.3-4.2c-1.8-1.4-3.7-2.7-5.6-3.9
		C50,11.3,45.5,12,43,15.1c-2.1,2.6-5,6.3-8.4,10.8c-0.1-0.1-0.2-0.2-0.3-0.3c0.2-0.6,0.3-1.3,0-2.4c-0.3-1.1-0.7-1.7-1.1-2.1
		c0.2-0.6,0.3-1.3,0-2.4c-0.3-1.1-0.7-1.7-1.2-2.1c0-0.1,0-0.1,0.1-0.2c0.2-0.6,0.2-1.4,0-2.2c-0.2-0.9-0.7-1.6-1.4-2
		c-0.7-0.5-1.6-0.6-2.4-0.4c-0.8,0.2-1.5,0.6-1.9,1.1c0,0,0,0-0.1,0.1c-0.6-0.3-1.4-0.3-2.3-0.1c-0.8,0.2-1.5,0.6-1.9,1.1
		c0,0,0,0-0.1,0.1c-0.6-0.3-1.4-0.3-2.3-0.1c-0.8,0.2-1.5,0.6-1.9,1.1c0,0,0,0-0.1,0.1c-0.6-0.3-1.4-0.3-2.3-0.1
		c-0.8,0.2-1.5,0.6-1.9,1.1c0,0,0,0-0.1,0.1c-0.6-0.3-1.4-0.3-2.3-0.1c-1.7,0.4-2.7,2.2-2.3,4c0.3,1.1,0.7,1.7,1.2,2.1
		c0,0.1,0,0.1-0.1,0.2c-0.2,0.6-0.2,1.4,0,2.2c0.3,1.1,0.7,1.7,1.2,2.1c0,0.1,0,0.1-0.1,0.2c-0.2,0.6-0.2,1.4,0,2.2
		c0.2,0.9,0.6,1.5,1,2c0,0,0.1,0.1,0.1,0.1c-0.2,0.6-0.3,1.3,0,2.4c0.3,1.1,0.7,1.7,1.1,2.1c-0.2,0.6-0.3,1.3,0,2.4
		c0.2,0.9,0.6,1.5,1,2c0,0,0.1,0.1,0.1,0.1c-0.2,0.6-0.3,1.3,0,2.4c0.4,1.5,1.7,2.6,3.2,2.6c0.2,0,0.5,0,0.7-0.1
		c0.8-0.2,1.5-0.6,1.9-1.1c0,0,0,0,0.1-0.1c0.3,0.1,0.6,0.2,1,0.2c-0.5,0.7-1,1.4-1.4,2c-2.3,3.3-1.6,7.7,1.4,10.3
		c1.8,1.5,3.6,2.9,5.4,4.2c1.7,1.3,3.6,2.6,5.6,3.9l1.3,0.9c2.2,1.6,5,3,7.3,3c0.6,0,1.1-0.1,1.6-0.3c0.8-0.3,1.3-0.8,1.7-1.4
		c0.9,0,1.9-0.6,2.7-1.6c0.5-0.7,0.8-1.5,0.8-2.3c0.7-0.2,1.4-0.7,1.9-1.5c0.5-0.7,0.8-1.5,0.8-2.3c0.7-0.2,1.4-0.8,1.9-1.5
		c0.5-0.7,0.8-1.5,0.8-2.3c0.7-0.2,1.4-0.8,1.9-1.5c0.5-0.7,0.8-1.5,0.8-2.3c0.7-0.2,1.4-0.8,1.9-1.5c0.5-0.7,0.8-1.5,0.8-2.3
		c0.7-0.2,1.4-0.8,1.9-1.5c0.5-0.7,0.8-1.5,0.8-2.3c0.7-0.2,1.4-0.7,1.9-1.5c0.5-0.7,0.8-1.5,0.9-2.3c0.7-0.2,1.4-0.8,1.9-1.5
		c0.5-0.7,0.8-1.5,0.8-2.3c0.7-0.2,1.4-0.7,1.9-1.5c0.5-0.6,0.8-1.4,0.8-2.1c0-0.4,0-0.7-0.1-1.1C70.7,31.3,71.1,30.4,71,29.3z
		 M23.2,41.5c-0.1,0.1-0.3,0.3-0.9,0.4c-1.1,0.3-1.2-0.2-1.3-0.4c-0.1-0.5-0.7-0.9-1.2-0.7c-0.5,0.1-0.8,0.5-0.8,1
		c0,0.1,0,0.2,0,0.2c0.1,0.4,0,0.5-0.1,0.6c-0.1,0.1-0.3,0.3-0.9,0.4c-0.6,0.2-1.3-0.3-1.5-1c-0.3-1.3,0.1-1.4,0.3-1.4
		c0.5-0.1,0.8-0.5,0.8-1c0-0.1,0-0.2,0-0.2c-0.1-0.5-0.7-0.9-1.2-0.7c-0.3,0.1-0.4,0-0.4-0.1c-0.1-0.1-0.3-0.4-0.5-1
		c-0.3-1.3,0.1-1.4,0.3-1.4c0.5-0.1,0.8-0.5,0.8-1c0-0.1,0-0.2,0-0.2c-0.1-0.5-0.7-0.9-1.2-0.7c-0.2,0-0.6,0.2-0.9-1.1
		c-0.3-1.3,0.1-1.4,0.3-1.4c0.5-0.1,0.8-0.5,0.8-1c0-0.1,0-0.2,0-0.2c-0.1-0.5-0.7-0.9-1.2-0.7c-0.3,0.1-0.4,0-0.4-0.1
		c-0.1-0.1-0.3-0.4-0.5-1s-0.1-1-0.1-1.1c0-0.1,0.1-0.2,0.3-0.3c0.5-0.1,0.8-0.5,0.8-1c0-0.1,0-0.2,0-0.2c-0.1-0.5-0.7-0.9-1.2-0.7
		c-0.2,0-0.6,0.2-0.9-1.1c-0.2-0.7-0.1-1-0.1-1.1c0-0.1,0.1-0.2,0.3-0.3c0.5-0.1,0.8-0.5,0.8-1c0-0.1,0-0.2,0-0.2
		c-0.1-0.5-0.7-0.9-1.2-0.7c-0.2,0-0.6,0.2-0.9-1.1c-0.2-0.7,0.2-1.4,0.8-1.6c1.1-0.3,1.3,0.2,1.3,0.4c0.1,0.5,0.7,0.9,1.2,0.7
		c0.5-0.1,0.8-0.5,0.8-1c0-0.1,0-0.2,0-0.2c-0.1-0.4,0-0.5,0.1-0.6c0.1-0.1,0.3-0.3,0.9-0.4c1.1-0.3,1.2,0.2,1.3,0.4
		c0.1,0.5,0.7,0.9,1.2,0.7c0.5-0.1,0.8-0.5,0.8-1c0-0.1,0-0.2,0-0.2c-0.1-0.4,0-0.5,0.1-0.6c0.1-0.1,0.3-0.3,0.9-0.4
		c1.1-0.3,1.2,0.1,1.3,0.4c0.1,0.5,0.7,0.9,1.2,0.7c0.5-0.1,0.8-0.5,0.8-1c0-0.1,0-0.2,0-0.2c-0.1-0.4,0-0.5,0.1-0.6
		c0.1-0.1,0.3-0.3,0.9-0.4c1.1-0.3,1.3,0.2,1.3,0.4c0.1,0.5,0.7,0.9,1.2,0.7c0.5-0.1,0.8-0.5,0.8-1c0-0.1,0-0.2,0-0.2
		c-0.1-0.4,0-0.5,0.1-0.6c0.1-0.1,0.3-0.3,0.9-0.4c0.3-0.1,0.6,0,0.9,0.2c0.3,0.2,0.5,0.5,0.6,0.8c0.2,0.7,0.1,1,0.1,1.1
		c0,0.1-0.1,0.2-0.3,0.3c-0.5,0.1-0.8,0.5-0.8,1c0,0.1,0,0.2,0,0.2c0.1,0.5,0.7,0.9,1.2,0.7c0.2,0,0.6-0.2,0.9,1.1
		c0.3,1.3-0.1,1.4-0.3,1.4c-0.5,0.1-0.8,0.5-0.8,1c0,0.1,0,0.2,0,0.2c0.1,0.5,0.7,0.9,1.2,0.7c0.2,0,0.6-0.2,0.9,1.1
		c0.3,1.3-0.1,1.4-0.3,1.4c-0.5,0.1-0.9,0.7-0.7,1.2c0.1,0.5,0.7,0.9,1.2,0.7c0,0,0,0,0,0c0.2,0,0.4-0.1,0.7,0.5
		c-0.7,0.9-1.4,1.8-2.1,2.8C28.2,34.5,25.5,38.3,23.2,41.5C23.2,41.5,23.2,41.5,23.2,41.5z M22.8,54.8c-2.3-1.9-2.7-5.2-1.1-7.6
		c2.4-3.6,6.4-9.2,11.1-15.6c4.8-6.4,9-11.8,11.7-15.2c1.1-1.4,2.8-2.1,4.5-2.1c1.1,0,2.2,0.3,3.2,1c1.8,1.2,3.7,2.5,5.5,3.9
		c1.8,1.4,3.6,2.7,5.3,4.1c2.3,1.9,2.8,5.2,1.1,7.7c-2.4,3.5-6.2,9-11.1,15.6c-4.9,6.6-9.1,11.9-11.7,15.2c-1.9,2.3-5.1,2.8-7.6,1.2
		l-0.2-0.2c0,0-0.1,0-0.1,0c-1.8-1.2-3.6-2.5-5.2-3.7C26.4,57.7,24.6,56.3,22.8,54.8z M53.7,52.7c-0.4,0.6-0.9,0.8-1.1,0.8
		c0,0,0,0,0,0L51.8,53c-0.4-0.3-1.1-0.2-1.4,0.2c-0.3,0.4-0.2,1.1,0.2,1.4l0.7,0.5c0,0,0,0,0,0c0.1,0.2,0,0.7-0.4,1.3
		c-0.4,0.6-0.9,0.8-1.1,0.8c0,0,0,0,0,0l-0.7-0.5c-0.4-0.3-1.1-0.2-1.4,0.2c-0.3,0.4-0.2,1.1,0.2,1.4l0.7,0.5c0,0,0,0,0,0
		c0.1,0.2,0,0.7-0.4,1.3c-0.5,0.6-1,0.8-1.1,0.8c0,0,0,0,0,0l-0.7-0.5c-0.4-0.3-1.1-0.2-1.4,0.2c-0.3,0.4-0.2,1.1,0.2,1.4l0.7,0.5
		c0.1,0.2,0,0.7-0.4,1.3c-0.4,0.6-0.9,0.8-1.1,0.8l-0.6-0.8c-0.3-0.4-1-0.5-1.4-0.2c-0.4,0.3-0.5,1-0.2,1.4l0.4,0.6
		c-0.1,0.3-0.3,0.4-0.6,0.5c-0.8,0.3-2.2,0-3.8-0.6c1.8-0.3,3.4-1.3,4.6-2.8c2.4-3,6-7.6,10.3-13.3c-0.2,0.4-0.1,1,0.3,1.3l0.7,0.5
		c0,0,0,0,0,0.1C54.2,51.7,54.1,52.2,53.7,52.7z M56.5,49c-0.4,0.5-0.8,0.8-1.1,0.8c0,0,0,0,0,0l-0.7-0.5c-0.4-0.3-0.9-0.2-1.3,0.1
		c0.4-0.6,0.8-1.1,1.2-1.7c0.5-0.6,0.9-1.2,1.3-1.8c-0.2,0.4-0.1,1,0.3,1.3l0.7,0.5c0,0,0,0,0,0.1C57,48,56.8,48.5,56.5,49z
		 M67.5,34.1c-0.4,0.6-0.9,0.8-1.1,0.8l-0.7-0.6c-0.4-0.3-1.1-0.2-1.4,0.2C64,35,64,35.6,64.5,35.9l0.7,0.5c0,0,0,0.1,0,0.1
		c0.1,0.1,0,0.7-0.4,1.3c-0.4,0.5-0.9,0.7-1.1,0.8L62.9,38c-0.4-0.3-1.1-0.2-1.4,0.2c-0.3,0.4-0.2,1.1,0.2,1.4l0.7,0.5
		c0,0,0,0,0,0.1c0.1,0.2,0,0.7-0.4,1.3c-0.4,0.6-0.9,0.8-1.1,0.8l-0.7-0.5c-0.4-0.3-1.1-0.2-1.4,0.2c-0.3,0.4-0.2,1.1,0.2,1.4
		l0.7,0.5c0,0,0,0,0,0.1c0.1,0.2,0,0.7-0.4,1.3c-0.4,0.5-0.8,0.8-1.1,0.8c0,0,0,0,0,0l-0.7-0.5c-0.4-0.3-0.9-0.2-1.3,0.1
		c4.2-5.7,7.5-10.5,9.7-13.6c1.2-1.7,1.6-3.8,1.2-5.7c1.1,1,2.1,2.1,2.1,3.1c0,0.5-0.2,1-0.8,1.5l-0.5-0.2c-0.5-0.2-1.1,0.1-1.3,0.7
		c-0.2,0.5,0.1,1.1,0.7,1.3l0.8,0.3C68,33.1,67.9,33.5,67.5,34.1z"/>
</g>
</svg>
