<?xml version="1.0" encoding="utf-8"?>
<!-- Generator: Adobe Illustrator 24.3.0, SVG Export Plug-In . SVG Version: 6.00 Build 0)  -->
<svg version="1.1" id="Layer_1" xmlns="http://www.w3.org/2000/svg" xmlns:xlink="http://www.w3.org/1999/xlink" x="0px" y="0px"
	 width="80px" height="80px" viewBox="0 0 80 80" style="enable-background:new 0 0 80 80;" xml:space="preserve">
<style type="text/css">
	.st0{fill:#FFFFFF;}
</style>
<path class="st0" d="M67.8,32.5c0-3.2-6.5-5-13.7-6L66.2,16c1-0.8,1.6-2,1.6-3.2c0.1-1.2-0.4-2.5-1.3-3.3c-0.9-0.9-2.1-1.3-3.4-1.3
	c-1.2,0.1-2.4,0.7-3.2,1.6L46,25.8c-0.7,0-1.4-0.1-2-0.1c-1.4,0-2.8-0.1-4-0.1s-2.5,0-4,0.1c-0.3,0-0.6,0-0.9,0
	c-9.8,0.4-22.9,2.1-22.9,6.7c0,0,0,0,0,0s0,0,0,0c0,0,0,0,0,0c0,0,0,0.1,0,0.1c0,0,0,0,0,0l0,0.1c0,0.1,0,0.2,0,0.2c0,0,0,0,0,0
	l0.9,7l3,22.7c0.1,1.7,2.3,3,7,4c1.6,0.3,3.5,0.6,5.6,0.9c1.8,0.2,3.7,0.3,5.8,0.4c1.8,0.1,3.6,0.1,5.4,0.1c0,0,0,0,0,0
	c0,0,0,0,0.1,0c0,0,0,0,0.1,0c1.7,0,3.5,0,5.2-0.1c2-0.1,4-0.2,5.7-0.4c0,0,0,0,0,0c2-0.2,3.9-0.5,5.6-0.8c4.9-1,7.2-2.3,7.3-4.1
	l3-22.7l0.9-7c0,0,0,0,0,0c0-0.1,0-0.1,0-0.2l0-0.1c0,0,0,0,0,0C67.8,32.6,67.8,32.5,67.8,32.5C67.8,32.5,67.8,32.5,67.8,32.5
	C67.8,32.5,67.8,32.5,67.8,32.5C67.8,32.5,67.8,32.5,67.8,32.5z M64.9,39.3C64.9,39.3,64.9,39.3,64.9,39.3c-0.2,0.1-0.4,0.2-0.5,0.3
	c0,0-0.1,0-0.1,0.1c-0.2,0.1-0.5,0.2-0.7,0.3c0,0,0,0-0.1,0c-0.3,0.1-0.5,0.2-0.8,0.3c0,0-0.1,0-0.1,0c-1.9,0.7-4.6,1.3-7.9,1.8
	c-0.2,0-0.5,0.1-0.8,0.1c-0.2,0-0.4,0.1-0.7,0.1c-1,0.1-2,0.2-3,0.3c-0.1,0-0.2,0-0.3,0c-1.1,0.1-2.1,0.2-3.2,0.2c0,0,0,0,0,0
	c0,0,0,0,0,0c-1,0.1-2,0.1-3.1,0.1c-0.2,0-0.4,0-0.6,0c-1,0-2,0-3.1,0c0,0-0.1,0-0.1,0c-1.1,0-2.2,0-3.3,0c-0.1,0-0.2,0-0.4,0
	c-1.1,0-2.2-0.1-3.3-0.1c-2.2-0.1-4.4-0.3-6.4-0.6c-0.2,0-0.4-0.1-0.6-0.1c-0.2,0-0.4-0.1-0.7-0.1c-0.4-0.1-0.8-0.1-1.2-0.2
	c-0.1,0-0.2,0-0.2,0c-2.6-0.4-4.8-1-6.4-1.5c0,0-0.1,0-0.1,0c-0.3-0.1-0.6-0.2-0.9-0.3c0,0,0,0,0,0c-0.3-0.1-0.5-0.2-0.7-0.3
	c0,0-0.1,0-0.1-0.1c-0.2-0.1-0.3-0.2-0.5-0.3c0,0,0,0-0.1,0l-0.5-3.8c3.6,2,10.5,3,17,3.5c0,0,0,0,0.1,0c0,0,3.4,0.3,7.1,0.3
	c0.3,0,0.5,0,0.8,0c0.1,0,0.3,0,0.4,0c1.2,0,2.6,0,4.1-0.1c0.9,0,1.5,0,1.5,0c0,0,0.1,0,0.1,0c7.1-0.3,15.6-1.4,19.7-3.6L64.9,39.3z
	 M34,45C34,45,34.1,45,34,45c1.6,0.1,3.1,0.1,4.7,0.1c0.1,0,0.1,0,0.2,0v21.1c-1.1,0-2.2,0-3.4-0.1L34,45z M48.5,26l13-15
	c0.4-0.5,1.1-0.9,1.8-0.9c0.7,0,1.3,0.2,1.8,0.7s0.7,1.1,0.7,1.8c0,0.7-0.3,1.3-0.9,1.8L51.4,26.2l0,0L49.3,28l0,0l-3.1,2.7
	l-0.8,0.7c-0.4,0.3-0.7,0.8-0.8,1.3c-0.2,0.6-0.2,1.2,0,1.8c0.3,0.8,0.3,1.6,0.1,2.7c0,0,0,0,0,0c0,0-0.1,0-0.1,0
	c-0.2,0-0.4,0-0.5,0c-1,0-2.6,0.1-4.4,0.1c-0.3,0-0.6,0-1,0c-2.2,0-4.4-0.1-5.7-0.2c0,0,0,0,0,0c0.6-1.4,1.6-2.9,2.5-3.8
	c0.2-0.2,0.5-0.4,0.7-0.7c1.2-1,3.1-2.1,5-1.3c1.1,0.4,2.3,0.1,3.1-0.6c0.1-0.1,0.1-0.1,0.2-0.2l2.2-2.6v0L48.5,26L48.5,26z
	 M65.8,32.5c0,0.1,0,0.1-0.1,0.2c-0.1,0.3-0.5,0.7-1.4,1.1c-3.3-1.4-8.7-2.4-15.2-2.9l3-2.6C61,29.3,65.8,31.3,65.8,32.5L65.8,32.5z
	 M46.5,33.8c-0.1-0.3,0-0.7,0.3-0.9l0.1-0.1c5.8,0.3,11,1.1,14.5,2.2c-3.2,1-8.1,1.8-14.7,2.2C47,35.8,46.9,34.8,46.5,33.8z M31,37
	c-5.5-0.4-9.6-1.2-12.5-2.1c3.6-1.1,8.9-1.9,14.9-2.2C32.5,33.9,31.6,35.5,31,37z M40,27.7c1.5,0,2.9,0,4.3,0.1l-1.2,1.4
	c-0.2,0.3-0.7,0.4-1,0.2c-2-0.8-4.3-0.3-6.4,1.2c-8.6,0.3-16,1.5-20,3.2c-0.9-0.5-1.3-0.9-1.4-1.1c0-0.1,0-0.1-0.1-0.2l0-0.1
	c0.1-1.4,7-4,19.9-4.7C35.9,27.7,37.9,27.7,40,27.7z M18.2,62.6c0,0,0-0.1,0-0.1l-2.8-20.8c0.2,0.1,0.4,0.2,0.6,0.3
	c0.1,0,0.1,0,0.2,0.1c0.7,0.3,1.5,0.5,2.4,0.8c0.3,0.1,0.6,0.2,1,0.3c0.1,0,0.2,0,0.3,0.1l0.4,3.9l2,17.4
	C19.2,63.6,18.3,62.8,18.2,62.6z M24.3,64.9L23.2,55l-1.3-11.4c1.1,0.2,2.2,0.4,3.4,0.6l0.3,2.2l2.2,19.1
	C26.5,65.3,25.4,65.1,24.3,64.9z M29.8,65.7l-2.4-21.3c1.5,0.2,3,0.3,4.6,0.4c0,0,0,0,0,0L33.5,66C32.2,65.9,31,65.8,29.8,65.7z
	 M40.9,45.1c0.1,0,0.2,0,0.3,0c1.5,0,3-0.1,4.4-0.1c0.1,0,0.1,0,0.2,0l-1.5,21.1c-1.1,0-2.2,0.1-3.3,0.1V45.1z M46.7,59.7l1.1-14.8
	c0.1,0,0.1,0,0.2,0c0.7,0,1.4-0.1,2.1-0.2c0,0,0.1,0,0.1,0c0.8-0.1,1.5-0.1,2.2-0.2l-1.9,16.3l-0.6,5c-1.2,0.1-2.4,0.2-3.7,0.3
	L46.7,59.7z M54.4,44.2c1.3-0.2,2.6-0.4,3.7-0.6L55.4,65c-1.1,0.2-2.2,0.4-3.4,0.5L54.4,44.2z M61.8,62.5c0,0,0,0.1,0,0.1
	c-0.1,0.3-1,1.1-4.3,1.9l2.7-21.4c0.2,0,0.3-0.1,0.5-0.1c0.2-0.1,0.5-0.1,0.7-0.2c0.9-0.2,1.7-0.5,2.4-0.8c0,0,0.1,0,0.1-0.1
	c0.2-0.1,0.5-0.2,0.7-0.3L61.8,62.5z"/>
</svg>
