<?xml version="1.0" encoding="utf-8"?>
<!-- Generator: Adobe Illustrator 24.3.0, SVG Export Plug-In . SVG Version: 6.00 Build 0)  -->
<svg version="1.1" id="Layer_1" xmlns="http://www.w3.org/2000/svg" xmlns:xlink="http://www.w3.org/1999/xlink" x="0px" y="0px"
	 width="80px" height="80px" viewBox="0 0 80 80" style="enable-background:new 0 0 80 80;" xml:space="preserve">
<style type="text/css">
	.st0{fill:#FFFFFF;}
</style>
<g>
	<path class="st0" d="M65.4,37.7c0.4-0.7,0.7-1.4,0.7-2.2c0-1.2-0.6-2.3-1.6-3.3c1.1-1,1.6-2.1,1.6-3.5c0-4.7-9.2-9.7-26.1-9.7
		s-26.1,5-26.1,9.7c0,1.3,0.7,2.5,1.8,3.6c-1,1-1.5,2.1-1.5,3.3c0,0.8,0.2,1.5,0.7,2.2c-5.6,2.7-9,6.4-9,10.5
		c0,8.6,15.1,15.4,34.3,15.4c5.8,0,11.4-0.6,16.4-1.8c0.5-0.1,0.9-0.7,0.7-1.2c0,0,0,0,0-0.1c-0.2-0.5-0.7-0.8-1.2-0.7
		c-4.8,1.2-10.4,1.8-16,1.8c-17.5,0-32.3-6.1-32.3-13.4c0-3,2.5-5.8,6.7-8c-0.3,0.5-0.4,1.1-0.4,1.7c0,1.2,0.5,2.2,1.4,3.2
		c-0.9,1-1.4,2-1.4,3.2c0,5.9,13.4,9.1,26,9.1s26-3.2,26-9.1c0-1.2-0.5-2.2-1.4-3.2c0.9-1,1.4-2,1.4-3.2c0-0.6-0.1-1.2-0.4-1.7
		c4.2,2.3,6.7,5.1,6.7,8c0,3.5-3.5,6.9-9.6,9.4c-0.5,0.2-0.7,0.7-0.6,1.2c0,0,0,0.1,0,0.1c0.2,0.5,0.8,0.8,1.3,0.5
		c7-2.9,10.8-6.9,10.8-11.3C74.4,44,71,40.4,65.4,37.7z M16.2,48.1c0-0.6,0.3-1.3,1-1.9c4.7,3.1,14,4.7,23,4.7s18.3-1.6,23-4.7
		c0.6,0.6,1,1.3,1,1.9c0,3.4-9.8,7.1-24,7.1S16.2,51.5,16.2,48.1z M16.2,35.4c0-0.7,0.4-1.4,1.1-2c1.1,0.7,2.4,1.3,3.7,1.9
		c0.1,0,0.1,0.1,0.2,0.1c0.5,0.2,0.9,0.4,1.4,0.5c0,0,0.1,0,0.1,0c0.6,0.2,1.1,0.4,1.7,0.5c0,0,0.1,0,0.1,0c0.7,0.2,1.4,0.4,2,0.5
		c1.1,0.2,1.7,1.4,1.9,2.9c0.1,0.3,0.1,0.6,0.1,1c0,0.3,0.1,0.5,0.1,0.8c-0.7-0.1-1.5-0.3-2.2-0.4c-0.8-0.2-1.5-0.3-2.2-0.5
		c-2.3-0.6-4.2-1.4-5.5-2.1c-0.2-0.1-0.3-0.2-0.5-0.3c-0.2-0.1-0.3-0.2-0.5-0.3c-0.2-0.1-0.4-0.3-0.5-0.4c-0.1-0.1-0.2-0.2-0.3-0.3
		c-0.2-0.2-0.3-0.3-0.5-0.5C16.3,36.4,16.2,35.9,16.2,35.4z M15.9,28.6c0-3.6,9.9-7.7,24.1-7.7s24.1,4.1,24.1,7.7
		c0,0.8-0.4,1.5-1.2,2.2c-0.3,0.2-0.6,0.4-0.9,0.6c-0.3,0.2-0.6,0.4-1,0.6c-1.4,0.7-3.4,1.4-5.8,2.2c0,0,0,0,0,0
		c-0.6,0.2-1.2,0.4-1.9,0.6c0,0-0.1,0-0.1,0c-0.4,0.1-0.9,0.3-1.3,0.4c-0.2,0.1-0.4,0.1-0.5,0.2c-0.1,0-0.1,0.1-0.2,0.1
		c-1.8,0.8-2.3,2.3-2.5,3.9c0,0.3-0.1,0.7-0.1,1c0,0.2,0,0.4,0,0.5c0,0.1,0,0.3,0,0.5c0,0.2,0,0.5-0.1,0.7c0,0.1,0,0.3,0,0.4
		c0,0.3-0.2,0.5-0.3,0.6c-0.1,0.1-0.2,0.1-0.3,0.1c-0.1,0-0.1,0-0.2-0.1c-0.2-0.1-0.4-0.4-0.4-1c0-0.1,0-0.2,0-0.3
		c0-0.3-0.1-0.5-0.1-0.7c-0.1-0.4-0.3-0.8-0.6-1.1c-0.4-0.5-1-0.7-1.7-0.8c0,0,0,0,0,0c-0.5,0-1.1,0.2-1.6,0.6
		c-0.3,0.2-0.6,0.6-0.8,1c-0.2,0.4-0.3,0.8-0.4,1.4c0,0.1,0,0.1,0,0.2c0,0.3,0,0.6,0,1c0,0.3,0,0.7,0,1c0,0.3,0,0.6,0,0.8
		c0,0.5,0,0.9,0,1.2c0,0.8-0.5,1.2-0.9,1.2c0,0,0,0,0,0c-0.5,0-0.8-0.4-0.8-1.1l-0.1-2l-0.1-1l-0.1-1l-0.1-1.2c0-0.2,0-0.3-0.1-0.4
		c-0.1-0.4-0.1-0.7-0.3-1c-0.2-0.4-0.4-0.7-0.7-1c-0.6-0.6-1.4-0.9-2.1-0.9c0,0,0,0,0,0c-0.8,0-1.7,0.4-2.3,1.1
		c-0.2,0.3-0.4,0.6-0.6,1c-0.1,0.3-0.2,0.6-0.2,1c0,0,0,0,0,0c0,0.2,0,0.6,0,1c0,0.3,0,0.6,0,1c0,0.3,0,0.7,0,1
		c0,1.2-0.1,2.3-0.1,2.7c0,0.9-0.4,1.5-1.1,1.5c-0.5,0-1.2-0.3-1.3-1.2c-0.1-0.5-0.1-1.4-0.1-2.4c0-0.3,0-0.6,0-0.9c0-0.3,0-0.7,0-1
		c0-0.3,0-0.7,0-1c0-0.1,0-0.3,0-0.4c0-0.3-0.1-0.7-0.1-1c0-0.3-0.1-0.7-0.1-1c-0.3-1.6-0.9-3.1-2-3.9c0,0-0.1-0.1-0.1-0.1
		c-0.4-0.3-0.8-0.5-1.3-0.6c-0.1,0-0.2,0-0.3-0.1c-0.1,0-0.1,0-0.2,0c-0.7-0.2-1.4-0.3-2.1-0.5c0,0,0,0,0,0c-2.2-0.6-4-1.4-5.5-2.2
		c-0.3-0.2-0.7-0.4-0.9-0.6c-0.3-0.2-0.6-0.4-0.9-0.7C16.4,30.1,15.9,29.4,15.9,28.6z M64.1,35.4c0,0.5-0.2,0.9-0.5,1.4
		c-0.1,0.2-0.3,0.3-0.5,0.5c-0.1,0.1-0.2,0.2-0.3,0.3c-0.2,0.1-0.3,0.3-0.5,0.4c-0.1,0.1-0.3,0.2-0.5,0.3c-0.2,0.1-0.3,0.2-0.5,0.3
		c-1.4,0.8-3.3,1.5-5.5,2.1c-0.7,0.2-1.4,0.4-2.2,0.5c-0.9,0.2-1.8,0.4-2.7,0.5c-0.2,0-0.4,0.1-0.6,0.1c0-0.1,0-0.1,0-0.2
		c0-0.2,0-0.4,0-0.6c0-0.2,0-0.3,0-0.4c0-0.4,0.1-0.7,0.1-1c0.2-1.4,0.5-2.1,1.8-2.5c1-0.3,1.9-0.6,2.8-0.9c0,0,0.1,0,0.1,0
		c0.6-0.2,1.2-0.4,1.7-0.6c0,0,0,0,0,0c0.5-0.2,1-0.4,1.5-0.5c0.1,0,0.1,0,0.2-0.1c1.7-0.6,3.1-1.2,4.2-1.8
		C63.7,34,64.1,34.7,64.1,35.4z M35.3,47c0-0.3,0-1.4,0.1-2.5c0.8,0.1,1.6,0.1,2.4,0.1l0.1,2.2c0.1,1,0.4,1.7,0.9,2.2
		c-1.4,0-2.7-0.1-4-0.2C35.1,48.3,35.3,47.7,35.3,47z M35.5,41.4c0-0.1,0-0.2,0.1-0.2c0.1-0.7,0.6-1,1-1c0,0,0,0,0,0
		c0.4,0,0.8,0.3,1,0.9c0,0.2,0.1,0.3,0.1,0.5l0.1,1c-0.8,0-1.5-0.1-2.2-0.1C35.5,42,35.5,41.6,35.5,41.4z M44.5,41.5
		C44.5,41.5,44.5,41.5,44.5,41.5c0.4,0,0.5,0.5,0.5,0.7c0,0.1,0,0.2,0,0.3c-0.4,0-0.9,0.1-1.3,0.1C43.8,41.8,44.2,41.5,44.5,41.5z
		 M17.2,39.9c1.1,0.7,2.4,1.3,3.9,1.9c0.5,0.2,1,0.4,1.6,0.5c0.6,0.2,1.2,0.3,1.8,0.5c1.4,0.4,2.9,0.7,4.4,0.9c0,0.4,0,0.8,0,1.1
		c0,1.1,0,2,0.1,2.7c0,0.2,0.1,0.4,0.1,0.5c-4.4-0.7-7.9-1.9-10.1-3.1c-0.3-0.2-0.6-0.4-0.9-0.6c-0.3-0.2-0.6-0.5-0.8-0.7
		c-0.6-0.6-1-1.3-1-1.9C16.2,41.2,16.5,40.5,17.2,39.9z M62.3,44.4c-0.3,0.2-0.6,0.4-0.9,0.6c-3.5,2-10.2,3.6-18.6,3.9
		c0.5-0.5,0.9-1.3,0.9-2.2c0-0.3,0-0.7,0-1.2c0-0.3,0-0.6,0-0.9c0.7,0,1.4-0.1,2.2-0.1c0.5,0.6,1.2,0.9,1.8,0.9
		c0.9,0,1.7-0.5,2.2-1.3c2.1-0.3,4.1-0.7,6-1.1c0.6-0.2,1.2-0.3,1.8-0.5c0.5-0.2,1.1-0.3,1.6-0.5c1.5-0.6,2.9-1.2,3.9-1.9
		c0.6,0.6,1,1.3,1,1.9c0,0.6-0.3,1.3-1,1.9C62.9,43.9,62.6,44.1,62.3,44.4z"/>
	<path class="st0" d="M31.6,27.8c0.1,0.3,0.2,0.7,0.4,1c0.7,1.3,2.1,2.3,3.8,2.3c0.4,0,0.8-0.1,1.1-0.2c0,0.7,0.2,1.3,0.5,1.8
		c0,0,0,0.1,0.1,0.1c0.2,0.3,0.4,0.6,0.6,0.9c0,0,0.1,0.1,0.1,0.1c0.4,0.4,0.8,0.7,1.4,0.9c0.1,0.1,0.3,0.1,0.4,0.1
		c0.4,0.1,0.8,0.2,1.2,0.2c0.4,0,0.7-0.1,1.1-0.2c0.1,0,0.3-0.1,0.4-0.1c0.5-0.2,1-0.5,1.4-0.8c0,0,0.1-0.1,0.1-0.1
		c0.3-0.2,0.5-0.5,0.7-0.8c0,0,0-0.1,0.1-0.1c0.4-0.7,0.6-1.4,0.6-2.2c0-0.8-0.2-1.5-0.6-2.1c-0.2-0.3-0.4-0.6-0.7-0.9
		c0,0,0-0.1,0.1-0.1c0.2-0.3,0.3-0.6,0.4-1c0.1-0.3,0.1-0.6,0.1-0.9c0-2.3-1.8-4.1-4.1-4.1c-1.3,0-2.4,0.6-3.2,1.5
		c-0.6-0.3-1.2-0.5-1.9-0.5c-2.4,0-4.3,1.9-4.3,4.3c0,0,0,0,0,0.1C31.4,27.1,31.5,27.5,31.6,27.8z M42.1,32.8
		c-0.3,0.1-0.6,0.2-0.9,0.2c-0.3,0-0.6-0.1-0.9-0.2c-0.1,0-0.2-0.1-0.2-0.1c-0.7-0.4-1.2-1.2-1.2-2.1c0-1.1,0.7-2,1.7-2.3
		c0.2-0.1,0.4-0.1,0.7-0.1c0.3,0,0.5,0.1,0.7,0.1c0.9,0.3,1.6,1.2,1.6,2.3c0,0.9-0.5,1.7-1.3,2.1C42.2,32.7,42.2,32.8,42.1,32.8z
		 M40.8,23.4c1.2,0,2.1,1,2.1,2.1c0,0.3-0.1,0.6-0.2,0.8c0,0,0,0.1-0.1,0.1c-0.1-0.1-0.3-0.1-0.4-0.1c-0.3-0.1-0.7-0.1-1-0.1
		c-0.3,0-0.6,0-0.9,0.1c-0.1,0-0.2,0.1-0.3,0.1c0,0,0-0.1,0-0.1c-0.1-0.8-0.4-1.5-0.8-2.1C39.5,23.7,40.1,23.4,40.8,23.4z
		 M35.7,24.4c1.1,0,2.1,0.8,2.2,1.9c0,0.1,0,0.3,0,0.4c0,0.2,0,0.4-0.1,0.6c-0.1,0.4-0.3,0.7-0.6,1c-0.4,0.4-1,0.7-1.6,0.7
		c-0.5,0-1-0.2-1.4-0.5c-0.3-0.2-0.6-0.6-0.7-0.9c-0.1-0.3-0.2-0.5-0.2-0.8c0,0,0-0.1,0-0.1C33.5,25.4,34.5,24.4,35.7,24.4z"/>
	<path class="st0" d="M22.2,27.1c0.2,0,0.3,0,0.5-0.1c1-0.5,2.4-1,4.1-1.4c0.5-0.1,0.9-0.7,0.7-1.2c-0.1-0.5-0.7-0.9-1.2-0.7
		c-1.9,0.5-3.4,1-4.6,1.6c-0.5,0.3-0.7,0.9-0.4,1.4C21.5,26.9,21.9,27.1,22.2,27.1z"/>
</g>
</svg>
