<?xml version="1.0" encoding="utf-8"?>
<!-- Generator: Adobe Illustrator 24.3.0, SVG Export Plug-In . SVG Version: 6.00 Build 0)  -->
<svg version="1.1" id="Layer_1" xmlns="http://www.w3.org/2000/svg" xmlns:xlink="http://www.w3.org/1999/xlink" x="0px" y="0px"
	 width="80px" height="80px" viewBox="0 0 80 80" style="enable-background:new 0 0 80 80;" xml:space="preserve">
<style type="text/css">
	.st0{fill:#FFFFFF;}
</style>
<g>
	<path class="st0" d="M71.5,16.7c-0.6-0.5-1.4-0.8-2.2-0.7l-8.7,1c-2.4,0.3-4.8,0.3-7.3,0.1l-10.1-1c-4.1-0.4-8.3-0.2-12.3,0.6
		l-3.5,0.7c-1.5,0.3-2.7,1.7-2.7,3.2V26h-5.4c-0.6,0-1,0.4-1,1v3.6c-0.4-0.1-0.8-0.1-1.2-0.1c-5.4,0-9.6,6.9-9.6,15.8
		c0,6.8,1,15.8,9.6,15.8c1.1,0,2.4-0.2,3.7-0.8c2.4,1.9,4.9,2.9,7.1,2.9c1.2,0,2.3-0.3,3.2-0.8c1-0.6,1.7-1.4,2.3-2.4h31.5
		c0.6,0,1-0.4,1-1V56h3.5c1.7,0,3-1.4,3-3V18.8C72.5,18,72.1,17.3,71.5,16.7z M26.7,20.5c0-0.6,0.4-1.2,1.1-1.3l3.5-0.7
		c3.9-0.7,7.8-0.9,11.7-0.5l10.1,1c2.5,0.3,5.1,0.2,7.7-0.1l8.7-1c0.2,0,0.5,0,0.7,0.2c0.2,0.2,0.3,0.4,0.3,0.6v1.9l-8.5,1
		c-2.5,0.3-5.1,0.3-7.7,0.1l-10.1-1c-3.8-0.4-7.7-0.3-11.5,0.4l-6.1,1V20.5z M63.9,56v2.9H34.3c0.2-0.9,0.4-1.8,0.4-2.9
		c0-0.1,0-0.2,0-0.4c0-0.5,0-1.1-0.1-1.6c-0.1-1.1-0.3-2.2-0.6-3.3c0.2-0.2,0.3-0.4,0.5-0.6c5.5-6.9,6.5-15,2.3-18.3
		c-2.5-2-6.3-1.8-10.1,0.3c-0.7,0.4-1.3,0.8-2,1.2c-0.4,0.3-0.9,0.6-1.3,1c-0.9-1.3-1.9-2.3-3.1-3V28h4.4h2h37.2v10.1
		c-2.6,0.5-4.7,2.8-4.7,5.6s2,5.1,4.7,5.6V54V56z M31.2,60.7c-0.3,0.3-0.6,0.6-1,0.9c-1.7,1-3.9,0.6-6.2-0.7
		c-0.5-0.3-0.9-0.5-1.4-0.9c0,0,0.1-0.1,0.1-0.1c0.3-0.3,0.6-0.6,0.9-1c0.1-0.1,0.2-0.3,0.3-0.4c1.8-0.3,3.4-1.2,5-2.5
		c0.8-0.6,1.5-1.3,2.3-2c0.4-0.4,0.9-0.9,1.3-1.4c0.1,0.5,0.2,0.9,0.2,1.4c0.1,0.6,0.1,1.1,0.1,1.6c0,0.1,0,0.2,0,0.4
		c0,0.9-0.1,1.7-0.3,2.4c-0.2,0.6-0.4,1.1-0.6,1.5C31.6,60.2,31.4,60.5,31.2,60.7z M18.3,60c-0.4,0.1-0.8,0.1-1.2,0.1
		c-5.3,0-7.6-4.1-7.6-13.8c0-7.5,3.5-13.8,7.6-13.8c0.4,0,0.8,0.1,1.2,0.2c0.3,0.1,0.7,0.2,1,0.4c0.3,0.2,0.7,0.5,1,0.7
		c0.4,0.4,0.8,0.8,1.1,1.2c0.1,0.2,0.3,0.4,0.4,0.6c0.2,0.2,0.3,0.5,0.5,0.8c0,0,0,0.1,0.1,0.1c0.2,0.3,0.3,0.6,0.5,0.9
		c0.1,0.1,0.1,0.3,0.2,0.5c0.5,1.1,0.8,2.3,1.1,3.6c0.1,0.4,0.1,0.8,0.2,1.2c0,0.1,0,0.1,0,0.2c0.1,0.4,0.1,0.8,0.1,1.2
		c0.1,0.7,0.1,1.5,0.1,2.3c0,3.1-0.4,7.4-2,10.3c-0.2,0.3-0.4,0.7-0.6,1c-0.2,0.3-0.5,0.6-0.8,0.9c-0.1,0.1-0.1,0.1-0.2,0.2
		c-0.1,0.1-0.2,0.1-0.3,0.2c-0.2,0.1-0.4,0.3-0.6,0.4c-0.3,0.1-0.5,0.3-0.8,0.4c-0.1,0-0.1,0-0.2,0.1C18.8,59.9,18.6,59.9,18.3,60z
		 M32.6,49.4c-0.3,0.3-0.5,0.6-0.7,0.9c-1.3,1.5-2.5,2.7-3.6,3.7c-1,0.8-2,1.5-2.9,1.9c0,0-0.1,0-0.1,0.1c0,0,0-0.1,0-0.1
		c0.6-1.5,1-3.3,1.2-5.6c0.1,0,0.2,0,0.3-0.1c0.2-0.1,0.3-0.2,0.4-0.4c0.3-0.4,0.4-0.8,0.5-1.3c0.2-0.8,0.5-1.8,1.9-3
		c0.2-0.2,0.5-0.4,0.8-0.6c0.3-0.2,0.5-0.4,0.8-0.5c0.2-0.1,0.4-0.2,0.6-0.3c1.6-0.9,3.2-3.4,3.5-5.1c0.1-0.5-0.3-1.1-0.8-1.2
		c-0.5-0.1-1.1,0.3-1.2,0.8c-0.2,1.2-1.4,3.2-2.5,3.7c-0.3,0.1-0.5,0.3-0.8,0.4c-0.3,0.2-0.6,0.4-0.8,0.5c-0.3,0.2-0.6,0.4-0.8,0.6
		c-0.8,0.7-1.4,1.3-1.8,1.9c0,0-0.1,0.1-0.1,0.1c0-1.2-0.1-2.3-0.3-3.4c0.1-0.1,0.2-0.2,0.3-0.3c0.1-0.1,0.3-0.2,0.4-0.3
		c0.1-0.1,0.2-0.1,0.3-0.2c0.2-0.2,0.3-0.3,0.4-0.5c0.2-0.3,0.4-0.6,0.6-0.9c0.3-0.6,0.5-1.3,0.5-1.9c0-0.6-0.4-1-0.9-1.1
		c-0.5,0-1,0.4-1.1,0.9c0,0.1,0,0.3-0.1,0.4c0,0.1,0,0.2-0.1,0.3c-0.1,0.2-0.2,0.5-0.3,0.7c-0.1,0.2-0.3,0.5-0.5,0.7
		c-0.1-0.5-0.3-1.1-0.5-1.6c-0.2-0.7-0.5-1.3-0.7-1.9c0,0,0,0,0,0c-0.1-0.2-0.2-0.4-0.3-0.6c0.1-0.1,0.2-0.1,0.3-0.2
		c0.7-0.5,1.3-1,2-1.4c2-1.3,4.1-2,5.8-2c1.2,0,2.2,0.3,3,0.9c3.1,2.5,2.1,9.3-2.3,15c-0.1,0.2-0.2,0.3-0.4,0.5
		C32.8,49.1,32.7,49.3,32.6,49.4z M70.5,53c0,0.6-0.5,1-1,1h-3.5v-5.7c0-0.6-0.4-1-1-1c-2,0-3.7-1.6-3.7-3.7s1.6-3.7,3.7-3.7
		c0.6,0,1-0.4,1-1V27c0-0.6-0.4-1-1-1H26.7v-1.8l6.4-1.1c3.6-0.6,7.3-0.7,10.9-0.3l10.1,1c2.7,0.3,5.4,0.3,8.1-0.1l8.2-1V53z"/>
	<path class="st0" d="M45.5,50c-0.3,0-0.5,0.1-0.7,0.3c-0.2,0.2-0.3,0.4-0.3,0.7c0,1.3-1.1,2.3-2.3,2.3s-2.3-1.1-2.3-2.3
		c0-1.3,1.1-2.3,2.3-2.3c0.3,0,0.5-0.1,0.7-0.3c0.2-0.2,0.3-0.4,0.3-0.7c0-0.6-0.4-1-1-1c-2.4,0-4.3,1.9-4.3,4.3
		c0,1.2,0.5,2.2,1.2,3c0.8,0.8,1.9,1.3,3.1,1.3s2.3-0.5,3.1-1.3c0.8-0.8,1.2-1.9,1.2-3C46.5,50.5,46,50,45.5,50z"/>
	<path class="st0" d="M54.5,35.9c0-2.6-2.1-4.7-4.7-4.7s-4.7,2.1-4.7,4.7s2.1,4.7,4.7,4.7S54.5,38.5,54.5,35.9z M49.8,38.6
		c-1.5,0-2.7-1.2-2.7-2.7s1.2-2.7,2.7-2.7s2.7,1.2,2.7,2.7S51.3,38.6,49.8,38.6z"/>
	<path class="st0" d="M53.5,45.5c-1.6,0-2.8,1.3-2.8,2.8s1.3,2.8,2.8,2.8s2.8-1.3,2.8-2.8S55.1,45.5,53.5,45.5z M53.5,49.1
		c-0.5,0-0.8-0.4-0.8-0.8s0.4-0.8,0.8-0.8s0.8,0.4,0.8,0.8S54,49.1,53.5,49.1z"/>
	<path class="st0" d="M19.6,58.1c0.2-0.1,0.3-0.2,0.4-0.2c0.1-0.1,0.2-0.2,0.3-0.2c0.1-0.1,0.2-0.2,0.3-0.2c0.2-0.3,0.4-0.6,0.5-0.9
		c0-0.2,0.1-0.3,0.1-0.5c0-0.6-0.3-1.2-0.8-1.6c-0.3-0.2-0.6-0.4-1-0.6c-0.3-0.1-0.6-0.2-1-0.3c-0.4-0.1-0.8-0.1-1.2-0.1
		c-0.1,0-0.1,0-0.2,0c-0.1,0-0.1,0-0.2,0c-0.3,0-0.6,0.1-0.9,0.1c-0.1,0-0.1,0-0.2,0c-0.3,0.1-0.5,0.1-0.8,0.2
		c-0.1,0-0.1,0.1-0.2,0.1c-1,0.5-1.6,1.2-1.6,2.1c0,1.5,1.7,2.6,4,2.6c0.3,0,0.6,0,0.8-0.1c0.1,0,0.2,0,0.4-0.1
		c0.3-0.1,0.5-0.1,0.8-0.2c0.1,0,0.2-0.1,0.2-0.1C19.4,58.2,19.5,58.1,19.6,58.1z M17.1,56.6c-0.3,0-0.5,0-0.7-0.1
		c-0.8-0.1-1.2-0.4-1.3-0.5c0-0.1,0.3-0.3,0.6-0.4c0.1,0,0.2-0.1,0.3-0.1c0.2-0.1,0.5-0.1,0.8-0.1c0.1,0,0.2,0,0.3,0
		c0.1,0,0.1,0,0.2,0c0.3,0,0.6,0,0.8,0.1c0.1,0,0.2,0,0.2,0.1c0.4,0.1,0.7,0.3,0.8,0.4c0,0.1-0.2,0.2-0.4,0.3
		c-0.1,0-0.1,0.1-0.2,0.1c-0.1,0-0.1,0-0.2,0.1c-0.2,0.1-0.4,0.1-0.7,0.1C17.5,56.6,17.3,56.6,17.1,56.6
		C17.1,56.6,17.1,56.6,17.1,56.6z"/>
	<path class="st0" d="M13.4,43.1c1.2,2.8,1.1,4.3,0.8,5.3c-0.1,0.3-0.2,0.6-0.3,0.8c-0.1,0.2-0.2,0.4-0.2,0.5
		c-0.1,0.3-0.2,0.5-0.2,0.8c0,0.5,0.3,0.9,0.7,1c0.1,0,0.1,0.1,0.2,0.1c0,0,0.1,0,0.1,0c0,0,0.1,0,0.1,0c0.2,0,0.4-0.1,0.6-0.2
		c0.1-0.1,0.2-0.2,0.2-0.4c0-0.1,0.1-0.2,0.1-0.3c0-0.2,0.1-0.4,0.3-0.7c0.4-1,1-2.3,0.5-4.6c-0.1-0.5-0.2-1-0.4-1.5
		c-0.2-0.5-0.4-1-0.6-1.6c-0.4-0.9-0.3-2.8,0.1-3.9c0.1-0.2,0.1-0.4,0.2-0.5c0.2-0.3,0.1-0.6,0-0.9c-0.1-0.2-0.2-0.4-0.4-0.5
		c-0.2-0.1-0.3-0.1-0.5-0.1c-0.4,0-0.7,0.2-0.9,0.5c0,0.1-0.1,0.2-0.1,0.2c-0.3,0.6-0.5,1.4-0.6,2.2c-0.1,0.9-0.1,1.8,0,2.7
		C13.2,42.4,13.3,42.8,13.4,43.1z"/>
	<path class="st0" d="M18.5,44c0.1,0.6,0.2,1.2,0.4,1.7c0.2,0.6,0.3,1.1,0.3,1.7c0,0.4-0.1,0.9-0.1,1.3c-0.1,0.6-0.2,1.2-0.2,1.7
		c0,0.3,0.2,0.6,0.4,0.8c0.2,0.1,0.3,0.2,0.6,0.2c0.2,0,0.3,0,0.4-0.1c0.3-0.2,0.6-0.5,0.6-0.9c0-0.4,0.1-0.9,0.2-1.4
		c0.1-0.6,0.2-1.1,0.2-1.6c0-0.8-0.2-1.5-0.4-2.2c0,0,0,0,0,0c-0.1-0.3-0.2-0.7-0.2-1c0-0.1-0.1-0.3-0.1-0.4c0-0.2,0-0.5,0-0.7
		c0.1-0.6,0.3-1.1,0.6-1.6c0.3-0.5,0.2-1.1-0.3-1.4c0,0-0.1,0-0.1,0c-0.4-0.2-1-0.1-1.3,0.3c-0.6,0.9-0.9,1.9-0.9,2.9
		c0,0.2,0,0.4,0,0.5C18.5,43.9,18.5,43.9,18.5,44z"/>
</g>
</svg>
