<?xml version="1.0" encoding="utf-8"?>
<!-- Generator: Adobe Illustrator 24.3.0, SVG Export Plug-In . SVG Version: 6.00 Build 0)  -->
<svg version="1.1" id="Layer_1" xmlns="http://www.w3.org/2000/svg" xmlns:xlink="http://www.w3.org/1999/xlink" x="0px" y="0px"
	 width="80px" height="80px" viewBox="0 0 80 80" style="enable-background:new 0 0 80 80;" xml:space="preserve">
<style type="text/css">
	.st0{fill:#FFFFFF;}
</style>
<g>
	<path class="st0" d="M70.7,35.4c0-0.6-0.2-1.2-0.6-1.9L55.8,15.2c-1.3-1.7-3.3-2.5-5.5-2.4c-0.3,0-0.7,0.1-1.1,0.1
		c-0.1-0.1-0.1-0.2-0.2-0.2c-0.8-0.8-1.8-1.2-3-1.2c-0.7,0-1.4,0.2-2,0.4c0.1-1.2,0.4-3.1,1.2-5c0.2-0.5,0-1.1-0.5-1.3
		c-0.5-0.2-1.1,0-1.3,0.5c-1,2.3-1.3,4.5-1.4,5.8c-1.1-0.3-2.5-0.2-4.1,1.4c-0.5,0.5-0.8,1.2-1.1,1.9c-0.1,0-0.1,0-0.2,0
		c-6.7,1.9-12.1,4.6-16.2,8.1c-0.6,0.5-0.9,1.2-0.9,2v10c-2.1,0.6-3.6,1.7-3.6,3.2c0,0.1,0,0.3,0,0.4c-2.2,1.1-2.7,2.3-2.7,3.3
		c0,0.3,0,0.6,0.1,0.8c-1.7,1.1-2.1,2.3-2.1,3.1c0,0.3,0.1,0.8,0.3,1.3c-1.9,1.2-2.3,2.5-2.3,3.4c0,1.4,1,2.7,2.7,3.6
		c0.6,7.2,2.8,12.4,2.8,12.6c0.1,0.1,0.1,0.3,0.3,0.4c0.1,0.1,3.3,2.9,10.1,2.9c4.8,0,7.9-1.4,9.3-2.3c0.7-0.4,1.1-1,1.3-1.8
		c0.3-0.7,2.2-5.9,2.7-11.9c1-0.6,1.7-1.2,2.2-1.9l3.2,0.7c10.6,2.4,21.6,5,24.7,5.4c0.1,0,0.2,0,0.3,0c0.5,0,0.9-0.2,1.3-0.5
		c0.4-0.3,0.6-0.8,0.6-1.3C70.7,56.2,70.7,39.1,70.7,35.4z M68.7,49.6C68.7,49.6,68.7,49.6,68.7,49.6l-31.6-6.9c0-0.1,0-0.2,0-0.3
		c0,0,0,0,0,0c0,0,0,0,0,0c0,0,0-0.1,0-0.1c0-0.9-0.5-2.2-2.7-3.3c0,0,0,0,0,0c1.7-2.6,5.5-1.5,6.3-1.3c1.4,0.5,1.9,1,2.6,1.7
		c0.8,0.8,1.7,1.6,3.8,2.1c2,0.4,3.2,0,4.3-0.4c1-0.4,1.7-0.6,3.2-0.3c1.4,0.3,1.9,0.9,2.6,1.6c0.8,0.8,1.6,1.7,3.6,2.1
		c0.6,0.1,1.2,0.2,1.8,0.2c1.1,0,2.1-0.2,3-0.4c1-0.2,2-0.4,3.1-0.3C68.7,45.7,68.7,47.7,68.7,49.6z M39.3,14.8
		c0.7-0.7,1.2-0.9,1.7-0.9c0.4,0,0.8,0.2,1.3,0.3c0.1,0,0.2,0.1,0.3,0.1c0,0,0.1,0,0.1,0c0.2,0.1,0.3,0.1,0.5,0.2
		c0.3,0.1,0.7,0,1-0.3c0.3-0.3,1-0.7,1.9-0.7c0.4,0,1.1,0.1,1.6,0.6c0.8,0.8,1.2,3,0.5,4.9c-0.5,1.4-1.7,3-4.5,3.2
		c-2.8,0.2-4-1.2-4.6-2.5C38.1,18,38.5,15.7,39.3,14.8z M36.5,17.5c0,1.1,0.2,2.2,0.7,3.2c1.1,2.4,3.2,3.7,5.9,3.7
		c0.2,0,0.4,0,0.6,0c3-0.2,5.3-1.8,6.3-4.5c0.6-1.6,0.7-3.4,0.2-4.9c0.1,0,0.2,0,0.3,0c1.4-0.1,2.8,0.5,3.7,1.6l14.2,18.1l-46.4-9.8
		C25.6,21.7,30.5,19.3,36.5,17.5z M21.5,26.8l47.2,9.9c0,1.3,0,3.1,0,5.1c-1.4-0.1-2.5,0.2-3.6,0.4c-1.2,0.3-2.4,0.5-3.9,0.2
		c-1.4-0.3-1.9-0.9-2.6-1.6c-0.8-0.8-1.6-1.7-3.6-2.1c-2-0.4-3.2,0-4.3,0.4c-1,0.4-1.7,0.6-3.2,0.3c-1.5-0.3-2.1-0.9-2.8-1.6
		c-0.7-0.7-1.6-1.5-3.4-2.1c-2.5-0.8-5.7-0.9-7.8,1.1c-0.8-0.7-2-1.3-3.6-1.7c0,0,0,0,0,0c0.2-1.3-0.3-2.4-1.6-3.2
		c-1-0.6-1.4-0.9-2-0.5c-0.6,0.4-0.4,1.1-0.4,1.3c0.1,0.4,0.2,1.1-2,1.9c-0.9,0-1.7,0.1-2.5,0.3V26.8z M33.9,65.6c0,0,0,0.1,0,0.2
		c-0.1,0.3-0.2,0.5-0.4,0.6c-1.2,0.7-3.9,2-8.2,2c-5.1,0-7.9-1.8-8.6-2.3c-0.4-1-1.9-5.2-2.5-10.7c3,1.1,7.1,1.7,11.1,1.7
		c4,0,8.1-0.6,11.1-1.7C35.7,60.9,33.9,65.6,33.9,65.6z M25.2,55.2c-8.6,0-13.9-2.5-13.9-4.3c0-0.6,0.6-1.3,1.7-1.9
		c0.5,0.3,1.2,0.5,2.1,0.5c0.6,0,1-0.4,1-1s-0.4-1-1-1c-0.6,0-1-0.1-1.2-0.3c0,0-0.1-0.1-0.1-0.1c-0.3-0.3-0.5-0.6-0.5-0.9
		c0-0.6,0.7-1.3,1.9-1.9c0.3-0.1,0.5-0.4,0.5-0.7c0.1-0.3,0-0.6-0.2-0.9c-0.2-0.2-0.3-0.4-0.3-0.6c0-0.5,0.7-1.2,2.4-1.8
		c0.3-0.1,0.5-0.4,0.6-0.7s0-0.7-0.2-0.9c-0.1-0.1-0.1-0.2-0.1-0.2c0-0.4,1.9-1.7,6.3-1.9c0.1,0,0.2,0,0.3-0.1
		c1.8-0.6,2.9-1.5,3.3-2.5c0.3,0.3,0.3,0.7,0,1.4c-0.1,0.2-0.2,0.4-0.5,0.6c-0.4,0.4-0.3,1,0.1,1.4c0.2,0.2,0.4,0.3,0.7,0.3
		c0.3,0,0.5-0.1,0.7-0.3c0.1-0.1,0.2-0.3,0.3-0.4c2.5,0.5,3.3,1.3,3.3,1.5c0,0,0,0.1-0.1,0.2c-0.2,0.2-0.3,0.6-0.2,0.9
		s0.3,0.6,0.6,0.7c1.6,0.6,2.3,1.3,2.4,1.7c-0.1,0.2-0.5,0.6-1.6,0.6c-0.6,0-1,0.4-1,1s0.4,1,1,1c0.7,0,1.3-0.1,1.8-0.3
		c1.1,0.6,1.8,1.2,1.8,1.8c0,0.3-0.2,0.6-0.5,0.9c-0.2,0.2-0.3,0.6-0.3,0.9s0.3,0.6,0.5,0.7c1.4,0.7,2.2,1.5,2.2,2.2
		C39.1,52.7,33.8,55.2,25.2,55.2z M44.2,51.3l-3.2-0.7c-0.1-0.9-0.6-2-2.3-3.1c0.3-0.5,0.3-1,0.3-1.3c0-0.3-0.1-0.7-0.2-1.1
		l29.4,6.4c0.1,0,0.1,0,0.2,0c0.1,0,0.2,0,0.3,0c0,2.5,0,4.5,0,5.2C65.5,56.2,54.7,53.7,44.2,51.3z"/>
	<path class="st0" d="M44.9,16.6c0.1,0,0.3,0.1,0.4,0.1c0,0,0,0.1,0,0.2c-0.1,0.5,0.3,1.1,0.8,1.2c0.1,0,0.1,0,0.2,0
		c0.5,0,0.9-0.3,1-0.8c0.2-0.9-0.1-1.5-0.4-1.8c-0.6-0.8-1.7-0.9-1.8-0.9c-0.5,0-1,0.4-1,0.9C44,16.1,44.4,16.6,44.9,16.6z"/>
	<path class="st0" d="M29.7,66.4c0.1,0,0.2,0.1,0.4,0.1c0.4,0,0.8-0.2,0.9-0.6c1.3-3.2,1.5-6.5,1.5-6.6c0-0.6-0.4-1-0.9-1.1
		c-0.5,0-1,0.4-1.1,0.9c0,0-0.3,3.1-1.4,6.1C29,65.6,29.2,66.2,29.7,66.4z"/>
	<path class="st0" d="M24.2,59.6l0,6.2c0,0.6,0.4,1,1,1c0,0,0,0,0,0c0.5,0,1-0.4,1-1l0-6.2c0-0.6-0.4-1-1-1
		C24.6,58.6,24.2,59,24.2,59.6z"/>
	<path class="st0" d="M19.8,59c-0.1-0.5-0.6-0.9-1.1-0.8c-0.5,0.1-0.9,0.6-0.8,1.1c0,0.1,0.5,3.1,1.3,6.5c0.1,0.5,0.5,0.7,1,0.7
		c0.1,0,0.2,0,0.3,0c0.5-0.1,0.9-0.7,0.7-1.2C20.2,62,19.8,59,19.8,59z"/>
	<path class="st0" d="M19.6,40.9l-1.1,1.2c-0.4,0.4-0.3,1,0.1,1.4c0.2,0.2,0.4,0.3,0.7,0.3c0.3,0,0.5-0.1,0.7-0.3l1.1-1.2
		c0.4-0.4,0.3-1-0.1-1.4C20.6,40.4,20,40.4,19.6,40.9z"/>
	<path class="st0" d="M36.6,49.6l-1.2-0.7c-0.5-0.3-1.1-0.2-1.4,0.3c-0.3,0.5-0.2,1.1,0.3,1.4l1.2,0.7c0.2,0.1,0.3,0.2,0.5,0.2
		c0.3,0,0.7-0.2,0.8-0.5C37.2,50.5,37,49.9,36.6,49.6z"/>
	<path class="st0" d="M26.6,50.5l-1.4,0.9c-0.5,0.3-0.6,0.9-0.3,1.4c0.2,0.3,0.5,0.5,0.8,0.5c0.2,0,0.4,0,0.5-0.2l1.4-0.9
		c0.5-0.3,0.6-0.9,0.3-1.4C27.7,50.3,27.1,50.2,26.6,50.5z"/>
	<path class="st0" d="M28.6,40.9l-1.4-0.9c-0.5-0.3-1.1-0.2-1.4,0.3c-0.3,0.5-0.2,1.1,0.3,1.4l1.4,0.9c0.2,0.1,0.3,0.2,0.5,0.2
		c0.3,0,0.7-0.2,0.8-0.5C29.2,41.8,29,41.2,28.6,40.9z"/>
	<path class="st0" d="M24.6,46.2l-1.4-0.9c-0.5-0.3-1.1-0.2-1.4,0.3c-0.3,0.5-0.2,1.1,0.3,1.4l1.4,0.9c0.2,0.1,0.3,0.2,0.5,0.2
		c0.3,0,0.7-0.2,0.8-0.5C25.2,47.1,25.1,46.4,24.6,46.2z"/>
	<path class="st0" d="M31.3,45.4l-1.3,0.3c-0.5,0.1-0.9,0.7-0.8,1.2c0.1,0.5,0.5,0.8,1,0.8c0.1,0,0.1,0,0.2,0l1.3-0.3
		c0.5-0.1,0.9-0.7,0.8-1.2C32.4,45.7,31.8,45.3,31.3,45.4z"/>
	<path class="st0" d="M19.6,49.5c-0.3-0.4-1-0.5-1.4-0.2c-0.4,0.3-0.5,1-0.2,1.4l0.9,1.1c0.2,0.2,0.5,0.4,0.8,0.4
		c0.2,0,0.4-0.1,0.6-0.2c0.4-0.3,0.5-1,0.2-1.4L19.6,49.5z"/>
</g>
</svg>
