<?xml version="1.0" encoding="utf-8"?>
<!-- Generator: Adobe Illustrator 24.3.0, SVG Export Plug-In . SVG Version: 6.00 Build 0)  -->
<svg version="1.1" id="Layer_1" xmlns="http://www.w3.org/2000/svg" xmlns:xlink="http://www.w3.org/1999/xlink" x="0px" y="0px"
	 width="80px" height="80px" viewBox="0 0 80 80" style="enable-background:new 0 0 80 80;" xml:space="preserve">
<style type="text/css">
	.st0{fill:#FFFFFF;}
</style>
<g>
	<path class="st0" d="M72.4,49.4c-1.5-3.8-4.2-6.7-8.3-8.7c0.1-0.1,0.1-0.2,0.2-0.3c0.2-0.5,0-1.1-0.4-1.3c-0.2-0.1-6-2.9-12.3,4.1
		c-1.1-0.8-3.2-1.9-6-1.6c-0.5,0.1-0.9,0.6-0.9,1.1s0.6,0.9,1.1,0.9c2.1-0.2,3.7,0.6,4.5,1.2c-5.7,7.5-2,12.7-1.8,13
		c0.2,0.2,0.4,0.4,0.7,0.4c0,0,0.1,0,0.1,0c0.2,0,0.4-0.1,0.6-0.2c0.1-0.1,0.2-0.2,0.3-0.2c2.7,3.7,6,6,10,6.7c1,0.2,2,0.3,3,0.3
		c4.2,0,7.5-1.6,8.6-2.4c0.3-0.2,0.6-0.6,0.8-1C73.2,59.8,74.5,54.8,72.4,49.4z M52.4,45.2c3.3-4,6.3-4.8,8.3-4.8
		c0.5,0,0.9,0.1,1.3,0.1c-1.5,2.5-3,3.1-3.6,3.2c-0.5,0.1-0.8,0.4-0.9,0.8c-0.1,0.5,0,0.9,0.4,1.2c2.3,1.9,2,4.5,1.8,5.5
		c-0.9,0.4-3.5,1.1-5.7-0.8c-0.4-0.3-0.9-0.4-1.3-0.2C52.2,50.5,52,51,52,51.4c0,0.6-0.2,2.2-2.4,4.1C48.9,53.9,48.3,50.2,52.4,45.2
		z M60.5,62.4c-3.5-0.7-6.5-2.7-8.9-6.1c1.3-1.3,1.9-2.5,2.2-3.5c3.5,2,7,0.1,7.2,0c0.2-0.1,0.4-0.3,0.5-0.6c0.1-0.2,1.3-4-1.3-7.1
		c0.9-0.4,2-1.3,3-2.8c3.7,1.8,6.2,4.4,7.5,7.7c0.9,2.4,1.1,4.9,0.9,6.9c-0.7-1.5-1.9-3.3-3.8-5c-0.4-0.4-1-0.3-1.4,0.1
		c-0.4,0.4-0.3,1,0.1,1.4c2.6,2.3,3.7,5.1,4.1,6.4c-0.9,0-3.2-0.2-6.1-1.5c-0.5-0.2-1.1,0-1.3,0.5c-0.2,0.5,0,1.1,0.5,1.3
		c1.9,0.8,3.5,1.3,4.7,1.5C66.4,62.4,63.5,63,60.5,62.4z"/>
	<path class="st0" d="M41.7,47.9c-2.5-3.3-9.7-3.1-15.1,0.5C17.2,54.7,16.1,67.5,16,68.1c0,0,0,0,0,0.1c0,0.1,0,0.2,0,0.3
		c0,0,0,0.1,0,0.1c0,0.1,0.1,0.2,0.2,0.3c0,0,0,0,0,0.1c0,0,0,0,0,0c0,0,0,0,0,0c0.2,0.1,2.6,2.2,6.9,2.2c3.1,0,7.1-1,11.9-4.6
		c10.9-7.8,7.7-16.2,7.1-17.6C42.1,48.5,41.9,48.2,41.7,47.9z M27.7,50.1c2.7-1.8,5.6-2.6,8-2.6c2,0,3.6,0.5,4.4,1.5
		c1.6,2.1-0.9,6.3-6.6,11.1c0,0,0,0,0,0c-0.1,0.1-6.1,5.1-15.3,6.8C18.7,63.6,20.8,54.7,27.7,50.1z M34,64.9
		c-6.7,4.8-11.4,4.5-14,3.7c8.8-2,14.5-6.7,14.8-6.9c3.2-2.7,5.2-4.9,6.3-6.8C40.7,57.7,39,61.3,34,64.9z"/>
	<path class="st0" d="M34.5,54.3c1.6-1.4,3.2-1.8,3.2-1.8c0.5-0.1,0.9-0.6,0.8-1.2c-0.1-0.5-0.6-0.9-1.2-0.8c-0.1,0-2.2,0.4-4.2,2.3
		c-0.4,0.4-0.4,1-0.1,1.4c0.2,0.2,0.5,0.3,0.7,0.3C34,54.5,34.3,54.5,34.5,54.3z"/>
	<path class="st0" d="M30.3,57.7c-0.1,0-2,0.6-3.3,2.1c-0.4,0.4-0.3,1,0.1,1.4c0.2,0.2,0.4,0.3,0.7,0.3c0.3,0,0.5-0.1,0.7-0.3
		c0.9-1,2.3-1.5,2.4-1.5c0.5-0.2,0.8-0.7,0.7-1.2C31.4,57.8,30.9,57.5,30.3,57.7z"/>
	<path class="st0" d="M30.4,50.9c-0.1,0-2.2,0.6-3.8,2.4c-0.4,0.4-0.3,1,0.1,1.4c0.2,0.2,0.4,0.3,0.7,0.3c0.3,0,0.5-0.1,0.7-0.3
		c1.2-1.3,2.9-1.8,2.9-1.8c0.5-0.2,0.8-0.7,0.7-1.2C31.5,51,30.9,50.7,30.4,50.9z"/>
	<path class="st0" d="M24,59.2c-0.1,0.1-1.2,0.6-2,1.7c-0.3,0.4-0.2,1.1,0.2,1.4c0.2,0.1,0.4,0.2,0.6,0.2c0.3,0,0.6-0.1,0.8-0.4
		c0.5-0.6,1.2-1,1.3-1.1c0.5-0.2,0.7-0.8,0.4-1.3C25.1,59.2,24.5,59,24,59.2z"/>
	<path class="st0" d="M29.3,42.8c4.4-1.5,7.1-3.8,8.1-6.9c1.5-4.9-1.9-9.9-2.7-11.2c0-1.1-0.4-4.3-2.7-6.8c-1.7-1.8-4.2-2.8-7.2-2.8
		C10.1,14.8,8.9,23.5,8.1,29.4c-0.2,1.7-0.5,3.4-1,4.2C7,33.7,6.8,33.9,6.7,34c0,0,0,0,0,0c-0.1,0.1-0.1,0.2-0.1,0.3c0,0,0,0,0,0.1
		c0,0.1,0,0.2,0,0.3c0,0,0,0.1,0,0.1c0,0.1,0,0.1,0,0.2c0,0,0,0.1,0,0.1c0,0,0,0.1,0.1,0.1c0,0.1,0.1,0.2,0.2,0.2c0,0,0,0,0,0
		c0,0,0,0,0,0c0.1,0.1,0.2,0.1,0.3,0.2c0,0,0.1,0,0.1,0c0.1,0,0.1,0,0.2,0c1.4,0.1,2.5,1.3,3.8,2.9c2.1,2.5,4.9,5.6,10.6,5.6
		C23.9,44.2,26.3,43.8,29.3,42.8z M12.7,37.2c-1.1-1.2-2.1-2.4-3.4-3.1c4.3-4.1,11.1-6.4,19.4-6.5c0.6,0,1-0.5,1-1c0-0.6-0.5-1-1-1
		c0,0,0,0,0,0c-7.7,0-14.2,1.9-18.8,5.4c0.1-0.5,0.1-0.9,0.2-1.4c0.8-5.7,1.8-12.8,14.6-12.6c2.5,0,4.4,0.8,5.8,2.2
		c2.2,2.3,2.1,5.7,2.1,5.7c0,0.2,0.1,0.5,0.2,0.6c0,0.1,4,5.2,2.6,9.6c-0.8,2.5-3,4.4-6.8,5.6C18.7,44.2,15.5,40.5,12.7,37.2z"/>
	<path class="st0" d="M23.4,39.2c1.4,0.3,2.7,0,3.7-0.7c0.6-0.4,1.1-0.7,1.7-0.7c1.9-0.2,3.2-1.2,3.7-2.7c0.2-0.5-0.1-1.1-0.7-1.2
		c-0.5-0.2-1.1,0.1-1.2,0.7c-0.1,0.3-0.3,1.1-2,1.3c-0.9,0.1-1.8,0.5-2.7,1.1c-0.5,0.4-1.3,0.5-2.1,0.4c-0.9-0.2-1.8-0.1-2.6,0.1
		c-1.7,0.6-2.8-0.8-2.9-1c-0.3-0.4-0.9-0.6-1.4-0.2c-0.5,0.3-0.6,0.9-0.3,1.4c0.5,0.8,1.9,2,3.7,2c0.5,0,1-0.1,1.5-0.3
		C22.3,39.2,22.8,39.1,23.4,39.2z"/>
	<path class="st0" d="M19,32.7c0.1,0,0.2,0,0.4-0.1c2.9-1.1,6.9-1.2,7-1.2c0.6,0,1-0.5,1-1c0-0.6-0.5-1-1-1c-0.2,0-4.4,0.1-7.6,1.4
		c-0.5,0.2-0.8,0.8-0.6,1.3C18.2,32.5,18.6,32.7,19,32.7z"/>
	<path class="st0" d="M23.7,20.3c-0.4,0.2-0.9,0.2-1.5,0.1c-1.5-0.2-2.7,0.1-3.7,1c-0.6,0.5-1.1,0.8-1.6,0.8
		c-1.9,0.3-3.2,1.4-3.5,2.9c-0.1,0.5,0.2,1.1,0.7,1.2c0.1,0,0.2,0,0.2,0c0.5,0,0.9-0.3,1-0.8c0.1-0.3,0.3-1.2,1.9-1.4
		c0.9-0.2,1.7-0.6,2.6-1.3c0.5-0.4,1.2-0.6,2.1-0.5c1,0.1,1.8,0,2.6-0.3c1.7-0.7,2.8,0.6,3,0.8c0.3,0.4,1,0.5,1.4,0.2
		c0.4-0.3,0.5-1,0.2-1.4C28.3,20.7,26.2,19.2,23.7,20.3z"/>
	<path class="st0" d="M56.4,35.3c2,0,3.8-0.6,5.4-1.9c2.8-2.2,4.5-6.1,4.2-9.6c-0.4-5.5-4.6-14-4.7-14.3c-0.2-0.3-0.5-0.5-0.9-0.6
		c-0.2,0-5.8-0.1-14.5,3.4c-6.2,2.5-7.2,6.9-6.8,10.1c0.3,3.4,2.2,6.5,5.2,8.6c0,0,0,0,0,0c0,0,0,0,0,0c0,0,0,0,0,0
		c2.1,1.5,3.7,2.1,9,3.8C54.3,35.2,55.4,35.3,56.4,35.3z M45.5,29.4c-1.8-1.3-3.2-3.3-0.8-8.5c2.2-4.8,12-6.1,12.1-6.1
		c0.5-0.1,0.9-0.6,0.9-1.1c-0.1-0.5-0.6-0.9-1.1-0.9c-0.4,0.1-10.9,1.5-13.7,7.2c-0.7,1.6-1.2,3-1.4,4.2c-0.2-0.7-0.4-1.4-0.4-2.1
		c-0.4-3.7,1.5-6.4,5.6-8.1c6.7-2.7,11.5-3.2,13.1-3.2c0.9,2,3.9,8.7,4.3,13c0.2,2.9-1.2,6.1-3.5,7.9c-1.3,1-3.6,2.1-6.7,1.1
		c-1.7-0.5-2.9-1-4-1.3c-0.2-0.1-0.8-0.4-0.9-1.7C49,27,51.9,22.4,54.6,21c0.5-0.2,0.7-0.9,0.4-1.3c-0.2-0.5-0.9-0.7-1.3-0.4
		c-3.4,1.7-6.7,7-6.6,10.7c0,0.2,0,0.3,0,0.5C46.5,30.1,46,29.8,45.5,29.4z"/>
	<path class="st0" d="M56.4,31.6c0.1,0,0.2,0,0.3-0.1c2.7-0.9,4.4-2.5,5.2-4.6c1.5-3.9-0.8-8.3-0.9-8.5c-0.3-0.5-0.9-0.7-1.4-0.4
		c-0.5,0.3-0.7,0.9-0.4,1.4c0,0,2,3.7,0.8,6.8c-0.6,1.6-2,2.7-4,3.5c-0.5,0.2-0.8,0.8-0.6,1.3C55.6,31.3,56,31.6,56.4,31.6z"/>
</g>
</svg>
