<?xml version="1.0" encoding="utf-8"?>
<!-- Generator: Adobe Illustrator 24.3.0, SVG Export Plug-In . SVG Version: 6.00 Build 0)  -->
<svg version="1.1" id="Layer_1" xmlns="http://www.w3.org/2000/svg" xmlns:xlink="http://www.w3.org/1999/xlink" x="0px" y="0px"
	 width="80px" height="80px" viewBox="0 0 80 80" style="enable-background:new 0 0 80 80;" xml:space="preserve">
<style type="text/css">
	.st0{fill:#FFFFFF;}
</style>
<g>
	<path class="st0" d="M22.8,45.8c-2.9-1-5.6-2.3-7.5-3.8c-0.4-0.3-1.1-0.2-1.4,0.2c-0.3,0.4-0.2,1.1,0.2,1.4c2.1,1.6,4.9,3,8.1,4.1
		c0.1,0,0.2,0.1,0.3,0.1c0.4,0,0.8-0.3,0.9-0.7C23.6,46.5,23.3,46,22.8,45.8z"/>
	<path class="st0" d="M40.7,48.4c-4.4,0-8.8-0.4-12.8-1.3c-0.5-0.1-1.1,0.2-1.2,0.8c-0.1,0.5,0.2,1.1,0.8,1.2
		c4.2,0.9,8.7,1.3,13.2,1.3c0.6,0,1-0.4,1-1S41.2,48.4,40.7,48.4z"/>
	<path class="st0" d="M40.7,39.9c6.5,0,11.4-2.4,11.4-5.6s-4.9-5.6-11.4-5.6s-11.4,2.4-11.4,5.6S34.2,39.9,40.7,39.9z M40.7,30.8
		c5.4,0,9.4,1.9,9.4,3.6s-4,3.6-9.4,3.6s-9.4-1.9-9.4-3.6S35.3,30.8,40.7,30.8z"/>
	<path class="st0" d="M71.6,48V36.3c0-2.6-1.5-5-4-7c0.4-0.7,0.6-1.4,0.6-2.3c0-1.8-1-3.4-2.6-4.2c0.1-0.5,0.2-0.9,0.2-1.4
		c0-2.6-2.1-4.8-4.8-4.8c-2.2,0-4,1.5-4.6,3.5c-0.2,0-0.4-0.1-0.7-0.1c-2,0-3.8,1.3-4.5,3.1c-3.3-0.5-6.9-0.8-10.7-0.8
		c-9.1,0-17.2,1.7-22.8,4.5c-1.1-0.5-2.3-0.7-3.6-0.7c-0.6,0-1,0.4-1,1c0,0.5-0.8,1.1-1.6,1.7c-1.6,1.2-4.1,3.1-3,6.8
		c0.2,0.6,0.4,1.2,0.7,1.7c0.1,0.2,0.2,0.3,0.4,0.4v11.6c0,7.9,13.6,14,30.9,14s30.9-6.2,30.9-14v-1.2C71.6,48.1,71.6,48.1,71.6,48
		C71.6,48,71.6,48,71.6,48z M53.1,24.8c0-0.5,0.1-0.9,0.3-1.3c0.5-0.9,1.4-1.5,2.4-1.5c0.2,0,0.4,0,0.5,0c0.1,0.9,0.5,1.7,1.1,2.4
		c0.3,0.4,0.7,0.7,1.1,0.9c-0.1,0.5-0.4,0.9-0.7,1.3c-0.5,0.5-1.2,0.9-2,0.9c-1.3,0-2.4-0.9-2.7-2.1C53.1,25.3,53.1,25.1,53.1,24.8z
		 M61.1,18.6c1.5,0,2.8,1.2,2.8,2.8s-1.2,2.8-2.8,2.8s-2.8-1.2-2.8-2.8S59.5,18.6,61.1,18.6z M65.9,28.2c-0.3,0.7-0.8,1.2-1.5,1.5
		c-0.3,0.1-0.7,0.2-1.1,0.2c-1.3,0-2.4-0.9-2.7-2.1c-0.1-0.2-0.1-0.5-0.1-0.7c0-0.3,0.1-0.6,0.2-0.9c0.1,0,0.2,0,0.3,0
		c0.3,0,0.6,0,0.9-0.1c1-0.2,2-0.8,2.7-1.5c0.9,0.5,1.5,1.4,1.5,2.5C66.2,27.5,66.1,27.8,65.9,28.2z M40.7,24.3
		c3.6,0,7.2,0.3,10.4,0.8c0.2,2.5,2.2,4.4,4.7,4.4c1.1,0,2.2-0.4,3-1.1c0.6,1.9,2.4,3.3,4.5,3.3c1.1,0,2.1-0.4,2.9-1
		c2.1,1.7,3.3,3.5,3.3,5.5V46c-0.8-0.7-2-1.5-4.2-1.5c-2.4,0-3.4,1.9-4.1,3.5c-0.9,1.9-1.6,3-3.7,3c-2.3,0-3.1-0.5-4-1.1
		c-1-0.7-2.2-1.5-5.1-1.5c-3.2,0-4.7,2.7-6.1,5.1c-1.4,2.5-2.5,4.1-4.3,4.1c-2.3,0-3.3-1.5-4.5-3.2C32.5,52.7,31.3,51,29,51
		c-2.9,0-4.3,0.4-5.6,0.8c-1,0.3-1.9,0.5-3.5,0.5c-4.7,0-7.7-7.8-8.1-8.9v-5c1,0.2,2.4,0.4,4.2,0.4c4,0,6-0.9,6.1-0.9
		c0.1,0,0.2-0.1,0.3-0.2c1.5-1.5,1.5-4.2,0-6.8c-0.6-1.1-1.4-2-2.3-2.7C25.3,25.8,32.7,24.3,40.7,24.3z M11.8,31.2
		c0.3-0.3,0.7-0.6,1.1-0.9c0.7-0.5,1.5-1.1,1.9-1.8c0.1-0.2,0.2-0.3,0.3-0.5c0.1,0,0.2,0,0.3,0.1c0.9,0.1,1.7,0.4,2.5,0.9
		c1.1,0.6,2,1.5,2.7,2.7c1,1.7,1.1,3.4,0.5,4.3c-0.5,0.2-2.2,0.7-5.1,0.7c-1.9,0-3.3-0.2-4.2-0.4c-0.4-0.1-0.6-0.2-0.8-0.2
		c-0.2-0.3-0.3-0.7-0.4-1c-0.2-0.7-0.2-1.2-0.1-1.7C10.6,32.5,11.1,31.9,11.8,31.2z M69.6,49.4c0,6.5-13.2,12-28.9,12
		s-28.9-5.5-28.9-12V48c1.7,2.9,4.4,6.2,8.1,6.2c2,0,3-0.3,4.1-0.6c1.2-0.3,2.4-0.7,5-0.7c1.2,0,1.9,0.9,3,2.5c1.2,1.8,2.8,4,6.1,4
		c3.2,0,4.7-2.7,6.1-5.1c1.4-2.5,2.5-4,4.3-4c2.3,0,3.1,0.5,4,1.1c1,0.7,2.2,1.5,5.1,1.5c3.4,0,4.6-2.4,5.5-4.2
		c0.8-1.7,1.3-2.3,2.3-2.3c2,0,2.7,0.7,3.3,1.5c0.3,0.3,0.5,0.6,0.9,0.8V49.4z"/>
	<path class="st0" d="M25.4,29.6h3.8c0.6,0,1-0.4,1-1s-0.4-1-1-1h-3.8c-0.6,0-1,0.4-1,1S24.8,29.6,25.4,29.6z"/>
	<path class="st0" d="M30,39.5c-0.3-0.4-1-0.5-1.4-0.2l-3.4,2.6c-0.4,0.3-0.5,1-0.2,1.4c0.2,0.3,0.5,0.4,0.8,0.4
		c0.2,0,0.4-0.1,0.6-0.2l3.4-2.6C30.2,40.6,30.3,40,30,39.5z"/>
	<path class="st0" d="M48.4,42.3c-0.3,0.5-0.2,1.1,0.2,1.4l2.8,2c0.2,0.1,0.4,0.2,0.6,0.2c0.3,0,0.6-0.1,0.8-0.4
		c0.3-0.5,0.2-1.1-0.2-1.4l-2.8-2C49.4,41.7,48.7,41.8,48.4,42.3z"/>
	<path class="st0" d="M65.4,40.5c0.1,0,0.2,0,0.3,0c0.4,0,0.8-0.3,1-0.7l1.1-3.8c0.2-0.5-0.2-1.1-0.7-1.2c-0.5-0.2-1.1,0.2-1.2,0.7
		l-1.1,3.8C64.5,39.8,64.8,40.4,65.4,40.5z"/>
	<path class="st0" d="M55.8,35.4c0.6,0,1-0.4,1-1V32c0-0.6-0.4-1-1-1s-1,0.4-1,1v2.4C54.8,34.9,55.3,35.4,55.8,35.4z"/>
	<path class="st0" d="M56.3,43.5c0.1,0.5,0.5,0.8,1,0.8c0.1,0,0.2,0,0.2,0l4.7-1.1c0.5-0.1,0.9-0.7,0.7-1.2
		c-0.1-0.5-0.7-0.9-1.2-0.7l-4.7,1.1C56.5,42.4,56.2,42.9,56.3,43.5z"/>
	<path class="st0" d="M40.3,43.3c0-0.8-0.7-1.5-1.5-1.5s-1.5,0.7-1.5,1.5s0.7,1.5,1.5,1.5S40.3,44.2,40.3,43.3z M38.3,43.3
		c0-0.3,0.2-0.5,0.5-0.5s0.5,0.2,0.5,0.5s-0.2,0.5-0.5,0.5S38.3,43.6,38.3,43.3z"/>
	<path class="st0" d="M61.1,37.7c0.8,0,1.5-0.7,1.5-1.5s-0.7-1.5-1.5-1.5s-1.5,0.7-1.5,1.5S60.3,37.7,61.1,37.7z M61.1,35.7
		c0.3,0,0.5,0.2,0.5,0.5s-0.2,0.5-0.5,0.5s-0.5-0.2-0.5-0.5S60.8,35.7,61.1,35.7z"/>
	<path class="st0" d="M15.4,31.1c0,0,1.2,0.9,1.2,2.4c0,0.6,0.4,1,1,1s1-0.4,1-1c0-2.1-1.3-3.4-1.8-3.9c-0.1-0.1-0.2-0.2-0.2-0.2
		c-0.5-0.3-1.1-0.2-1.4,0.2c-0.2,0.3-0.2,0.8,0,1.1C15.2,31,15.2,31.1,15.4,31.1z"/>
</g>
</svg>
