<?xml version="1.0" encoding="utf-8"?>
<!-- Generator: Adobe Illustrator 24.3.0, SVG Export Plug-In . SVG Version: 6.00 Build 0)  -->
<svg version="1.1" id="Layer_1" xmlns="http://www.w3.org/2000/svg" xmlns:xlink="http://www.w3.org/1999/xlink" x="0px" y="0px"
	 width="80px" height="80px" viewBox="0 0 80 80" style="enable-background:new 0 0 80 80;" xml:space="preserve">
<style type="text/css">
	.st0{fill:#FFFFFF;}
</style>
<g>
	<path class="st0" d="M61.9,17.7c-0.1-0.8-0.4-1.5-1-2c-0.6-0.5-1.3-0.7-2.1-0.7c-0.8,0.1-1.5,0.4-2,1l-4.9,5.8l3.7-10.4
		c0.5-1.5-0.3-3.1-1.7-3.7c-0.7-0.3-1.5-0.2-2.2,0.1c-0.7,0.3-1.2,0.9-1.5,1.6l-3.4,9.7c-1.6-3.8-5.3-6.4-9.6-6.4
		c-5.6,0-10.1,4.4-10.4,9.9c-4.3,1.3-7.5,5.3-7.5,10c0,1.2,0.2,2.3,0.6,3.4c-1,0.1-1.8,1-1.8,2v1.8c0,1,0.8,1.9,1.7,2
		c0.5,8.9,7.2,16.2,16,17.4v6.4c-2.7,0.5-4.8,2.8-4.8,5.7c0,0.6,0.4,1,1,1h12.8c0.6,0,1-0.4,1-1c0-2.8-2.1-5.2-4.8-5.7v-6.4
		c8.7-1.2,15.5-8.5,16-17.4c1-0.2,1.7-1,1.7-2v-1.8c0-0.9-0.6-1.7-1.4-2c0.4-1.1,0.6-2.3,0.6-3.5c0-2.4-0.8-4.6-2.1-6.4l5.5-6.4
		C61.7,19.2,62,18.5,61.9,17.7z M52.1,10.1c0.1-0.2,0.2-0.4,0.4-0.5c0.2-0.1,0.4-0.1,0.7,0c0.4,0.2,0.7,0.7,0.5,1.1l-4,11.3
		c-0.6-0.2-1.1-0.3-1.7-0.3L52.1,10.1z M37.2,14.7c4.1,0,7.6,3,8.3,6.9c-3.1,0.4-5.8,2.1-7.6,4.5c-2-2.5-5-4-8.2-4
		c-0.3,0-0.6,0-0.9,0C29.3,18,32.9,14.7,37.2,14.7z M56.7,38.1v1.8c0,0,0,0.1-0.1,0.1l-36.5-0.1l0.1-1.9L56.7,38.1z M29.7,24.2
		c2.9,0,5.5,1.5,7.1,3.9c-0.6,1.4-1,2.9-1,4.6c0,1.2,0.2,2.3,0.5,3.4H22c-0.5-1.1-0.7-2.2-0.7-3.4C21.3,27.9,25.1,24.2,29.7,24.2z
		 M40,67.7c1.7,0,3.2,1.2,3.6,2.8H33.1c0.4-1.6,1.9-2.8,3.7-2.8c0.6,0,1-0.4,1-1v-7.2c0.2,0,0.4,0,0.6,0c0.2,0,0.4,0,0.6,0v7.2
		C39,67.3,39.5,67.7,40,67.7z M38.4,57.6c-8.8,0-16.1-6.9-16.6-15.6H55C54.5,50.7,47.2,57.6,38.4,57.6z M55.8,32.6
		c0,1.2-0.2,2.3-0.7,3.4H38.5c-0.4-1.1-0.7-2.2-0.7-3.4c0-4.9,4-8.9,8.8-9c0,0,0.1,0,0.1,0c0,0,0.1,0,0.1,0
		C51.8,23.6,55.8,27.6,55.8,32.6z M59.7,18.5l-5.3,6.2c-0.4-0.4-0.9-0.8-1.3-1.1l5.3-6.2c0.1-0.2,0.4-0.3,0.6-0.3
		c0.2,0,0.5,0.1,0.6,0.2c0.2,0.1,0.3,0.4,0.3,0.6C59.9,18.1,59.8,18.3,59.7,18.5z"/>
	<path class="st0" d="M31.8,21.6c0.1,0.1,0.3,0.1,0.5,0.1c0.4,0,0.7-0.2,0.9-0.5c0.8-1.5,2.3-2.5,4-2.5c0.6,0,1.1,0.1,1.6,0.3
		c0.5,0.2,1.1-0.1,1.3-0.6c0.2-0.5-0.1-1.1-0.6-1.3c-0.7-0.3-1.5-0.4-2.3-0.4c-2.5,0-4.7,1.4-5.8,3.5C31.1,20.7,31.3,21.3,31.8,21.6
		z"/>
	<path class="st0" d="M24.3,33.6c0.6,0,1-0.4,1-1c0-2.4,2-4.4,4.4-4.4c0.6,0,1-0.4,1-1s-0.4-1-1-1c-3.5,0-6.4,2.9-6.4,6.4
		C23.3,33.1,23.8,33.6,24.3,33.6z"/>
	<path class="st0" d="M46.8,25.7c-3.8,0-6.9,3.1-6.9,6.9c0,0.6,0.4,1,1,1s1-0.4,1-1c0-2.7,2.2-4.9,4.9-4.9c0.6,0,1-0.4,1-1
		S47.4,25.7,46.8,25.7z"/>
</g>
</svg>
