<?xml version="1.0" encoding="utf-8"?>
<!-- Generator: Adobe Illustrator 24.3.0, SVG Export Plug-In . SVG Version: 6.00 Build 0)  -->
<svg version="1.1" id="Layer_1" xmlns="http://www.w3.org/2000/svg" xmlns:xlink="http://www.w3.org/1999/xlink" x="0px" y="0px"
	 width="80px" height="80px" viewBox="0 0 80 80" style="enable-background:new 0 0 80 80;" xml:space="preserve">
<style type="text/css">
	.st0{fill:#FFFFFF;}
</style>
<path class="st0" d="M66.3,52c0-0.4,0-0.7-0.1-1.1c0.7-1.2,1.1-2.4,1.1-3.8c0-4.3-4-7.9-10-9.6c0.5-3.6,0-7.9-1.5-12
	C52.5,16.5,45.6,11,40.2,13c-1.2,0.5-2.2,1.2-3,2.3c-0.3,0.1-0.7,0.1-1,0.3c-0.3,0.1-0.6,0.3-0.9,0.4c-1.3-0.3-2.6-0.2-3.8,0.2
	c-2.7,1-4.5,3.7-5.1,7.5c-0.2,1.2-0.3,2.4-0.2,3.7c-7.8,0.6-13.5,4.6-13.5,9.3c0,1.2,0.4,2.3,1,3.3c0,0.3-0.1,0.6-0.1,0.9
	c0,0.3,0,0.6,0.1,0.9c-0.6,1.1-1,2.2-1,3.3c0,5.3,6.9,9.4,15.7,9.4c1.3,0,2.6-0.1,3.8-0.3c-0.3,0.8-0.4,1.5-0.4,2.3
	c0,6,7.8,10.6,17.8,10.6s17.8-4.7,17.8-10.6c0-1.3-0.4-2.6-1.1-3.7C66.3,52.7,66.3,52.3,66.3,52z M65.4,47.1c0,4.7-7.2,8.6-15.8,8.6
	s-15.8-4-15.8-8.6s7.2-8.6,15.8-8.6S65.4,42.5,65.4,47.1z M31.8,47.7c-1.1,0.2-2.3,0.3-3.4,0.3c-5.9,0-11.1-2.3-12.4-5.3
	c2.9,2.2,7.3,3.6,12.4,3.6c1.2,0,2.3-0.1,3.5-0.2c-0.1,0.4-0.1,0.7-0.1,1.1C31.8,47.3,31.8,47.5,31.8,47.7z M35.6,18.2
	c-1.3,3.8-1.1,9.1,0.9,14.6c0.8,2,1.7,3.9,2.8,5.6c-0.6,0.2-1.2,0.5-1.7,0.8c-1.2-1.7-2.3-3.6-3.1-5.7c-1.4-3.6-1.8-7.4-1.3-10.5
	C33.7,20.8,34.5,19.1,35.6,18.2z M40.9,14.9c4.2-1.6,10.2,3.6,13.1,11.4c1.4,3.7,1.9,7.6,1.4,10.9c-1.8-0.4-3.8-0.6-5.9-0.6
	c-3,0-5.7,0.4-8.2,1.2c-1.2-1.7-2.1-3.6-2.9-5.6C35.6,24.3,36.7,16.5,40.9,14.9z M28.3,24.1c0.5-3.1,1.9-5.2,3.9-6
	c0.3-0.1,0.7-0.2,1-0.2c-0.9,1.2-1.6,2.8-1.9,4.8c-0.6,3.4-0.1,7.5,1.4,11.5c0.8,2.2,1.9,4.3,3.2,6c-0.9,0.6-1.7,1.3-2.3,2.1
	c-1.6-2-2.9-4.3-3.9-7C28.3,31.4,27.8,27.4,28.3,24.1z M26.3,29.5c0.2,2.1,0.8,4.3,1.6,6.5c1.1,3,2.7,5.8,4.6,8
	c-1.3,0.2-2.7,0.4-4.1,0.4c-7.4,0-13.7-3.4-13.7-7.4C14.6,33.2,19.7,30.1,26.3,29.5z M28.4,52.7c-7.4,0-13.7-3.4-13.7-7.4
	c0-0.2,0-0.5,0.1-0.7c2.2,3.2,7.4,5.4,13.7,5.4c1.3,0,2.6-0.1,3.9-0.3c0.2,0.4,0.4,0.8,0.6,1.2c-0.1,0.3-0.1,0.7-0.1,1.1
	c0,0.1,0,0.2,0,0.4C31.4,52.6,29.9,52.7,28.4,52.7z M65.4,56.8c0,4.7-7.2,8.6-15.8,8.6s-15.8-4-15.8-8.6c0-0.4,0.1-0.8,0.2-1.2
	c2.4,3.8,8.4,6.4,15.6,6.4c0.6,0,1-0.4,1-1s-0.4-1-1-1c-7.1,0-13.3-2.9-14.5-6.7c3.2,2.7,8.5,4.4,14.5,4.4c6.1,0,11.3-1.7,14.5-4.4
	c-0.9,2.6-4.2,5-8.8,6c-0.5,0.1-0.9,0.7-0.7,1.2c0.1,0.5,0.5,0.8,1,0.8c0.1,0,0.2,0,0.2,0c4.5-1,7.9-3.1,9.5-5.7
	C65.3,56,65.4,56.4,65.4,56.8z"/>
</svg>
