<?xml version="1.0" encoding="utf-8"?>
<!-- Generator: Adobe Illustrator 24.3.0, SVG Export Plug-In . SVG Version: 6.00 Build 0)  -->
<svg version="1.1" id="Layer_1" xmlns="http://www.w3.org/2000/svg" xmlns:xlink="http://www.w3.org/1999/xlink" x="0px" y="0px"
	 width="80px" height="80px" viewBox="0 0 80 80" style="enable-background:new 0 0 80 80;" xml:space="preserve">
<style type="text/css">
	.st0{fill:#FFFFFF;}
</style>
<g>
	<path class="st0" d="M38.4,42.1c0.3,0,0.6,0.1,0.8,0.1c2.6,0,5-1.9,5.4-4.6c0.2-1.5-0.1-2.9-0.9-4.1c-0.8-1.2-2.1-2-3.5-2.2
		c-3-0.5-5.8,1.5-6.3,4.5C33.4,38.8,35.4,41.6,38.4,42.1z M35.9,36.1c0.3-1.7,1.8-2.9,3.4-2.9c0.2,0,0.4,0,0.6,0
		c0.9,0.2,1.7,0.6,2.2,1.4c0.5,0.8,0.8,1.7,0.6,2.6c-0.3,1.9-2.1,3.2-4,2.9C36.8,39.8,35.5,38,35.9,36.1z"/>
	<path class="st0" d="M71.7,36.8c-1.5-1.3-2.1-2.6-2.8-4.5c-1-2.5-2.3-5.7-6.7-10.1C54.7,14.6,44.9,12,44.5,11.9c-0.1,0-0.1,0-0.2,0
		c-0.8-0.2-1.6-0.3-2.4-0.3c0,0,0,0-0.1,0c-2.4,0-4.5,0.8-6.3,2.4c-1.4,1.2-2.1,2.8-2.8,4.6c-1,2.4-2.2,5-5.4,8.1
		c-1.2,1.1-2.1,2.2-2.7,3.3c-1.7,3-2.2,6.4-1.3,10.1c0.4,1.9,1.2,3.6,2.3,5.2c0.2,0.3,0.5,0.7,0.7,1c-3.4-1.3-6.1-3.5-6.9-6.3
		c-0.1-0.4-0.5-0.7-0.9-0.7L7.4,38.4c-0.5,0-1,0.3-1.1,0.8C6.3,39.6,4.6,49.9,11,58.2c3.7,4.8,9.3,7.9,16.7,9.3
		c0.1,0.1,0.3,0.2,0.5,0.2c0.2,0,0.4,0,0.6,0c1.3,0.2,2.7,0.4,4.1,0.5c1.3,0.1,2.6,0.2,3.8,0.2c8,0,14.1-2.2,18.1-6.6
		c4-4.3,5.1-9.8,5.3-13.7c2-0.6,3.7-0.9,5.5-0.5c4.1,0.9,6.6-1.1,7.7-3.2C74.5,41.8,73.9,38.6,71.7,36.8z M25.4,36.2
		c-0.1,0.1-0.1,0.3-0.1,0.4c-0.1,0.2-0.1,0.5-0.2,0.7c0,0.2-0.1,0.3-0.1,0.5c0,0.1-0.1,0.3-0.1,0.4c-0.4-2.7,0.1-5.1,1.4-7.3
		c0.5-1,1.3-1.9,2.4-2.9c3.5-3.3,4.8-6.3,5.9-8.7c0.7-1.6,1.3-2.9,2.3-3.9c1.4-1.3,3-1.9,4.9-1.9c0,0,0,0,0.1,0
		c1.8,0,3.4,0.6,4.8,1.8c0.4,0.4,0.8,0.8,1.2,1.2c0,0,0,0,0,0c-0.3-0.1-0.6-0.2-0.9-0.4c-0.1,0-0.2-0.1-0.3-0.1
		c-0.2-0.1-0.4-0.1-0.6-0.2c-0.1,0-0.2,0-0.3-0.1c-0.2,0-0.4-0.1-0.7-0.1c-0.1,0-0.2,0-0.3,0c-0.3,0-0.6-0.1-1-0.1c0,0,0,0-0.1,0
		c0,0,0,0,0,0c-2.4,0-4.5,0.8-6.3,2.4c-1.4,1.2-2.1,2.8-2.8,4.6c-1,2.4-2.2,5-5.4,8.1c-1.2,1.1-2.1,2.2-2.7,3.3
		c-0.2,0.4-0.4,0.7-0.6,1.1c-0.1,0.1-0.1,0.2-0.1,0.4C25.6,35.7,25.5,36,25.4,36.2z M28.7,46.2c-0.6-0.6-1.1-1.2-1.5-1.9
		c-0.1-0.2-0.1-0.4-0.2-0.6c-0.7-3.2-0.4-6.1,1.1-8.7c0.6-1,1.3-1.9,2.4-2.9c3.5-3.3,4.8-6.3,5.9-8.7c0.7-1.6,1.3-2.9,2.3-3.9
		c1.4-1.3,3.1-1.9,5-1.9c1.8,0,3.4,0.6,4.8,1.8c0.3,0.2,0.5,0.5,0.8,0.8c0.1,0.1,0.1,0.1,0.2,0.2c0.2,0.2,0.4,0.5,0.6,0.7
		c0.1,0.1,0.2,0.3,0.3,0.4c0.2,0.2,0.3,0.4,0.5,0.7c0.1,0.2,0.2,0.4,0.3,0.6c0.1,0.2,0.3,0.4,0.4,0.6c1.8,4.6,2.6,9.8,2.1,13.5
		C53.4,39,53,40.7,52.5,42l-5.8-0.5c-0.3,0-0.7,0.1-0.9,0.4c-2.5,3.1-7,5.2-12,5.5c-1.4,0.1-2.8,0-4.1-0.2
		C29.4,46.9,29.1,46.5,28.7,46.2z M58,48.8c-0.3,3.5-1.4,8.1-4.7,11.7c-2.8,3-6.7,4.8-11.7,5.6c10.1-3.6,14.2-11.9,15.7-17
		c0.3-0.9,0.5-1.7,0.6-2.3c0-0.1,0-0.2,0.1-0.3c0,0.1,0,0.2,0,0.3C58.1,47.3,58.1,48.1,58,48.8z M8.2,40.4l9.3,0.8
		c1.6,4.1,6,7,11.5,7.9c1.4,0.2,2.9,0.3,4.4,0.3c0.2,0,0.4,0,0.6,0c5.4-0.3,10.2-2.5,13.1-5.8l4.4,0.4l2.2,0.2l2.7,0.2
		c0,0.1-0.1,0.2-0.1,0.3c0,0.1,0,0.4-0.1,0.9c-0.1,0.5-0.2,1.2-0.4,2c-0.2,0.7-0.4,1.5-0.7,2.4c-2.3,6.5-8.6,16.4-25.6,15.9
		c-0.2,0-0.3,0-0.5,0c-7.4-1.2-12.9-4.2-16.4-8.7C7.7,50.7,8,43,8.2,40.4z M71.4,43.5c-0.9,1.9-3,2.7-5.5,2.2
		c-2-0.4-3.9-0.2-5.9,0.4c0-1.6-0.2-2.6-0.2-2.7c-0.1-0.5-0.4-0.8-0.9-0.8l-4.4-0.4c0.5-1.4,0.8-3,1.1-5c0.5-4-0.3-9.6-2.2-14.6
		c0,0,0,0,0,0c-0.7-1.9-1.9-4.3-3.4-6.4c3.2,1.5,7.3,3.9,10.7,7.4c4,4.1,5.3,7.1,6.2,9.4c0.8,2,1.5,3.6,3.4,5.2
		C71.9,39.6,72.3,41.7,71.4,43.5z"/>
	<path class="st0" d="M19.2,51.2c0.3,0,0.5-0.1,0.7-0.3l1.3-1.3c0.4-0.4,0.4-1,0-1.4s-1-0.4-1.4,0l-1.3,1.3c-0.4,0.4-0.4,1,0,1.4
		C18.7,51.1,19,51.2,19.2,51.2z"/>
	<path class="st0" d="M23.6,53.3c0.1,0.1,0.3,0.1,0.4,0.1c0.4,0,0.7-0.2,0.9-0.6l0.8-1.7c0.2-0.5,0-1.1-0.5-1.3
		c-0.5-0.2-1.1,0-1.3,0.5L23.1,52C22.9,52.5,23.1,53.1,23.6,53.3z"/>
	<path class="st0" d="M39.2,52.6L39.2,52.6l0.5,0.5c0.2,0.2,0.5,0.3,0.7,0.3s0.5-0.1,0.7-0.3c0.1-0.1,0.2-0.3,0.2-0.4
		c0-0.1,0-0.1,0-0.2c0-0.3-0.1-0.6-0.3-0.8l-1-1L40,50.6l-0.2-0.2c-0.4-0.4-1-0.4-1.4,0c-0.1,0.1-0.1,0.1-0.1,0.2
		c0,0.1-0.1,0.1-0.1,0.2c-0.1,0.3,0,0.7,0.2,1L39.2,52.6z"/>
	<path class="st0" d="M33.8,53.9c0.1,0.5,0.5,0.8,1,0.8c0.1,0,0.2,0,0.2,0c0.5-0.1,0.9-0.7,0.7-1.2l-0.3-1.2l-0.2-0.6
		c-0.1-0.5-0.7-0.9-1.2-0.7c-0.4,0.1-0.6,0.4-0.7,0.7c0,0.2-0.1,0.3,0,0.5L33.8,53.9z"/>
	<path class="st0" d="M29.1,54.3C29.1,54.4,29.2,54.4,29.1,54.3c0.6,0,1-0.4,1.1-0.9l0.2-1.9c0-0.6-0.4-1-0.9-1.1
		c-0.6,0-1,0.4-1.1,0.9l-0.2,1.9C28.2,53.8,28.6,54.3,29.1,54.3z"/>
</g>
</svg>
