<?xml version="1.0" encoding="utf-8"?>
<!-- Generator: Adobe Illustrator 24.3.0, SVG Export Plug-In . SVG Version: 6.00 Build 0)  -->
<svg version="1.1" id="Layer_1" xmlns="http://www.w3.org/2000/svg" xmlns:xlink="http://www.w3.org/1999/xlink" x="0px" y="0px"
	 width="80px" height="80px" viewBox="0 0 80 80" style="enable-background:new 0 0 80 80;" xml:space="preserve">
<style type="text/css">
	.st0{fill:#FFFFFF;}
</style>
<path class="st0" d="M68.8,39c0-0.2,0-0.3,0-0.5c0-4.3-5.4-7.1-16.2-8.2c0,0-0.1,0-0.1,0c-0.1-0.1-0.2-0.2-0.3-0.3
	c-2-1.8-6.2-2.4-11.7-1.7c-1.1-3.3-0.3-7.8-0.3-7.8c0.1-0.5-0.2-1-0.7-1.2c-0.5-0.1-1,0.2-1.2,0.7c0,0.1-2.7,8.6-9.7,8.6
	c-3,0-5.7,1.2-7.1,2.9c-0.1,0-0.3,0-0.4,0c-6.6,1.5-9.9,3.9-9.9,7c0,0.2,0,0.3,0,0.5c-0.1,0.3-1.3,4.8,1.5,9.7
	c2.5,4.4,7.3,7.6,14.3,9.5c0.1,0,0.2,0.2,0.3,0.3c0.3,0.3,0.7,0.7,1.3,0.8c0.4,0.1,0.9,0.2,1.4,0.3c2,0.5,4.8,1.2,10,1.2
	c5,0,7.5-0.6,9.4-1.1c0.5-0.1,0.9-0.2,1.4-0.3c0.5-0.1,0.9-0.5,1.2-0.8c0.1-0.1,0.2-0.2,0.2-0.2c7.3-1.8,12.3-5,14.9-9.4
	C70.1,43.9,68.8,39.2,68.8,39z M28.6,30.5c4.6,0,7.6-2.8,9.4-5.4c0.1,2.2,0.6,4.6,2,6.4c1.2,1.5,3,2.3,5.1,2.3c0.6,0,1-0.4,1-1
	s-0.4-1-1-1c-1.6,0-2.8-0.5-3.6-1.5c0,0,0-0.1-0.1-0.1c6.5-0.7,8.8,0.8,9.4,1.3c0.4,0.4,0.6,0.7,0.6,1.1c0,2.7-5.9,3.1-9.5,3.1
	c-7.4,0-11.2-3.4-11.2-3.5c-0.4-0.4-1-0.4-1.4,0c-0.4,0.4-0.4,1,0,1.4c0.2,0.2,4.3,4,12.6,4c1.7,0,5.6,0,8.4-1.2
	c5.3,0,8.1,0.9,8.8,1.4c-0.9,0.8-5.6,2.3-19.2,2.3c-6.1,0-11-0.7-14.1-2.1c-2.3-1-3.5-2.3-3.5-3.6C22.3,32.6,24.9,30.5,28.6,30.5z
	 M20.4,33.6c0,0.3-0.1,0.5-0.1,0.8c0,1.3,0.6,3.7,4.7,5.5c3.4,1.5,8.4,2.3,14.9,2.3c6.6,0,12.1-0.4,15.8-1.1
	c3.8-0.7,5.6-1.7,5.6-3.2c0-2.4-4.9-3.1-8.4-3.3c0.4-0.6,0.6-1.2,0.6-2c0-0.1,0-0.1,0-0.2c8.6,1.1,13.3,3.2,13.3,6.1
	c0,4.7-12,8.6-26.8,8.6c-15.3,0-26.8-4.5-26.8-8.6C13.2,36.6,15.8,34.9,20.4,33.6z M65.4,47.9c-2.3,4-6.9,6.8-13.6,8.4
	c-0.5,0.1-0.8,0.5-1.1,0.8c-0.1,0.1-0.2,0.2-0.3,0.3c-0.5,0.1-0.9,0.2-1.4,0.3c-1.8,0.5-4.1,1.1-8.9,1.1c-4.9,0-7.5-0.7-9.5-1.2
	c-0.5-0.1-1-0.3-1.4-0.3c-0.1,0-0.2-0.2-0.4-0.3c-0.3-0.3-0.7-0.6-1.1-0.8c-6.5-1.8-10.9-4.6-13.2-8.5c-1.2-2.1-1.5-4.1-1.6-5.6
	c4,4.1,14.6,7,27.1,7c11.3,0,22.8-2.3,27.1-6.7C67,43.9,66.6,45.9,65.4,47.9z"/>
</svg>
