<?xml version="1.0" encoding="utf-8"?>
<!-- Generator: Adobe Illustrator 24.3.0, SVG Export Plug-In . SVG Version: 6.00 Build 0)  -->
<svg version="1.1" id="Layer_1" xmlns="http://www.w3.org/2000/svg" xmlns:xlink="http://www.w3.org/1999/xlink" x="0px" y="0px"
	 width="80px" height="80px" viewBox="0 0 80 80" style="enable-background:new 0 0 80 80;" xml:space="preserve">
<style type="text/css">
	.st0{fill:#FFFFFF;}
</style>
<path class="st0" d="M12.4,37.2L12.4,37.2c0,0,0-0.1-0.1-0.1C12.4,37.1,12.4,37.1,12.4,37.2z"/>
<path class="st0" d="M12.4,37c-0.4-0.6-0.7-1.2-0.9-1.9C11.6,35.8,11.9,36.5,12.4,37z"/>
<polygon class="st0" points="14,35.9 14,35.9 14,35.9 "/>
<g>
	<path class="st0" d="M34.4,35.2c-0.4-2.1-4.4-5.7-8.6-5.9c0,0,0,0,0,0c-1.5-0.1-3,0.7-3.8,2c-1.5,2.3-1.6,4.6-0.5,6.3
		c0.8,1.3,2.5,1.7,4.3,1.7c1.9,0,4.1-0.5,5.6-1.1C34.1,37.1,34.5,36,34.4,35.2z M26.4,37.4c-1.6,0.1-2.8-0.2-3.2-0.8
		c-0.9-1.3-0.2-3,0.5-4.2c0.4-0.7,1.2-1.1,1.9-1.1c0,0,0.1,0,0.1,0c3.2,0.2,6.3,2.9,6.7,4.1C31.9,36,29.2,37.2,26.4,37.4z"/>
	<path class="st0" d="M44.3,38.5c-2.9,0.2-3.7,1.2-3.8,2c-0.3,2.1,2.5,6.8,6.4,8.2c0,0,0,0,0,0c0.5,0.2,1,0.3,1.5,0.3
		c1,0,2-0.4,2.8-1c2.1-1.8,3-3.9,2.4-5.9C52.7,39.1,47.4,38.3,44.3,38.5z M49.9,46.4c-0.6,0.5-1.5,0.7-2.3,0.4
		c-3-1.2-5.1-4.7-5.1-5.9c0.6-0.4,3.6-0.7,6.3,0c1.6,0.4,2.6,1.1,2.8,1.8C52.1,44.2,50.9,45.6,49.9,46.4z"/>
	<path class="st0" d="M36.1,45.9c-0.5-0.2-1.1,0-1.3,0.5l-2,4.5c-0.2,0.5,0,1.1,0.5,1.3c0.1,0.1,0.3,0.1,0.4,0.1
		c0.4,0,0.8-0.2,0.9-0.6l2-4.5C36.9,46.8,36.6,46.2,36.1,45.9z"/>
	<path class="st0" d="M30.6,24.5h5.2c0.6,0,1-0.4,1-1s-0.4-1-1-1h-5.2c-0.6,0-1,0.4-1,1S30,24.5,30.6,24.5z"/>
	<path class="st0" d="M55.6,49.2c-0.6,0-1,0.4-1,1v4c0,0.6,0.4,1,1,1s1-0.4,1-1v-4C56.6,49.7,56.1,49.2,55.6,49.2z"/>
	<path class="st0" d="M29.4,42.4h-3.4c-0.6,0-1,0.4-1,1s0.4,1,1,1h3.4c0.6,0,1-0.4,1-1S29.9,42.4,29.4,42.4z"/>
	<path class="st0" d="M68.7,17.8c0.3-3.3-0.7-5.6-1-6.2c-0.2-0.4-0.4-0.8-0.6-1.1c-2.7-3.6-10.6-3.3-16.6,0.6
		c-2.3,1.5-4.1,3.3-5.6,5.3l-4.1-5.2c-2.9-3.4-8.4-2.9-10.8-1L14.4,22.5c-1.9,1.5-4.3,8.1-2.9,12.6c0.2,0.7,0.5,1.3,0.9,1.9
		c0,0,0.1,0.1,0.1,0.1c0,0,0,0,0,0L38.2,70c1.1,1.4,2.7,2.1,4.3,2.1c1.2,0,2.4-0.4,3.4-1.2L63.5,57c1.2-0.5,2-1.8,2.6-3.8
		c1-3.7,0.7-9.3-0.6-10.9l-7.8-9.8c0.7-0.4,1.4-0.9,2.2-1.5C66.6,26.2,68.4,21.1,68.7,17.8z M52.8,62.9c0.1-0.5,0.2-1,0.3-1.6
		c0.1-0.7,0.1-1.5,0.1-2.2c-0.1-0.8-0.2-1.5-0.4-2.3c-0.5-1.4-1.7-2.5-3.3-2.8c-2.7-0.5-4.9,0.2-6.1,1.9c-1.3,1.8-0.3,4.6,1.2,6.9
		c0.4,0.6,0.8,1.2,1.2,1.7c0.2,0.3,0.5,0.6,0.7,0.8c0.6,0.6,1.1,1,1.5,1.3l-3.3,2.6c-1.5,1.2-3.7,0.9-4.9-0.6L22.9,47.3L14,36
		c0,0,0,0,0,0l0,0c0,0,0,0,0,0c-0.3-0.4-0.5-0.8-0.6-1.2c-0.1-0.4-0.1-0.8-0.1-1.3c0.1-0.9,0.6-1.7,1.3-2.3l17.7-13.9
		c0.6-0.5,1.4-0.7,2.1-0.7c0.1,0,0.3,0,0.4,0c0.9,0.1,1.7,0.6,2.3,1.3l4.1,5.2c-2.1,5.1-2.4,9.5-2.5,9.8c0,0,0,0,0,0.1
		c0,0.1,0,0.2,0,0.3c0,0,0,0.1,0,0.1c0,0.1,0.1,0.2,0.2,0.3c0,0,0,0,0,0.1c0,0,0,0,0,0c0,0,0,0,0,0c0.2,0.2,2.8,2.4,7.6,2.4
		c1.3,0,2.8-0.2,4.4-0.6l11.9,15.1c1.2,1.5,0.9,3.6-0.5,4.8c0,0,0,0-0.1,0.1l-5.7,4.5L52.8,62.9z M49.5,65.2
		c-0.4-0.1-1.1-0.7-1.9-1.6c-0.4-0.5-0.8-1-1.2-1.7c-0.3-0.5-0.6-1-0.9-1.6c-0.7-1.5-0.9-2.7-0.4-3.3c0.6-0.9,1.7-1.2,2.7-1.2
		c0.5,0,0.9,0.1,1.3,0.1c0.8,0.2,1.5,0.7,1.8,1.5c0.3,0.8,0.4,1.6,0.4,2.4c0,0.8-0.1,1.6-0.3,2.3C50.6,63.7,50,64.8,49.5,65.2z
		 M60.5,10c2.3,0,4.1,0.6,4.9,1.7c0.2,0.3,0.3,0.6,0.4,0.9c0.7,2.6-2.1,6.8-7.8,11.5c0,0,0,0,0,0c0,0-1.7,1.4-4.6,3
		c-0.6,0.3-1.2,0.6-1.8,0.9c-0.9,0.4-1.8,0.8-2.8,1.3c-0.3,0.1-0.6,0.3-1,0.4c-0.3,0.1-0.7,0.2-1,0.4c-1.7,0.6-3.5,1.1-5.4,1.5
		c-0.2,0-0.3,0.1-0.5,0.1c0.2-1.4,0.7-4,1.8-6.8c0.1-0.4,0.3-0.7,0.4-1.1c0.1-0.3,0.3-0.7,0.4-1.1c0.4-0.9,0.9-1.9,1.5-2.8
		c0.4-0.6,0.7-1.2,1.1-1.8c1.4-2,3.2-3.8,5.4-5.3C54.5,10.8,57.8,10,60.5,10z M54.7,31.9c-1,0.5-2,0.9-2.9,1.2
		c-0.3,0.1-0.7,0.2-1,0.3c-0.4,0.1-0.7,0.2-1.1,0.3c-3.1,0.7-5.5,0.2-7-0.4c2-0.4,3.8-1,5.5-1.6c0.3-0.1,0.7-0.2,1-0.4
		c0.3-0.1,0.6-0.3,1-0.4c1-0.4,1.9-0.9,2.8-1.3c0.6-0.3,1.2-0.6,1.8-1c2.8-1.6,4.5-3,4.7-3.1c3.8-3.2,6.1-5.9,7.3-8
		c-0.3,3.2-2,7.5-8,11.8c-0.8,0.6-1.5,1.1-2.3,1.5C55.8,31.3,55.2,31.6,54.7,31.9z M15.6,24.1l15.6-12.3c1.6-1.2,5.9-1.7,8,0.7
		l4.5,5.6c-0.6,0.9-1.1,1.8-1.5,2.7l-3.5-4.4c-0.9-1.1-2.2-1.9-3.6-2c-1.5-0.2-2.9,0.2-4,1.1L13.4,29.5c0,0-0.1,0.1-0.1,0.1
		C13.7,27.1,14.7,24.8,15.6,24.1z M63.9,43.5c0.5,0.7,0.9,3.3,0.7,6c-0.1-0.1-0.1-0.2-0.2-0.2L53.1,34.8c0.9-0.3,1.9-0.8,2.8-1.3
		L63.9,43.5z"/>
	<path class="st0" d="M58.4,17.7c0.2,0,0.5-0.1,0.7-0.3c1.1-1,2.1-1.5,2.8-1.7c0.5-0.2,0.8-0.3,0.8-0.3c0.5-0.1,0.8-0.5,0.8-1
		c0,0,0-0.1,0-0.1c-0.1-0.5-0.6-0.9-1.2-0.8c-0.1,0-2.4,0.4-4.6,2.5c-0.4,0.4-0.4,1-0.1,1.4C57.9,17.6,58.1,17.7,58.4,17.7z"/>
	<path class="st0" d="M54.6,21.4C54.6,21.4,54.6,21.4,54.6,21.4c-0.3,0.1-2.2,0.8-3.6,2.2c-0.1,0.1-0.1,0.2-0.2,0.3
		c-0.1,0.1-0.1,0.3-0.1,0.4c0,0.3,0.1,0.5,0.3,0.7c0.2,0.2,0.4,0.3,0.7,0.3c0,0,0.1,0,0.1,0c0.2,0,0.4-0.1,0.6-0.3
		c1-1.1,2.6-1.6,2.7-1.7c0.5-0.2,0.8-0.7,0.7-1.2S55.1,21.2,54.6,21.4z"/>
	<path class="st0" d="M51.2,18.1c0.3,0,0.5-0.1,0.7-0.3c1.4-1.5,3.2-2.1,3.2-2.1c0.5-0.2,0.8-0.7,0.7-1.2c-0.1-0.5-0.7-0.8-1.2-0.7
		c-0.1,0-2.4,0.7-4.2,2.6c-0.4,0.4-0.3,1,0.1,1.4C50.7,18.1,51,18.1,51.2,18.1z"/>
	<path class="st0" d="M47.6,23.1C47.6,23.1,47.6,23.1,47.6,23.1c-0.2,0.1-1.4,0.7-2.2,1.8c0,0,0,0.1,0,0.1c-0.3,0.4-0.2,1,0.3,1.3
		c0.2,0.1,0.4,0.2,0.6,0.2c0.1,0,0.2,0,0.3-0.1c0.2-0.1,0.4-0.2,0.5-0.3c0.5-0.7,1.4-1.2,1.4-1.2c0.1-0.1,0.3-0.2,0.3-0.3
		c0.2-0.3,0.3-0.7,0.1-1C48.7,23,48.1,22.8,47.6,23.1z"/>
</g>
</svg>
