<?xml version="1.0" encoding="utf-8"?>
<!-- Generator: Adobe Illustrator 24.3.0, SVG Export Plug-In . SVG Version: 6.00 Build 0)  -->
<svg version="1.1" id="Layer_1" xmlns="http://www.w3.org/2000/svg" xmlns:xlink="http://www.w3.org/1999/xlink" x="0px" y="0px"
	 width="80px" height="80px" viewBox="0 0 80 80" style="enable-background:new 0 0 80 80;" xml:space="preserve">
<style type="text/css">
	.st0{fill:#FFFFFF;}
</style>
<path class="st0" d="M64,49.7l-0.2-2.2c0.4-0.5,0.6-1.2,0.6-1.8c0,0,0-0.1,0-0.1c0,0-0.7-7-1.1-10.7c-0.4-3.8-0.8-5.7-3.1-7.6
	c-0.8-0.6-4.8-3.7-12.5-4.5c0-0.2,0-0.3,0-0.5c0-3-2.4-5.5-5.5-5.5c-1,0-2,0.3-2.8,0.8c-1.6-3.3-5.1-5.2-9.4-5.2c-0.6,0-1,0.4-1,1
	c0,4.2,0.6,7.3,1.9,9.5c-5.5,0.7-10.7,2.7-12.3,4.3c-1,1-1.9,2.9-1.5,4.9c0.1,0.6,0.3,1.2,0.7,1.9L16,49.7c-5.5,1.8-9.1,4.2-9.1,7.4
	c0,6.8,17.1,10.5,33.1,10.5s33.1-3.7,33.1-10.5C73.1,54,69.5,51.5,64,49.7z M18.1,49.1l1.4-13.2c0.3,0.2,0.7,0.4,1.1,0.7
	c2.8,1.4,5.8,0.9,8.3,0.4c0.1,0,0.2,0,0.2,0c1.5-0.3,3-0.6,3.9-0.3c0.9,0.3,1.3,1,1.4,2c0.1,0.6,0.1,1.4,0.1,2.3l0,0.3
	c0,1.6,1.4,3.3,3.8,3.3c2.2,0,3.8-1.7,3.8-3.3V41V39c0-0.7,0.8-1.2,1.8-1.2s1.8,0.6,1.8,1.2v3v4.7v2v2.5c0,1.6,1.5,3.3,3.9,3.3
	c2.3,0,3.7-1.7,3.7-3.3v-1.8v-2v-3.1v-0.9c0-0.7,0.8-1.2,1.8-1.2s1.8,0.6,1.8,1.2v1.9v0.3c0,0.9,0.6,1.9,1.5,2.6
	c0.6,0.4,1.4,0.7,2.3,0.7c0.2,0,0.3,0,0.5,0c0.2,0,0.5-0.1,0.7-0.1l0,0.3l0.2,2.1l0.3,2.4c0.1,0.5-0.1,1-0.6,1.5
	c-2.2,2.5-9.9,5.1-21.8,5.1s-19.6-2.7-21.8-5.1c-0.5-0.5-0.7-1-0.6-1.6l0.3-2.4L18.1,49.1z M37.8,19.1c-0.7,0.9-1.1,2-1.1,3.2
	c0,0.5,0.1,1,0.2,1.4c0.1,0.4,0.2,0.7,0.4,1c-1.3,0-2.4-0.4-3.3-1c-0.1-0.1-0.2-0.1-0.2-0.2c-1.8-1.5-2.8-4.6-2.9-9.1
	C34.3,14.7,36.9,16.4,37.8,19.1z M45.4,23.7c-0.5,1.2-1.8,2.1-3.2,2.1c-1.4,0-2.6-0.8-3.2-2.1c-0.1-0.2-0.1-0.4-0.2-0.6
	c-0.1-0.3-0.1-0.5-0.1-0.8s0-0.6,0.1-0.8c0.4-1.5,1.7-2.6,3.3-2.6c1.9,0,3.5,1.6,3.5,3.5C45.7,22.8,45.6,23.3,45.4,23.7z M32.5,25
	c1.3,1.1,3,1.7,4.9,1.7c0.5,0,1,0,1.5-0.1c0.9,0.7,2.1,1.1,3.3,1.1c2.1,0,4-1.2,4.9-3c7.6,0.8,11.4,3.8,11.8,4.1
	c1.6,1.3,2,2.6,2.4,6.2c0.4,3.6,1,10,1.1,10.7c0,0.4-0.3,0.9-0.9,1.1C61.2,46.9,61,47,60.7,47c-0.9,0-1.5-0.4-1.8-0.9
	c-0.1-0.1-0.1-0.2-0.1-0.4v-2.2c0-1.8-1.7-3.2-3.8-3.2s-3.8,1.4-3.8,3.2v0.3v3.5v2v2.1c0,0.5-0.5,1.3-1.7,1.3
	c-1.2,0-1.9-0.7-1.9-1.3v-2.4v-2v-4.2V39c0-1.8-1.7-3.2-3.8-3.2s-3.8,1.4-3.8,3.2v1.3v0.9c0,0.4-0.6,1.3-1.8,1.3
	c-1.1,0-1.8-0.6-1.8-1.3l0-0.3c0-0.5,0-1.1,0-1.7c-0.1-1.8-0.6-3.8-2.9-4.5c-1.4-0.5-3.1-0.1-4.9,0.2c-1.5,0.3-3.2,0.6-4.8,0.5
	c-0.8-0.1-1.6-0.3-2.4-0.6c-0.1-0.1-0.2-0.1-0.3-0.2c-1.3-0.7-2-1.7-2.2-2.8c-0.2-1.2,0.3-2.5,1-3.2c1.1-1.1,6.3-3.4,12.3-3.9
	C32.4,24.8,32.4,25,32.5,25z M40,65.6c-18.4,0-31.1-4.5-31.1-8.5c0-1.8,2.5-3.7,6.9-5.2l-0.2,1.5c-0.1,0.7,0,1.9,1.1,3.1
	c3.1,3.5,12.4,5.8,23.3,5.8s20.3-2.3,23.3-5.8c1.1-1.2,1.2-2.4,1.1-3.1l-0.2-1.5c4.4,1.5,6.9,3.4,6.9,5.2
	C71.1,61.1,58.4,65.6,40,65.6z"/>
</svg>
