<?xml version="1.0" encoding="utf-8"?>
<!-- Generator: Adobe Illustrator 24.3.0, SVG Export Plug-In . SVG Version: 6.00 Build 0)  -->
<svg version="1.1" id="Layer_1" xmlns="http://www.w3.org/2000/svg" xmlns:xlink="http://www.w3.org/1999/xlink" x="0px" y="0px"
	 width="80px" height="80px" viewBox="0 0 80 80" style="enable-background:new 0 0 80 80;" xml:space="preserve">
<style type="text/css">
	.st0{fill:#FFFFFF;}
</style>
<g>
	<path class="st0" d="M58.2,29.3c-0.7-0.1-1.3-0.1-2-0.1c0-0.8-0.1-1.5-0.2-2.1c2.9-0.4,5.1-1.6,6.4-3.3c2-2.6,1.3-5.7,1.3-5.9
		c-0.1-0.5-0.6-0.9-1.1-0.8c-3.7,0.6-6.3,1.9-7.7,4.1c-0.2,0.3-0.4,0.6-0.5,1c-1-1.5-2.2-1.7-2.4-1.7c-0.5,0-1.1,0.3-1.1,0.9
		c-0.1,0.5,0.3,1,0.9,1.1c0,0,1.4,0.3,2.1,3.5c0,0.3,0.1,0.5,0.1,0.5c0,0,0,0,0,0c0.1,0.7,0.2,1.6,0.3,2.6c-0.8-0.2-1.6-0.4-2.5-0.5
		c-4.8-0.5-8.7,1.1-11.5,4.5c-1.1-1.2-2.3-2.2-3.7-3c-2.1-1.2-4.3-1.7-6.6-1.5c0.1-0.6,0.2-1.1,0.4-1.6c0.1-0.1,0.1-0.2,0.1-0.3
		c0,0,0.1-0.4,0.2-0.9c1-2.5,2.2-2.7,2.3-2.7c0.5,0,1-0.4,1-1c0-0.6-0.4-1-1-1c-0.2,0-1.3,0-2.5,1.3c-0.1-0.3-0.2-0.6-0.4-0.9
		c-1.1-2.2-3.4-3.8-6.9-4.8c-0.5-0.1-1,0.1-1.2,0.6c0,0.1-1,3,0.6,5.8c1.1,1.9,3,3.2,5.7,3.9c-0.1,0.6-0.3,1.2-0.4,1.8
		c-0.8,0.2-1.6,0.4-2.4,0.8c-2.2-0.7-5.3-0.7-9.3,1.9C11.6,35.3,9,41.7,9.7,48c0.5,4.6,2.8,8.6,6.4,11.5c3.1,2.5,6.9,3.8,10.9,3.8
		c0.7,0,1.5,0,2.2-0.1c4.3-0.5,8.1-2.6,10.9-5.5c2.1,2.2,4.9,3.5,8.4,3.8c0.6,0.1,1.2,0.1,1.7,0.1c0.5,0,1,0,1.5-0.1
		c1,0.3,2.1,0.5,3.2,0.7c0.6,0.1,1.2,0.1,1.8,0.1c3.1,0,5.7-0.9,7.9-2.6c3.1-2.5,5-6.8,5.5-12.5C71.2,36.8,66.7,30.2,58.2,29.3z
		 M56.6,22.3c1-1.5,2.7-2.5,5.3-3c0,0.9-0.2,2.1-1,3.3c-1,1.3-2.7,2.2-5,2.6C55.8,24.4,55.9,23.4,56.6,22.3z M24.4,22.2
		c-0.7-1.2-0.7-2.4-0.6-3.2c2.3,0.8,3.9,2,4.6,3.4c0.5,1,0.6,2.1,0.5,2.7C26.7,24.6,25.2,23.6,24.4,22.2z M29,61.1
		c-4.2,0.5-8.4-0.6-11.7-3.2c-3.2-2.5-5.2-6.1-5.7-10.2c-0.6-5.5,1.6-11.2,5.7-14.4c2-1.3,3.8-1.9,5.5-1.9c0.8,0,1.5,0.1,2.2,0.4
		c0,0,0.1,0,0.1,0c0.2,0.1,0.3,0.1,0.5,0.2c3.5,1.7,5.7,6.7,5.9,10.4c0,0.6,0.5,1,1.1,0.9c0.6,0,1-0.5,0.9-1.1
		c-0.3-3.9-2.3-8.8-5.7-11.3c2.7-0.7,5.3-0.4,7.6,0.9c1.4,0.8,2.7,2,3.8,3.4c0.1,0.1,0.1,0.2,0.2,0.2c1.7,2.3,2.9,5.3,3.3,8.4
		C43.9,52.3,37.6,60.1,29,61.1z M68.3,46.9c-0.5,5.1-2.1,8.9-4.8,11.1c-1.9,1.6-4.3,2.3-7.2,2.2c3.8-2,6.4-6.1,7.3-12
		c0.1-0.5-0.3-1.1-0.8-1.1c-0.6-0.1-1.1,0.3-1.1,0.8c-0.8,5.1-3.1,10.8-9.7,11.6c0,0,0,0-0.1,0c-0.9,0.1-1.9,0.1-3.1,0
		c-3.1-0.3-5.6-1.5-7.3-3.4c2.6-3.4,3.9-7.8,3.4-12.4c-0.4-3.2-1.6-6.3-3.3-8.9c2.3-3.2,5.6-4.6,10-4.2c3.8,0.4,6.7,2.1,8.4,5
		c0.2,0.3,0.5,0.5,0.9,0.5c0.2,0,0.4,0,0.5-0.1c0.5-0.3,0.6-0.9,0.3-1.4c-0.8-1.3-1.7-2.3-2.8-3.2C62.7,32.1,69.4,34.9,68.3,46.9z"
		/>
	<path class="st0" d="M48.4,32.5c-0.1,0-3.3,0.3-5.3,3.1c-0.3,0.5-0.2,1.1,0.2,1.4c0.2,0.1,0.4,0.2,0.6,0.2c0.3,0,0.6-0.1,0.8-0.4
		c1.4-2,3.8-2.2,3.8-2.2c0.5-0.1,1-0.5,0.9-1.1C49.4,32.9,48.9,32.5,48.4,32.5z"/>
	<path class="st0" d="M20.6,32.9c-0.2,0.1-4,2.4-4.5,7.1c-0.1,0.5,0.3,1,0.9,1.1c0,0,0.1,0,0.1,0c0.5,0,0.9-0.4,1-0.9
		c0.4-3.6,3.5-5.5,3.5-5.5c0.5-0.3,0.6-0.9,0.4-1.4C21.7,32.7,21.1,32.6,20.6,32.9z"/>
</g>
</svg>
