<?xml version="1.0" encoding="utf-8"?>
<!-- Generator: Adobe Illustrator 24.3.0, SVG Export Plug-In . SVG Version: 6.00 Build 0)  -->
<svg version="1.1" id="Layer_1" xmlns="http://www.w3.org/2000/svg" xmlns:xlink="http://www.w3.org/1999/xlink" x="0px" y="0px"
	 width="80px" height="80px" viewBox="0 0 80 80" style="enable-background:new 0 0 80 80;" xml:space="preserve">
<style type="text/css">
	.st0{fill:#FFFFFF;}
</style>
<g>
	<path class="st0" d="M17.2,48c0.2-0.5,0-1.1-0.5-1.3c-0.5-0.2-1.1,0-1.3,0.5c-0.1,0.3-3.2,7.9,2.1,12.7c0.2,0.2,0.4,0.3,0.7,0.3
		c0.3,0,0.5-0.1,0.7-0.3c0.4-0.4,0.3-1-0.1-1.4C14.5,54.6,17.1,48.1,17.2,48z"/>
	<path class="st0" d="M67.5,19.3c-1.7-1.1-3.4-1.2-4.4-1.1c0.1-1.2,0-2.5-0.6-3.8c-0.2-0.5-0.8-0.7-1.3-0.5
		c-0.5,0.2-0.7,0.8-0.5,1.3c1.5,3.2-0.8,6.5-2.5,8.5c-0.3-0.3-0.7-0.6-1.2-0.9c-1.8-1.1-3.9-1.4-5.9-0.9c-2.3,0.6-4.3,2.2-5.6,4.4
		c-1.4,2.5-3.1,4.7-8.8,6.5c-0.3,0.1-0.5,0.2-0.7,0.3c-0.3-1.1-0.4-2.1-0.5-3.2c-0.2-2.5-1.3-4.8-3.1-6.4c-1.6-1.4-3.6-2-5.7-1.8
		c-0.6,0-1,0.1-1.4,0.3c-0.7-2.5-1.3-6.5,1.5-8.7c0.4-0.3,0.5-1,0.2-1.4c-0.3-0.4-1-0.5-1.4-0.2c-3.4,2.7-3.1,7.1-2.4,10.1
		c-2.3-0.5-4.2-0.2-5.7,1c-2.9,2.3-3.4,7.2-3,9.9c0.4,3.1,0.8,5.8-2.1,10.8c-2.7,4.6-2.3,9.8-2.1,11.3c0.1,0.6,0.9,5.9,5.6,9.2
		c2.4,1.7,5.3,2.5,8.7,2.5c1.6,0,3.3-0.2,5.1-0.6c0.2,0,0.4,0,0.6,0c3.3,0,6.1-0.7,8.4-2.1c2.1,1.1,4.2,1.6,6.2,1.8c0,0,0.1,0,0.1,0
		c0,0,0,0,0,0c0,0,0.1,0,0.1,0c0.2,0,0.4,0,0.7,0c0.6,0,1.1,0,1.7-0.1c17.4-0.9,17.6-8.4,17.7-15c0-2.4,0.1-4.6,0.9-6.5
		c4.2-10.4-1.9-17-2.1-17.3c0,0,0,0,0,0c-0.9-1.1-2.2-1.8-3.8-2.2c0.6-0.7,1.2-1.5,1.7-2.4c0.6,2.5,1.8,4.3,3.4,5.5
		c1.6,1.1,3.3,1.4,4.5,1.4c0.9,0,1.5-0.1,1.5-0.2c0.5-0.1,0.8-0.6,0.8-1.1C71.3,23.6,69.8,20.8,67.5,19.3z M62.9,28.8
		c1.3,2.6-0.5,6.7-1.6,8.2c-1.8,2.7-3.7,5.4-3.3,11.9c0.3,4.7-2.1,8.6-2.8,9.7c-0.1,0.2-2.9,4.1-7.7,4.9c-0.1,0-0.2,0-0.3,0
		c-0.6,0-1.2,0.1-1.9,0.1c-1.5-0.1-3.1-0.5-4.7-1.1c-0.7-0.3-1.3-0.6-2-1c-1-0.6-2-1.2-3-2c0,0-0.1,0-0.1,0l0,0c0,0,0,0,0,0
		c0,0-0.1-0.1-0.1-0.1c-4.2-1.9-6.8-4.6-7.7-8.1c-1.3-4.8,0.9-9.5,1.5-10.4c0.6-0.9,2.5-3.4,5.6-5.2c0.6-0.3,1.2-0.6,1.8-0.8
		c0.2-0.1,0.4-0.1,0.6-0.2c5.8-1.8,8-4.1,9.9-7.5c1-1.7,2.6-3,4.3-3.4c1.5-0.4,3-0.2,4.4,0.7c0.4,0.2,0.6,0.4,0.8,0.6
		c-0.2,0.2-0.4,0.3-0.4,0.3c-0.4,0.3-0.5,1-0.2,1.4c0.1,0.2,0.3,0.3,0.5,0.3c0.1,0,0.2,0.1,0.3,0.1c0.2,0,0.4-0.1,0.6-0.2
		c0.1,0,0.4-0.3,0.9-0.8C60.7,26.5,62.2,27.4,62.9,28.8z M29.6,64c0,0-0.1,0-0.1,0c0,0-0.1,0-0.1,0c-5.2,1.1-9.4,0.5-12.4-1.6
		c-3.2-2.3-4.5-6-4.8-7.8c-0.2-1.3-0.6-5.9,1.8-10c3.3-5.6,2.8-8.9,2.4-12.1c-0.3-1.9,0-6.3,2.3-8.1c1.2-1,3-1.1,5.2-0.3
		c0.2,0.6,0.4,1,0.5,1.1c0.2,0.4,0.5,0.6,0.9,0.6c0.1,0,0.3,0,0.4-0.1c0.5-0.2,0.7-0.8,0.5-1.3c0,0-0.1-0.2-0.2-0.5
		c0.2-0.1,0.5-0.1,0.9-0.2c1.6-0.1,3.1,0.3,4.2,1.4c1.4,1.2,2.3,3.1,2.4,5c0.1,1.4,0.3,2.6,0.7,3.9c-3.6,1.9-5.8,4.9-6.5,5.9
		c-0.8,1.1-3.3,6.4-1.7,12c1.1,4,4.1,7.2,8.7,9.3c0.7,0.6,1.5,1.1,2.2,1.6C34.7,63.6,32.4,64.1,29.6,64z M64.2,43.3
		c-0.9,2.3-1,4.8-1,7.2C63.1,55.8,63,60.8,54,62.8c1.7-1.3,2.7-2.7,2.8-2.9c0.8-1.2,3.5-5.7,3.2-11c-0.4-5.8,1.1-8,2.9-10.7
		c0.8-1.2,1.7-3,2.1-4.9C65.7,35.8,65.8,39.2,64.2,43.3z M66.3,25.9c-1.5-1.1-2.5-3-2.9-5.7c0.7,0,1.9,0.1,3,0.8
		c1.6,1,2.8,3,3.4,5.9C68.9,26.9,67.6,26.8,66.3,25.9z"/>
	<path class="st0" d="M47.3,46c-0.9,0-1.7,0.7-2.3,1.9c0,0,0,0,0,0c-0.4,0.8-0.6,1.9-0.6,2.6c0,0.8,0.4,1.6,0.9,2.1c0,0,0,0,0,0
		c0.6,0.6,1.3,0.8,2.1,0.8c0,0,0.1,0,0.1,0c1.7-0.1,3-1.5,2.9-3.3c0-0.8-0.4-1.8-0.8-2.6C49,46.6,48.2,46,47.3,46z M47.5,51.6
		c-0.3,0-0.5-0.1-0.7-0.3c-0.2-0.2-0.3-0.5-0.4-0.8c0-1,0.6-2.4,0.9-2.5c0.4,0.1,1.1,1.5,1.2,2.4C48.5,51.1,48.1,51.6,47.5,51.6z"/>
	<path class="st0" d="M40.3,42.7c-0.9,0-1.7,0.2-2.2,0.4c-0.8,0.3-1.3,0.9-1.7,1.7c-0.3,0.8-0.3,1.6,0,2.4c0.3,0.8,1,1.3,1.7,1.6
		c0.3,0.1,0.7,0.2,1.1,0.2c0.4,0,0.9-0.1,1.3-0.3c0.6-0.3,1.4-0.9,2-1.6c0.7-0.9,1.2-2,0.8-3C42.9,43,41.6,42.6,40.3,42.7z
		 M39.8,46.8c-0.3,0.1-0.6,0.1-0.9,0c-0.3-0.1-0.5-0.3-0.6-0.5c-0.1-0.2-0.1-0.5,0-0.8c0.1-0.3,0.3-0.5,0.6-0.6
		c0.4-0.2,1-0.3,1.6-0.3c0.5,0,1,0.1,1.1,0.2C41.6,45.2,40.6,46.5,39.8,46.8z"/>
</g>
</svg>
