<?xml version="1.0" encoding="utf-8"?>
<!-- Generator: Adobe Illustrator 24.3.0, SVG Export Plug-In . SVG Version: 6.00 Build 0)  -->
<svg version="1.1" id="Layer_1" xmlns="http://www.w3.org/2000/svg" xmlns:xlink="http://www.w3.org/1999/xlink" x="0px" y="0px"
	 width="80px" height="80px" viewBox="0 0 80 80" style="enable-background:new 0 0 80 80;" xml:space="preserve">
<style type="text/css">
	.st0{fill:#FFFFFF;}
</style>
<g>
	<path class="st0" d="M71.3,41.6c-0.9-3.2-4-5.5-7.6-5.6c-2.1-0.1-3.6-1.1-5.6-2.5c-3.4-2.3-8-5.5-18.1-5.5
		c-10.1,0-14.7,3.2-18.1,5.5C19.7,35,18.2,36,16,36c-4.6,0-7.7,3.1-7.7,7.7c0,3.1,1.9,5.7,4.7,6.9l3.2,8.2c0,0.1,0,0.1,0.1,0.2
		c1.1,1.9,3.2,3.1,5.4,3.1h36.6c2.2,0,4.3-1.2,5.4-3.1c0,0,0.1-0.1,0.1-0.2l3.2-8.2c1.2-0.5,2.3-1.4,3.1-2.4
		C71.5,46.3,72,43.9,71.3,41.6z M61.9,57.9c-0.8,1.3-2.2,2-3.7,2H21.7c-1.5,0-2.9-0.8-3.7-2l-2.6-6.7c0.3,0,0.7,0.1,1,0.1
		c1.8,0,3.5-0.6,4.9-1.6c0.6-0.4,1.3-0.4,1.9,0c1.4,1.1,3.1,1.6,4.9,1.6s3.5-0.6,4.9-1.6c0.6-0.4,1.3-0.4,1.9,0
		c1.4,1.1,3.1,1.6,4.9,1.6s3.5-0.6,4.9-1.6c0.6-0.4,1.3-0.4,1.9,0c1.4,1,3.1,1.6,4.9,1.6c1.8,0,3.5-0.6,4.9-1.6
		c0.6-0.4,1.3-0.4,1.9,0c1.4,1.1,3.1,1.6,4.9,1.6c0.3,0,0.7,0,1-0.1L61.9,57.9z M68.5,46.9c-1.1,1.5-3,2.4-4.9,2.4
		c-1.4,0-2.7-0.4-3.8-1.2c-0.6-0.5-1.4-0.7-2.1-0.7c-0.7,0-1.5,0.2-2.1,0.7c-2.2,1.6-5.3,1.6-7.5,0c-1.3-0.9-3-0.9-4.3,0
		c-2.2,1.6-5.3,1.6-7.5,0c-1.3-0.9-3-0.9-4.3,0c-2.2,1.6-5.4,1.6-7.5,0c-1.3-0.9-3-0.9-4.3,0c-1.1,0.8-2.4,1.2-3.8,1.2
		c-3.3,0-6.1-2.5-6.1-5.7c0-3.4,2.2-5.7,5.7-5.7c2.8,0,4.7-1.3,6.9-2.8c3.4-2.3,7.5-5.1,17-5.1s13.7,2.9,17,5.1
		c2.2,1.5,4.1,2.8,6.7,2.8c2.7,0.1,5,1.8,5.7,4.2C69.9,43.9,69.5,45.6,68.5,46.9z"/>
	<path class="st0" d="M29.7,19.7c0.5,0.3,1.3,0.8,1.3,1.1c0,0.1,0,0.7-1.9,2.1c-0.4,0.3-0.5,1-0.2,1.4c0.2,0.3,0.5,0.4,0.8,0.4
		c0.2,0,0.4-0.1,0.6-0.2c1.9-1.5,2.7-2.6,2.6-3.8c-0.1-1.3-1.2-2-2.3-2.7c-0.8-0.5-1.6-1-1.7-1.6c-0.1-0.6,0.4-1.5,1.5-2.7
		c0.4-0.4,0.3-1-0.1-1.4c-0.4-0.4-1-0.3-1.4,0.1c-1.5,1.7-2.1,3-2,4.3C27.3,18.2,28.6,19,29.7,19.7z"/>
	<path class="st0" d="M38.9,17.8c0.9,0.7,1.4,1.2,1.4,1.9c0,0.5-0.3,1.5-2,3.3c-0.4,0.4-0.4,1,0,1.4c0.2,0.2,0.4,0.3,0.7,0.3
		c0.3,0,0.5-0.1,0.7-0.3c1.8-1.9,2.6-3.4,2.5-4.8c-0.1-1.5-1.2-2.4-2.1-3.3c-1.7-1.4-3-2.6-0.3-6.7c0.3-0.5,0.2-1.1-0.3-1.4
		c-0.5-0.3-1.1-0.2-1.4,0.3C34.5,14.1,37.1,16.3,38.9,17.8z"/>
	<path class="st0" d="M48.3,19.7c0.5,0.3,1.3,0.8,1.3,1.1c0,0.1,0,0.7-1.9,2.1c-0.4,0.3-0.5,1-0.2,1.4c0.2,0.3,0.5,0.4,0.8,0.4
		c0.2,0,0.4-0.1,0.6-0.2c1.9-1.5,2.7-2.6,2.6-3.8c-0.1-1.3-1.2-2-2.3-2.7c-0.8-0.5-1.6-1-1.7-1.6c-0.1-0.6,0.4-1.5,1.5-2.7
		c0.4-0.4,0.3-1-0.1-1.4c-0.4-0.4-1-0.3-1.4,0.1c-1.5,1.7-2.1,3-2,4.3C45.9,18.2,47.2,19,48.3,19.7z"/>
	<path class="st0" d="M40,33.3c-0.6,0-1,0.4-1,1v5.3c0,0.6,0.4,1,1,1s1-0.4,1-1v-5.3C41,33.8,40.6,33.3,40,33.3z"/>
	<path class="st0" d="M46.8,33.3c-0.5-0.1-1,0.3-1.1,0.9c-0.1,0.5,0.3,1,0.9,1.1c0,0,3.7,0.5,6,3.6c0.2,0.3,0.5,0.4,0.8,0.4
		c0.2,0,0.4-0.1,0.6-0.2c0.4-0.3,0.5-1,0.2-1.4C51.3,33.9,47,33.4,46.8,33.3z"/>
	<path class="st0" d="M33.2,33.3c-0.2,0-4.5,0.6-7.3,4.4c-0.3,0.4-0.2,1.1,0.2,1.4c0.2,0.1,0.4,0.2,0.6,0.2c0.3,0,0.6-0.1,0.8-0.4
		c2.3-3.1,5.9-3.6,6-3.6c0.5-0.1,0.9-0.6,0.9-1.1S33.8,33.3,33.2,33.3z"/>
</g>
</svg>
