<?xml version="1.0" encoding="utf-8"?>
<!-- Generator: Adobe Illustrator 24.3.0, SVG Export Plug-In . SVG Version: 6.00 Build 0)  -->
<svg version="1.1" id="Layer_1" xmlns="http://www.w3.org/2000/svg" xmlns:xlink="http://www.w3.org/1999/xlink" x="0px" y="0px"
	 width="80px" height="80px" viewBox="0 0 80 80" style="enable-background:new 0 0 80 80;" xml:space="preserve">
<style type="text/css">
	.st0{fill:#FFFFFF;}
</style>
<path class="st0" d="M60.2,17.6c-0.3-0.1-4.3-1.6-9-0.7c-0.3-3.6,2.2-7.7,2.2-7.7c0.2-0.3,0.2-0.8,0-1.1c-0.2-0.3-0.7-0.5-1.1-0.4
	c-0.2,0-3.6,1-6.5,5.2c-1.5-2.5-3.3-4.1-3.4-4.2c-0.3-0.3-0.8-0.3-1.1-0.1c-0.4,0.2-0.6,0.6-0.5,1c0.2,1.2,0.3,4.4-0.6,6.6
	c-4.2-2.9-8.5-2.9-8.5-2.9c-0.5,0-0.9,0.3-1,0.8c-0.1,0.5,0.1,0.9,0.6,1.1c0.1,0,5.3,2.5,6.7,6.5c-3.5-2.4-7.1-2.7-7.1-2.7
	c-0.5,0-0.9,0.3-1.1,0.8c-0.1,0.5,0.2,1,0.6,1.1c0.3,0.1,7.2,2.7,7.7,9.7c-0.1,0.2-0.2,0.5-0.2,0.7c-2.2,0.2-4.4,1.2-6.6,2.6
	c0,0,0,0,0,0c-2,1.3-3.8,3-5.4,5c0,0-0.1,0.1-0.1,0.1c-1.9,2.3-3.5,4.9-4.6,7.6c-0.1,0.1-0.3,0.2-0.3,0.4c-0.1,0.2-0.1,0.4,0,0.6
	c-0.3,0.8-0.5,1.5-0.8,2.3c-0.1,0.5-0.2,0.9-0.3,1.4c-0.1,0.2-0.2,0.4-0.2,0.7c-0.3,1.4-0.4,2.8-0.4,4.1c0,0.1,0,0.1,0,0.2
	c0,1.8,0.2,3.5,0.7,5.1c0,0.1,0,0.2,0.1,0.2c0.4,1.5,1,2.9,1.8,4.2c0.2,0.4,0.5,0.8,0.7,1.1c0,0,0,0,0,0c0.6,0.8,1.2,1.5,1.9,2.2
	c0,0,0,0,0,0c0,0,0,0,0.1,0c1.1,1,2.4,1.8,3.8,2.3c0.1,0,0.2,0.1,0.3,0.1c0.5,0.2,1,0.3,1.5,0.5c1,0.2,1.9,0.3,2.9,0.3
	c0.1,0,0.3,0,0.4,0c0,0,0,0,0.1,0c0,0,0.1,0,0.1,0c0.9,0,1.9-0.2,2.8-0.4c0.1,0,0.2-0.1,0.3-0.1c2.4-0.7,4.7-2,6.8-3.8c0,0,0,0,0,0
	c1.1-1,2.2-2.2,3.2-3.5c0,0,0-0.1,0.1-0.1c1-1.5,1.9-3.1,2.6-4.8c0.3-0.2,0.4-0.5,0.3-0.9c0.2-0.6,0.4-1.2,0.6-1.9
	c0.1-0.5,0.2-0.9,0.3-1.4c0,0,0-0.1,0-0.1c0.3-1.7,0.5-3.4,0.6-5.1c0-0.1,0-0.2,0-0.2c0-0.6,0-1.2,0-1.8c0,0,0,0,0,0c0,0,0,0,0,0
	c-0.1-2.4-0.5-4.8-1.2-6.9c0,0,0,0,0,0c-0.5-1.5-1.1-3-1.9-4.3c-0.5-0.8-1-1.6-1.6-2.2c0,0,0,0,0,0c-0.2-0.2-0.3-0.4-0.5-0.5
	c2.6-6.1,12-7.7,12.1-7.8c0.4-0.1,0.8-0.4,0.8-0.9c0.1-0.4-0.2-0.9-0.6-1c-0.2-0.1-2.7-1.1-6-1.5c2.9-3,7.6-3.5,7.6-3.5
	c0.5,0,0.8-0.4,0.9-0.9S60.7,17.7,60.2,17.6z M49.9,27.4c-0.7,0.4-1.3,0.8-2,1.3c-0.6,0.5-1.2,1.1-1.8,1.7c-0.4,0.5-0.8,1-1.2,1.6
	c-0.1,0.2-0.2,0.3-0.3,0.5c-0.1,0.1-0.1,0.2-0.2,0.3c-0.2-0.2-0.5-0.4-0.9-0.5c-0.2-0.1-0.4-0.2-0.6-0.3c-0.2-0.1-0.3-0.1-0.5-0.2
	c-0.6-0.2-1.3-0.4-2.1-0.5c-0.1,0-0.2,0-0.3-0.1c0,0-0.1,0-0.1,0c0-0.1,0.1-0.2,0.1-0.2c0,0,0-0.1,0.1-0.1c0.1-0.3,0.3-0.7,0.5-1.1
	c0.2-0.3,0.4-0.6,0.6-0.9c0-0.1,0.1-0.1,0.1-0.2c0.2-0.3,0.5-0.5,0.7-0.8c0.2-0.2,0.5-0.5,0.8-0.7c0.1-0.1,0.2-0.1,0.3-0.2
	c0.3-0.2,0.5-0.4,0.8-0.5c0.3-0.2,0.6-0.3,0.9-0.5c0,0,0.1,0,0.1,0c0.3-0.1,0.6-0.3,1-0.4c0,0,0,0,0.1,0c0.3-0.1,0.6-0.2,1-0.3
	c0.6-0.1,1.2-0.2,1.8-0.3c0.4,0,0.7,0,1.1,0c0.4,0,0.7,0,1.1,0c1.2,0.1,2.3,0.3,3.3,0.5C53,25.8,51.4,26.5,49.9,27.4z M38.2,24.3
	c0.3,0.3,0.6,0.6,0.9,0.9c0.3,0.3,0.6,0.7,0.9,1c0.1,0.2,0.3,0.4,0.4,0.6c-0.1,0.1-0.1,0.2-0.2,0.2c-0.2,0.3-0.4,0.5-0.6,0.8
	c-0.2-0.6-0.4-1.1-0.6-1.6c-0.2-0.5-0.5-1-0.8-1.4c-0.3-0.4-0.5-0.8-0.8-1.2C37.6,23.8,37.9,24.1,38.2,24.3z M36.7,16.4
	c0.9,0.4,2,1,2.9,1.7c0.4,0.3,0.8,0.6,1.2,1c0.4,0.4,0.8,0.8,1.2,1.3c0.4,0.4,0.7,0.9,1,1.3c0.1,0.2,0.3,0.4,0.4,0.6
	c0.1,0.1,0.1,0.2,0.2,0.3c0.2,0.3,0.4,0.7,0.6,1c0,0,0,0,0,0c0,0.1,0.1,0.2,0.1,0.2c-0.1,0.1-0.2,0.1-0.4,0.2
	c-0.2,0.1-0.4,0.2-0.6,0.3c-0.1,0.1-0.2,0.1-0.3,0.2c-0.3,0.2-0.6,0.4-0.8,0.5c-0.1,0.1-0.2,0.2-0.3,0.3c-0.5-0.7-1-1.3-1.6-1.9
	C40.3,20.5,38.5,18.1,36.7,16.4z M42.9,12.1c0.6,0.8,1.3,1.8,1.9,3c0.2,0.5,0.4,1.1,0.6,1.7c0.2,0.8,0.3,1.6,0.3,2.4
	c0,0.2,0,0.3,0,0.5c0,0.1,0,0.1,0,0.2c0,0.3-0.1,0.5-0.1,0.7c-0.1,0.3-0.2,0.6-0.3,0.9c-0.1-0.1-0.1-0.2-0.2-0.3c0,0,0,0,0-0.1
	c-0.2-0.3-0.4-0.6-0.6-0.8c-0.8-1.1-1.7-2-2.5-2.8C42.6,15.7,42.9,13.7,42.9,12.1z M50.3,11c-0.7,1.7-1.3,4-1.1,6.3c0,0,0,0,0,0.1
	c0,0,0,0.1,0,0.1c-0.5,0.2-1.1,0.4-1.6,0.7c-0.1-0.8-0.2-1.5-0.4-2.2c0-0.1,0-0.1-0.1-0.2c-0.1-0.2-0.2-0.5-0.3-0.7
	C48,13,49.2,11.8,50.3,11z M48.4,56.4c0,0.1-0.1,0.2-0.1,0.2c-0.1-0.1-0.2-0.2-0.2-0.3c0.1,0,0.2,0,0.3,0
	C48.4,56.3,48.4,56.4,48.4,56.4z M21.2,57.9c0.3,0.2,0.6,0.3,0.9,0.6c-0.3,0.2-0.5,0.5-0.7,0.7C21.3,58.7,21.3,58.3,21.2,57.9z
	 M22.4,48.8c0,0,0.1,0,0.1,0.1c-0.1,0-0.1,0.1-0.2,0.1C22.4,49,22.4,48.9,22.4,48.8z M39.9,33.9c0.5,0.2,1,0.5,1.6,0.8
	c0.5,0.3,1,0.7,1.6,1.1c0.1,0.1,0.3,0.2,0.4,0.3c0.6,0.5,1.3,1.1,1.9,1.8c0.6,0.7,1.3,1.4,1.9,2.3c-1.5-0.1-3.1-0.1-4.6,0
	c-1.3-1.1-2.5-2.1-3.6-2.9c-0.6-0.5-1.2-0.9-1.8-1.2c1.6-0.4,3.4-0.6,5.1-0.4L41,34.7L39.9,33.9z M48.9,54.2
	c-0.7,0.1-1.5,0.2-2.2,0.3c-1-1.2-2-2.4-3-3.5c-0.4-0.5-0.9-0.9-1.3-1.4c1.9-0.4,3.9-0.6,5.9-0.6c0,0,0,0,0,0
	c0.4,0.4,0.7,0.9,1.1,1.4C49.2,51.7,49.1,53,48.9,54.2z M40.2,41.7l-1-0.8c-1.9,0.4-3.7,1-5.4,1.7c-1.5-1-2.9-1.9-4-2.5
	c-0.2-0.1-0.4-0.2-0.6-0.3c1.5-0.9,3.4-1.9,5.4-2.7l-0.2-0.2c0.1,0.1,0.2,0.1,0.3,0.2c0.6,0.3,1.2,0.7,1.9,1.1
	c1,0.7,2.2,1.5,3.5,2.5c0.3,0.3,0.7,0.6,1,0.8c0.3,0.3,0.6,0.6,1,0.9c0.4,0.4,0.8,0.8,1.3,1.2c1,1,2,2.1,3.1,3.3
	c0.1,0.1,0.1,0.1,0.2,0.2c-2,0.1-3.9,0.4-6,1c-1-0.9-1.9-1.7-2.8-2.5c-0.7-0.6-1.4-1.1-2.1-1.6c1.7-0.6,3.6-1.1,5.4-1.4L40.2,41.7z
	 M31.8,63.8c1.2-0.9,2.6-1.9,4.1-2.8l-0.8-0.7l-0.8-0.7c-1.5,0.9-2.9,1.9-4.1,2.8c-1.5-1.4-2.9-2.6-4.2-3.5
	c-0.2-0.2-0.4-0.3-0.7-0.5c1.2-1,2.7-2.1,4.4-3.2l-0.8-0.7l-0.7-0.7c-1.8,1.2-3.4,2.4-4.6,3.4c-1.1-0.7-2-1.2-2.6-1.5
	c0-1.1,0.1-2.2,0.3-3.3c0.4-0.3,1-0.8,1.9-1.5c0.3-0.2,0.7-0.5,1-0.8l-0.1-0.1c0,0,0.1,0.1,0.1,0.1c0.1,0.1,0.3,0.2,0.4,0.2
	c1.3,0.7,2.7,1.7,4.4,2.9c0.3,0.2,0.6,0.4,0.8,0.7c0.3,0.2,0.6,0.4,0.8,0.7c0.6,0.5,1.1,0.9,1.7,1.5c1,0.9,2,1.8,2.9,2.9
	c0.2,0.3,0.5,0.5,0.7,0.8c0.2,0.3,0.5,0.5,0.7,0.8c0.3,0.4,0.6,0.8,0.9,1.2c0.9,1.1,1.7,2.3,2.5,3.6c0,0,0,0,0,0
	c-1.7,1-3.4,2.2-4.7,3.2c-1-1.4-2.1-2.7-3.2-3.9C32.2,64.2,32,64,31.8,63.8z M45.3,63c-1,0.2-2.1,0.6-3.2,1.1
	c-0.8-1.3-1.6-2.5-2.5-3.6c-0.3-0.4-0.6-0.8-0.9-1.2c2.2-1.1,4.6-2.1,7.2-2.6c0.1,0.1,0.2,0.2,0.3,0.3c0.5,0.6,0.9,1.2,1.4,1.8
	C46.9,60.4,46.2,61.8,45.3,63z M45.4,42.8c-0.2-0.2-0.4-0.4-0.7-0.7c0.8,0,1.5,0,2.3,0.1c0.4,0,0.8,0.1,1.3,0.2
	c0.4,1.5,0.7,3,0.9,4.7C47.9,45.5,46.6,44.1,45.4,42.8z M37.8,33.3c0.2,0,0.9,0.1,1.9,0.5c-1.7,0.1-3.3,0.5-4.8,1
	c-0.2-0.1-0.5-0.2-0.7-0.3C35.3,33.9,36.6,33.5,37.8,33.3z M32,35.8c0.1,0,0.1,0,0.2,0.1c-0.3,0.1-0.5,0.2-0.8,0.4
	C31.6,36.1,31.8,35.9,32,35.8z M26,42c0.2-0.2,0.7-0.5,1.3-1c0.6,0.3,1.5,0.8,2.5,1.4c0.5,0.3,1.1,0.7,1.8,1.1
	c0.3,0.2,0.7,0.4,1,0.7c0.3,0.2,0.6,0.4,1,0.7c0.7,0.5,1.3,1,2.1,1.5c0.9,0.7,1.8,1.5,2.8,2.4c0.3,0.2,0.6,0.5,0.8,0.8
	c0.3,0.3,0.6,0.5,0.8,0.8c0.5,0.5,1.1,1.1,1.6,1.6c0.9,1,1.8,2,2.8,3.1c0.2,0.2,0.4,0.4,0.5,0.6l-0.7-0.6c-2.5,0.7-4.8,1.6-6.9,2.7
	c-0.9-1-1.8-1.9-2.7-2.8c-0.6-0.6-1.2-1.1-1.8-1.6c2-1.1,4.1-2,6.4-2.8l-0.9-0.8l-0.9-0.7c-2.1,0.8-4.2,1.8-6.3,2.9
	c-1.4-1-2.6-1.9-3.8-2.7c-0.3-0.2-0.7-0.4-1-0.6c1.8-1.2,4.1-2.5,6.6-3.6L32,44.4l-0.8-0.7c-2.7,1.3-5,2.7-6.9,3.9
	c-0.5-0.2-0.9-0.5-1.2-0.6C23.9,45.3,24.9,43.6,26,42z M29.4,69.8c-0.6-0.8-1.4-1.6-2.1-2.2c0.3-0.3,0.7-0.6,1-1
	c0.5-0.4,1.1-0.9,1.7-1.5l-0.8-0.7l-0.8-0.7c-1.2,1-2.2,1.9-2.9,2.6c-0.8-0.5-1.4-0.8-1.7-1c-0.2-0.2-0.3-0.5-0.5-0.7
	c-0.6-1-1.1-2.1-1.5-3.3c0.3-0.3,0.9-0.9,1.6-1.5c0.1-0.1,0.2-0.2,0.3-0.3c0,0,0.1,0.1,0.1,0.1c0,0,0,0,0,0c1.4,1,3,2.3,4.7,3.8
	c0.2,0.2,0.5,0.5,0.7,0.7c0.2,0.2,0.5,0.5,0.7,0.7c0.1,0.1,0.3,0.3,0.4,0.4c0.6,0.6,1.1,1.2,1.7,1.9c0.6,0.7,1.2,1.4,1.8,2.2
	c-0.4,0.4-0.8,0.7-1,0.9c-0.9,0-1.7-0.1-2.6-0.3C30.1,70,29.8,69.9,29.4,69.8z M37.2,69.6c1.2-0.9,2.7-1.9,4.1-2.8
	c0.1,0.1,0.1,0.2,0.2,0.3C40.2,68.2,38.7,69.1,37.2,69.6z M51.2,21.3c-0.5,0.5-0.9,1-1.3,1.6c-1.2,0-2.4,0.1-3.5,0.4
	c0.1-0.1,0.2-0.3,0.3-0.4c0.2-0.4,0.4-0.8,0.6-1.3c0.1-0.4,0.2-0.8,0.3-1.3c0.6-0.3,1.2-0.6,1.8-0.8c0.3-0.1,0.7-0.3,1-0.4
	c0.1,0,0.2,0,0.2-0.1c0,0,0.1,0,0.1,0c0.2-0.1,0.4-0.1,0.7-0.2c1.5-0.3,2.9-0.4,4.1-0.3C54.1,19.2,52.5,20,51.2,21.3z"/>
</svg>
