<?xml version="1.0" encoding="utf-8"?>
<!-- Generator: Adobe Illustrator 24.3.0, SVG Export Plug-In . SVG Version: 6.00 Build 0)  -->
<svg version="1.1" id="Layer_1" xmlns="http://www.w3.org/2000/svg" xmlns:xlink="http://www.w3.org/1999/xlink" x="0px" y="0px"
	 width="80px" height="80px" viewBox="0 0 80 80" style="enable-background:new 0 0 80 80;" xml:space="preserve">
<style type="text/css">
	.st0{fill:#FFFFFF;}
</style>
<g>
	<path class="st0" d="M57.3,25.9c0-0.9-0.1-1.8-0.2-2.5c3.3-0.5,5.7-1.7,7.2-3.7c2.1-2.8,1.4-6,1.3-6.1c-0.1-0.5-0.6-0.9-1.1-0.8
		c-4.1,0.6-7,2.1-8.5,4.4c-0.2,0.4-0.4,0.7-0.6,1.1c-1.2-1.7-2.5-1.9-2.7-1.9c-0.5,0-1,0.3-1.1,0.9c-0.1,0.5,0.3,1,0.8,1.1
		c0,0,1.6,0.4,2.4,3.9c0,0.3,0.1,0.5,0.1,0.5c0,0,0,0,0,0c0.2,0.8,0.3,1.8,0.3,2.9c-0.5,0-0.9,0-1.4,0.1c0,0,0,0,0,0
		c-1-0.3-2-0.6-3.2-0.7c-4.7-0.5-8.5,1.2-11.1,4.9c-1.4-1.8-3.2-3.3-5.1-4c-0.9-0.4-1.8-0.3-2.6-0.1c-7-0.7-11,1.1-14.8,4.1
		c-4.5,3.5-6.4,9.5-5.4,17.4c1.2,10,7.2,15.7,16.6,15.7c0.1,0,0.2,0,0.3,0c5.6-0.1,7.6-1,7.8-1.2c0,0,0,0,0,0c2-0.8,3.7-2.3,5-4.3
		c1.7,1.3,3.8,2.1,6.3,2.4c0.6,0.1,1.2,0.1,1.7,0.1c0.5,0,0.9,0,1.4-0.1c1,0.3,2,0.6,3.1,0.7c0.6,0.1,1.2,0.1,1.7,0.1
		c2.8,0,5.2-0.8,7.2-2.4c3.2-2.6,5.2-7.4,5.8-13.7C69.4,34,65.2,27,57.3,25.9z M57.6,18.3c1.1-1.6,3.1-2.8,6.1-3.3
		c0,0.9-0.2,2.3-1.1,3.6c-1.1,1.5-3.1,2.5-5.9,2.9C56.7,20.7,56.9,19.5,57.6,18.3z M33.7,60.7c-6,0.7-11.7-6.1-12.7-15.2
		c-0.8-6.8,0.3-11.5,3.5-15.3c2.2-2.5,4.2-1,4.6-0.7c0.2,0.2,0.5,0.3,0.8,0.2c0.3,0,0.5-0.2,0.7-0.4c0,0,0.7-0.9,1.7-1.3
		c0.3-0.1,0.7-0.2,1.1-0.2c0.2,0,0.4,0,0.6,0.1c4.8,1.8,8.1,9.1,8.8,15c0.5,4.4-0.1,8.5-1.6,11.7c-0.3,0.7-0.7,1.3-1,1.8
		C38.3,58.8,36.2,60.4,33.7,60.7z M13.6,47.2c-0.6-5-0.3-11.8,4.7-15.6c1.5-1.1,2.9-2,4.6-2.7c-3.5,4.2-4.7,9.5-3.9,16.8
		c0.8,7.1,4.3,12.9,8.7,15.5C22.7,61.1,15,58.9,13.6,47.2z M66.5,44.7c-0.5,5.8-2.2,10-5,12.3c-1.8,1.5-4,2.1-6.7,2
		c0.3-0.2,0.6-0.3,0.9-0.5c0.5-0.3,0.6-0.9,0.3-1.4c-0.3-0.5-0.9-0.6-1.4-0.3c-1.8,1.2-4.1,1.7-6.7,1.4c-2.2-0.2-4-1-5.5-2.1
		c1.9-3.6,2.7-8.3,2.1-13.4c-0.4-3.6-1.7-7.6-3.7-10.8c2.2-3.6,5.4-5.2,9.6-4.7c3.9,0.4,6.7,2.3,8,5.3c1.8,4.2,2.1,8.3,0.8,12.9
		c-0.1,0.5,0.2,1.1,0.7,1.2c0.1,0,0.2,0,0.3,0c0.4,0,0.8-0.3,1-0.7c1.4-5,1.1-9.7-0.9-14.3c-0.6-1.4-1.5-2.6-2.7-3.6
		C64,29.3,67.3,35.4,66.5,44.7z"/>
	<path class="st0" d="M47.4,29.3c-0.1,0-3.2,0.4-5.1,3.3c-0.3,0.5-0.2,1.1,0.3,1.4c0.2,0.1,0.3,0.2,0.5,0.2c0.3,0,0.7-0.2,0.8-0.5
		c1.3-2.1,3.5-2.4,3.6-2.4c0.5-0.1,0.9-0.5,0.9-1.1C48.5,29.6,48,29.2,47.4,29.3z"/>
	<path class="st0" d="M31,36.4c-0.3-0.1-0.6-0.2-0.8-0.1c-0.3,0.1-0.5,0.3-0.6,0.6c-0.6,1.6-3.2,9.7,2.6,15.5
		c0.1,0.1,0.1,0.1,0.2,0.2c0.1,0.1,0.4,0.2,0.6,0.2c0.2,0,0.5-0.1,0.9-0.3c1.3-0.8,3.2-3.8,3.1-7.2C37,42.7,35.9,39.1,31,36.4z
		 M35,45.7c-0.1,2.3-1.2,4.2-1.9,4.9c-3.6-4-2.7-9.3-2-11.8C34.4,41,35.1,43.7,35,45.7z"/>
</g>
</svg>
