<?xml version="1.0" encoding="utf-8"?>
<!-- Generator: Adobe Illustrator 24.3.0, SVG Export Plug-In . SVG Version: 6.00 Build 0)  -->
<svg version="1.1" id="Layer_1" xmlns="http://www.w3.org/2000/svg" xmlns:xlink="http://www.w3.org/1999/xlink" x="0px" y="0px"
	 width="80px" height="80px" viewBox="0 0 80 80" style="enable-background:new 0 0 80 80;" xml:space="preserve">
<style type="text/css">
	.st0{fill:#FFFFFF;}
</style>
<g>
	<path class="st0" d="M67.3,34.5c-1.1-1.7-3-2.8-5.1-2.8c-1.1,0-2.1,0.3-3,0.8c-1.2-1.7-3.3-2.6-5.4-2.5c-0.7-0.9-1.6-1.6-2.6-2.1
		l13.4-11.7c1-0.8,1.6-2.1,1.7-3.4c0.1-1.3-0.4-2.6-1.4-3.6c-0.9-0.9-2.2-1.4-3.6-1.4c-1.3,0.1-2.6,0.7-3.4,1.7L41.9,28.3
		c-1.2-0.5-2.5-0.6-3.8-0.3c-1.1-1.2-2.7-1.8-4.3-1.8c-1.8,0-3.5,0.8-4.6,2.2c-0.7-0.3-1.5-0.4-2.3-0.4c-2.2,0-4.3,1-5.7,2.7
		c-2.5-0.4-4.8,0.8-6.1,2.8c-0.1,0-0.2,0-0.3,0c-3.6,0-6.6,2.9-6.7,6.5c0,0,0,0,0,0.1c0,0,0,0.1,0,0.2c0,0,0,0,0,0.1c0,0,0,0,0,0
		c0,0.8,0.2,3.6,1.4,7.1c0,0.2,0.1,0.4,0.2,0.6c0.3,1,0.8,2,1.3,3c2.6,5.3,8.1,12.3,19.6,15.1c0.1,0,0.2,0.2,0.4,0.3
		c0.3,0.3,0.8,0.8,1.3,0.9c2.5,0.5,5.1,0.7,7.9,0.7c3,0,5.9-0.3,8.6-0.9c0.6-0.1,1-0.5,1.4-0.9c0.1-0.1,0.3-0.3,0.4-0.3
		c21.5-5.8,21.8-25.7,21.8-25.9C72.1,37.4,70.4,35.4,67.3,34.5z M68.9,46.6c-3.7,2.5-14.8,4-28.9,4c-14.8,0-25.3-1.4-28.8-3.8
		c-0.4-1.2-0.6-2.3-0.8-3.2c4.3,2.6,14.2,4,29.7,4c6.1,0,23.4-0.4,29.7-4.2C69.5,44.3,69.3,45.4,68.9,46.6z M59.6,10.9
		c0.5-0.6,1.2-0.9,2-1c0.8,0,1.5,0.2,2,0.8c0.5,0.5,0.8,1.3,0.8,2s-0.4,1.5-1,2L42.4,33c-0.9,0.8-1.3,2.1-0.9,3.3
		c0.4,1.1,0.3,2.2,0,3c-0.2,0-0.4,0.1-0.5,0.1c-1.2-1.2-2.9-1.7-4.6-1.5c-0.6,0.1-1.1,0.2-1.6,0.4c-1-0.9-2.4-1.4-3.8-1.2
		c-0.4,0-0.8,0.2-1.2,0.3c0.6-0.9,1.2-1.7,2-2.5c1.2-1.2,3.7-3.2,6.3-2.2c1.2,0.5,2.6,0.1,3.4-0.8L59.6,10.9z M14.7,35.5
		c0.2,0,0.5,0,0.8,0.1c0.4,0.1,0.9-0.2,1.1-0.6c0.8-1.8,2.7-2.8,4.7-2.2c0.4,0.1,0.9-0.1,1.1-0.4c1-1.5,2.7-2.4,4.5-2.4
		c0.8,0,1.5,0.2,2.3,0.5c0.5,0.2,1,0,1.3-0.4c0.7-1.2,2-1.9,3.4-1.9c1.3,0,2.4,0.6,3.2,1.6c0.3,0.4,0.7,0.5,1.2,0.3
		c0.8-0.3,1.6-0.3,2.3-0.2l-0.6,0.7c-0.3,0.3-0.8,0.4-1.2,0.3c-2.7-1-5.7-0.1-8.4,2.6c-1.5,1.5-2.7,3.3-3.5,5.1c0,0.1,0,0.1,0,0.2
		c0,0-0.1,0-0.1,0c-1.3,0.2-2.5,0.8-3.3,1.9c-0.3,0.4-0.2,1.1,0.2,1.4c0.4,0.3,1.1,0.2,1.4-0.2c0.5-0.6,1.2-1,1.9-1.1
		c0.3,0,0.7,0,1,0.1c0.4,0.1,0.9-0.1,1.1-0.5c0.5-0.8,1.2-1.3,2.1-1.4c1-0.1,1.9,0.3,2.6,1.1c0.3,0.4,0.9,0.5,1.3,0.2
		c0.5-0.3,1-0.5,1.6-0.5c1.3-0.2,2.5,0.3,3.4,1.3c0.3,0.3,0.7,0.4,1.1,0.3c0.2-0.1,0.5-0.2,0.7-0.2c1.1-0.1,2.2,0.4,2.8,1.4
		c0.2,0.3,0.5,0.5,0.9,0.5c0.2,0,0.3,0,0.5-0.1c0.5-0.3,0.6-0.9,0.4-1.4c-0.6-1.1-1.6-1.8-2.7-2.1c0.3-1.3,0.3-2.6-0.2-3.8
		c-0.1-0.4,0-0.8,0.3-1.1l5.9-5.1c0.1,0,0.1,0.1,0.1,0.1c1.2,0.4,2.1,1.2,2.8,2.2c0.2,0.4,0.6,0.5,1,0.4c1.8-0.4,3.7,0.6,4.4,2.3
		c0.1,0.3,0.4,0.5,0.7,0.6c0.3,0.1,0.6,0,0.9-0.2c0.7-0.7,1.7-1,2.7-1c1.5,0,2.8,0.8,3.5,2.1c0.1,0.2,0.4,0.4,0.6,0.5
		c2.4,0.7,3.7,1.9,3.7,3.8c0,0,0,0,0,0c0,0,0,0,0,0c0,2.7-10.5,5.5-30.1,5.5c-21.8,0-29.8-2.9-30.1-5.4C10,37.6,12.1,35.5,14.7,35.5
		z M49.8,64.1c-0.5,0.1-0.9,0.5-1.2,0.8c-0.1,0.1-0.3,0.3-0.4,0.4c-2.5,0.5-5.3,0.8-8.2,0.8c-2.7,0-5.2-0.2-7.5-0.7
		c-0.1,0-0.3-0.2-0.4-0.3c-0.3-0.3-0.7-0.7-1.2-0.8c-11-2.7-16.2-9.1-18.7-14.6c6.2,2.5,18.1,3,27.8,3c12.6,0,22.7-1.2,27.9-3.3
		C65.5,54.8,60.4,61.2,49.8,64.1z"/>
	<path class="st0" d="M53.8,40.3c0.4-0.4,0.9-0.7,1.5-0.7c0.7,0,1.3,0.3,1.6,0.9c0.2,0.3,0.5,0.5,0.8,0.5c0.2,0,0.4,0,0.5-0.2
		c0.5-0.3,0.6-0.9,0.3-1.4c-0.7-1.1-2-1.8-3.3-1.8c-1.1,0-2.2,0.5-3,1.4c-0.4,0.4-0.3,1,0.1,1.4C52.8,40.8,53.4,40.7,53.8,40.3z"/>
	<path class="st0" d="M17.3,40.1c0.1,0.1,0.3,0.1,0.4,0.1c0.4,0,0.7-0.2,0.9-0.6c0.1-0.3,0.3-0.4,0.6-0.5c0.3-0.1,0.6,0,0.9,0.2
		c0.4,0.4,1,0.3,1.4-0.1c0.4-0.4,0.3-1-0.1-1.4c-0.8-0.7-1.8-0.9-2.8-0.6c-0.8,0.2-1.5,0.8-1.8,1.6C16.5,39.3,16.8,39.9,17.3,40.1z"
		/>
</g>
</svg>
