<?xml version="1.0" encoding="utf-8"?>
<!-- Generator: Adobe Illustrator 24.3.0, SVG Export Plug-In . SVG Version: 6.00 Build 0)  -->
<svg version="1.1" id="Layer_1" xmlns="http://www.w3.org/2000/svg" xmlns:xlink="http://www.w3.org/1999/xlink" x="0px" y="0px"
	 width="80px" height="80px" viewBox="0 0 80 80" style="enable-background:new 0 0 80 80;" xml:space="preserve">
<style type="text/css">
	.st0{fill:#FFFFFF;}
</style>
<path class="st0" d="M73.1,32.8c0-1.2-1.3-2.1-4-2.9c0.1-0.7,0.2-1.5,0.2-2.3c-0.2-4.3,0.9-5.8,1.2-6c0.5-0.1,0.8-0.6,0.8-1.1
	c-0.1-0.5-0.5-0.9-1-0.9c-0.4,0-10.7-0.3-15.7,5.6c-0.2,0.3-0.5,0.6-0.7,0.9c-0.2-0.2-0.4-0.3-0.6-0.5l1-3.5c0.2-0.7,0-1.4-0.6-1.9
	l-1.8-1.6c-0.3-0.3-0.7-0.5-1.2-0.5h-2.3c-0.8,0-1.5,0.5-1.8,1.3L45,23.9c-0.6-0.6-1.3-1.2-2.1-1.7c-2.3-1.4-4.8-1.7-7-0.9
	c0,0,0,0,0,0l-3.5,1.3c-0.4,0.1-0.8,0.3-1.2,0.6l-0.4-1c-0.3-0.8-1-1.3-1.8-1.3h-2.3c-0.4,0-0.9,0.2-1.2,0.5l-1.8,1.6
	c-0.5,0.5-0.8,1.2-0.6,1.9l0.2,0.9c-1.4-0.2-3.1-0.2-5.2,0.4c-3.2-2.1-7.2-2-7.4-2c-0.5,0-0.9,0.4-0.9,0.9c-0.1,0.4,0.2,0.8,0.5,1
	c0.1,0.1,0.7,0.9,0.6,3.8c-1.9,0.5-4,1.3-4.1,2.9c0,0,0,0,0,0c0,0,0,0,0,0c0,0,0,0,0,0s0,0,0,0c0,0.3,0,5.3,2.7,11.2
	c2.5,5.4,8,12.5,19.5,15.7c0.1,0,0.3,0.2,0.4,0.4c0.4,0.4,0.8,0.8,1.4,0.9c2.7,0.6,5.7,0.9,8.8,0.9c2.9,0,5.6-0.3,8.2-0.7
	c0.6-0.1,1-0.5,1.4-0.9c0.1-0.1,0.3-0.3,0.3-0.3c22.9-5.6,23.3-26.7,23.3-26.9C73.1,32.9,73.1,32.9,73.1,32.8
	C73.1,32.9,73.1,32.9,73.1,32.8z M71,32.9c-0.4,0.4-1.6,0.8-3.4,1.2c-0.1,0-0.3-0.1-0.4-0.1c0.5-0.6,1-1.3,1.3-2.2
	C70.1,32.3,70.7,32.7,71,32.9z M56,26.6c3.1-3.7,8.9-4.6,12-4.8c-0.5,1.2-0.9,3-0.8,6c0.2,5.3-4.1,7-4.7,7.3
	c-1.1,0.2-2.4,0.3-3.7,0.4c0.4-1.5,1.5-4.7,4.3-7.6c0.4-0.4,0.4-1,0-1.4c-0.4-0.4-1-0.4-1.4,0c-3.5,3.7-4.6,7.8-4.9,9.2
	c-0.8,0.1-1.7,0.1-2.5,0.2C53.5,32,54.1,28.9,56,26.6z M52.1,35.9c-1.3,0.1-2.6,0.1-4,0.2c0.9-2.8,0.5-6-0.8-8.8
	c2.9-1.5,4.9,0,5.5,0.6C51.9,30.2,51.6,32.9,52.1,35.9z M48.4,20.2h2.2l1.7,1.5l-0.9,3.3c-1.4-0.4-3-0.3-4.9,0.6L48.4,20.2z
	 M41.8,23.9c1.4,0.8,2.5,2.1,3.3,3.6c0,0,0,0,0,0c0,0,0,0,0,0c1.4,2.5,1.8,5.6,0.9,8.2c0,0.1-0.1,0.3-0.2,0.4c-1.9,0-3.9,0.1-6,0.1
	c-2,0-3.9,0-5.8-0.1c0-0.1,0-0.1-0.1-0.2c-1.7-2.7-2.2-6.1-1.3-8.8c0.7-1.9,1.9-3.4,3.6-4C38.2,22.6,40.1,22.9,41.8,23.9z M30,36
	c-1.2-2.5-1.4-5.3-0.6-7.6c0.4-1.3,1.2-2.4,2.1-3.1c-0.2,0.4-0.4,0.8-0.5,1.2c-1,3-0.6,6.6,1,9.6C31.3,36.1,30.6,36.1,30,36z
	 M25.1,24.4l1.7-1.5l2.1,0l0.6,1.7c-0.9,0.9-1.6,2-2,3.4c0,0,0,0,0,0c-0.5-0.5-1-0.9-1.8-1.3L25.1,24.4z M27,30.5
	c-0.1,1.8,0.1,3.7,0.8,5.4c-2.2-0.1-4.1-0.3-6-0.5c0.4-3.2-0.2-5.7-1.8-7.7C25.1,26.9,26.7,29.8,27,30.5z M18.3,28.9
	c1.3,1.5,1.8,3.7,1.5,6.4c-1.8-0.2-3.5-0.4-4.9-0.7c0,0-0.1-0.1-0.1-0.1c-0.9-0.7-2-2-1.9-4.4c0.1-1.7-0.1-2.9-0.3-3.8
	C14.3,26.5,16.8,27.1,18.3,28.9z M11.2,31.9c0.2,0.8,0.4,1.4,0.7,2c-1.5-0.4-2.4-0.8-2.8-1.1C9.3,32.7,9.8,32.3,11.2,31.9z
	 M49.3,57.9c-0.5,0.1-0.9,0.5-1.2,0.8c-0.1,0.1-0.3,0.3-0.3,0.3c-2.4,0.5-5,0.7-7.8,0.7c-3,0-5.8-0.3-8.4-0.8
	c-0.1,0-0.3-0.3-0.5-0.4c-0.3-0.3-0.7-0.7-1.3-0.9C13.1,53.2,9.7,40.3,9.1,35c6.9,3.1,28.1,3.2,30.9,3.2c2.5,0,18.9-0.1,27.7-2.2
	c0.1,0,0.2,0,0.2-0.1c1.2-0.3,2.2-0.6,3-1C70.2,40.3,66.7,53.6,49.3,57.9z"/>
</svg>
