<?xml version="1.0" encoding="utf-8"?>
<!-- Generator: Adobe Illustrator 24.3.0, SVG Export Plug-In . SVG Version: 6.00 Build 0)  -->
<svg version="1.1" id="Layer_1" xmlns="http://www.w3.org/2000/svg" xmlns:xlink="http://www.w3.org/1999/xlink" x="0px" y="0px"
	 width="80px" height="80px" viewBox="0 0 80 80" style="enable-background:new 0 0 80 80;" xml:space="preserve">
<style type="text/css">
	.st0{fill:#FFFFFF;}
</style>
<g>
	<path class="st0" d="M23.5,48.8c1.6,0,3.1-0.6,4.2-1.7c1.1-1.1,1.7-2.6,1.7-4.2c0-1.2-0.4-2.4-1.1-3.4l0.2-0.2l0.7,0.7
		c0.9,0.9,2.2,1.5,3.5,1.5s2.6-0.5,3.5-1.5l0.5-0.5c0,0,0,0,0,0c1.9-1.9,1.9-5.1,0-7.1l-0.7-0.7l0.2-0.2c1,0.7,2.2,1.1,3.4,1.1
		c1.5,0,3-0.6,4.2-1.7c1.1-1.1,1.7-2.6,1.7-4.2c0-1.2-0.4-2.4-1.1-3.4l0.2-0.2c0.6,0.5,1.2,0.9,1.9,1.3c0.1,0.1,0.2,0.2,0.4,0.2
		c0,0,0,0,0,0c1.1,0.6,2.3,1,3.5,1.2c0.3,0.1,0.7,0.1,1,0.1l1,3.7c0.1,0.4,0.5,0.7,0.9,0.7c0.1,0,0.2,0,0.3,0c2.1,0,4.3-1.7,5.6-4.3
		c1.5-3.1,1.3-6.3-0.6-8.3c-0.3-0.4-0.9-0.4-1.3-0.2l-3.3,2c-1-0.4-2.3-1.2-3.1-2.8l6.5-6.5c0.4-0.4,0.4-1,0-1.4s-1-0.4-1.4,0
		l-5.6,5.6c-0.1-1.1,0.1-2.4,0.6-4c0.1-0.5-0.1-1-0.5-1.2c-1.4-0.7-7.6-2.7-8.3-2.9c-0.5-0.1-1,0.2-1.2,0.7c-1.5,4.6-1.1,9.3,1.1,13
		c0.4,0.6,0.8,1.1,1.2,1.6l-0.2,0.2c-2.3-1.6-5.5-1.4-7.6,0.6c-2.1,2.1-2.3,5.3-0.6,7.6l-0.2,0.2L34,29.5c-2-2-5.1-1.9-7.1,0
		L26.5,30c-0.9,0.9-1.5,2.2-1.5,3.5s0.5,2.6,1.5,3.5l0.7,0.7L27,38c-1-0.7-2.2-1.1-3.4-1.1c-1.6,0-3.1,0.6-4.2,1.7
		c-1.1,1.1-1.7,2.6-1.7,4.2c0,1.4,0.5,2.7,1.3,3.7L18,47.5c-2.7-2-6.7-1.8-9.1,0.7c-1.3,1.3-2,3.1-2,4.9c0,1.9,0.7,3.6,2,4.9
		c0.2,0.2,0.5,0.3,0.7,0.3s0.5-0.1,0.7-0.3c0.4-0.4,0.4-1,0-1.4c-0.9-0.9-1.5-2.2-1.5-3.5s0.5-2.6,1.5-3.5c1.9-1.9,5.1-2,7.1,0
		c0.4,0.4,1,0.4,1.4,0l1.6-1.6C21.4,48.5,22.4,48.8,23.5,48.8z M42.5,15.1h2.3c0.6,0,1-0.4,1-1s-0.4-1-1-1h-2.5
		c-0.1-1.5,0.1-3.1,0.5-4.6C44.3,9,47.4,10,49,10.6c-0.6,2.4-0.6,4.4,0,6.1c0,0,0,0,0,0c0.7,2,2.3,3.6,4.7,4.6l0.2,0.1
		c0.3,0.1,0.7,0.1,0.9-0.1l3-1.8c1,1.7,0.5,3.9-0.2,5.5c-0.8,1.7-2.1,2.9-3.3,3.1l-1-3.6c-0.1-0.4-0.5-0.7-0.9-0.7
		c-0.5,0-1-0.1-1.5-0.2c0,0,0,0,0,0c-0.8-0.1-1.6-0.4-2.4-0.7l0.7-2.1c0.2-0.5-0.1-1.1-0.7-1.3c-0.5-0.2-1.1,0.1-1.3,0.7l-0.5,1.7
		c-1.1-0.8-2.1-1.8-2.8-3.1C43.3,17.7,42.8,16.5,42.5,15.1z M37,23.8c0.8-0.8,1.8-1.1,2.8-1.1s2,0.4,2.8,1.1
		c0.7,0.7,1.2,1.7,1.2,2.8c0,1-0.4,2-1.2,2.8c-1.5,1.5-4,1.5-5.6,0S35.5,25.4,37,23.8z M27,33.5c0-0.8,0.3-1.6,0.9-2.1l0.5-0.5
		c0.6-0.6,1.4-0.9,2.1-0.9c0.8,0,1.5,0.3,2.1,0.9l1.4,1.4l1.4,1.4c1.2,1.2,1.2,3.1,0,4.2L35,38.5c-1.1,1.1-3.1,1.1-4.2,0l-1.4-1.4
		c0,0,0,0,0,0s0,0,0,0l-1.4-1.4C27.3,35.1,27,34.3,27,33.5z M20.8,40.1c0.7-0.7,1.7-1.2,2.8-1.2s2,0.4,2.8,1.2s1.2,1.7,1.2,2.8
		s-0.4,2-1.2,2.8c-1.5,1.5-4.1,1.5-5.6,0c-0.7-0.7-1.2-1.7-1.2-2.8S20,40.8,20.8,40.1z"/>
	<path class="st0" d="M71.1,22.2c-0.4-0.4-1-0.4-1.4,0s-0.4,1,0,1.4c0.9,0.9,1.5,2.2,1.5,3.5c0,1.3-0.5,2.6-1.5,3.5
		c-1.9,1.9-5.1,1.9-7.1,0c-0.4-0.4-1-0.4-1.4,0l-1.4,1.4c-2.3-1.6-5.5-1.4-7.6,0.6c-2.1,2.1-2.3,5.3-0.6,7.6l-0.2,0.2l-0.7-0.7
		c-1.9-1.9-5.1-2-7.1,0l-0.5,0.5c-1.9,1.9-1.9,5.1,0,7.1l0.7,0.7l-0.2,0.2c-2.3-1.6-5.5-1.4-7.6,0.6c-2.1,2.1-2.3,5.3-0.6,7.6
		l-0.2,0.2c-0.1-0.1-0.1-0.1-0.2-0.2c0,0,0,0-0.1-0.1c0,0,0,0,0,0c-0.4-0.3-0.8-0.6-1.3-0.9c-1.8-1.1-4-1.8-6.2-1.9
		c-0.1,0-0.2-0.1-0.3-0.1c-0.1,0-0.1,0-0.2,0c-2.1-0.1-4.2,0.2-6.3,0.9c-0.5,0.2-0.8,0.7-0.7,1.2c0.2,0.8,2.2,6.9,2.9,8.3
		c0.2,0.4,0.7,0.7,1.2,0.5c1.6-0.5,2.9-0.6,4-0.6l-5.6,5.6c-0.4,0.4-0.4,1,0,1.4c0.2,0.2,0.5,0.3,0.7,0.3s0.5-0.1,0.7-0.3l6.5-6.5
		c1.6,0.8,2.4,2.1,2.8,3.1l-2,3.3c-0.3,0.4-0.2,0.9,0.2,1.3c1.1,1,2.7,1.6,4.3,1.6c1.3,0,2.7-0.3,4-1c2.8-1.3,4.5-3.7,4.3-5.9
		c0-0.4-0.3-0.8-0.7-0.9l-3.7-1c0-0.3-0.1-0.7-0.1-1c-0.4-2.2-1.3-4.2-2.7-5.8l0.2-0.2c1,0.7,2.2,1.1,3.4,1.1c1.5,0,3-0.6,4.2-1.7
		c2.1-2.1,2.3-5.3,0.6-7.6l0.2-0.2l0.7,0.7c0.9,0.9,2.2,1.5,3.5,1.5c1.3,0,2.6-0.5,3.5-1.5l0.5-0.5c1.9-1.9,1.9-5.1,0-7.1L52.8,42
		l0.2-0.2c1,0.7,2.2,1.1,3.4,1.1c1.5,0,3-0.6,4.2-1.7c2.1-2.1,2.3-5.3,0.6-7.6l0.7-0.7c2.7,2.1,6.7,1.8,9.1-0.7
		C73.8,29.4,73.8,24.9,71.1,22.2z M37.2,64.4C37.2,64.4,37.2,64.4,37.2,64.4c0.1,0.5,0.1,1,0.2,1.5c0,0.4,0.3,0.8,0.7,0.9l3.6,1
		c-0.3,1.2-1.5,2.4-3.1,3.3c-1.5,0.7-3.8,1.2-5.5,0.2l1.8-3c0.2-0.3,0.2-0.6,0.1-0.9L35,67.1c-1.1-2.4-2.6-3.9-4.6-4.7
		c0,0,0,0-0.1,0c-1.7-0.6-3.7-0.6-6.1,0c-0.6-1.6-1.7-4.7-2.2-6.2c1.3-0.4,2.7-0.5,4-0.5v3.7c0,0.6,0.4,1,1,1s1-0.4,1-1v-3.6
		c1.6,0.2,3.1,0.7,4.4,1.5c0.2,0.1,0.3,0.2,0.5,0.3l-1.2,2c-0.3,0.5-0.1,1.1,0.3,1.4c0.2,0.1,0.3,0.1,0.5,0.1c0.3,0,0.7-0.2,0.9-0.5
		l1-1.7C35.9,60.4,36.9,62.3,37.2,64.4z M43,55.9c-1.5,1.5-4,1.5-5.6,0s-1.5-4,0-5.6c0.8-0.8,1.8-1.1,2.8-1.1c1,0,2,0.4,2.8,1.1
		c0,0,0,0,0,0s0,0,0,0C44.5,51.9,44.5,54.4,43,55.9z M52.1,48.3l-0.5,0.5c0,0,0,0,0,0c-1.1,1.1-3.1,1.1-4.2,0l-1.4-1.4L44.5,46
		c-1.2-1.2-1.2-3.1,0-4.2l0.5-0.5c0.6-0.6,1.4-0.9,2.1-0.9c0.8,0,1.5,0.3,2.1,0.9l1.4,1.4l1.4,1.4C53.2,45.3,53.2,47.2,52.1,48.3z
		 M59.2,39.7c-1.5,1.5-4,1.5-5.6,0c-1.5-1.5-1.5-4,0-5.6c1.5-1.5,4-1.5,5.6,0C60.7,35.7,60.7,38.2,59.2,39.7z"/>
</g>
</svg>
