<?xml version="1.0" encoding="utf-8"?>
<!-- Generator: Adobe Illustrator 24.3.0, SVG Export Plug-In . SVG Version: 6.00 Build 0)  -->
<svg version="1.1" id="Layer_1" xmlns="http://www.w3.org/2000/svg" xmlns:xlink="http://www.w3.org/1999/xlink" x="0px" y="0px"
	 width="80px" height="80px" viewBox="0 0 80 80" style="enable-background:new 0 0 80 80;" xml:space="preserve">
<style type="text/css">
	.st0{fill:#FFFFFF;}
</style>
<g>
	<g>
		<path class="st0" d="M24,69.7L24,69.7c-4,0-7.6-1.6-10.5-4.7C9.7,61,7.7,54.6,8.2,47.6C9,34.1,13.5,25.5,24.4,17.1
			c5.8-4.5,12.3-6.8,19-6.8c7.7,0,15.3,3.2,22,9.3c6.1,5.6,8.1,13.3,5.3,20.5C67.4,48.4,58.8,53.7,49.5,53c-0.7-0.1-1.4-0.1-2-0.1
			c-6.6,0-7.7,2.6-9.4,6.5c-1.3,3.2-3,7.1-8.2,9.1C27.9,69.3,26,69.7,24,69.7z M43.4,12.3c-6.2,0-12.4,2.2-17.8,6.4
			c-10.3,8-14.7,16.2-15.5,29.1C9.8,54.2,11.5,60,15,63.7c2.5,2.6,5.6,4,9.1,4c1.7,0,3.4-0.3,5.1-1c4.4-1.7,5.8-4.9,7.1-8
			c1.7-4,3.3-7.8,11.2-7.8c0.7,0,1.4,0,2.2,0.1c0.5,0,1,0.1,1.5,0.1c7.8,0,14.9-4.7,17.6-11.7c2.5-6.4,0.7-13.3-4.8-18.3
			C57.8,15.3,50.6,12.3,43.4,12.3z"/>
	</g>
	<g>
		<path class="st0" d="M23.7,61.1c-1,0-2-0.1-3.3-0.3c-0.5-0.1-0.9-0.6-0.8-1.2c0.1-0.5,0.6-0.9,1.2-0.8c1.2,0.2,2.1,0.3,3,0.3
			c2.8,0,4.7-1.1,5.7-3.4c0.2-0.5,0.8-0.7,1.3-0.5c0.5,0.2,0.7,0.8,0.5,1.3C29.8,59.6,27.3,61.1,23.7,61.1z"/>
	</g>
	<g>
		<path class="st0" d="M22.9,65.5l-0.3,0c-5,0-8.4-4.5-9.4-12.2c-1.1-8.7-0.1-18.1,4.9-19.5c0.4-0.1,0.8-0.2,1.2-0.2
			c2.9,0,7.5,2.4,11.9,4.9c0.3,0.2,0.8,0.4,1.4,0.7c3.9,2,8.2,4.4,9.2,6.9c0.4,1,0.7,1.7,0,2.4l-0.1,0.1c-1.1,1.1-2.1,1.9-3,2.6
			c-1.5,1.1-2.6,2-3.4,3.6c-0.3,0.5-0.4,1.2-0.6,2C33.8,60.3,32.5,65.5,22.9,65.5z M19.3,35.7c-0.3,0-0.5,0-0.7,0.1
			C15.5,36.6,14,44,15.2,53c0.9,6.6,3.6,10.4,7.5,10.5l0.2,0c8,0,9-3.8,9.8-7.1c0.2-0.9,0.4-1.8,0.8-2.5c1-2,2.5-3.1,4-4.3
			c0.9-0.7,1.8-1.4,2.7-2.3c-0.1-0.1-0.1-0.3-0.2-0.4c-0.8-2-5.9-4.6-8.3-5.9c-0.6-0.3-1.1-0.6-1.5-0.8
			C27.9,38.9,22.1,35.7,19.3,35.7z"/>
	</g>
	<g>
		<path class="st0" d="M52.6,48.8c-2.5,0-4.7-1-6.4-2.9c-3.8-4.3-12.6-8.6-18.4-11.5c-4.6-2.3-6.1-3.1-6.7-4.1
			c-0.5-0.9-0.4-1.9,0.2-3.1c2.2-3.8,12.5-12.8,22.7-12.8c9,0,19.9,8.5,23.2,15.9c2.7,5.9-2.2,12.7-5.3,14.9
			C60.3,46.2,56.6,48.8,52.6,48.8z M44,16.4c-9.4,0-19.3,8.8-21,11.8c-0.4,0.7-0.3,1-0.3,1.1c0.3,0.5,2.5,1.6,5.9,3.3
			c5.9,2.9,14.9,7.4,19,12c1.3,1.5,3,2.3,4.9,2.3c3.4,0,6.8-2.3,8.2-3.3c2.2-1.6,6.9-7.5,4.6-12.4C62.3,24.3,52.3,16.4,44,16.4z"/>
	</g>
	<g>
		<path class="st0" d="M57.8,39.1c-2.4,0-4.4-2-4.4-4.4s2-4.4,4.4-4.4s4.4,2,4.4,4.4S60.2,39.1,57.8,39.1z M57.8,32.3
			c-1.3,0-2.4,1.1-2.4,2.4c0,1.3,1.1,2.4,2.4,2.4c1.3,0,2.4-1.1,2.4-2.4C60.2,33.4,59.1,32.3,57.8,32.3z"/>
	</g>
</g>
</svg>
