<?xml version="1.0" encoding="utf-8"?>
<!-- Generator: Adobe Illustrator 24.3.0, SVG Export Plug-In . SVG Version: 6.00 Build 0)  -->
<svg version="1.1" id="Layer_1" xmlns="http://www.w3.org/2000/svg" xmlns:xlink="http://www.w3.org/1999/xlink" x="0px" y="0px"
	 width="80px" height="80px" viewBox="0 0 80 80" style="enable-background:new 0 0 80 80;" xml:space="preserve">
<style type="text/css">
	.st0{fill:#FFFFFF;}
</style>
<g>
	<path class="st0" d="M15.8,34.8c-0.2,0.2-0.3,0.4-0.3,0.7c0,0.3,0.1,0.5,0.3,0.7c0.2,0.2,0.4,0.3,0.7,0.3c0.3,0,0.5-0.1,0.7-0.3
		c0.2-0.2,0.3-0.4,0.3-0.7c0-0.3-0.1-0.5-0.3-0.7C16.8,34.4,16.1,34.4,15.8,34.8z"/>
	<path class="st0" d="M24.3,33.3c0.3,0,0.5-0.1,0.7-0.3c0.2-0.2,0.3-0.4,0.3-0.7c0-0.3-0.1-0.5-0.3-0.7c-0.4-0.4-1-0.4-1.4,0
		c-0.2,0.2-0.3,0.4-0.3,0.7c0,0.3,0.1,0.5,0.3,0.7C23.8,33.2,24.1,33.3,24.3,33.3z"/>
	<path class="st0" d="M26.6,39c0.3,0,0.5-0.1,0.7-0.3c0.2-0.2,0.3-0.4,0.3-0.7c0-0.3-0.1-0.5-0.3-0.7c-0.3-0.3-0.7-0.4-1.1-0.2
		c-0.1,0-0.2,0.1-0.3,0.2c-0.2,0.2-0.3,0.4-0.3,0.7c0,0.3,0.1,0.5,0.3,0.7C26.1,38.9,26.3,39,26.6,39z"/>
	<path class="st0" d="M18.6,36.9c-0.1,0.1-0.2,0.2-0.2,0.3s-0.1,0.2-0.1,0.4c0,0.1,0,0.3,0.1,0.4s0.1,0.2,0.2,0.3
		c0.2,0.2,0.4,0.3,0.7,0.3c0.3,0,0.5-0.1,0.7-0.3c0.2-0.2,0.3-0.4,0.3-0.7c0-0.3-0.1-0.5-0.3-0.7C19.6,36.5,18.9,36.5,18.6,36.9z"/>
	<path class="st0" d="M27.7,35.3c0.3,0,0.5-0.1,0.7-0.3c0.2-0.2,0.3-0.4,0.3-0.7c0-0.3-0.1-0.5-0.3-0.7c-0.3-0.3-0.7-0.4-1.1-0.2
		c-0.1,0.1-0.2,0.1-0.3,0.2c-0.1,0.1-0.2,0.2-0.2,0.3c0,0.1-0.1,0.3-0.1,0.4c0,0.3,0.1,0.5,0.3,0.7C27.2,35.2,27.5,35.3,27.7,35.3z"
		/>
	<path class="st0" d="M22.8,37c0.1,0,0.2,0.1,0.4,0.1c0.3,0,0.5-0.1,0.7-0.3c0.2-0.2,0.3-0.4,0.3-0.7c0-0.3-0.1-0.5-0.3-0.7
		c-0.4-0.4-1-0.4-1.4,0c-0.1,0.1-0.2,0.2-0.2,0.3c-0.1,0.1-0.1,0.2-0.1,0.4c0,0.3,0.1,0.5,0.3,0.7C22.6,36.9,22.7,36.9,22.8,37z"/>
	<path class="st0" d="M54.5,32.8c-0.6,0-1,0.3-1.1,0.9l0,0.1c-0.1,0.5,0.3,1,0.9,1.1c0,0,0.1,0,0.1,0c0.5,0,0.9-0.4,1-0.9l0-0.1
		C55.5,33.3,55.1,32.8,54.5,32.8z"/>
	<path class="st0" d="M50,36.8c-0.5,0-1,0.3-1.1,0.9l0,0.1c-0.1,0.5,0.3,1,0.9,1.1c0,0,0.1,0,0.1,0c0.5,0,0.9-0.4,1-0.9l0-0.1
		C50.9,37.3,50.5,36.8,50,36.8z"/>
	<path class="st0" d="M53.4,36.1c-0.5,0-1,0.3-1.1,0.9l0,0.1c-0.1,0.5,0.3,1,0.9,1.1c0,0,0.1,0,0.1,0c0.5,0,0.9-0.4,1-0.9l0-0.1
		C54.4,36.7,54,36.2,53.4,36.1z"/>
	<path class="st0" d="M50.6,32.9c-0.6,0-1,0.3-1.1,0.9l0,0.1c-0.1,0.5,0.3,1,0.9,1.1c0,0,0.1,0,0.1,0c0.5,0,0.9-0.4,1-0.9l0-0.1
		C51.6,33.5,51.2,33,50.6,32.9z"/>
	<path class="st0" d="M57.5,36.4c-0.6,0-1,0.3-1.1,0.9l0,0.1c-0.1,0.5,0.3,1,0.9,1.1c0,0,0.1,0,0.1,0c0.5,0,0.9-0.4,1-0.9l0-0.1
		C58.5,37,58.1,36.5,57.5,36.4z"/>
	<path class="st0" d="M40.1,36.1C40.1,36,40,36,40,35.9c-0.1,0-0.1-0.1-0.2-0.1c-0.4-0.2-0.8-0.1-1.1,0.2c-0.1,0.1-0.2,0.2-0.2,0.3
		c-0.1,0.1-0.1,0.2-0.1,0.4c0,0.3,0.1,0.5,0.3,0.7c0.2,0.2,0.4,0.3,0.7,0.3c0.1,0,0.3,0,0.4-0.1c0.1,0,0.2-0.1,0.3-0.2
		c0.2-0.2,0.3-0.4,0.3-0.7c0-0.1,0-0.3-0.1-0.4C40.3,36.3,40.2,36.2,40.1,36.1z"/>
	<path class="st0" d="M35.9,36.1c-0.4-0.4-1-0.4-1.4,0c-0.2,0.2-0.3,0.4-0.3,0.7c0,0.3,0.1,0.5,0.3,0.7c0.2,0.2,0.4,0.3,0.7,0.3
		c0.3,0,0.5-0.1,0.7-0.3c0.2-0.2,0.3-0.4,0.3-0.7c0-0.1,0-0.3-0.1-0.4C36,36.3,36,36.2,35.9,36.1z"/>
	<path class="st0" d="M73.1,37.5c0-1.8-5.4-4.6-11.6-5.2c0.1-1.1,0-2.3-0.3-3.4c-0.7-2.5-2.4-4.2-4.7-5c0.4-1,0.4-2.1-0.1-3
		c-0.5-1-1.6-1.7-2.7-1.9c0.2-1,0-1.9-0.5-2.6c-0.6-0.9-1.7-1.5-2.6-2l-0.3-0.2c-1.6-0.9-2.9-3.1-3.3-4.1c-0.1-0.4-0.5-0.7-0.9-0.7
		c-0.4,0-0.8,0.2-1,0.6c-0.6,1.2-2,2.2-4.2,3.1c-0.7,0.3-1.4,0.5-2,0.7c-1.4,0.5-2.8,1-4.1,1.7c-2.2,1.2-3.6,3-3.7,4.8
		c-0.9,0.2-2,0.5-2.8,1c-1.4,0.9-2,2.4-1.6,3.6c0.1,0.4,0.4,0.8,0.7,1.2c-0.3,0.5-0.6,1-0.7,1.5c0-0.1,0-0.2,0-0.2
		c0-0.3-0.2-0.5-0.4-0.7c-0.1,0-1.3-0.8-2.9-0.9c0-0.8-0.3-1.6-0.9-2.3c-0.3-0.3-0.7-0.5-1.1-0.3c-0.5,0.2-2.1,1.3-3.2,2.4L18,25.1
		c-0.5-1.2,0.4-2.6,0.4-2.6c0.3-0.5,0.2-1.1-0.3-1.4c-0.5-0.3-1.1-0.2-1.4,0.3c-0.1,0.1-1.5,2.3-0.7,4.5l0.2,0.5
		c-1.4-0.2-2.8,0-3.5,0.3c-0.4,0.1-0.6,0.5-0.6,0.9c0,0.8,0.3,1.7,0.9,2.4c-1.3,1.1-1.8,2.7-1.9,2.7c-0.1,0.3-0.1,0.6,0.1,0.9
		c0.1,0.2,0.3,0.3,0.5,0.4c-0.1,0.1-0.1,0.2-0.2,0.3c-1.4,0.4-4.7,1.5-4.7,3.3c0,0,0,0,0,0c0,0,0,0,0,0c0,0,0,0,0,0s0,0,0,0
		c0,0.2,0,5.3,2.7,11.2c2.5,5.4,8,12.5,19.5,15.7c0.1,0,0.3,0.2,0.4,0.4c0.4,0.4,0.8,0.8,1.4,0.9c2.7,0.6,5.7,0.9,8.8,0.9
		c2.9,0,5.6-0.3,8.2-0.7c0.6-0.1,1-0.5,1.4-0.9c0.1-0.1,0.3-0.3,0.3-0.3c20.9-5.1,23.1-22.8,23.3-26.3c0-0.4,0-0.6,0-0.6
		C73.1,37.6,73.1,37.6,73.1,37.5C73.1,37.6,73.1,37.5,73.1,37.5z M48,63.5c-0.1,0.1-0.3,0.3-0.3,0.3c-2.4,0.5-5,0.7-7.8,0.7
		c-3,0-5.8-0.3-8.4-0.8c-0.1,0-0.3-0.3-0.5-0.4c-0.3-0.3-0.7-0.7-1.3-0.9c-16.7-4.5-20-17.5-20.7-22.7c0.5,0.2,1.2,0.5,1.9,0.7
		c0.2,0.1,0.4,0.1,0.6,0.2c0.4,0.1,0.9,0.2,1.3,0.4c0.4,0.1,0.9,0.2,1.4,0.3c1.1,0.2,2.4,0.5,3.9,0.7c0.3,0,0.5,0.1,0.8,0.1
		c1.7,0.2,3.6,0.4,5.8,0.5c0.6,0,1.2,0.1,1.8,0.1c0,0,0,0,0,0c0.3,0,0.6,0,1,0c0.3,0,0.7,0,1,0c0.1,0,0.3,0,0.4,0c0.3,0,0.6,0,0.9,0
		c0.1,0,0.1,0,0.2,0c0.3,0,0.7,0,1.1,0c0,0,0.1,0,0.1,0c1.1,0,2.2,0,3.4,0.1c0.5,0,1.1,0,1.6,0c0.8,0,1.7,0,2.6,0c0.4,0,0.9,0,1.3,0
		c0,0,0,0,0,0c0.1,0,0.2,0,0.4,0c0.6,0,1.4,0,2.5,0c0.2,0,0.4,0,0.6,0c0.4,0,0.7,0,1.1,0c0.3,0,0.6,0,0.9,0c0.1,0,0.1,0,0.2,0
		c0.3,0,0.7,0,1,0c0.3,0,0.7,0,1,0c4.6-0.2,10.3-0.5,15.2-1.2c0.7-0.1,1.4-0.2,2.1-0.3c2.4-0.4,4.5-0.9,5.9-1.6
		c-0.7,5.3-4.3,18.6-21.6,22.9C48.7,62.7,48.3,63.1,48,63.5z M58.9,36C58.9,36.1,59,36.1,58.9,36c0.5,0.2,1,0.3,1.4,0.4
		c1.7,0.4,2.8,0.6,2.7,2.9c0,0,0,0.1,0,0.1c-0.7,0.1-1.4,0.2-2.1,0.3c-0.1-0.3-0.4-0.6-0.8-0.6c-0.5,0-1,0.3-1.1,0.8
		c-0.6,0.1-1.3,0.1-1.9,0.2c-0.1-0.4-0.4-0.8-0.9-0.9c-0.5,0-1,0.3-1.1,0.9l0,0.1c0,0,0,0,0,0c-0.5,0-1.1,0.1-1.6,0.1
		c-0.2-0.3-0.4-0.5-0.8-0.5c-0.4,0-0.8,0.2-1,0.6c-0.9,0.1-1.9,0.1-2.9,0.1c-0.1-0.1-0.3-0.2-0.5-0.2c-0.3,0-0.5,0.1-0.7,0.2
		c-0.1,0-0.3,0-0.4,0c-0.3-0.9-0.6-1.7-1.1-2.6c0.7-2.5,2-4.9,3.5-6.2c1-0.8,2.1-1.3,3.3-1.3c0.6,0,1.3,0.1,1.9,0.3
		c0.1,0,0.2,0.1,0.3,0.3c0.8,1.7,1.8,3.6,3.1,4.4C58.4,35.9,58.7,36,58.9,36z M43.6,40.9c-0.5,0-0.9,0-1.4,0
		c0.1-0.2,0.2-0.3,0.2-0.5c0-0.3-0.1-0.5-0.3-0.7c-0.1-0.1-0.2-0.2-0.3-0.2c-0.4-0.2-0.8-0.1-1.1,0.2c-0.2,0.2-0.3,0.4-0.3,0.7
		c0,0.2,0.1,0.4,0.2,0.5c-0.2,0-0.3,0-0.5,0c-0.7,0-1.4,0-2.1,0c0.1-0.1,0.1-0.3,0.1-0.5c0-0.3-0.1-0.5-0.3-0.7
		c-0.1-0.1-0.2-0.2-0.3-0.2c-0.4-0.2-0.8-0.1-1.1,0.2c-0.2,0.2-0.3,0.5-0.3,0.7c0,0.2,0.1,0.3,0.1,0.5c-0.8,0-1.6,0-2.4-0.1
		c0-0.1,0.1-0.2,0.1-0.3c0-0.1,0-0.3-0.1-0.4c-0.1-0.1-0.1-0.2-0.2-0.3c-0.4-0.4-1-0.4-1.4,0c-0.2,0.2-0.3,0.5-0.3,0.7
		c0,0.1,0,0.2,0.1,0.3c-0.1,0-0.2,0-0.3,0c-0.3,0-0.7,0-1,0c-0.3,0-0.7,0-1,0c-0.1,0-0.3,0-0.4,0c0.2-0.6,0.5-1.1,0.7-1.7
		c0.3-0.7,0.7-1.3,1.1-2c0.1-0.1,0.2-0.3,0.2-0.4c0.2-0.3,0.5-0.7,0.7-1c1.6-2.1,3.5-3.3,5-3.3c0,0,0,0,0.1,0c2.4,0,5.3,2.8,7.1,6
		c0.5,0.8,0.8,1.6,1.1,2.4C44.6,40.9,44.1,40.9,43.6,40.9z M21.3,34.8c0.7-0.9,1-2.1,1-3.7c1-0.3,1.9-0.9,2.6-1.4
		c1.4,0.1,3.5,0.8,4.5,3.2c0.2,0.6,0.4,1.3,0.5,2.1c-0.1,0.1-0.2,0.3-0.3,0.4c-1.1,1.6-2,3.4-2.5,5.1c-1.3-0.1-2.6-0.2-3.8-0.3
		c0,0,0,0,0.1,0c0.2-0.2,0.3-0.4,0.3-0.7c0-0.1,0-0.3-0.1-0.4c0-0.1-0.1-0.2-0.2-0.3c-0.4-0.4-1-0.4-1.4,0c-0.1,0.1-0.2,0.2-0.2,0.3
		c0,0.1-0.1,0.2-0.1,0.4c0,0.2,0.1,0.4,0.2,0.6c-2.1-0.2-4-0.4-5.6-0.7c0-0.1,0.1-0.2,0.1-0.3c0-0.3-0.1-0.5-0.3-0.7
		c-0.4-0.4-1-0.4-1.4,0c-0.2,0.2-0.3,0.4-0.3,0.7c-0.5-0.1-0.9-0.2-1.3-0.3c-0.7-2.2,0.3-3.9,1.2-4.9c0.9-0.1,1.9-0.3,2.9-0.8
		c1,1,2,1.6,3.2,1.9c0.1,0,0.2,0,0.3,0C20.8,35.2,21.1,35.1,21.3,34.8z M70.8,37.5c-0.6,0.3-2.2,1-5.7,1.7c-0.1-3.6-2.5-4.2-4.1-4.6
		c0-0.1,0.1-0.2,0.1-0.3C66.3,34.8,69.7,36.6,70.8,37.5z M29.4,27.3c0.5,0.1,1.1,0.2,1.7,0.2c0.5,0,1,0,1.6-0.1
		c0.5-0.1,0.9-0.6,0.9-1.1c-0.1-0.5-0.6-0.9-1.1-0.9c-1.1,0.1-1.9,0.1-2.5,0c-0.7-0.2-1.2-0.6-1.3-0.9c-0.1-0.4,0.2-1,0.8-1.3
		c0.8-0.5,1.9-0.7,2.8-0.8c0.3,0,0.6-0.1,0.8-0.1c0.9-0.1,1.8-0.2,2.7-0.5c0.5-0.2,0.8-0.7,0.7-1.2c-0.2-0.5-0.7-0.8-1.2-0.7
		c-0.6,0.2-1.3,0.3-2,0.4c0.4-1.1,1.5-2.1,2.6-2.7c1.1-0.6,2.4-1.1,3.7-1.5c0.7-0.2,1.4-0.5,2.1-0.8c1.9-0.7,3.2-1.6,4.2-2.6
		c0.7,1.3,1.9,2.8,3.4,3.6l0.3,0.2c0.7,0.4,1.5,0.8,1.9,1.3c0.4,0.6,0.2,1.3-0.1,1.9c0,0.1-0.1,0.2-0.1,0.2c0,0-0.1,0.1-0.1,0.1
		c-1.4,2.5-4.8,3.7-7.6,4.4c-0.5,0.1-0.9,0.7-0.7,1.2c0.1,0.5,0.5,0.8,1,0.8c0.1,0,0.2,0,0.2,0c3.1-0.8,6.9-2.1,8.7-5.2
		c0.7,0,1.4,0.5,1.7,0.9c0.4,0.7,0.1,1.5-0.3,2c-0.5,0.7-1.4,1.3-2.6,1.7c-0.5,0.2-0.8,0.8-0.6,1.3c0.2,0.4,0.5,0.6,0.9,0.6
		c0.1,0,0.2,0,0.4-0.1c1.2-0.5,2.2-1,2.9-1.7c2.5,0.6,3.6,2.3,4,3.8c0.5,1.7,0.3,3.4-0.2,4.3c-0.9-0.8-1.8-2.7-2.1-3.4
		c-0.3-0.6-0.8-1-1.4-1.2c-2.6-0.9-5.2-0.4-7.2,1.3c-1.4,1.2-2.6,3.2-3.5,5.4c-2.1-3.1-5-5.6-7.9-5.6c0,0-0.1,0-0.1,0
		c-1.7,0-3.6,1-5.3,2.8c-0.1-0.3-0.2-0.6-0.3-0.9c-0.6-1.4-1.5-2.5-2.8-3.3c0.1-0.6,0.4-1.2,0.7-1.7C29.3,27.2,29.4,27.3,29.4,27.3z
		 M15.1,31c0.3-0.1,0.6-0.5,0.6-0.8c0-0.4-0.1-0.7-0.4-0.9c-0.3-0.2-0.7-0.6-0.9-1c0.8-0.1,1.9-0.1,2.8,0.2l0.3,0.7l1.9-0.7L19,27.8
		c0.4-0.5,1.5-1.5,2.3-2.1c0.1,0.4,0,0.7-0.1,1.1c-0.2,0.4-0.1,0.8,0.2,1.1c0.3,0.3,0.7,0.4,1.1,0.3c0.5-0.2,1-0.2,1.4-0.1
		c-0.7,0.6-1.7,1.2-2.8,1.4c-0.5,0.1-0.8,0.5-0.8,1c0,0,0,0,0,0c0.1,1,0,1.9-0.3,2.5c-0.7-0.3-1.4-0.9-2-1.6c0,0,0,0,0,0
		c-0.2-0.2-0.5-0.3-0.8-0.3c-0.2,0-0.4,0.1-0.5,0.2c-0.9,0.6-2,0.8-2.9,0.9C14.2,31.6,14.6,31.2,15.1,31z M10.9,36.6
		c-0.1,0.5-0.1,1.1,0,1.6c-0.8-0.3-1.3-0.6-1.6-0.8C9.6,37.2,10.1,36.9,10.9,36.6z"/>
</g>
</svg>
