<svg id="Layer_4" data-name="Layer 4" xmlns="http://www.w3.org/2000/svg" viewBox="0 0 293.79 276.56"><defs><style>.cls-1{fill: #fc9e00;}</style></defs><title>Circular_Shape_01</title><path class="cls-1" d="M140.23,267.84A123.11,123.11,0,0,1,119.15,266c-30-5.24-58.78-21.59-81.07-46.06C8.13,187-4.53,153.79,1.45,123.77c5.92-29.7,30-55.84,67.89-73.6l.21.45-.21-.45C101.68,35,134.15,28.72,163.32,32c32,3.51,58.5,18.71,76.52,44,18.61,26,25.61,58,19.71,90.06a125.21,125.21,0,0,1-50.93,79.5C187.94,260.28,164.61,267.84,140.23,267.84Zm8-235.73c-24.94,0-51.78,6.46-78.5,19C32.2,68.73,8.28,94.61,2.43,124c-5.92,29.69,6.67,62.63,36.39,95.26C61,243.52,89.55,259.76,119.32,265a121.11,121.11,0,0,0,20.91,1.84c24.18,0,47.3-7.5,67.81-22.13a124.25,124.25,0,0,0,50.53-78.87c5.85-31.78-1.09-63.52-19.55-89.38-17.84-25-44.06-40.07-75.81-43.55a135.83,135.83,0,0,0-15-.76Z" transform="translate(-0.01 -8.64)"/><path class="cls-1" d="M160,285.2c-73.78,0-133.81-62-133.81-138.28S86.18,8.64,160,8.64s133.81,62,133.81,138.28S233.77,285.2,160,285.2ZM160,9.64C86.76,9.64,27.18,71.23,27.18,147S86.76,284.24,160,284.24,292.8,222.62,292.8,147,233.22,9.64,160,9.64Z" transform="translate(-0.01 -8.64)"/><path class="cls-1" d="M149.41,266.4a108.6,108.6,0,0,1-17.91-1.51c-65.23-10.9-109.14-74.61-97.88-142C39,90.69,55.87,63.8,82.41,45.16c24.91-17.51,56.84-26.3,89.89-24.76,44.38,2,76.88,16.56,93.88,42,16.82,25.19,18.26,60.72,4,100.05-12.13,33.57-30.64,61-53.53,79.38C196.5,258.07,173.52,266.4,149.41,266.4ZM164.9,21.19c-30.19,0-59,8.68-81.91,24.76C56.67,64.44,40,91.09,34.61,123,23.43,189.9,67,253.09,131.68,264c30.3,5.06,59.48-2.83,84.4-22.82,22.74-18.25,41.14-45.54,53.21-78.94l.47.17-.47-.17C283.39,123.2,282,88,265.36,63c-16.82-25.18-49-39.57-93.09-41.63C169.8,21.25,167.34,21.19,164.9,21.19Z" transform="translate(-0.01 -8.64)"/></svg>